<svg width="32" height="32" viewBox="0 0 32 32" fill="none" xmlns="http://www.w3.org/2000/svg">
<path d="M7.5 12.75C8.19036 12.75 8.75 12.1904 8.75 11.5C8.75 10.8096 8.19036 10.25 7.5 10.25C6.80964 10.25 6.25 10.8096 6.25 11.5C6.25 12.1904 6.80964 12.75 7.5 12.75Z" fill="black"/>
<path d="M16 12.75C16.6904 12.75 17.25 12.1904 17.25 11.5C17.25 10.8096 16.6904 10.25 16 10.25C15.3096 10.25 14.75 10.8096 14.75 11.5C14.75 12.1904 15.3096 12.75 16 12.75Z" fill="black"/>
<path d="M24.5 12.75C25.1904 12.75 25.75 12.1904 25.75 11.5C25.75 10.8096 25.1904 10.25 24.5 10.25C23.8096 10.25 23.25 10.8096 23.25 11.5C23.25 12.1904 23.8096 12.75 24.5 12.75Z" fill="black"/>
<path d="M7.5 21.75C8.19036 21.75 8.75 21.1904 8.75 20.5C8.75 19.8096 8.19036 19.25 7.5 19.25C6.80964 19.25 6.25 19.8096 6.25 20.5C6.25 21.1904 6.80964 21.75 7.5 21.75Z" fill="black"/>
<path d="M16 21.75C16.6904 21.75 17.25 21.1904 17.25 20.5C17.25 19.8096 16.6904 19.25 16 19.25C15.3096 19.25 14.75 19.8096 14.75 20.5C14.75 21.1904 15.3096 21.75 16 21.75Z" fill="black"/>
<path d="M24.5 21.75C25.1904 21.75 25.75 21.1904 25.75 20.5C25.75 19.8096 25.1904 19.25 24.5 19.25C23.8096 19.25 23.25 19.8096 23.25 20.5C23.25 21.1904 23.8096 21.75 24.5 21.75Z" fill="black"/>
</svg>
