<svg width="32" height="32" viewBox="0 0 32 32" fill="none" xmlns="http://www.w3.org/2000/svg">
<path d="M16 28C22.6274 28 28 22.6274 28 16C28 9.37258 22.6274 4 16 4C9.37258 4 4 9.37258 4 16C4 22.6274 9.37258 28 16 28Z" stroke="black" stroke-width="1.5" stroke-linecap="round" stroke-linejoin="round"/>
<path d="M13 10.5H19L15.5 15.5C16.0756 15.5 16.6422 15.642 17.1498 15.9134C17.6574 16.1847 18.0902 16.577 18.41 17.0556C18.7297 17.5342 18.9265 18.0842 18.9829 18.657C19.0393 19.2298 18.9536 19.8077 18.7333 20.3394C18.513 20.8712 18.165 21.3404 17.7201 21.7055C17.2752 22.0707 16.7471 22.3204 16.1826 22.4327C15.6181 22.545 15.0347 22.5164 14.4839 22.3493C13.9331 22.1823 13.432 21.882 13.025 21.475" stroke="black" stroke-width="1.5" stroke-linecap="round" stroke-linejoin="round"/>
</svg>
