<svg width="32" height="32" viewBox="0 0 32 32" fill="none" xmlns="http://www.w3.org/2000/svg">
<path d="M15 11L11 28" stroke="black" stroke-width="1.5" stroke-linecap="round" stroke-linejoin="round"/>
<path d="M7.68749 19.5751C6.81973 18.2775 6.2678 16.7948 6.07587 15.2456C5.88395 13.6965 6.05736 12.1239 6.58222 10.6538C7.10708 9.18365 7.96883 7.85682 9.09847 6.77948C10.2281 5.70215 11.5943 4.90424 13.0876 4.44961C14.5809 3.99499 16.16 3.89627 17.6983 4.16138C19.2366 4.42648 20.6915 5.04804 21.9465 5.9763C23.2016 6.90455 24.2218 8.11373 24.9257 9.50704C25.6296 10.9003 25.9975 12.4391 26 14.0001C26 19.5251 22 23.0001 18 23.0001C14 23.0001 12.8 20.3626 12.8 20.3626" stroke="black" stroke-width="1.5" stroke-linecap="round" stroke-linejoin="round"/>
</svg>
