<svg width="32" height="32" viewBox="0 0 32 32" fill="none" xmlns="http://www.w3.org/2000/svg">
<path d="M20.0001 9.99997L9.58755 20.5875C9.24284 20.9679 9.05762 21.4664 9.07026 21.9796C9.08289 22.4928 9.29241 22.9816 9.65544 23.3446C10.0185 23.7076 10.5072 23.9171 11.0204 23.9298C11.5337 23.9424 12.0321 23.7572 12.4126 23.4125L24.8251 10.825C25.5145 10.0641 25.8849 9.06718 25.8596 8.04071C25.8344 7.01423 25.4153 6.03678 24.6893 5.31073C23.9632 4.58469 22.9858 4.16565 21.9593 4.14037C20.9328 4.1151 19.936 4.48553 19.1751 5.17497L6.76255 17.7625C5.6387 18.8863 5.00732 20.4106 5.00732 22C5.00732 23.5893 5.6387 25.1136 6.76255 26.2375C7.88641 27.3613 9.41068 27.9927 11.0001 27.9927C12.5894 27.9927 14.1137 27.3613 15.2376 26.2375L25.5001 16" stroke="black" stroke-width="1.5" stroke-linecap="round" stroke-linejoin="round"/>
</svg>
