<svg width="32" height="32" viewBox="0 0 32 32" fill="none" xmlns="http://www.w3.org/2000/svg">
<path d="M12 19.25C12.6904 19.25 13.25 18.6904 13.25 18C13.25 17.3096 12.6904 16.75 12 16.75C11.3096 16.75 10.75 17.3096 10.75 18C10.75 18.6904 11.3096 19.25 12 19.25Z" fill="black"/>
<path d="M20 19.25C20.6904 19.25 21.25 18.6904 21.25 18C21.25 17.3096 20.6904 16.75 20 16.75C19.3096 16.75 18.75 17.3096 18.75 18C18.75 18.6904 19.3096 19.25 20 19.25Z" fill="black"/>
<path d="M9.2998 9.99962C11.4676 9.32021 13.7281 8.98282 15.9998 8.99962C18.2715 8.98282 20.532 9.32021 22.6998 9.99962" stroke="black" stroke-width="1.5" stroke-linecap="round" stroke-linejoin="round"/>
<path d="M22.6998 22C20.532 22.6794 18.2715 23.0168 15.9998 23C13.7281 23.0168 11.4676 22.6794 9.2998 22" stroke="black" stroke-width="1.5" stroke-linecap="round" stroke-linejoin="round"/>
<path d="M19.3752 22.7627L20.8877 25.7627C20.985 25.9673 21.1505 26.1316 21.3558 26.2274C21.5611 26.3232 21.7934 26.3445 22.0127 26.2877C25.0752 25.5377 27.7252 24.2377 29.6502 22.5627C29.7953 22.4347 29.9007 22.2677 29.9539 22.0816C30.0071 21.8955 30.0058 21.6981 29.9502 21.5127L25.7127 7.3627C25.6715 7.21789 25.5968 7.08478 25.4948 6.97406C25.3927 6.86334 25.2662 6.77811 25.1252 6.7252C23.928 6.23404 22.6899 5.84922 21.4252 5.5752C21.1822 5.52197 20.928 5.5601 20.7113 5.68229C20.4946 5.80449 20.3304 6.0022 20.2502 6.2377L19.2627 9.2252" stroke="black" stroke-width="1.5" stroke-linecap="round" stroke-linejoin="round"/>
<path d="M12.6255 22.7627L11.113 25.7627C11.0156 25.9673 10.8501 26.1316 10.6448 26.2274C10.4395 26.3232 10.2073 26.3445 9.98796 26.2877C6.92546 25.5377 4.27546 24.2377 2.35046 22.5627C2.20533 22.4347 2.09994 22.2677 2.04677 22.0816C1.9936 21.8955 1.99488 21.6981 2.05046 21.5127L6.28796 7.3627C6.3292 7.21789 6.40384 7.08478 6.50587 6.97406C6.60791 6.86334 6.73449 6.77811 6.87546 6.7252C8.07266 6.23404 9.31077 5.84922 10.5755 5.5752C10.8185 5.52197 11.0726 5.5601 11.2893 5.68229C11.5061 5.80449 11.6702 6.0022 11.7505 6.2377L12.738 9.2252" stroke="black" stroke-width="1.5" stroke-linecap="round" stroke-linejoin="round"/>
</svg>
