<svg width="32" height="32" viewBox="0 0 32 32" fill="none" xmlns="http://www.w3.org/2000/svg">
<path d="M16 24V27" stroke="black" stroke-width="1.5" stroke-linecap="round" stroke-linejoin="round"/>
<path d="M11.5 18.75C12.1904 18.75 12.75 18.1904 12.75 17.5C12.75 16.8096 12.1904 16.25 11.5 16.25C10.8096 16.25 10.25 16.8096 10.25 17.5C10.25 18.1904 10.8096 18.75 11.5 18.75Z" fill="black"/>
<path d="M20.5 18.75C21.1904 18.75 21.75 18.1904 21.75 17.5C21.75 16.8096 21.1904 16.25 20.5 16.25C19.8096 16.25 19.25 16.8096 19.25 17.5C19.25 18.1904 19.8096 18.75 20.5 18.75Z" fill="black"/>
<path d="M18 22L16 24L14 22" stroke="black" stroke-width="1.5" stroke-linecap="round" stroke-linejoin="round"/>
<path d="M19 6.00018L25.975 4.26268C26.1065 4.22958 26.2433 4.22356 26.3772 4.24499C26.5111 4.26642 26.6392 4.31485 26.7538 4.38734C26.8684 4.45983 26.967 4.55487 27.0437 4.66666C27.1204 4.77846 27.1736 4.90469 27.2 5.03768L29.25 15.9877C29.4375 17.0127 28.125 17.6127 27.475 16.7877L19 6.00018Z" stroke="black" stroke-width="1.5" stroke-linecap="round" stroke-linejoin="round"/>
<path d="M13.0001 6.00018L6.02508 4.26268C5.8936 4.22958 5.75676 4.22356 5.62288 4.24499C5.489 4.26642 5.36087 4.31485 5.24629 4.38734C5.13171 4.45983 5.03307 4.55487 4.95636 4.66666C4.87965 4.77846 4.82648 4.90469 4.80008 5.03768L2.75008 15.9877C2.56258 17.0127 3.87508 17.6127 4.52508 16.7877L13.0001 6.00018Z" stroke="black" stroke-width="1.5" stroke-linecap="round" stroke-linejoin="round"/>
<path d="M13 6H19" stroke="black" stroke-width="1.5" stroke-linecap="round" stroke-linejoin="round"/>
<path d="M26 14.9126V23.0001C26 24.061 25.5786 25.0784 24.8284 25.8285C24.0783 26.5787 23.0609 27.0001 22 27.0001H10C8.93913 27.0001 7.92172 26.5787 7.17157 25.8285C6.42143 25.0784 6 24.061 6 23.0001V14.9126" stroke="black" stroke-width="1.5" stroke-linecap="round" stroke-linejoin="round"/>
</svg>
