<svg width="32" height="32" viewBox="0 0 32 32" fill="none" xmlns="http://www.w3.org/2000/svg">
<path d="M16 28C22.6274 28 28 22.6274 28 16C28 9.37258 22.6274 4 16 4C9.37258 4 4 9.37258 4 16C4 22.6274 9.37258 28 16 28Z" stroke="black" stroke-width="1.5" stroke-linecap="round" stroke-linejoin="round"/>
<path d="M10 5.6123L16 15.9998" stroke="black" stroke-width="1.5" stroke-linecap="round" stroke-linejoin="round"/>
<path d="M10 26.3875L16 16" stroke="black" stroke-width="1.5" stroke-linecap="round" stroke-linejoin="round"/>
<path d="M28 16H16" stroke="black" stroke-width="1.5" stroke-linecap="round" stroke-linejoin="round"/>
<path d="M14.5752 4.08789C16.8379 5.10185 18.7314 6.79114 19.9959 8.92397C21.2603 11.0568 21.8339 13.5287 21.6377 16.0004" stroke="black" stroke-width="1.5" stroke-linecap="round" stroke-linejoin="round"/>
<path d="M6.38744 23.2C6.13304 20.7312 6.65038 18.2442 7.86822 16.0817C9.08605 13.9191 10.9444 12.1874 13.1874 11.125" stroke="black" stroke-width="1.5" stroke-linecap="round" stroke-linejoin="round"/>
<path d="M27.0375 20.7246C25.0275 22.1779 22.6165 22.9727 20.1363 22.9995C17.6561 23.0264 15.2285 22.284 13.1875 20.8746" stroke="black" stroke-width="1.5" stroke-linecap="round" stroke-linejoin="round"/>
</svg>
