<svg width="32" height="32" viewBox="0 0 32 32" fill="none" xmlns="http://www.w3.org/2000/svg">
<path d="M22 25C22 25.7956 21.6839 26.5587 21.1213 27.1213C20.5587 27.6839 19.7956 28 19 28C18.2044 28 17.4413 27.6839 16.8787 27.1213C16.3161 26.5587 16 25.7956 16 25V17" stroke="black" stroke-width="1.5" stroke-linecap="round" stroke-linejoin="round"/>
<path d="M4.0375 17.0002C3.89896 17.0009 3.76182 16.9724 3.63499 16.9167C3.50816 16.8609 3.39449 16.7791 3.30135 16.6765C3.20822 16.574 3.1377 16.453 3.0944 16.3214C3.0511 16.1898 3.03597 16.0505 3.05 15.9127C3.33482 12.6746 4.82244 9.66063 7.21957 7.4651C9.61669 5.26957 12.7494 4.05176 16 4.05176C19.2506 4.05176 22.3833 5.26957 24.7804 7.4651C27.1776 9.66063 28.6652 12.6746 28.95 15.9127C28.964 16.0505 28.9489 16.1898 28.9056 16.3214C28.8623 16.453 28.7918 16.574 28.6986 16.6765C28.6055 16.7791 28.4918 16.8609 28.365 16.9167C28.2382 16.9724 28.101 17.0009 27.9625 17.0002H4.0375Z" stroke="black" stroke-width="1.5" stroke-linecap="round" stroke-linejoin="round"/>
</svg>
