<svg width="32" height="32" viewBox="0 0 32 32" fill="none" xmlns="http://www.w3.org/2000/svg">
<path d="M16 11.5V16.5" stroke="black" stroke-width="1.5" stroke-linecap="round" stroke-linejoin="round"/>
<path d="M12 1H20" stroke="black" stroke-width="1.5" stroke-linecap="round" stroke-linejoin="round"/>
<path d="M23 5H9C7.89543 5 7 5.89543 7 7V26C7 27.1046 7.89543 28 9 28H23C24.1046 28 25 27.1046 25 26V7C25 5.89543 24.1046 5 23 5Z" stroke="black" stroke-width="1.5" stroke-linecap="round" stroke-linejoin="round"/>
<path d="M16 22.25C16.6904 22.25 17.25 21.6904 17.25 21C17.25 20.3096 16.6904 19.75 16 19.75C15.3096 19.75 14.75 20.3096 14.75 21C14.75 21.6904 15.3096 22.25 16 22.25Z" fill="black"/>
</svg>
