<svg width="32" height="32" viewBox="0 0 32 32" fill="none" xmlns="http://www.w3.org/2000/svg">
<path d="M16 16L28 4" stroke="black" stroke-width="1.5" stroke-linecap="round" stroke-linejoin="round"/>
<path d="M24.4875 7.51236C22.3601 5.37855 19.5091 4.12118 16.4989 3.98911C13.4887 3.85703 10.5385 4.85989 8.2324 6.79917C5.92628 8.73846 4.43225 11.4729 4.04601 14.4611C3.65978 17.4494 4.40948 20.4738 6.14675 22.9357C7.88401 25.3976 10.4822 27.1176 13.4271 27.7552C16.372 28.3928 19.449 27.9017 22.049 26.3789C24.649 24.8561 26.5826 22.4127 27.4671 19.5323C28.3516 16.6519 28.1224 13.5444 26.825 10.8249" stroke="black" stroke-width="1.5" stroke-linecap="round" stroke-linejoin="round"/>
<path d="M20.2373 11.7624C19.2464 10.7742 17.9406 10.1644 16.5467 10.0388C15.1529 9.91324 13.7591 10.2799 12.6075 11.075C11.4559 11.8702 10.6191 13.0436 10.2427 14.3915C9.86622 15.7394 9.9738 17.1766 10.5467 18.4534C11.1197 19.7302 12.1217 20.766 13.3789 21.3809C14.6361 21.9957 16.0689 22.1507 17.4285 21.8191C18.7881 21.4874 19.9886 20.6899 20.8214 19.5652C21.6542 18.4405 22.0667 17.0596 21.9873 15.6624" stroke="black" stroke-width="1.5" stroke-linecap="round" stroke-linejoin="round"/>
</svg>
