<svg width="32" height="32" viewBox="0 0 32 32" fill="none" xmlns="http://www.w3.org/2000/svg">
<path d="M16 22C19.3137 22 22 19.3137 22 16C22 12.6863 19.3137 10 16 10C12.6863 10 10 12.6863 10 16C10 19.3137 12.6863 22 16 22Z" stroke="black" stroke-width="1.5" stroke-linecap="round" stroke-linejoin="round"/>
<path d="M22.9627 8.1377C23.2794 8.42936 23.5794 8.72936 23.8627 9.0377L27.2752 9.5252C27.8312 10.4908 28.2598 11.5244 28.5502 12.6002L26.4752 15.3627C26.4752 15.3627 26.5127 16.2127 26.4752 16.6377L28.5502 19.4002C28.2611 20.4764 27.8325 21.5102 27.2752 22.4752L23.8627 22.9627C23.8627 22.9627 23.2752 23.5752 22.9627 23.8627L22.4752 27.2752C21.5096 27.8312 20.476 28.2598 19.4002 28.5502L16.6377 26.4752C16.2135 26.5127 15.7869 26.5127 15.3627 26.4752L12.6002 28.5502C11.524 28.2611 10.4902 27.8325 9.5252 27.2752L9.0377 23.8627C8.72936 23.571 8.42936 23.271 8.1377 22.9627L4.7252 22.4752C4.16917 21.5096 3.74061 20.476 3.4502 19.4002L5.5252 16.6377C5.5252 16.6377 5.4877 15.7877 5.5252 15.3627L3.4502 12.6002C3.73926 11.524 4.1679 10.4902 4.7252 9.5252L8.1377 9.0377C8.42936 8.72936 8.72936 8.42936 9.0377 8.1377L9.5252 4.7252C10.4908 4.16917 11.5244 3.74061 12.6002 3.4502L15.3627 5.5252C15.7869 5.48769 16.2135 5.48769 16.6377 5.5252L19.4002 3.4502C20.4764 3.73926 21.5102 4.1679 22.4752 4.7252L22.9627 8.1377Z" stroke="black" stroke-width="1.5" stroke-linecap="round" stroke-linejoin="round"/>
</svg>
