<svg width="32" height="32" viewBox="0 0 32 32" fill="none" xmlns="http://www.w3.org/2000/svg">
<path d="M19.5 10.75C20.1904 10.75 20.75 10.1904 20.75 9.5C20.75 8.80964 20.1904 8.25 19.5 8.25C18.8096 8.25 18.25 8.80964 18.25 9.5C18.25 10.1904 18.8096 10.75 19.5 10.75Z" fill="black"/>
<path d="M23.2875 20.9874H23C21.4087 20.9874 19.8826 20.3553 18.7574 19.23C17.6322 18.1048 17 16.5787 17 14.9874C15.4109 14.9874 13.8867 14.357 12.7618 13.2345C11.6369 12.1119 11.0033 10.589 11 8.9999C10.998 8.9039 11.0021 8.80786 11.0125 8.7124" stroke="black" stroke-width="1.5" stroke-linecap="round" stroke-linejoin="round"/>
<path d="M7.775 19.1498L1 21.9998L8 23.9998L10 30.9998L12.85 24.2248C30.15 23.8123 27.85 8.8623 27.15 5.6123C27.1063 5.42691 27.0118 5.25736 26.8771 5.12268C26.7424 4.98799 26.5729 4.8935 26.3875 4.8498C23.1375 4.1498 8.1875 1.8498 7.775 19.1498V19.1498Z" stroke="black" stroke-width="1.5" stroke-linecap="round" stroke-linejoin="round"/>
</svg>
