<svg width="32" height="32" viewBox="0 0 32 32" fill="none" xmlns="http://www.w3.org/2000/svg">
<path d="M22 8H10V14H22V8Z" stroke="black" stroke-width="1.5" stroke-linecap="round" stroke-linejoin="round"/>
<path d="M26 27V5C26 4.44772 25.5523 4 25 4L7 4C6.44772 4 6 4.44772 6 5V27C6 27.5523 6.44772 28 7 28H25C25.5523 28 26 27.5523 26 27Z" stroke="black" stroke-width="1.5" stroke-linecap="round" stroke-linejoin="round"/>
<path d="M11 19.75C11.6904 19.75 12.25 19.1904 12.25 18.5C12.25 17.8096 11.6904 17.25 11 17.25C10.3096 17.25 9.75 17.8096 9.75 18.5C9.75 19.1904 10.3096 19.75 11 19.75Z" fill="black"/>
<path d="M16 19.75C16.6904 19.75 17.25 19.1904 17.25 18.5C17.25 17.8096 16.6904 17.25 16 17.25C15.3096 17.25 14.75 17.8096 14.75 18.5C14.75 19.1904 15.3096 19.75 16 19.75Z" fill="black"/>
<path d="M21 19.75C21.6904 19.75 22.25 19.1904 22.25 18.5C22.25 17.8096 21.6904 17.25 21 17.25C20.3096 17.25 19.75 17.8096 19.75 18.5C19.75 19.1904 20.3096 19.75 21 19.75Z" fill="black"/>
<path d="M11 24.75C11.6904 24.75 12.25 24.1904 12.25 23.5C12.25 22.8096 11.6904 22.25 11 22.25C10.3096 22.25 9.75 22.8096 9.75 23.5C9.75 24.1904 10.3096 24.75 11 24.75Z" fill="black"/>
<path d="M16 24.75C16.6904 24.75 17.25 24.1904 17.25 23.5C17.25 22.8096 16.6904 22.25 16 22.25C15.3096 22.25 14.75 22.8096 14.75 23.5C14.75 24.1904 15.3096 24.75 16 24.75Z" fill="black"/>
<path d="M21 24.75C21.6904 24.75 22.25 24.1904 22.25 23.5C22.25 22.8096 21.6904 22.25 21 22.25C20.3096 22.25 19.75 22.8096 19.75 23.5C19.75 24.1904 20.3096 24.75 21 24.75Z" fill="black"/>
</svg>
