<svg width="32" height="32" viewBox="0 0 32 32" fill="none" xmlns="http://www.w3.org/2000/svg">
<path d="M16 16V4" stroke="black" stroke-width="1.5" stroke-linecap="round" stroke-linejoin="round"/>
<path d="M26.3873 10L5.6123 22" stroke="black" stroke-width="1.5" stroke-linecap="round" stroke-linejoin="round"/>
<path d="M4.20012 18.2C4.0637 17.4747 3.99673 16.738 4.00012 16C3.99854 13.5182 4.76727 11.0972 6.20022 9.07089C7.63316 7.04461 9.65969 5.51303 12.0001 4.6875V13.6875L4.20012 18.2Z" stroke="black" stroke-width="1.5" stroke-linecap="round" stroke-linejoin="round"/>
<path d="M15.9999 4C18.1026 4.00024 20.1683 4.55298 21.9902 5.60287C23.812 6.65275 25.326 8.16292 26.3805 9.9821C27.435 11.8013 27.9929 13.8656 27.9985 15.9683C28.0041 18.071 27.457 20.1382 26.4121 21.963C25.3673 23.7877 23.8613 25.3058 22.045 26.3653C20.2287 27.4248 18.166 27.9885 16.0633 27.9998C13.9606 28.0112 11.8919 27.4698 10.0643 26.43C8.23668 25.3901 6.7144 23.8883 5.6499 22.075" stroke="black" stroke-width="1.5" stroke-linecap="round" stroke-linejoin="round"/>
</svg>
