<svg width="32" height="32" viewBox="0 0 32 32" fill="none" xmlns="http://www.w3.org/2000/svg">
<path d="M10 13H22C23.0609 13 24.0783 13.4214 24.8284 14.1716C25.5786 14.9217 26 15.9391 26 17V27C26 27.2652 25.8946 27.5196 25.7071 27.7071C25.5196 27.8946 25.2652 28 25 28H7C6.73478 28 6.48043 27.8946 6.29289 27.7071C6.10536 27.5196 6 27.2652 6 27V17C6 15.9391 6.42143 14.9217 7.17157 14.1716C7.92172 13.4214 8.93913 13 10 13V13Z" stroke="black" stroke-width="1.5" stroke-linecap="round" stroke-linejoin="round"/>
<path d="M10 13V11C9.99837 10.6056 10.0748 10.2147 10.225 9.85002C10.3752 9.4853 10.5961 9.15392 10.875 8.87502C11.1539 8.59611 11.4853 8.3752 11.85 8.22502C12.2147 8.07484 12.6056 7.99837 13 8.00003H19C19.3945 7.99837 19.7853 8.07484 20.15 8.22502C20.5148 8.3752 20.8461 8.59611 21.125 8.87502C21.4039 9.15392 21.6249 9.4853 21.775 9.85002C21.9252 10.2147 22.0017 10.6056 22 11V13" stroke="black" stroke-width="1.5" stroke-linecap="round" stroke-linejoin="round"/>
<path d="M23 5C23 4.46957 22.7893 3.96086 22.4142 3.58579C22.0391 3.21071 21.5304 3 21 3H13" stroke="black" stroke-width="1.5" stroke-linecap="round" stroke-linejoin="round"/>
<path d="M16 3V8" stroke="black" stroke-width="1.5" stroke-linecap="round" stroke-linejoin="round"/>
</svg>
