<svg width="32" height="32" viewBox="0 0 32 32" fill="none" xmlns="http://www.w3.org/2000/svg">
<path d="M22.5 19C22.5 19.663 22.2366 20.2989 21.7678 20.7678C21.2989 21.2366 20.663 21.5 20 21.5C19.337 21.5 18.7011 21.2366 18.2322 20.7678C17.7634 20.2989 17.5 19.663 17.5 19C17.5 16 21 16 21 13C21 11.6739 20.4732 10.4021 19.5355 9.46447C18.5979 8.52678 17.3261 8 16 8C14.6739 8 13.4021 8.52678 12.4645 9.46447C11.5268 10.4021 11 11.6739 11 13" stroke="black" stroke-width="1.5" stroke-linecap="round" stroke-linejoin="round"/>
<path d="M20.2375 27C19.5162 27.8717 18.5437 28.4998 17.4524 28.7985C16.3612 29.0973 15.2043 29.0523 14.1396 28.6696C13.0749 28.2869 12.1541 27.5851 11.5028 26.66C10.8515 25.7349 10.5013 24.6314 10.5 23.5C10.5 18.3125 6 20 6 13C6 10.3478 7.05357 7.8043 8.92893 5.92893C10.8043 4.05357 13.3478 3 16 3C18.6522 3 21.1957 4.05357 23.0711 5.92893C24.9464 7.8043 26 10.3478 26 13" stroke="black" stroke-width="1.5" stroke-linecap="round" stroke-linejoin="round"/>
</svg>
