<svg width="32" height="32" viewBox="0 0 32 32" fill="none" xmlns="http://www.w3.org/2000/svg">
<path d="M27.5 21.9127V10.0877C27.499 9.90963 27.4512 9.73499 27.3612 9.58137C27.2712 9.42775 27.1423 9.30057 26.9875 9.21266L16.4875 3.27516C16.3393 3.18958 16.1711 3.14453 16 3.14453C15.8289 3.14453 15.6607 3.18958 15.5125 3.27516L5.0125 9.21266C4.85769 9.30057 4.72879 9.42775 4.63882 9.58137C4.54884 9.73499 4.50096 9.90963 4.5 10.0877V21.9127C4.50096 22.0907 4.54884 22.2653 4.63882 22.4189C4.72879 22.5726 4.85769 22.6997 5.0125 22.7877L15.5125 28.7252C15.6607 28.8107 15.8289 28.8558 16 28.8558C16.1711 28.8558 16.3393 28.8107 16.4875 28.7252L26.9875 22.7877C27.1423 22.6997 27.2712 22.5726 27.3612 22.4189C27.4512 22.2653 27.499 22.0907 27.5 21.9127V21.9127Z" stroke="black" stroke-width="1.5" stroke-linecap="round" stroke-linejoin="round"/>
</svg>
