<svg width="32" height="32" viewBox="0 0 32 32" fill="none" xmlns="http://www.w3.org/2000/svg">
<path d="M22.3499 8.96233C22.3444 9.75458 22.1762 10.5372 21.8558 11.2618C21.5354 11.9864 21.0697 12.6375 20.4874 13.1748C19.2604 14.293 17.6601 14.9128 15.9999 14.9128C14.3398 14.9128 12.7395 14.293 11.5124 13.1748C10.9265 12.6407 10.4584 11.9901 10.1381 11.2648C9.81777 10.5394 9.65234 9.75525 9.65234 8.96233C9.65234 8.16942 9.81777 7.38523 10.1381 6.65988C10.4584 5.93454 10.9265 5.28399 11.5124 4.74983C12.7355 3.62366 14.3373 2.99854 15.9999 2.99854C17.6625 2.99854 19.2643 3.62366 20.4874 4.74983C21.0715 5.2857 21.5384 5.93653 21.8589 6.66145C22.1794 7.38637 22.3466 8.16973 22.3499 8.96233V8.96233Z" stroke="black" stroke-width="1.5" stroke-linecap="round" stroke-linejoin="round"/>
<path d="M23.4999 21.9624C23.4953 22.8984 23.2976 23.8234 22.919 24.6794C22.5405 25.5355 21.9893 26.3042 21.2999 26.9374C19.854 28.2646 17.9626 29.0011 15.9999 29.0011C14.0371 29.0011 12.1458 28.2646 10.6999 26.9374C10.0066 26.3059 9.45273 25.5368 9.07375 24.679C8.69477 23.8213 8.49902 22.8939 8.49902 21.9561C8.49902 21.0184 8.69477 20.091 9.07375 19.2332C9.45273 18.3755 10.0066 17.6063 10.6999 16.9749C12.1458 15.6476 14.0371 14.9111 15.9999 14.9111C17.9626 14.9111 19.854 15.6476 21.2999 16.9749C21.9908 17.6095 22.5429 18.3802 22.9215 19.2385C23.3001 20.0969 23.4971 21.0242 23.4999 21.9624Z" stroke="black" stroke-width="1.5" stroke-linecap="round" stroke-linejoin="round"/>
</svg>
