<svg width="32" height="32" viewBox="0 0 32 32" fill="none" xmlns="http://www.w3.org/2000/svg">
<path d="M27 16.9998C27 23.4373 17.7 25.6498 16.2 25.9623C16.0679 25.9873 15.9322 25.9873 15.8 25.9623C14.3 25.6498 5.00001 23.4373 5.00001 16.9998V9.69979C4.99897 9.49397 5.06226 9.29297 5.18104 9.12488C5.29982 8.9568 5.46816 8.83002 5.66251 8.76229L15.6625 5.12479C15.8812 5.04955 16.1188 5.04955 16.3375 5.12479L26.3375 8.76229C26.5319 8.83002 26.7002 8.9568 26.819 9.12488C26.9378 9.29297 27.0011 9.49397 27 9.69979V16.9998Z" stroke="black" stroke-width="1.5" stroke-linecap="round" stroke-linejoin="round"/>
<path d="M11 14H21" stroke="black" stroke-width="1.5" stroke-linecap="round" stroke-linejoin="round"/>
<path d="M11 18H21" stroke="black" stroke-width="1.5" stroke-linecap="round" stroke-linejoin="round"/>
<path d="M26.6748 19H27.9998C28.3942 19.0017 28.7851 18.9252 29.1498 18.775C29.5145 18.6249 29.8459 18.4039 30.1248 18.125C30.4037 17.8461 30.6246 17.5148 30.7748 17.15C30.925 16.7853 31.0015 16.3945 30.9998 16V13C31.0015 12.6056 30.925 12.2147 30.7748 11.85C30.6246 11.4853 30.4037 11.1539 30.1248 10.875C29.8459 10.5961 29.5145 10.3752 29.1498 10.225C28.7851 10.0748 28.3942 9.99837 27.9998 10H26.9998" stroke="black" stroke-width="1.5" stroke-linecap="round" stroke-linejoin="round"/>
<path d="M5.32503 19H4.00003C3.6056 19.0017 3.21475 18.9252 2.85002 18.775C2.4853 18.6249 2.15392 18.4039 1.87502 18.125C1.59611 17.8461 1.3752 17.5148 1.22502 17.15C1.07484 16.7853 0.998372 16.3945 1.00003 16V13C0.998372 12.6056 1.07484 12.2147 1.22502 11.85C1.3752 11.4853 1.59611 11.1539 1.87502 10.875C2.15392 10.5961 2.4853 10.3752 2.85002 10.225C3.21475 10.0748 3.6056 9.99837 4.00003 10H5.00003" stroke="black" stroke-width="1.5" stroke-linecap="round" stroke-linejoin="round"/>
</svg>
