<svg width="32" height="32" viewBox="0 0 32 32" fill="none" xmlns="http://www.w3.org/2000/svg">
<path d="M16 28C22.6274 28 28 22.6274 28 16C28 9.37258 22.6274 4 16 4C9.37258 4 4 9.37258 4 16C4 22.6274 9.37258 28 16 28Z" stroke="black" stroke-width="1.5" stroke-linecap="round" stroke-linejoin="round"/>
<path d="M22.3871 13.5375C20.4075 12.5248 18.2154 11.9978 15.9918 12C13.7683 12.0022 11.5772 12.5335 9.59961 13.55" stroke="black" stroke-width="1.5" stroke-linecap="round" stroke-linejoin="round"/>
<path d="M20.5377 17.0877C19.1299 16.3709 17.5722 15.9983 15.9924 16.0005C14.4127 16.0027 12.856 16.3795 11.4502 17.1002" stroke="black" stroke-width="1.5" stroke-linecap="round" stroke-linejoin="round"/>
<path d="M18.6873 20.6375C17.8544 20.2158 16.9334 19.9974 15.9998 20C15.0627 20.0019 14.1387 20.22 13.2998 20.6375" stroke="black" stroke-width="1.5" stroke-linecap="round" stroke-linejoin="round"/>
</svg>
