<svg width="32" height="32" viewBox="0 0 32 32" fill="none" xmlns="http://www.w3.org/2000/svg">
<path d="M5 14H27V25C27 25.2652 26.8946 25.5196 26.7071 25.7071C26.5196 25.8946 26.2652 26 26 26H6C5.73478 26 5.48043 25.8946 5.29289 25.7071C5.10536 25.5196 5 25.2652 5 25V14Z" stroke="black" stroke-width="1.5" stroke-linecap="round" stroke-linejoin="round"/>
<path d="M4.99999 14.0002L26.25 8.30023L25.2125 4.43773C25.1792 4.31061 25.1209 4.19141 25.041 4.0871C24.9611 3.9828 24.8612 3.8955 24.7471 3.83031C24.633 3.76511 24.5071 3.72335 24.3766 3.70745C24.2462 3.69155 24.1139 3.70185 23.9875 3.73773L4.67499 8.91273C4.54763 8.94614 4.42812 9.00437 4.32332 9.08408C4.21852 9.16379 4.13049 9.26341 4.06429 9.37723C3.99809 9.49105 3.95502 9.61682 3.93755 9.74733C3.92008 9.87783 3.92856 10.0105 3.96249 10.1377L4.99999 14.0002Z" stroke="black" stroke-width="1.5" stroke-linecap="round" stroke-linejoin="round"/>
<path d="M16.2627 5.7998L22.3877 9.3373" stroke="black" stroke-width="1.5" stroke-linecap="round" stroke-linejoin="round"/>
<path d="M7.5752 8.1377L13.6877 11.6752" stroke="black" stroke-width="1.5" stroke-linecap="round" stroke-linejoin="round"/>
</svg>
