<svg width="32" height="32" viewBox="0 0 32 32" fill="none" xmlns="http://www.w3.org/2000/svg">
<path d="M27 27.0003V14.4378C26.9978 14.2994 26.9679 14.1628 26.9121 14.0362C26.8562 13.9095 26.7756 13.7953 26.675 13.7003L16.675 4.61277C16.4907 4.44412 16.2499 4.35059 16 4.35059C15.7502 4.35059 15.5094 4.44412 15.325 4.61277L5.32501 13.7003C5.22203 13.7934 5.13985 13.9073 5.08385 14.0344C5.02785 14.1614 4.99928 14.2989 5.00001 14.4378V27.0003" stroke="black" stroke-width="1.5" stroke-linecap="round" stroke-linejoin="round"/>
<path d="M2 27H30" stroke="black" stroke-width="1.5" stroke-linecap="round" stroke-linejoin="round"/>
<path d="M19 27V20C19 19.7348 18.8946 19.4804 18.7071 19.2929C18.5196 19.1054 18.2652 19 18 19H14C13.7348 19 13.4804 19.1054 13.2929 19.2929C13.1054 19.4804 13 19.7348 13 20V27" stroke="black" stroke-width="1.5" stroke-linecap="round" stroke-linejoin="round"/>
</svg>
