<svg width="32" height="32" viewBox="0 0 32 32" fill="none" xmlns="http://www.w3.org/2000/svg">
<path d="M21.1001 23.5879L21.5876 26.5379" stroke="black" stroke-width="1.5" stroke-linecap="round" stroke-linejoin="round"/>
<path d="M16 24V28" stroke="black" stroke-width="1.5" stroke-linecap="round" stroke-linejoin="round"/>
<path d="M10.9001 23.5879L10.4126 26.5379" stroke="black" stroke-width="1.5" stroke-linecap="round" stroke-linejoin="round"/>
<path d="M22.125 8.59961C26.7875 9.57461 30 11.6246 30 13.9996C30 17.3121 23.7375 19.9996 16 19.9996C8.2625 19.9996 2 17.3121 2 13.9996C2 11.6246 5.2375 9.56211 9.925 8.59961" stroke="black" stroke-width="1.5" stroke-linecap="round" stroke-linejoin="round"/>
<path d="M9.00002 12.4871C8.99802 12.9385 9.15075 13.3771 9.43278 13.7296C9.71482 14.0822 10.1091 14.3274 10.55 14.4246C12.3387 14.8244 14.1673 15.0173 16 14.9996C17.8327 15.0173 19.6614 14.8244 21.45 14.4246C21.8909 14.3274 22.2852 14.0822 22.5673 13.7296C22.8493 13.3771 23.002 12.9385 23 12.4871V11.9996C23.0001 11.0729 22.8162 10.1555 22.4589 9.30042C22.1017 8.44539 21.5782 7.66979 20.9189 7.01863C20.2596 6.36746 19.4776 5.85368 18.6182 5.50709C17.7588 5.16049 16.8391 4.98799 15.9125 4.99957C12.0625 5.04957 9.00002 8.26207 9.00002 12.0996V12.4871Z" stroke="black" stroke-width="1.5" stroke-linecap="round" stroke-linejoin="round"/>
</svg>
