<svg width="32" height="32" viewBox="0 0 32 32" fill="none" xmlns="http://www.w3.org/2000/svg">
<path d="M16 9.25C16.6904 9.25 17.25 8.69036 17.25 8C17.25 7.30964 16.6904 6.75 16 6.75C15.3096 6.75 14.75 7.30964 14.75 8C14.75 8.69036 15.3096 9.25 16 9.25Z" fill="black"/>
<path d="M16 17.25C16.6904 17.25 17.25 16.6904 17.25 16C17.25 15.3096 16.6904 14.75 16 14.75C15.3096 14.75 14.75 15.3096 14.75 16C14.75 16.6904 15.3096 17.25 16 17.25Z" fill="black"/>
<path d="M16 25.25C16.6904 25.25 17.25 24.6904 17.25 24C17.25 23.3096 16.6904 22.75 16 22.75C15.3096 22.75 14.75 23.3096 14.75 24C14.75 24.6904 15.3096 25.25 16 25.25Z" fill="black"/>
</svg>
