<svg width="32" height="32" viewBox="0 0 32 32" fill="none" xmlns="http://www.w3.org/2000/svg">
<path d="M15.2623 4.79955L5.54978 15.3246C5.41885 15.4677 5.33237 15.6458 5.30087 15.8372C5.26937 16.0286 5.29422 16.225 5.37238 16.4025C5.45055 16.58 5.57866 16.731 5.7411 16.837C5.90354 16.943 6.09331 16.9995 6.28728 16.9996H25.7123C25.9063 16.9995 26.096 16.943 26.2585 16.837C26.4209 16.731 26.549 16.58 26.6272 16.4025C26.7053 16.225 26.7302 16.0286 26.6987 15.8372C26.6672 15.6458 26.5807 15.4677 26.4498 15.3246L16.7373 4.79955C16.6446 4.69551 16.531 4.61225 16.4039 4.55524C16.2768 4.49822 16.1391 4.46875 15.9998 4.46875C15.8605 4.46875 15.7227 4.49822 15.5956 4.55524C15.4685 4.61225 15.3549 4.69551 15.2623 4.79955V4.79955Z" stroke="black" stroke-width="1.5" stroke-linecap="round" stroke-linejoin="round"/>
<path d="M5 22V25C5 25.5523 5.44772 26 6 26H26C26.5523 26 27 25.5523 27 25V22C27 21.4477 26.5523 21 26 21H6C5.44772 21 5 21.4477 5 22Z" stroke="black" stroke-width="1.5" stroke-linecap="round" stroke-linejoin="round"/>
</svg>
