<svg width="32" height="32" viewBox="0 0 32 32" fill="none" xmlns="http://www.w3.org/2000/svg">
<path d="M1.81243 15.1628L12.9624 7.98781C13.1141 7.89114 13.289 7.83716 13.4687 7.83154C13.6485 7.82593 13.8264 7.86888 13.9838 7.95589C14.1412 8.0429 14.2722 8.17074 14.363 8.32594C14.4538 8.48115 14.5011 8.65798 14.4999 8.83781V23.1628C14.5011 23.3426 14.4538 23.5195 14.363 23.6747C14.2722 23.8299 14.1412 23.9577 13.9838 24.0447C13.8264 24.1317 13.6485 24.1747 13.4687 24.1691C13.289 24.1635 13.1141 24.1095 12.9624 24.0128L1.81243 16.8378C1.67036 16.749 1.5532 16.6256 1.47198 16.4791C1.39076 16.3326 1.34814 16.1678 1.34814 16.0003C1.34814 15.8328 1.39076 15.668 1.47198 15.5215C1.5532 15.375 1.67036 15.2516 1.81243 15.1628V15.1628Z" stroke="black" stroke-width="1.5" stroke-linecap="round" stroke-linejoin="round"/>
<path d="M15.8124 15.1628L26.9624 7.98781C27.1141 7.89114 27.289 7.83716 27.4687 7.83154C27.6485 7.82593 27.8264 7.86888 27.9838 7.95589C28.1412 8.0429 28.2722 8.17074 28.363 8.32594C28.4538 8.48115 28.5011 8.65798 28.4999 8.83781V23.1628C28.5011 23.3426 28.4538 23.5195 28.363 23.6747C28.2722 23.8299 28.1412 23.9577 27.9838 24.0447C27.8264 24.1317 27.6485 24.1747 27.4687 24.1691C27.289 24.1635 27.1141 24.1095 26.9624 24.0128L15.8124 16.8378C15.6704 16.749 15.5532 16.6256 15.472 16.4791C15.3908 16.3326 15.3481 16.1678 15.3481 16.0003C15.3481 15.8328 15.3908 15.668 15.472 15.5215C15.5532 15.375 15.6704 15.2516 15.8124 15.1628V15.1628Z" stroke="black" stroke-width="1.5" stroke-linecap="round" stroke-linejoin="round"/>
</svg>
