<svg width="32" height="32" viewBox="0 0 32 32" fill="none" xmlns="http://www.w3.org/2000/svg">
<path d="M13.0003 4V11.725C12.9991 11.9048 12.9518 12.0813 12.8628 12.2375L4.91282 25.4875C4.8226 25.6387 4.77387 25.8109 4.77157 25.987C4.76927 26.163 4.81347 26.3365 4.89972 26.49C4.98596 26.6434 5.11118 26.7714 5.26273 26.861C5.41429 26.9505 5.58679 26.9985 5.76282 27H26.2378C26.4138 26.9985 26.5864 26.9505 26.7379 26.861C26.8895 26.7714 27.0147 26.6434 27.1009 26.49C27.1872 26.3365 27.2314 26.163 27.2291 25.987C27.2268 25.8109 27.178 25.6387 27.0878 25.4875L19.1378 12.2375C19.0489 12.0813 19.0015 11.9048 19.0003 11.725V4" stroke="black" stroke-width="1.5" stroke-linecap="round" stroke-linejoin="round"/>
<path d="M11 4H21" stroke="black" stroke-width="1.5" stroke-linecap="round" stroke-linejoin="round"/>
<path d="M7.8252 20.6251C9.3002 19.5376 11.8377 18.9251 16.0002 21.0001C20.4627 23.2376 23.0627 22.3501 24.4877 21.1376" stroke="black" stroke-width="1.5" stroke-linecap="round" stroke-linejoin="round"/>
</svg>
