<svg width="32" height="32" viewBox="0 0 32 32" fill="none" xmlns="http://www.w3.org/2000/svg">
<path d="M18.2627 15.9996C18.5441 15.6846 18.8889 15.4325 19.2745 15.2599C19.6601 15.0873 20.0777 14.998 20.5002 14.998C20.9226 14.998 21.3403 15.0873 21.7259 15.2599C22.1115 15.4325 22.4563 15.6846 22.7377 15.9996" stroke="black" stroke-width="1.5" stroke-linecap="round" stroke-linejoin="round"/>
<path d="M9.2627 15.9996C9.5441 15.6846 9.88889 15.4325 10.2745 15.2599C10.6601 15.0873 11.0777 14.998 11.5002 14.998C11.9226 14.998 12.3403 15.0873 12.7259 15.2599C13.1115 15.4325 13.4563 15.6846 13.7377 15.9996" stroke="black" stroke-width="1.5" stroke-linecap="round" stroke-linejoin="round"/>
<path d="M19.3125 22C18.3308 22.652 17.1785 22.9998 16 22.9998C14.8215 22.9998 13.6692 22.652 12.6875 22" stroke="black" stroke-width="1.5" stroke-linecap="round" stroke-linejoin="round"/>
<path d="M27.0001 6.03709C27.002 5.87399 26.9634 5.71296 26.8879 5.56839C26.8124 5.42381 26.7022 5.30019 26.5673 5.20858C26.4324 5.11696 26.2768 5.0602 26.1146 5.04336C25.9523 5.02652 25.7885 5.05014 25.6376 5.11209C23.7501 5.83709 20.1126 6.99959 16.0001 6.99959C11.8876 6.99959 8.25007 5.83709 6.36257 5.11209C6.21168 5.05014 6.0478 5.02652 5.88556 5.04336C5.72332 5.0602 5.56778 5.11696 5.43283 5.20858C5.29789 5.30019 5.18773 5.42381 5.11221 5.56839C5.0367 5.71296 4.99817 5.87399 5.00007 6.03709V12.9996C5.00007 21.8371 9.92507 28.9996 16.0001 28.9996C22.0751 28.9996 27.0001 21.8371 27.0001 12.9996V6.03709Z" stroke="black" stroke-width="1.5" stroke-linecap="round" stroke-linejoin="round"/>
</svg>
