<svg width="32" height="32" viewBox="0 0 32 32" fill="none" xmlns="http://www.w3.org/2000/svg">
<path d="M19 26.0003V20.0003C19 19.7351 18.8946 19.4807 18.7071 19.2932C18.5196 19.1056 18.2652 19.0003 18 19.0003H14C13.7348 19.0003 13.4804 19.1056 13.2929 19.2932C13.1054 19.4807 13 19.7351 13 20.0003V26.0003C13 26.2655 12.8946 26.5198 12.7071 26.7074C12.5196 26.8949 12.2652 27.0003 12 27.0003H6C5.73478 27.0003 5.48043 26.8949 5.29289 26.7074C5.10536 26.5198 5 26.2655 5 26.0003V14.4378C5.00224 14.2994 5.03215 14.1628 5.08796 14.0362C5.14378 13.9095 5.22437 13.7953 5.325 13.7003L15.325 4.61277C15.5093 4.44412 15.7501 4.35059 16 4.35059C16.2499 4.35059 16.4907 4.44412 16.675 4.61277L26.675 13.7003C26.7756 13.7953 26.8562 13.9095 26.912 14.0362C26.9679 14.1628 26.9978 14.2994 27 14.4378V26.0003C27 26.2655 26.8946 26.5198 26.7071 26.7074C26.5196 26.8949 26.2652 27.0003 26 27.0003H20C19.7348 27.0003 19.4804 26.8949 19.2929 26.7074C19.1054 26.5198 19 26.2655 19 26.0003Z" stroke="black" stroke-width="1.5" stroke-linecap="round" stroke-linejoin="round"/>
</svg>
