<svg width="32" height="32" viewBox="0 0 32 32" fill="none" xmlns="http://www.w3.org/2000/svg">
<path d="M11 18.5C11 16.8189 11.4985 15.1755 12.4325 13.7777C13.3665 12.3798 14.694 11.2904 16.2472 10.647C17.8004 10.0037 19.5094 9.83535 21.1583 10.1633C22.8071 10.4913 24.3217 11.3008 25.5104 12.4896C26.6992 13.6783 27.5087 15.1929 27.8367 16.8417C28.1647 18.4906 27.9963 20.1996 27.353 21.7528C26.7096 23.306 25.6202 24.6335 24.2223 25.5675C22.8245 26.5015 21.1811 27 19.5 27H9.5C8.04131 27 6.64236 26.4205 5.61091 25.3891C4.57946 24.3576 4 22.9587 4 21.5C4 20.0413 4.57946 18.6424 5.61091 17.6109C6.64236 16.5795 8.04131 16 9.5 16C10.1086 15.9969 10.7133 16.0983 11.2875 16.3" stroke="black" stroke-width="1.5" stroke-linecap="round" stroke-linejoin="round"/>
<path d="M5.8752 17.3627C4.71276 16.8695 3.68335 16.1085 2.87091 15.1418C2.05847 14.1752 1.486 13.0302 1.2002 11.8002V11.8002C1.79141 11.9305 2.3948 11.9975 3.0002 12.0002C5.12091 11.9969 7.15382 11.153 8.6534 9.6534C10.153 8.15382 10.9969 6.12091 11.0002 4.0002C10.9975 3.3948 10.9305 2.79141 10.8002 2.2002C12.5635 2.60738 14.1367 3.60041 15.2628 5.01711C16.3889 6.43381 17.0014 8.19047 17.0002 10.0002C17.0002 10.1252 17.0002 10.2502 16.9877 10.3752" stroke="black" stroke-width="1.5" stroke-linecap="round" stroke-linejoin="round"/>
</svg>
