<svg width="32" height="32" viewBox="0 0 32 32" fill="none" xmlns="http://www.w3.org/2000/svg">
<path d="M11.7501 7.67493C11.4512 7.10358 11.3847 6.43884 11.5643 5.81957C11.744 5.2003 12.156 4.67439 12.7142 4.3517C13.2725 4.02901 13.9338 3.9345 14.5601 4.0879C15.1864 4.24131 15.7292 4.63077 16.0751 5.17493L19.8251 11.6624" stroke="black" stroke-width="1.5" stroke-linecap="round" stroke-linejoin="round"/>
<path d="M8.42493 11.9001L6.42493 8.43763C6.12605 7.86627 6.05948 7.20153 6.23914 6.58226C6.41879 5.96299 6.83078 5.43708 7.38903 5.11439C7.94728 4.7917 8.60863 4.69719 9.23492 4.8506C9.86121 5.004 10.404 5.39346 10.7499 5.93763L14.9999 13.3001" stroke="black" stroke-width="1.5" stroke-linecap="round" stroke-linejoin="round"/>
<path d="M19.2499 20.6624C18.9205 20.0947 18.7064 19.4676 18.6199 18.817C18.5334 18.1664 18.5761 17.5051 18.7456 16.871C18.9152 16.237 19.2082 15.6426 19.6079 15.1221C20.0076 14.6015 20.5061 14.1649 21.0749 13.8374L19.8249 11.6624C19.4934 11.0872 19.4039 10.4039 19.5762 9.76273C19.7485 9.12159 20.1684 8.57515 20.7436 8.24363C21.3188 7.91211 22.0021 7.82266 22.6433 7.99496C23.2844 8.16726 23.8309 8.58719 24.1624 9.16238L26.6624 13.4999C27.9885 15.7973 28.3476 18.5274 27.6607 21.0897C26.9739 23.6519 25.2973 25.8363 22.9999 27.1624C20.7024 28.4885 17.9723 28.8476 15.4101 28.1607C12.8479 27.4739 10.6635 25.7973 9.33737 23.4999L4.08737 14.3999C3.92322 14.1151 3.81677 13.8007 3.7741 13.4748C3.73144 13.1488 3.75339 12.8177 3.8387 12.5002C4.011 11.8591 4.43093 11.3126 5.00612 10.9811C5.58131 10.6496 6.26464 10.5602 6.90578 10.7325C7.54692 10.9048 8.09335 11.3247 8.42487 11.8999L11.1749 16.6624" stroke="black" stroke-width="1.5" stroke-linecap="round" stroke-linejoin="round"/>
<path d="M10.1375 30C8.43899 28.8285 7.02507 27.2907 6 25.5" stroke="black" stroke-width="1.5" stroke-linecap="round" stroke-linejoin="round"/>
<path d="M22 3.87502C23.141 3.87193 24.2626 4.17101 25.2506 4.74185C26.2386 5.31269 27.0578 6.13494 27.625 7.12502" stroke="black" stroke-width="1.5" stroke-linecap="round" stroke-linejoin="round"/>
</svg>
