<svg width="32" height="32" viewBox="0 0 32 32" fill="none" xmlns="http://www.w3.org/2000/svg">
<path d="M16 28C22.6274 28 28 22.6274 28 16C28 9.37258 22.6274 4 16 4C9.37258 4 4 9.37258 4 16C4 22.6274 9.37258 28 16 28Z" stroke="black" stroke-width="1.5" stroke-linecap="round" stroke-linejoin="round"/>
<path d="M19 10.5H13.975L13 16.525C13.4895 16.0356 14.1131 15.7022 14.7921 15.5672C15.471 15.4322 16.1747 15.5015 16.8142 15.7665C17.4537 16.0314 18.0003 16.48 18.3849 17.0555C18.7695 17.6311 18.9747 18.3078 18.9747 19C18.9747 19.6922 18.7695 20.3689 18.3849 20.9445C18.0003 21.52 17.4537 21.9686 16.8142 22.2335C16.1747 22.4985 15.471 22.5678 14.7921 22.4328C14.1131 22.2978 13.4895 21.9644 13 21.475" stroke="black" stroke-width="1.5" stroke-linecap="round" stroke-linejoin="round"/>
</svg>
