<svg width="32" height="32" viewBox="0 0 32 32" fill="none" xmlns="http://www.w3.org/2000/svg">
<path d="M27 6H5C4.44772 6 4 6.44772 4 7V25C4 25.5523 4.44772 26 5 26H27C27.5523 26 28 25.5523 28 25V7C28 6.44772 27.5523 6 27 6Z" stroke="black" stroke-width="1.5" stroke-linecap="round" stroke-linejoin="round"/>
<path d="M14.5 18.45C14.0133 18.9465 13.3899 19.2868 12.709 19.4275C12.0282 19.5683 11.3209 19.5031 10.6773 19.2402C10.0337 18.9774 9.4829 18.5288 9.09522 17.9518C8.70753 17.3747 8.50049 16.6952 8.50049 16C8.50049 15.3048 8.70753 14.6253 9.09522 14.0482C9.4829 13.4712 10.0337 13.0226 10.6773 12.7598C11.3209 12.4969 12.0282 12.4317 12.709 12.5725C13.3899 12.7132 14.0133 13.0535 14.5 13.55" stroke="black" stroke-width="1.5" stroke-linecap="round" stroke-linejoin="round"/>
<path d="M23.5 18.45C23.0133 18.9465 22.3899 19.2868 21.709 19.4275C21.0282 19.5683 20.3209 19.5031 19.6773 19.2402C19.0337 18.9774 18.4829 18.5288 18.0952 17.9518C17.7075 17.3747 17.5005 16.6952 17.5005 16C17.5005 15.3048 17.7075 14.6253 18.0952 14.0482C18.4829 13.4712 19.0337 13.0226 19.6773 12.7598C20.3209 12.4969 21.0282 12.4317 21.709 12.5725C22.3899 12.7132 23.0133 13.0535 23.5 13.55" stroke="black" stroke-width="1.5" stroke-linecap="round" stroke-linejoin="round"/>
</svg>
