<svg width="32" height="32" viewBox="0 0 32 32" fill="none" xmlns="http://www.w3.org/2000/svg">
<path d="M16 28C22.6274 28 28 22.6274 28 16C28 9.37258 22.6274 4 16 4C9.37258 4 4 9.37258 4 16C4 22.6274 9.37258 28 16 28Z" stroke="black" stroke-width="1.5" stroke-linecap="round" stroke-linejoin="round"/>
<path d="M26.7749 21.2997L19.9874 17.1247C19.8705 17.0496 19.7379 17.0026 19.5999 16.9872L16.7374 16.5997C16.5238 16.5691 16.3061 16.6101 16.1183 16.7164C15.9306 16.8227 15.7834 16.9883 15.6999 17.1872L13.9874 21.0247C13.9068 21.2032 13.8805 21.4014 13.9116 21.5948C13.9427 21.7881 14.0299 21.968 14.1624 22.1122L16.5124 24.6497C16.6186 24.7665 16.6964 24.9062 16.7398 25.058C16.7831 25.2098 16.7909 25.3695 16.7624 25.5247L16.2749 27.9997" stroke="black" stroke-width="1.5" stroke-linecap="round" stroke-linejoin="round"/>
<path d="M8.12522 6.9502L7.00022 9.6002C6.90222 9.83546 6.89775 10.0993 6.98772 10.3377L8.42522 14.1627C8.4814 14.3221 8.57756 14.4645 8.7045 14.5761C8.83144 14.6877 8.98491 14.7649 9.15022 14.8002L11.8252 15.3752C11.9737 15.4052 12.1131 15.4694 12.2325 15.5627C12.3518 15.656 12.4478 15.7759 12.5127 15.9127L12.9877 16.9002C13.0721 17.0672 13.2006 17.2078 13.3592 17.307C13.5179 17.4062 13.7007 17.46 13.8877 17.4627H15.5752" stroke="black" stroke-width="1.5" stroke-linecap="round" stroke-linejoin="round"/>
<path d="M19.0627 4.3877L20.2252 6.4877C20.3325 6.68513 20.3711 6.91265 20.3349 7.13444C20.2987 7.35622 20.1897 7.55965 20.0252 7.7127L16.6627 10.7502C16.6064 10.8039 16.5434 10.8502 16.4752 10.8877L14.9377 11.7377C14.7911 11.8155 14.6286 11.8582 14.4627 11.8627H11.7877C11.5906 11.8637 11.3981 11.9222 11.2338 12.031C11.0695 12.1398 10.9405 12.2942 10.8627 12.4752L9.8252 14.9377" stroke="black" stroke-width="1.5" stroke-linecap="round" stroke-linejoin="round"/>
</svg>
