<svg width="32" height="32" viewBox="0 0 32 32" fill="none" xmlns="http://www.w3.org/2000/svg">
<path d="M11.8379 3.38779C13.449 2.83265 15.2137 2.93241 16.752 3.66559C18.2903 4.39878 19.4792 5.70675 20.0626 7.30786C20.646 8.90898 20.5773 10.6752 19.8713 12.2261C19.1653 13.7771 17.8785 14.9888 16.2879 15.6003L11.8379 3.38779Z" stroke="black" stroke-width="1.5" stroke-linecap="round" stroke-linejoin="round"/>
<path d="M3.38779 18.1624C2.83265 16.5513 2.93241 14.7866 3.66559 13.2483C4.39878 11.71 5.70675 10.5211 7.30786 9.93773C8.90898 9.35431 10.6752 9.423 12.2261 10.129C13.7771 10.835 14.9888 12.1218 15.6003 13.7124L3.38779 18.1624Z" stroke="black" stroke-width="1.5" stroke-linecap="round" stroke-linejoin="round"/>
<path d="M18.1624 26.6129C16.5513 27.168 14.7866 27.0683 13.2483 26.3351C11.71 25.6019 10.5211 24.2939 9.93773 22.6928C9.35431 21.0917 9.423 19.3255 10.129 17.7745C10.835 16.2236 12.1218 15.0119 13.7124 14.4004L18.1624 26.6129Z" stroke="black" stroke-width="1.5" stroke-linecap="round" stroke-linejoin="round"/>
<path d="M26.6129 11.8379C27.168 13.449 27.0683 15.2137 26.3351 16.752C25.6019 18.2903 24.2939 19.4792 22.6928 20.0626C21.0917 20.646 19.3255 20.5773 17.7745 19.8713C16.2236 19.1653 15.0119 17.8785 14.4004 16.2879L26.6129 11.8379Z" stroke="black" stroke-width="1.5" stroke-linecap="round" stroke-linejoin="round"/>
<path d="M20.5625 20.5625L28 28" stroke="black" stroke-width="1.5" stroke-linecap="round" stroke-linejoin="round"/>
</svg>
