<svg width="32" height="32" viewBox="0 0 32 32" fill="none" xmlns="http://www.w3.org/2000/svg">
<path d="M11 21L6 26" stroke="black" stroke-width="1.5" stroke-linecap="round" stroke-linejoin="round"/>
<path d="M19.2875 3.71239L11.5 11.4999C11.5 11.4999 8.03754 9.76239 4.32504 12.7624C4.2158 12.8508 4.12642 12.9612 4.06272 13.0865C3.99903 13.2118 3.96245 13.349 3.95537 13.4894C3.94829 13.6297 3.97088 13.77 4.02165 13.901C4.07243 14.0321 4.15025 14.1509 4.25004 14.2499L17.725 27.7249C17.8259 27.8275 17.9477 27.9072 18.0822 27.9584C18.2167 28.0096 18.3606 28.0313 18.5042 28.0218C18.6478 28.0123 18.7877 27.9719 18.9142 27.9034C19.0408 27.8349 19.1511 27.7399 19.2375 27.6249C20.2875 26.2374 21.9375 23.3624 20.5 20.4999L28.2875 12.7124C28.382 12.6193 28.4571 12.5084 28.5083 12.3861C28.5595 12.2638 28.5859 12.1325 28.5859 11.9999C28.5859 11.8673 28.5595 11.736 28.5083 11.6137C28.4571 11.4914 28.382 11.3804 28.2875 11.2874L20.7125 3.71239C20.6195 3.61791 20.5086 3.54287 20.3863 3.49165C20.2639 3.44044 20.1327 3.41406 20 3.41406C19.8674 3.41406 19.7361 3.44044 19.6138 3.49165C19.4915 3.54287 19.3806 3.61791 19.2875 3.71239Z" stroke="black" stroke-width="1.5" stroke-linecap="round" stroke-linejoin="round"/>
</svg>
