<svg width="32" height="32" viewBox="0 0 32 32" fill="none" xmlns="http://www.w3.org/2000/svg">
<path d="M28.1875 17.0004H24.1875C23.6571 17.0004 23.1484 17.2111 22.7733 17.5862C22.3982 17.9613 22.1875 18.47 22.1875 19.0004V24.0004C22.1875 24.5308 22.3982 25.0396 22.7733 25.4146C23.1484 25.7897 23.6571 26.0004 24.1875 26.0004H26.1875C26.7179 26.0004 27.2266 25.7897 27.6017 25.4146C27.9768 25.0396 28.1875 24.5308 28.1875 24.0004V17.0004ZM28.1875 17.0004C28.1876 15.4161 27.8739 13.8475 27.2646 12.385C26.6553 10.9225 25.7624 9.5952 24.6375 8.47958C23.5126 7.36396 22.1779 6.48214 20.7104 5.885C19.2429 5.28786 17.6718 4.98721 16.0875 5.00042C14.5043 4.98887 12.9344 5.29074 11.4684 5.88863C10.0024 6.48651 8.66919 7.36859 7.5456 8.48405C6.42201 9.5995 5.53026 10.9263 4.92174 12.3879C4.31322 13.8496 3.99996 15.4172 4 17.0004V24.0004C4 24.5308 4.21071 25.0396 4.58579 25.4146C4.96086 25.7897 5.46957 26.0004 6 26.0004H8C8.53043 26.0004 9.03914 25.7897 9.41421 25.4146C9.78929 25.0396 10 24.5308 10 24.0004V19.0004C10 18.47 9.78929 17.9613 9.41421 17.5862C9.03914 17.2111 8.53043 17.0004 8 17.0004H4" stroke="black" stroke-width="1.5" stroke-linecap="round" stroke-linejoin="round"/>
</svg>
