<svg width="32" height="32" viewBox="0 0 32 32" fill="none" xmlns="http://www.w3.org/2000/svg">
<path d="M11 21L6 26" stroke="black" stroke-width="1.5" stroke-linecap="round" stroke-linejoin="round"/>
<path d="M6 5L26 27" stroke="black" stroke-width="1.5" stroke-linecap="round" stroke-linejoin="round"/>
<path d="M11.7125 11.2875L11.5 11.5C11.5 11.5 8.03754 9.76245 4.32504 12.7625C4.2158 12.8509 4.12642 12.9613 4.06272 13.0866C3.99903 13.2118 3.96245 13.3491 3.95537 13.4895C3.94829 13.6298 3.97088 13.7701 4.02165 13.9011C4.07243 14.0321 4.15025 14.151 4.25004 14.25L17.725 27.725C17.8259 27.8276 17.9477 27.9072 18.0822 27.9585C18.2167 28.0097 18.3606 28.0313 18.5042 28.0218C18.6478 28.0123 18.7877 27.972 18.9142 27.9035C19.0408 27.835 19.1511 27.74 19.2375 27.625C20.1875 26.3625 21.625 23.8875 20.825 21.3125" stroke="black" stroke-width="1.5" stroke-linecap="round" stroke-linejoin="round"/>
<path d="M23.1123 17.8874L28.2873 12.7124C28.3818 12.6193 28.4568 12.5084 28.508 12.3861C28.5593 12.2638 28.5856 12.1325 28.5856 11.9999C28.5856 11.8673 28.5593 11.736 28.508 11.6137C28.4568 11.4914 28.3818 11.3804 28.2873 11.2874L20.7123 3.71239C20.6193 3.61791 20.5083 3.54287 20.386 3.49165C20.2637 3.44044 20.1324 3.41406 19.9998 3.41406C19.8672 3.41406 19.7359 3.44044 19.6136 3.49165C19.4913 3.54287 19.3804 3.61791 19.2873 3.71239L14.5498 8.44989" stroke="black" stroke-width="1.5" stroke-linecap="round" stroke-linejoin="round"/>
</svg>
