<svg width="32" height="32" viewBox="0 0 32 32" fill="none" xmlns="http://www.w3.org/2000/svg">
<path d="M5.5 25H7.5C8.03043 25 8.53914 24.7893 8.91421 24.4142C9.28929 24.0391 9.5 23.5304 9.5 23C9.5 22.4696 9.28929 21.9609 8.91421 21.5858C8.53914 21.2107 8.03043 21 7.5 21H5.5V27" stroke="black" stroke-width="1.5" stroke-linecap="round" stroke-linejoin="round"/>
<path d="M13.5 27V21L18 27V21" stroke="black" stroke-width="1.5" stroke-linecap="round" stroke-linejoin="round"/>
<path d="M25.5 24.25H27V25.725C26.7625 26.1096 26.4317 26.4281 26.0384 26.6509C25.6452 26.8738 25.202 26.9939 24.75 27C23.225 27 22 25.6625 22 24C22 22.3375 23.225 21 24.75 21C25.2891 20.999 25.8145 21.1698 26.25 21.4875" stroke="black" stroke-width="1.5" stroke-linecap="round" stroke-linejoin="round"/>
<path d="M6 16V5C6 4.73478 6.10536 4.48043 6.29289 4.29289C6.48043 4.10536 6.73478 4 7 4H19L26 11V16" stroke="black" stroke-width="1.5" stroke-linecap="round" stroke-linejoin="round"/>
<path d="M19 4V11H26" stroke="black" stroke-width="1.5" stroke-linecap="round" stroke-linejoin="round"/>
</svg>
