<svg width="32" height="32" viewBox="0 0 32 32" fill="none" xmlns="http://www.w3.org/2000/svg">
<path d="M15.9127 11.8749C16.4702 11.3231 17.2208 11.0105 18.0051 11.0035C18.7894 10.9965 19.5455 11.2957 20.1127 11.8374C21.3252 12.9999 21.3002 14.9749 20.1002 16.1749L11.7252 24.2874C11.5358 24.4754 11.4282 24.7305 11.4258 24.9973C11.4235 25.2642 11.5266 25.5212 11.7127 25.7124L15.3002 29.2999C15.4876 29.4856 15.7401 29.5908 16.004 29.5932C16.2678 29.5955 16.5221 29.4948 16.7127 29.3124L25.0127 21.1624C28.9127 17.2624 29.0252 10.9124 25.1627 6.98742C24.2372 6.04603 23.1345 5.29721 21.9181 4.78415C20.7018 4.27109 19.3959 4.00395 18.0758 3.99814C16.7556 3.99233 15.4474 4.24797 14.2266 4.7503C13.0058 5.25263 11.8965 5.99171 10.9627 6.92492L2.70024 15.2874C2.51323 15.4749 2.4082 15.7289 2.4082 15.9937C2.4082 16.2585 2.51323 16.5125 2.70024 16.6999L6.28774 20.2874C6.47898 20.4735 6.73596 20.5766 7.00281 20.5743C7.26966 20.572 7.5248 20.4644 7.71274 20.2749L15.9127 11.8749Z" stroke="black" stroke-width="1.5" stroke-linecap="round" stroke-linejoin="round"/>
<path d="M15.8496 20.2998L20.8246 25.2748" stroke="black" stroke-width="1.5" stroke-linecap="round" stroke-linejoin="round"/>
<path d="M6.75 11.2002L11.7125 16.1752" stroke="black" stroke-width="1.5" stroke-linecap="round" stroke-linejoin="round"/>
</svg>
