<svg width="32" height="32" viewBox="0 0 32 32" fill="none" xmlns="http://www.w3.org/2000/svg">
<path d="M16 3C16 3 28.5 11 28.5 17.5C28.5011 18.7374 28.1489 19.9495 27.4848 20.9936C26.8208 22.0378 25.8725 22.8708 24.7514 23.3946C23.6303 23.9184 22.383 24.1112 21.156 23.9506C19.929 23.7899 18.7734 23.2823 17.825 22.4875L20 29H12L14.175 22.4875C13.2266 23.2823 12.071 23.7899 10.844 23.9506C9.61705 24.1112 8.36971 23.9184 7.2486 23.3946C6.12749 22.8708 5.17919 22.0378 4.51516 20.9936C3.85112 19.9495 3.49894 18.7374 3.5 17.5C3.5 11 16 3 16 3Z" stroke="black" stroke-width="1.5" stroke-linecap="round" stroke-linejoin="round"/>
</svg>
