<svg width="32" height="32" viewBox="0 0 32 32" fill="none" xmlns="http://www.w3.org/2000/svg">
<path d="M18.7503 12.7501C18.7466 13.3829 18.5238 13.9948 18.1199 14.4818C17.7159 14.9688 17.1557 15.3009 16.5345 15.4214C15.9134 15.542 15.2696 15.4437 14.7128 15.1432C14.156 14.8427 13.7204 14.3585 13.4802 13.7731C13.2401 13.1877 13.2101 12.5372 13.3955 11.9322C13.5808 11.3272 13.97 10.8051 14.4969 10.4547C15.0238 10.1043 15.6558 9.9472 16.2854 10.0102C16.915 10.0732 17.5033 10.3523 17.9503 10.8001C18.4619 11.3204 18.7492 12.0205 18.7503 12.7501Z" stroke="black" stroke-width="1.5" stroke-linecap="round" stroke-linejoin="round"/>
<path d="M19.2504 18.7499C19.2483 19.4984 18.9869 20.2231 18.5107 20.8006C18.0345 21.3781 17.3729 21.7728 16.6385 21.9174C15.9041 22.062 15.1423 21.9477 14.4826 21.5939C13.823 21.2401 13.3064 20.6687 13.0206 19.9769C12.7348 19.285 12.6976 18.5156 12.9153 17.7994C13.133 17.0832 13.5921 16.4646 14.2145 16.0488C14.837 15.6331 15.5842 15.4458 16.3292 15.5189C17.0741 15.592 17.7707 15.921 18.3004 16.4499C18.6026 16.7517 18.8421 17.1102 19.0052 17.505C19.1682 17.8997 19.2516 18.3228 19.2504 18.7499Z" stroke="black" stroke-width="1.5" stroke-linecap="round" stroke-linejoin="round"/>
<path d="M26 5H6C5.44772 5 5 5.44772 5 6V26C5 26.5523 5.44772 27 6 27H26C26.5523 27 27 26.5523 27 26V6C27 5.44772 26.5523 5 26 5Z" stroke="black" stroke-width="1.5" stroke-linecap="round" stroke-linejoin="round"/>
</svg>
