<svg width="32" height="32" viewBox="0 0 32 32" fill="none" xmlns="http://www.w3.org/2000/svg">
<path d="M27.3623 9.6377C28.1991 10.4725 28.863 11.4642 29.3159 12.556C29.7689 13.6478 30.0021 14.8182 30.0021 16.0002C30.0021 17.1822 29.7689 18.3526 29.3159 19.4444C28.863 20.5362 28.1991 21.5279 27.3623 22.3627" stroke="black" stroke-width="1.5" stroke-linecap="round" stroke-linejoin="round"/>
<path d="M10 11V21" stroke="black" stroke-width="1.5" stroke-linecap="round" stroke-linejoin="round"/>
<path d="M23.8252 13.1748C24.1971 13.5453 24.4922 13.9855 24.6935 14.4703C24.8949 14.9551 24.9985 15.4749 24.9985 15.9998C24.9985 16.5247 24.8949 17.0445 24.6935 17.5293C24.4922 18.0141 24.1971 18.4543 23.8252 18.8248" stroke="black" stroke-width="1.5" stroke-linecap="round" stroke-linejoin="round"/>
<path d="M6 5L26 27" stroke="black" stroke-width="1.5" stroke-linecap="round" stroke-linejoin="round"/>
<path d="M19 19.3004V28.0004L10 21.0004H4C3.73478 21.0004 3.48043 20.895 3.29289 20.7075C3.10536 20.52 3 20.2656 3 20.0004V12.0004C3 11.7352 3.10536 11.4808 3.29289 11.2933C3.48043 11.1057 3.73478 11.0004 4 11.0004H10L10.85 10.3379" stroke="black" stroke-width="1.5" stroke-linecap="round" stroke-linejoin="round"/>
<path d="M14.0249 7.875L18.9999 4V13.35" stroke="black" stroke-width="1.5" stroke-linecap="round" stroke-linejoin="round"/>
</svg>
