<svg width="32" height="32" viewBox="0 0 32 32" fill="none" xmlns="http://www.w3.org/2000/svg">
<path d="M5.63752 24.5004C5.66951 24.6319 5.72752 24.7556 5.80812 24.8643C5.88873 24.9729 5.99029 25.0644 6.10682 25.1331C6.22334 25.2019 6.35246 25.2466 6.48656 25.2646C6.62065 25.2826 6.75699 25.2735 6.88752 25.2379C12.8463 23.588 19.1413 23.588 25.1 25.2379C25.2306 25.2735 25.3669 25.2826 25.501 25.2646C25.6351 25.2466 25.7642 25.2019 25.8807 25.1331C25.9973 25.0644 26.0988 24.9729 26.1794 24.8643C26.26 24.7556 26.318 24.6319 26.35 24.5004L29.5375 10.9629C29.5813 10.7817 29.5735 10.5919 29.5151 10.4149C29.4567 10.2379 29.35 10.0807 29.207 9.96109C29.064 9.8415 28.8905 9.76426 28.7059 9.73808C28.5213 9.7119 28.3331 9.73783 28.1625 9.81295L21.8375 12.6254C21.6083 12.7264 21.3499 12.7388 21.1121 12.6603C20.8743 12.5818 20.6741 12.418 20.55 12.2004L16.875 5.57545C16.7885 5.41915 16.6618 5.28886 16.5079 5.19814C16.354 5.10742 16.1787 5.05957 16 5.05957C15.8214 5.05957 15.646 5.10742 15.4921 5.19814C15.3383 5.28886 15.2115 5.41915 15.125 5.57545L11.45 12.2004C11.326 12.418 11.1257 12.5818 10.8879 12.6603C10.6501 12.7388 10.3917 12.7264 10.1625 12.6254L3.83752 9.81295C3.66691 9.73783 3.47871 9.7119 3.29414 9.73808C3.10958 9.76426 2.93601 9.8415 2.79302 9.96109C2.65002 10.0807 2.54331 10.2379 2.48491 10.4149C2.42651 10.5919 2.41876 10.7817 2.46252 10.9629L5.63752 24.5004Z" stroke="black" stroke-width="1.5" stroke-linecap="round" stroke-linejoin="round"/>
</svg>
