<svg width="32" height="32" viewBox="0 0 32 32" fill="none" xmlns="http://www.w3.org/2000/svg">
<path d="M26 18H6C5.44772 18 5 18.4477 5 19V25C5 25.5523 5.44772 26 6 26H26C26.5523 26 27 25.5523 27 25V19C27 18.4477 26.5523 18 26 18Z" stroke="black" stroke-width="1.5" stroke-linecap="round" stroke-linejoin="round"/>
<path d="M26 6H6C5.44772 6 5 6.44772 5 7V13C5 13.5523 5.44772 14 6 14H26C26.5523 14 27 13.5523 27 13V7C27 6.44772 26.5523 6 26 6Z" stroke="black" stroke-width="1.5" stroke-linecap="round" stroke-linejoin="round"/>
<path d="M22.5 11.25C23.1904 11.25 23.75 10.6904 23.75 10C23.75 9.30964 23.1904 8.75 22.5 8.75C21.8096 8.75 21.25 9.30964 21.25 10C21.25 10.6904 21.8096 11.25 22.5 11.25Z" fill="black"/>
<path d="M22.5 23.25C23.1904 23.25 23.75 22.6904 23.75 22C23.75 21.3096 23.1904 20.75 22.5 20.75C21.8096 20.75 21.25 21.3096 21.25 22C21.25 22.6904 21.8096 23.25 22.5 23.25Z" fill="black"/>
</svg>
