<svg width="32" height="32" viewBox="0 0 32 32" fill="none" xmlns="http://www.w3.org/2000/svg">
<path d="M5 7V22" stroke="black" stroke-width="1.5" stroke-linecap="round" stroke-linejoin="round"/>
<path d="M18 14.5H5" stroke="black" stroke-width="1.5" stroke-linecap="round" stroke-linejoin="round"/>
<path d="M18 7V22" stroke="black" stroke-width="1.5" stroke-linecap="round" stroke-linejoin="round"/>
<path d="M30 13.5H24.975L24 19.525C24.4895 19.0356 25.1131 18.7022 25.7921 18.5672C26.471 18.4322 27.1747 18.5015 27.8142 18.7665C28.4537 19.0314 29.0003 19.48 29.3849 20.0555C29.7695 20.6311 29.9747 21.3078 29.9747 22C29.9747 22.6922 29.7695 23.3689 29.3849 23.9445C29.0003 24.52 28.4537 24.9686 27.8142 25.2335C27.1747 25.4985 26.471 25.5678 25.7921 25.4328C25.1131 25.2978 24.4895 24.9644 24 24.475" stroke="black" stroke-width="1.5" stroke-linecap="round" stroke-linejoin="round"/>
</svg>
