<svg width="32" height="32" viewBox="0 0 32 32" fill="none" xmlns="http://www.w3.org/2000/svg">
<path d="M19 4V11H26" stroke="black" stroke-width="1.5" stroke-linecap="round" stroke-linejoin="round"/>
<path d="M22 28H25C25.2652 28 25.5196 27.8946 25.7071 27.7071C25.8946 27.5196 26 27.2652 26 27V11L19 4H7C6.73478 4 6.48043 4.10536 6.29289 4.29289C6.10536 4.48043 6 4.73478 6 5V16" stroke="black" stroke-width="1.5" stroke-linecap="round" stroke-linejoin="round"/>
<path d="M8.2125 21H7.5C6.57174 21 5.6815 21.3688 5.02513 22.0251C4.36875 22.6815 4 23.5717 4 24.5C4 25.4283 4.36875 26.3185 5.02513 26.9749C5.6815 27.6313 6.57174 28 7.5 28H13.5C14.5878 28 15.6512 27.6774 16.5556 27.0731C17.4601 26.4687 18.1651 25.6098 18.5813 24.6048C18.9976 23.5998 19.1065 22.4939 18.8943 21.427C18.6821 20.3601 18.1583 19.3801 17.3891 18.6109C16.6199 17.8417 15.6399 17.3179 14.573 17.1057C13.5061 16.8935 12.4002 17.0024 11.3952 17.4187C10.3902 17.8349 9.53126 18.5399 8.92692 19.4444C8.32257 20.3488 8 21.4122 8 22.5" stroke="black" stroke-width="1.5" stroke-linecap="round" stroke-linejoin="round"/>
</svg>
