<svg width="32" height="32" viewBox="0 0 32 32" fill="none" xmlns="http://www.w3.org/2000/svg">
<path d="M6 5L26 27" stroke="black" stroke-width="1.5" stroke-linecap="round" stroke-linejoin="round"/>
<path d="M16.9248 11.0749L23.2873 4.71239C23.4264 4.57111 23.6044 4.47438 23.7987 4.4345C23.9929 4.39462 24.1946 4.41338 24.3782 4.48841C24.5617 4.56344 24.7188 4.69134 24.8295 4.85586C24.9402 5.02039 24.9995 5.2141 24.9998 5.41239V19.9499" stroke="black" stroke-width="1.5" stroke-linecap="round" stroke-linejoin="round"/>
<path d="M25.9999 27.0004H3.41239C3.2141 27.0001 3.02039 26.9408 2.85586 26.8301C2.69134 26.7194 2.56344 26.5623 2.48841 26.3788C2.41338 26.1952 2.39462 25.9935 2.4345 25.7993C2.47438 25.605 2.57111 25.427 2.71239 25.2879L14.0999 13.9004" stroke="black" stroke-width="1.5" stroke-linecap="round" stroke-linejoin="round"/>
</svg>
