<svg width="32" height="32" viewBox="0 0 32 32" fill="none" xmlns="http://www.w3.org/2000/svg">
<path d="M22.4749 14.4755L23.0874 15.088C23.4584 15.4645 23.6664 15.9719 23.6664 16.5005C23.6664 17.0291 23.4584 17.5364 23.0874 17.913L22.2124 18.788C22.1193 18.8824 22.0084 18.9575 21.8861 19.0087C21.7638 19.0599 21.6325 19.0863 21.4999 19.0863C21.3673 19.0863 21.236 19.0599 21.1137 19.0087C20.9914 18.9575 20.8804 18.8824 20.7874 18.788L13.2124 11.213C13.1179 11.1199 13.0429 11.009 12.9917 10.8867C12.9404 10.7644 12.9141 10.6331 12.9141 10.5005C12.9141 10.3678 12.9404 10.2366 12.9917 10.1142C13.0429 9.99192 13.1179 9.88101 13.2124 9.78796L14.0874 8.91296C14.4639 8.54195 14.9713 8.33398 15.4999 8.33398C16.0285 8.33398 16.5359 8.54195 16.9124 8.91296L17.5249 9.52546L20.9749 6.07546C22.3249 4.72546 24.5249 4.65046 25.8999 5.96296C26.2393 6.284 26.511 6.66976 26.699 7.09748C26.887 7.5252 26.9875 7.98623 26.9945 8.45339C27.0015 8.92055 26.9148 9.38438 26.7397 9.81753C26.5646 10.2507 26.3046 10.6444 25.9749 10.9755L22.4749 14.4755Z" stroke="black" stroke-width="1.5" stroke-linecap="round" stroke-linejoin="round"/>
<path d="M19.8248 17.8248L12.8248 24.8248C12.3308 25.3247 11.7128 25.6843 11.034 25.8666C10.3553 26.0489 9.64027 26.0474 8.96229 25.8623L6.03729 27.1373C5.85487 27.2173 5.65271 27.241 5.45673 27.2054C5.26075 27.1698 5.07987 27.0764 4.93729 26.9373V26.9373C4.83359 26.8352 4.76363 26.7039 4.73681 26.5608C4.71 26.4178 4.72761 26.27 4.78729 26.1373L6.13729 23.0373C5.95216 22.3593 5.95067 21.6443 6.13299 20.9656C6.3153 20.2868 6.67486 19.6688 7.17479 19.1748L14.1748 12.1748" stroke="black" stroke-width="1.5" stroke-linecap="round" stroke-linejoin="round"/>
</svg>
