<svg width="32" height="32" viewBox="0 0 32 32" fill="none" xmlns="http://www.w3.org/2000/svg">
<path d="M15 26C16.3807 26 17.5 24.8807 17.5 23.5C17.5 22.1193 16.3807 21 15 21C13.6193 21 12.5 22.1193 12.5 23.5C12.5 24.8807 13.6193 26 15 26Z" stroke="black" stroke-width="1.5" stroke-linecap="round" stroke-linejoin="round"/>
<path d="M15 21V6" stroke="black" stroke-width="1.5" stroke-linecap="round" stroke-linejoin="round"/>
<path d="M30.0374 9.99982C29.8052 10.2323 29.5295 10.4167 29.226 10.5425C28.9225 10.6683 28.5972 10.733 28.2687 10.733C27.9401 10.733 27.6148 10.6683 27.3113 10.5425C27.0078 10.4167 26.7321 10.2323 26.4999 9.99982C26.2677 9.76738 25.992 9.58298 25.6885 9.45717C25.385 9.33136 25.0597 9.2666 24.7312 9.2666C24.4026 9.2666 24.0773 9.33136 23.7738 9.45717C23.4703 9.58298 23.1946 9.76738 22.9624 9.99982" stroke="black" stroke-width="1.5" stroke-linecap="round" stroke-linejoin="round"/>
<path d="M30.0374 14.9998C29.8052 15.2323 29.5295 15.4167 29.226 15.5425C28.9225 15.6683 28.5972 15.733 28.2687 15.733C27.9401 15.733 27.6148 15.6683 27.3113 15.5425C27.0078 15.4167 26.7321 15.2323 26.4999 14.9998C26.2677 14.7674 25.992 14.583 25.6885 14.4572C25.385 14.3314 25.0597 14.2666 24.7312 14.2666C24.4026 14.2666 24.0773 14.3314 23.7738 14.4572C23.4703 14.583 23.1946 14.7674 22.9624 14.9998" stroke="black" stroke-width="1.5" stroke-linecap="round" stroke-linejoin="round"/>
<path d="M11 18.375V6C11 4.93913 11.4214 3.92172 12.1716 3.17157C12.9217 2.42143 13.9391 2 15 2C16.0609 2 17.0783 2.42143 17.8284 3.17157C18.5786 3.92172 19 4.93913 19 6V18.375C20.0669 19.2079 20.8471 20.3531 21.2318 21.6507C21.6166 22.9484 21.5867 24.3338 21.1462 25.6136C20.7058 26.8934 19.8769 28.0038 18.775 28.7899C17.6732 29.576 16.3535 29.9985 15 29.9985C13.6465 29.9985 12.3268 29.576 11.225 28.7899C10.1231 28.0038 9.29418 26.8934 8.85376 25.6136C8.41333 24.3338 8.38341 22.9484 8.76816 21.6507C9.15291 20.3531 9.93315 19.2079 11 18.375V18.375Z" stroke="black" stroke-width="1.5" stroke-linecap="round" stroke-linejoin="round"/>
</svg>
