<svg width="32" height="32" viewBox="0 0 32 32" fill="none" xmlns="http://www.w3.org/2000/svg">
<path d="M11 29H21" stroke="black" stroke-width="1.5" stroke-linecap="round" stroke-linejoin="round"/>
<path d="M16 25V18" stroke="black" stroke-width="1.5" stroke-linecap="round" stroke-linejoin="round"/>
<path d="M12 14L16 18L20 14" stroke="black" stroke-width="1.5" stroke-linecap="round" stroke-linejoin="round"/>
<path d="M9.83761 20.8749C8.6471 19.9492 7.68288 18.7647 7.01801 17.4111C6.35313 16.0576 6.00504 14.5704 6.00011 13.0624C5.97511 7.63738 10.3376 3.12488 15.7626 2.99988C17.8622 2.95011 19.9242 3.56263 21.6561 4.75059C23.388 5.93854 24.7019 7.64161 25.4115 9.61827C26.1211 11.5949 26.1904 13.7448 25.6094 15.7631C25.0285 17.7813 23.827 19.5654 22.1751 20.8624C21.8102 21.1444 21.5146 21.5062 21.311 21.92C21.1073 22.3338 21.001 22.7887 21.0001 23.2499V23.9999C21.0001 24.2651 20.8948 24.5195 20.7072 24.707C20.5197 24.8945 20.2653 24.9999 20.0001 24.9999H12.0001C11.7349 24.9999 11.4805 24.8945 11.293 24.707C11.1055 24.5195 11.0001 24.2651 11.0001 23.9999V23.2499C10.997 22.7921 10.8909 22.341 10.6896 21.9298C10.4884 21.5187 10.1972 21.1581 9.83761 20.8749V20.8749Z" stroke="black" stroke-width="1.5" stroke-linecap="round" stroke-linejoin="round"/>
</svg>
