<svg width="32" height="32" viewBox="0 0 32 32" fill="none" xmlns="http://www.w3.org/2000/svg">
<path d="M12 18.375V6C12 4.93913 12.4214 3.92172 13.1716 3.17157C13.9217 2.42143 14.9391 2 16 2C17.0609 2 18.0783 2.42143 18.8284 3.17157C19.5786 3.92172 20 4.93913 20 6V18.375C21.0669 19.2079 21.8471 20.3531 22.2318 21.6507C22.6166 22.9484 22.5867 24.3338 22.1462 25.6136C21.7058 26.8934 20.8769 28.0038 19.775 28.7899C18.6732 29.576 17.3535 29.9985 16 29.9985C14.6465 29.9985 13.3268 29.576 12.225 28.7899C11.1231 28.0038 10.2942 26.8934 9.85376 25.6136C9.41333 24.3338 9.38341 22.9484 9.76816 21.6507C10.1529 20.3531 10.9331 19.2079 12 18.375V18.375Z" stroke="black" stroke-width="1.5" stroke-linecap="round" stroke-linejoin="round"/>
<path d="M16 26C17.3807 26 18.5 24.8807 18.5 23.5C18.5 22.1193 17.3807 21 16 21C14.6193 21 13.5 22.1193 13.5 23.5C13.5 24.8807 14.6193 26 16 26Z" stroke="black" stroke-width="1.5" stroke-linecap="round" stroke-linejoin="round"/>
<path d="M16 21V11" stroke="black" stroke-width="1.5" stroke-linecap="round" stroke-linejoin="round"/>
</svg>
