<svg width="32" height="32" viewBox="0 0 32 32" fill="none" xmlns="http://www.w3.org/2000/svg">
<path d="M27.8755 15.4375L15.8505 27.4625C15.4739 27.8335 14.9666 28.0415 14.438 28.0415C13.9094 28.0415 13.402 27.8335 13.0255 27.4625L2.41296 16.85C2.04195 16.4735 1.83398 15.9661 1.83398 15.4375C1.83398 14.9089 2.04195 14.4015 2.41296 14.025L14.438 2L27.8755 15.4375Z" stroke="black" stroke-width="1.5" stroke-linecap="round" stroke-linejoin="round"/>
<path d="M15.5 17C16.8807 17 18 15.8807 18 14.5C18 13.1193 16.8807 12 15.5 12C14.1193 12 13 13.1193 13 14.5C13 15.8807 14.1193 17 15.5 17Z" stroke="black" stroke-width="1.5" stroke-linecap="round" stroke-linejoin="round"/>
<path d="M26 25.5C26 23 28.5 20.5 28.5 20.5C28.5 20.5 31 23 31 25.5C31 26.163 30.7366 26.7989 30.2678 27.2678C29.7989 27.7366 29.163 28 28.5 28C27.837 28 27.2011 27.7366 26.7322 27.2678C26.2634 26.7989 26 26.163 26 25.5V25.5Z" stroke="black" stroke-width="1.5" stroke-linecap="round" stroke-linejoin="round"/>
<path d="M13.7373 12.7373L4.7373 3.7373" stroke="black" stroke-width="1.5" stroke-linecap="round" stroke-linejoin="round"/>
</svg>
