<svg width="32" height="32" viewBox="0 0 32 32" fill="none" xmlns="http://www.w3.org/2000/svg">
<path d="M4.38792 11.6627L7.81292 26.2252C7.86584 26.4446 7.99052 26.6399 8.16716 26.7803C8.34381 26.9208 8.56229 26.9981 8.78792 27.0002H23.2129C23.4386 26.9981 23.657 26.9208 23.8337 26.7803C24.0103 26.6399 24.135 26.4446 24.1879 26.2252L27.6129 11.6627C27.6511 11.4927 27.6448 11.3157 27.5946 11.1489C27.5444 10.982 27.452 10.8309 27.3263 10.7103C27.2006 10.5896 27.0458 10.5034 26.8771 10.46C26.7083 10.4167 26.5312 10.4176 26.3629 10.4627L21.0004 12.0002L16.3754 10.1502C16.2566 10.1007 16.1291 10.0752 16.0004 10.0752C15.8717 10.0752 15.7442 10.1007 15.6254 10.1502L11.0004 12.0002L5.63792 10.4627C5.46962 10.4176 5.29252 10.4167 5.12376 10.46C4.955 10.5034 4.80029 10.5896 4.67459 10.7103C4.5489 10.8309 4.45647 10.982 4.40625 11.1489C4.35603 11.3157 4.34972 11.4927 4.38792 11.6627V11.6627Z" stroke="black" stroke-width="1.5" stroke-linecap="round" stroke-linejoin="round"/>
<path d="M11 12L13 27" stroke="black" stroke-width="1.5" stroke-linecap="round" stroke-linejoin="round"/>
<path d="M21 12L19 27" stroke="black" stroke-width="1.5" stroke-linecap="round" stroke-linejoin="round"/>
<path d="M27 10.4999C27.0003 9.72319 26.7995 8.95961 26.4172 8.28346C26.0349 7.60732 25.4842 7.04164 24.8184 6.64146C24.1527 6.24128 23.3948 6.02023 22.6183 5.9998C21.8419 5.97938 21.0733 6.16029 20.3875 6.52492C20.172 5.52126 19.6189 4.62183 18.8205 3.97663C18.022 3.33144 17.0265 2.97949 16 2.97949C14.9735 2.97949 13.978 3.33144 13.1795 3.97663C12.3811 4.62183 11.828 5.52126 11.6125 6.52492C10.9267 6.16029 10.1581 5.97938 9.38168 5.9998C8.60522 6.02023 7.84726 6.24128 7.18155 6.64146C6.51584 7.04164 5.96505 7.60732 5.58277 8.28346C5.20048 8.95961 4.99971 9.72319 5 10.4999" stroke="black" stroke-width="1.5" stroke-linecap="round" stroke-linejoin="round"/>
</svg>
