<svg width="32" height="32" viewBox="0 0 32 32" fill="none" xmlns="http://www.w3.org/2000/svg">
<path d="M9.75 25.1625L5.6375 28.6125C5.49181 28.7331 5.31493 28.8098 5.12737 28.8339C4.93981 28.858 4.74927 28.8284 4.57784 28.7486C4.40642 28.6688 4.26114 28.542 4.15886 28.3829C4.05658 28.2239 4.0015 28.0391 4 27.85V8C4 7.73478 4.10536 7.48043 4.29289 7.29289C4.48043 7.10536 4.73478 7 5 7H27C27.2652 7 27.5196 7.10536 27.7071 7.29289C27.8946 7.48043 28 7.73478 28 8V24C28 24.2652 27.8946 24.5196 27.7071 24.7071C27.5196 24.8946 27.2652 25 27 25H10.2125L9.75 25.1625Z" stroke="black" stroke-width="1.5" stroke-linecap="round" stroke-linejoin="round"/>
<path d="M12 14H20" stroke="black" stroke-width="1.5" stroke-linecap="round" stroke-linejoin="round"/>
<path d="M12 18H20" stroke="black" stroke-width="1.5" stroke-linecap="round" stroke-linejoin="round"/>
</svg>
