<svg width="32" height="32" viewBox="0 0 32 32" fill="none" xmlns="http://www.w3.org/2000/svg">
<path d="M24.3 24.55L30 16L24.3 7.45004C24.2095 7.31062 24.0854 7.19628 23.939 7.11762C23.7926 7.03896 23.6287 6.99852 23.4625 7.00004H5C4.73478 7.00004 4.48043 7.1054 4.29289 7.29294C4.10536 7.48047 4 7.73483 4 8.00004V24C4 24.2653 4.10536 24.5196 4.29289 24.7071C4.48043 24.8947 4.73478 25 5 25H23.4625C23.6287 25.0016 23.7926 24.9611 23.939 24.8825C24.0854 24.8038 24.2095 24.6895 24.3 24.55V24.55Z" stroke="black" stroke-width="1.5" stroke-linecap="round" stroke-linejoin="round"/>
</svg>
