<svg width="32" height="32" viewBox="0 0 32 32" fill="none" xmlns="http://www.w3.org/2000/svg">
<path d="M10.3753 14.0002H21.6253L24.4503 6.4627C24.4881 6.36404 24.5562 6.27988 24.6448 6.22232C24.7334 6.16476 24.8379 6.13674 24.9435 6.14229C25.049 6.14785 25.15 6.18668 25.2321 6.25323C25.3142 6.31978 25.373 6.41061 25.4003 6.5127L28.8253 19.3252C28.8734 19.5238 28.861 19.7323 28.7897 19.9239C28.7184 20.1154 28.5915 20.2813 28.4253 20.4002L16.5753 28.6002C16.4062 28.7169 16.2057 28.7793 16.0003 28.7793C15.7949 28.7793 15.5943 28.7169 15.4253 28.6002L3.57528 20.4002C3.40902 20.2813 3.28211 20.1154 3.21083 19.9239C3.13956 19.7323 3.12717 19.5238 3.17528 19.3252L6.60028 6.5127C6.62752 6.41061 6.6864 6.31978 6.76847 6.25323C6.85054 6.18668 6.95158 6.14785 7.0571 6.14229C7.16261 6.13674 7.26717 6.16476 7.35578 6.22232C7.44438 6.27988 7.51247 6.36404 7.55028 6.4627L10.3753 14.0002Z" stroke="black" stroke-width="1.5" stroke-linecap="round" stroke-linejoin="round"/>
<path d="M16.0879 28.775L21.6254 14H27.4004" stroke="black" stroke-width="1.5" stroke-linecap="round" stroke-linejoin="round"/>
<path d="M4.59961 14H10.3746L15.9121 28.775" stroke="black" stroke-width="1.5" stroke-linecap="round" stroke-linejoin="round"/>
</svg>
