<svg width="32" height="32" viewBox="0 0 32 32" fill="none" xmlns="http://www.w3.org/2000/svg">
<path d="M19 13.5H23" stroke="black" stroke-width="1.5" stroke-linecap="round" stroke-linejoin="round"/>
<path d="M9 13.5H13" stroke="black" stroke-width="1.5" stroke-linecap="round" stroke-linejoin="round"/>
<path d="M11 11.5V15.5" stroke="black" stroke-width="1.5" stroke-linecap="round" stroke-linejoin="round"/>
<path d="M21.5001 6.96289L10.5001 7.00039C8.97224 7.0033 7.49407 7.54327 6.32412 8.52584C5.15417 9.50842 4.36691 10.8711 4.10006 12.3754V12.3754L2.05006 22.8879C1.91843 23.622 2.02475 24.379 2.35352 25.0484C2.68228 25.7179 3.2163 26.2648 3.87771 26.6095C4.53911 26.9541 5.29333 27.0785 6.03038 26.9644C6.76742 26.8504 7.44877 26.5038 7.97506 25.9754V25.9754L13.3751 20.0004L21.5001 19.9629C23.224 19.9629 24.8773 19.2781 26.0963 18.0591C27.3152 16.8401 28.0001 15.1868 28.0001 13.4629C28.0001 11.739 27.3152 10.0857 26.0963 8.8667C24.8773 7.64771 23.224 6.96289 21.5001 6.96289V6.96289Z" stroke="black" stroke-width="1.5" stroke-linecap="round" stroke-linejoin="round"/>
<path d="M27.9 12.3379L29.95 22.8879C30.0816 23.622 29.9753 24.379 29.6465 25.0484C29.3178 25.7179 28.7838 26.2648 28.1224 26.6095C27.4609 26.9541 26.7067 27.0785 25.9697 26.9644C25.2326 26.8504 24.5513 26.5038 24.025 25.9754V25.9754L18.625 19.9754" stroke="black" stroke-width="1.5" stroke-linecap="round" stroke-linejoin="round"/>
</svg>
