<svg width="32" height="32" viewBox="0 0 32 32" fill="none" xmlns="http://www.w3.org/2000/svg">
<path d="M23.6001 15.1503L8.52507 5.92531C8.37274 5.83133 8.19798 5.77996 8.01903 5.77655C7.84008 5.77314 7.6635 5.81783 7.50771 5.90594C7.35192 5.99405 7.22263 6.12236 7.13334 6.27748C7.04404 6.43259 6.99802 6.60883 7.00007 6.78781V25.2128C6.99802 25.3918 7.04404 25.568 7.13334 25.7231C7.22263 25.8783 7.35192 26.0066 7.50771 26.0947C7.6635 26.1828 7.84008 26.2275 8.01903 26.2241C8.19798 26.2207 8.37274 26.1693 8.52507 26.0753L23.6001 16.8503C23.7448 16.7606 23.8642 16.6355 23.947 16.4867C24.0298 16.338 24.0733 16.1706 24.0733 16.0003C24.0733 15.8301 24.0298 15.6626 23.947 15.5139C23.8642 15.3651 23.7448 15.24 23.6001 15.1503Z" stroke="black" stroke-width="1.5" stroke-linecap="round" stroke-linejoin="round"/>
<path d="M25 5V27" stroke="black" stroke-width="1.5" stroke-linecap="round" stroke-linejoin="round"/>
</svg>
