<svg width="32" height="32" viewBox="0 0 32 32" fill="none" xmlns="http://www.w3.org/2000/svg">
<path d="M16 28C22.6274 28 28 22.6274 28 16C28 9.37258 22.6274 4 16 4C9.37258 4 4 9.37258 4 16C4 22.6274 9.37258 28 16 28Z" stroke="black" stroke-width="1.5" stroke-linecap="round" stroke-linejoin="round"/>
<path d="M11.5 17.25C12.1904 17.25 12.75 16.6904 12.75 16C12.75 15.3096 12.1904 14.75 11.5 14.75C10.8096 14.75 10.25 15.3096 10.25 16C10.25 16.6904 10.8096 17.25 11.5 17.25Z" fill="black"/>
<path d="M20.5 17.25C21.1904 17.25 21.75 16.6904 21.75 16C21.75 15.3096 21.1904 14.75 20.5 14.75C19.8096 14.75 19.25 15.3096 19.25 16C19.25 16.6904 19.8096 17.25 20.5 17.25Z" fill="black"/>
<path d="M19.3125 21C18.3308 21.652 17.1785 21.9998 16 21.9998C14.8215 21.9998 13.6692 21.652 12.6875 21" stroke="black" stroke-width="1.5" stroke-linecap="round" stroke-linejoin="round"/>
<path d="M16 4C14 6.5 14 9 14 9C14 9.53043 14.2107 10.0391 14.5858 10.4142C14.9609 10.7893 15.4696 11 16 11C16.5304 11 17.0391 10.7893 17.4142 10.4142C17.7893 10.0391 18 9.53043 18 9" stroke="black" stroke-width="1.5" stroke-linecap="round" stroke-linejoin="round"/>
</svg>
