<svg width="32" height="32" viewBox="0 0 32 32" fill="none" xmlns="http://www.w3.org/2000/svg">
<path d="M16 20C18.2091 20 20 18.2091 20 16C20 13.7909 18.2091 12 16 12C13.7909 12 12 13.7909 12 16C12 18.2091 13.7909 20 16 20Z" stroke="black" stroke-width="1.5" stroke-linecap="round" stroke-linejoin="round"/>
<path d="M9.63774 22.3627C8.81652 21.5424 8.16271 20.5702 7.71274 19.5002C7.24241 18.3933 7 17.2029 7 16.0002C7 14.7975 7.24241 13.6071 7.71274 12.5002C8.16271 11.4302 8.81652 10.458 9.63774 9.6377" stroke="black" stroke-width="1.5" stroke-linecap="round" stroke-linejoin="round"/>
<path d="M22.3623 9.6377C23.1835 10.458 23.8373 11.4302 24.2873 12.5002C24.7576 13.6071 25 14.7975 25 16.0002C25 17.2029 24.7576 18.3933 24.2873 19.5002C23.8373 20.5702 23.1835 21.5424 22.3623 22.3627" stroke="black" stroke-width="1.5" stroke-linecap="round" stroke-linejoin="round"/>
<path d="M6.1001 25.8996C4.82466 24.6218 3.80625 23.1112 3.1001 21.4496C2.37402 19.7244 2 17.8714 2 15.9996C2 14.1278 2.37402 12.2749 3.1001 10.5496C3.80625 8.88804 4.82466 7.37739 6.1001 6.09961" stroke="black" stroke-width="1.5" stroke-linecap="round" stroke-linejoin="round"/>
<path d="M25.9004 6.09961C27.1758 7.37739 28.1942 8.88804 28.9004 10.5496C29.6265 12.2749 30.0005 14.1278 30.0005 15.9996C30.0005 17.8714 29.6265 19.7244 28.9004 21.4496C28.1942 23.1112 27.1758 24.6218 25.9004 25.8996" stroke="black" stroke-width="1.5" stroke-linecap="round" stroke-linejoin="round"/>
</svg>
