<svg width="32" height="32" viewBox="0 0 32 32" fill="none" xmlns="http://www.w3.org/2000/svg">
<path d="M16 28C22.6274 28 28 22.6274 28 16C28 9.37258 22.6274 4 16 4C9.37258 4 4 9.37258 4 16C4 22.6274 9.37258 28 16 28Z" stroke="black" stroke-width="1.5" stroke-linecap="round" stroke-linejoin="round"/>
<path d="M6.2002 22.9252L7.6627 22.0377C7.80774 21.9482 7.92751 21.8232 8.01064 21.6744C8.09377 21.5257 8.13751 21.3581 8.1377 21.1877L8.1627 16.6752C8.16469 16.4881 8.22116 16.3057 8.3252 16.1502L10.8002 12.2627C10.8745 12.1478 10.9712 12.0492 11.0847 11.9728C11.1981 11.8964 11.3258 11.8437 11.4602 11.818C11.5945 11.7923 11.7327 11.7941 11.8663 11.8233C11.9999 11.8524 12.1263 11.9084 12.2377 11.9877L14.6877 13.7627C14.8991 13.9101 15.1564 13.9766 15.4127 13.9502L19.3502 13.4127C19.5891 13.3798 19.8073 13.2596 19.9627 13.0752L22.7377 9.8752C22.9022 9.68013 22.9871 9.43012 22.9752 9.1752L22.8377 6.1377" stroke="black" stroke-width="1.5" stroke-linecap="round" stroke-linejoin="round"/>
<path d="M23.3876 25.4628L22.0376 24.1128C21.9127 23.988 21.7577 23.8976 21.5876 23.8503L18.9001 23.1503C18.664 23.0857 18.4599 22.9368 18.3263 22.7317C18.1927 22.5267 18.1389 22.2798 18.1751 22.0378L18.4626 20.0128C18.4911 19.8425 18.5622 19.6821 18.6693 19.5466C18.7764 19.4112 18.916 19.3049 19.0751 19.2378L22.8751 17.6503C23.0516 17.5767 23.2455 17.5552 23.4338 17.5885C23.6221 17.6217 23.7969 17.7082 23.9376 17.8378L27.0501 20.6878" stroke="black" stroke-width="1.5" stroke-linecap="round" stroke-linejoin="round"/>
</svg>
