<svg width="32" height="32" viewBox="0 0 32 32" fill="none" xmlns="http://www.w3.org/2000/svg">
<path d="M11 8.5V4.5C11 3.83696 11.2634 3.20107 11.7322 2.73223C12.2011 2.26339 12.837 2 13.5 2C14.163 2 14.7989 2.26339 15.2678 2.73223C15.7366 3.20107 16 3.83696 16 4.5V13" stroke="black" stroke-width="1.5" stroke-linecap="round" stroke-linejoin="round"/>
<path d="M10.3251 20.45C10.2206 20.6144 10.165 20.8052 10.165 21C10.165 21.1948 10.2206 21.3856 10.3251 21.55C11.0376 22.65 12.9251 25 16.0001 25C19.0751 25 20.9626 22.65 21.6751 21.55C21.7796 21.3856 21.8352 21.1948 21.8352 21C21.8352 20.8052 21.7796 20.6144 21.6751 20.45C20.9626 19.35 19.0751 17 16.0001 17C12.9251 17 11.0376 19.35 10.3251 20.45Z" stroke="black" stroke-width="1.5" stroke-linecap="round" stroke-linejoin="round"/>
<path d="M16 6.5C16 5.83696 16.2634 5.20107 16.7322 4.73223C17.2011 4.26339 17.837 4 18.5 4C19.163 4 19.7989 4.26339 20.2678 4.73223C20.7366 5.20107 21 5.83696 21 6.5V14" stroke="black" stroke-width="1.5" stroke-linecap="round" stroke-linejoin="round"/>
<path d="M21 14.5V14C21 13.337 21.2634 12.7011 21.7322 12.2322C22.2011 11.7634 22.837 11.5 23.5 11.5C24.163 11.5 24.7989 11.7634 25.2678 12.2322C25.7366 12.7011 26 13.337 26 14V19C26 21.6522 24.9464 24.1957 23.0711 26.0711C21.1957 27.9464 18.6522 29 16 29C13.3478 29 10.8043 27.9464 8.92893 26.0711C7.05357 24.1957 6 21.6522 6 19V8.5C6 7.83696 6.26339 7.20107 6.73223 6.73223C7.20107 6.26339 7.83696 6 8.5 6C9.16304 6 9.79893 6.26339 10.2678 6.73223C10.7366 7.20107 11 7.83696 11 8.5V14" stroke="black" stroke-width="1.5" stroke-linecap="round" stroke-linejoin="round"/>
<path d="M16 22.25C16.6904 22.25 17.25 21.6904 17.25 21C17.25 20.3096 16.6904 19.75 16 19.75C15.3096 19.75 14.75 20.3096 14.75 21C14.75 21.6904 15.3096 22.25 16 22.25Z" fill="black"/>
</svg>
