<svg width="32" height="32" viewBox="0 0 32 32" fill="none" xmlns="http://www.w3.org/2000/svg">
<path d="M20 13H30" stroke="black" stroke-width="1.5" stroke-linecap="round" stroke-linejoin="round"/>
<path d="M20 17H30" stroke="black" stroke-width="1.5" stroke-linecap="round" stroke-linejoin="round"/>
<path d="M20 21H30" stroke="black" stroke-width="1.5" stroke-linecap="round" stroke-linejoin="round"/>
<path d="M9 25H30" stroke="black" stroke-width="1.5" stroke-linecap="round" stroke-linejoin="round"/>
<path d="M15.8124 16.45C15.5407 17.5409 14.9679 18.5336 14.1594 19.3148C13.3509 20.0961 12.3392 20.6344 11.2396 20.8685C10.1399 21.1026 8.99665 21.023 7.94005 20.6389C6.88344 20.2547 5.95603 19.5814 5.26353 18.6957C4.57104 17.81 4.14131 16.7476 4.02335 15.6295C3.90539 14.5115 4.10394 13.3827 4.59637 12.372C5.08879 11.3613 5.85527 10.5093 6.80844 9.91313C7.76162 9.31693 8.86312 9.00053 9.98739 9" stroke="black" stroke-width="1.5" stroke-linecap="round" stroke-linejoin="round"/>
<path d="M9.9873 14.3125V20.9875" stroke="black" stroke-width="1.5" stroke-linecap="round" stroke-linejoin="round"/>
<path d="M13.9876 6.5C14.6506 6.5 15.2865 6.76339 15.7553 7.23223C16.2242 7.70107 16.4876 8.33696 16.4876 9C16.4876 9.66304 16.2242 10.2989 15.7553 10.7678C15.2865 11.2366 14.6506 11.5 13.9876 11.5L5.98756 6.5C5.39352 6.50133 4.81936 6.71415 4.36797 7.10033C3.91657 7.48651 3.61744 8.02081 3.52417 8.60749C3.43091 9.19417 3.5496 9.79488 3.85898 10.302C4.16836 10.8091 4.64822 11.1895 5.21256 11.375" stroke="black" stroke-width="1.5" stroke-linecap="round" stroke-linejoin="round"/>
</svg>
