<svg width="32" height="32" viewBox="0 0 32 32" fill="none" xmlns="http://www.w3.org/2000/svg">
<path d="M16 28C22.6274 28 28 22.6274 28 16C28 9.37258 22.6274 4 16 4C9.37258 4 4 9.37258 4 16C4 22.6274 9.37258 28 16 28Z" stroke="black" stroke-width="1.5" stroke-linecap="round" stroke-linejoin="round"/>
<path d="M16 23.75C16.6904 23.75 17.25 23.1904 17.25 22.5C17.25 21.8096 16.6904 21.25 16 21.25C15.3096 21.25 14.75 21.8096 14.75 22.5C14.75 23.1904 15.3096 23.75 16 23.75Z" fill="black"/>
<path d="M16 18V17C16.6922 17 17.3689 16.7947 17.9445 16.4101C18.5201 16.0256 18.9687 15.4789 19.2336 14.8394C19.4985 14.1999 19.5678 13.4961 19.4327 12.8172C19.2977 12.1383 18.9644 11.5146 18.4749 11.0251C17.9854 10.5356 17.3617 10.2023 16.6828 10.0673C16.0039 9.9322 15.3001 10.0015 14.6606 10.2664C14.0211 10.5313 13.4744 10.9799 13.0899 11.5555C12.7053 12.1311 12.5 12.8078 12.5 13.5" stroke="black" stroke-width="1.5" stroke-linecap="round" stroke-linejoin="round"/>
</svg>
