<svg width="32" height="32" viewBox="0 0 32 32" fill="none" xmlns="http://www.w3.org/2000/svg">
<path d="M14.2748 4.99983L3.27479 23.9998C3.09955 24.3033 3.00715 24.6476 3.00684 24.9981C3.00653 25.3485 3.09832 25.693 3.27302 25.9968C3.44773 26.3006 3.6992 26.5532 4.00226 26.7292C4.30532 26.9053 4.64932 26.9986 4.99979 26.9998H26.9998C27.3503 26.9986 27.6943 26.9053 27.9973 26.7292C28.3004 26.5532 28.5519 26.3006 28.7266 25.9968C28.9013 25.693 28.9931 25.3485 28.9927 24.9981C28.9924 24.6476 28.9 24.3033 28.7248 23.9998L17.7248 4.99983C17.5509 4.69591 17.2997 4.44334 16.9968 4.26768C16.6939 4.09202 16.35 3.99951 15.9998 3.99951C15.6496 3.99951 15.3057 4.09202 15.0028 4.26768C14.6998 4.44334 14.4487 4.69591 14.2748 4.99983V4.99983Z" stroke="black" stroke-width="1.5" stroke-linecap="round" stroke-linejoin="round"/>
</svg>
