<svg width="32" height="32" viewBox="0 0 32 32" fill="none" xmlns="http://www.w3.org/2000/svg">
<path d="M21 13.25C23.04 14.7147 25.4886 15.5018 28 15.5V10.5C26.1435 10.5 24.363 9.7625 23.0503 8.44975C21.7375 7.13699 21 5.35652 21 3.5H16V19.5C16 20.1263 15.8318 20.7412 15.5132 21.2804C15.1945 21.8197 14.737 22.2635 14.1884 22.5656C13.6397 22.8678 13.02 23.0171 12.394 22.9982C11.7679 22.9792 11.1584 22.7926 10.6291 22.4578C10.0997 22.1229 9.66993 21.6522 9.38451 21.0947C9.09909 20.5372 8.96852 19.9132 9.00641 19.288C9.0443 18.6628 9.24927 18.0593 9.59993 17.5403C9.95059 17.0213 10.4341 16.6059 11 16.3375V11.1375C9.40822 11.4229 7.93089 12.1564 6.7414 13.252C5.55192 14.3476 4.69966 15.7598 4.28466 17.3228C3.86965 18.8858 3.90913 20.5347 4.39846 22.0761C4.88779 23.6174 5.80666 24.9872 7.04722 26.0246C8.28777 27.062 9.79852 27.724 11.4021 27.9329C13.0057 28.1418 14.6357 27.8889 16.1006 27.2038C17.5655 26.5188 18.8046 25.4301 19.6724 24.0655C20.5402 22.701 21.0008 21.1172 21 19.5V13.25Z" stroke="black" stroke-width="1.5" stroke-linecap="round" stroke-linejoin="round"/>
</svg>
