<svg width="32" height="32" viewBox="0 0 32 32" fill="none" xmlns="http://www.w3.org/2000/svg">
<path d="M24 5H8C6.34315 5 5 6.34315 5 8V24C5 25.6569 6.34315 27 8 27H24C25.6569 27 27 25.6569 27 24V8C27 6.34315 25.6569 5 24 5Z" stroke="black" stroke-width="1.5" stroke-linecap="round" stroke-linejoin="round"/>
<path d="M12.5 13.75C13.1904 13.75 13.75 13.1904 13.75 12.5C13.75 11.8096 13.1904 11.25 12.5 11.25C11.8096 11.25 11.25 11.8096 11.25 12.5C11.25 13.1904 11.8096 13.75 12.5 13.75Z" fill="black"/>
<path d="M19.5 13.75C20.1904 13.75 20.75 13.1904 20.75 12.5C20.75 11.8096 20.1904 11.25 19.5 11.25C18.8096 11.25 18.25 11.8096 18.25 12.5C18.25 13.1904 18.8096 13.75 19.5 13.75Z" fill="black"/>
<path d="M12.5 20.75C13.1904 20.75 13.75 20.1904 13.75 19.5C13.75 18.8096 13.1904 18.25 12.5 18.25C11.8096 18.25 11.25 18.8096 11.25 19.5C11.25 20.1904 11.8096 20.75 12.5 20.75Z" fill="black"/>
<path d="M19.5 20.75C20.1904 20.75 20.75 20.1904 20.75 19.5C20.75 18.8096 20.1904 18.25 19.5 18.25C18.8096 18.25 18.25 18.8096 18.25 19.5C18.25 20.1904 18.8096 20.75 19.5 20.75Z" fill="black"/>
</svg>
