<svg width="32" height="32" viewBox="0 0 32 32" fill="none" xmlns="http://www.w3.org/2000/svg">
<path d="M27 6H5C4.44772 6 4 6.44772 4 7V25C4 25.5523 4.44772 26 5 26H27C27.5523 26 28 25.5523 28 25V7C28 6.44772 27.5523 6 27 6Z" stroke="black" stroke-width="1.5" stroke-linecap="round" stroke-linejoin="round"/>
<path d="M4 20.9999L10.2875 14.7124C10.3805 14.6179 10.4915 14.5429 10.6138 14.4917C10.7361 14.4404 10.8674 14.4141 11 14.4141C11.1326 14.4141 11.2639 14.4404 11.3862 14.4917C11.5085 14.5429 11.6195 14.6179 11.7125 14.7124L17.2875 20.2874C17.3805 20.3819 17.4915 20.4569 17.6138 20.5081C17.7361 20.5593 17.8674 20.5857 18 20.5857C18.1326 20.5857 18.2639 20.5593 18.3862 20.5081C18.5085 20.4569 18.6195 20.3819 18.7125 20.2874L21.2875 17.7124C21.3805 17.6179 21.4915 17.5429 21.6138 17.4917C21.7361 17.4404 21.8674 17.4141 22 17.4141C22.1326 17.4141 22.2639 17.4404 22.3862 17.4917C22.5085 17.5429 22.6195 17.6179 22.7125 17.7124L28 22.9999" stroke="black" stroke-width="1.5" stroke-linecap="round" stroke-linejoin="round"/>
<path d="M19.5 13.75C20.1904 13.75 20.75 13.1904 20.75 12.5C20.75 11.8096 20.1904 11.25 19.5 11.25C18.8096 11.25 18.25 11.8096 18.25 12.5C18.25 13.1904 18.8096 13.75 19.5 13.75Z" fill="black"/>
</svg>
