<svg width="32" height="32" viewBox="0 0 32 32" fill="none" xmlns="http://www.w3.org/2000/svg">
<path d="M11 3V7" stroke="black" stroke-width="1.5" stroke-linecap="round" stroke-linejoin="round"/>
<path d="M15 3V7" stroke="black" stroke-width="1.5" stroke-linecap="round" stroke-linejoin="round"/>
<path d="M19 3V7" stroke="black" stroke-width="1.5" stroke-linecap="round" stroke-linejoin="round"/>
<path d="M4 27H26" stroke="black" stroke-width="1.5" stroke-linecap="round" stroke-linejoin="round"/>
<path d="M10.4125 27C8.49859 26.1218 6.87697 24.7127 5.74027 22.9401C4.60357 21.1674 3.99957 19.1058 4 17V11H26V17C26.0004 19.1058 25.3964 21.1674 24.2597 22.9401C23.123 24.7127 21.5014 26.1218 19.5875 27" stroke="black" stroke-width="1.5" stroke-linecap="round" stroke-linejoin="round"/>
<path d="M26.0002 11C27.0611 11 28.0785 11.4214 28.8286 12.1716C29.5788 12.9217 30.0002 13.9391 30.0002 15V16C30.0002 17.0609 29.5788 18.0783 28.8286 18.8284C28.0785 19.5786 27.0611 20 26.0002 20H25.5752" stroke="black" stroke-width="1.5" stroke-linecap="round" stroke-linejoin="round"/>
</svg>
