<svg width="32" height="32" viewBox="0 0 32 32" fill="none" xmlns="http://www.w3.org/2000/svg">
<path d="M26.675 13.7003L16.675 4.61277C16.4907 4.44412 16.2499 4.35059 16 4.35059C15.7501 4.35059 15.5093 4.44412 15.325 4.61277L5.325 13.7003C5.22437 13.7953 5.14378 13.9095 5.08796 14.0362C5.03215 14.1628 5.00224 14.2994 5 14.4378V26.0003C5 26.2655 5.10536 26.5198 5.29289 26.7074C5.48043 26.8949 5.73478 27.0003 6 27.0003H26C26.2652 27.0003 26.5196 26.8949 26.7071 26.7074C26.8946 26.5198 27 26.2655 27 26.0003V14.4378C26.9978 14.2994 26.9679 14.1628 26.912 14.0362C26.8562 13.9095 26.7756 13.7953 26.675 13.7003V13.7003Z" stroke="black" stroke-width="1.5" stroke-linecap="round" stroke-linejoin="round"/>
</svg>
