<svg width="32" height="32" viewBox="0 0 32 32" fill="none" xmlns="http://www.w3.org/2000/svg">
<path d="M16 22.5C18.7614 22.5 21 20.2614 21 17.5C21 14.7386 18.7614 12.5 16 12.5C13.2386 12.5 11 14.7386 11 17.5C11 20.2614 13.2386 22.5 16 22.5Z" stroke="black" stroke-width="1.5" stroke-linecap="round" stroke-linejoin="round"/>
<path d="M24.5 14.5C25.6647 14.4981 26.8137 14.7683 27.8554 15.2892C28.8972 15.81 29.8028 16.5671 30.5 17.5" stroke="black" stroke-width="1.5" stroke-linecap="round" stroke-linejoin="round"/>
<path d="M1.5 17.5C2.19725 16.5671 3.10285 15.81 4.14457 15.2892C5.1863 14.7683 6.33532 14.4981 7.5 14.5" stroke="black" stroke-width="1.5" stroke-linecap="round" stroke-linejoin="round"/>
<path d="M8.7998 27.0002C9.45833 25.6516 10.4824 24.515 11.7554 23.72C13.0283 22.9249 14.499 22.5034 15.9998 22.5034C17.5006 22.5034 18.9713 22.9249 20.2442 23.72C21.5172 24.515 22.5413 25.6516 23.1998 27.0002" stroke="black" stroke-width="1.5" stroke-linecap="round" stroke-linejoin="round"/>
<path d="M7.50015 14.5C6.74096 14.5008 5.99722 14.2855 5.35584 13.8792C4.71446 13.473 4.20193 12.8927 3.87814 12.206C3.55434 11.5193 3.43266 10.7546 3.5273 10.0014C3.62194 9.24809 3.929 8.5373 4.4126 7.95206C4.89619 7.36681 5.53636 6.93127 6.25829 6.69634C6.98022 6.4614 7.75411 6.43677 8.48952 6.62532C9.22493 6.81388 9.8915 7.20782 10.4113 7.76113C10.9312 8.31444 11.2828 9.00427 11.4252 9.75" stroke="black" stroke-width="1.5" stroke-linecap="round" stroke-linejoin="round"/>
<path d="M20.5752 9.75C20.7175 9.00427 21.0692 8.31444 21.589 7.76113C22.1089 7.20782 22.7754 6.81388 23.5108 6.62532C24.2462 6.43677 25.0201 6.4614 25.7421 6.69634C26.464 6.93127 27.1042 7.36681 27.5878 7.95206C28.0714 8.5373 28.3784 9.24809 28.4731 10.0014C28.5677 10.7546 28.446 11.5193 28.1222 12.206C27.7984 12.8927 27.2859 13.473 26.6445 13.8792C26.0031 14.2855 25.2594 14.5008 24.5002 14.5" stroke="black" stroke-width="1.5" stroke-linecap="round" stroke-linejoin="round"/>
</svg>
