<svg width="32" height="32" viewBox="0 0 32 32" fill="none" xmlns="http://www.w3.org/2000/svg">
<path d="M4 9H6.8875C8.15922 9.00156 9.41224 9.30627 10.5427 9.88887C11.6731 10.4715 12.6483 11.3152 13.3875 12.35L18.6125 19.65C19.3517 20.6848 20.3269 21.5285 21.4573 22.1111C22.5878 22.6937 23.8408 22.9984 25.1125 23H29" stroke="black" stroke-width="1.5" stroke-linecap="round" stroke-linejoin="round"/>
<path d="M26 6L29 9L26 12" stroke="black" stroke-width="1.5" stroke-linecap="round" stroke-linejoin="round"/>
<path d="M26 20L29 23L26 26" stroke="black" stroke-width="1.5" stroke-linecap="round" stroke-linejoin="round"/>
<path d="M18.4624 12.5625L18.6124 12.35C19.3516 11.3152 20.3268 10.4715 21.4572 9.88887C22.5877 9.30627 23.8407 9.00156 25.1124 9H28.9999" stroke="black" stroke-width="1.5" stroke-linecap="round" stroke-linejoin="round"/>
<path d="M4 23H6.8875C8.15922 22.9984 9.41224 22.6937 10.5427 22.1111C11.6731 21.5285 12.6483 20.6848 13.3875 19.65L13.5375 19.4375" stroke="black" stroke-width="1.5" stroke-linecap="round" stroke-linejoin="round"/>
</svg>
