<svg width="32" height="32" viewBox="0 0 32 32" fill="none" xmlns="http://www.w3.org/2000/svg">
<path d="M19 29L16 26L19 23" stroke="black" stroke-width="1.5" stroke-linecap="round" stroke-linejoin="round"/>
<path d="M24.3252 9.40039L23.2252 13.5004L19.1377 12.4004" stroke="black" stroke-width="1.5" stroke-linecap="round" stroke-linejoin="round"/>
<path d="M9.8748 17.6L8.7748 13.5L4.6748 14.6" stroke="black" stroke-width="1.5" stroke-linecap="round" stroke-linejoin="round"/>
<path d="M16 26.0002H27C27.3505 25.999 27.6945 25.9056 27.9975 25.7296C28.3006 25.5536 28.5521 25.301 28.7268 24.9971C28.9015 24.6933 28.9933 24.3489 28.993 23.9984C28.9926 23.648 28.9002 23.3037 28.725 23.0002L25.7375 17.8252" stroke="black" stroke-width="1.5" stroke-linecap="round" stroke-linejoin="round"/>
<path d="M8.77479 13.5L3.27479 23C3.09955 23.3035 3.00715 23.6478 3.00684 23.9982C3.00653 24.3487 3.09832 24.6931 3.27302 24.997C3.44773 25.3008 3.6992 25.5534 4.00226 25.7294C4.30532 25.9055 4.64932 25.9988 4.99979 26H10.9998" stroke="black" stroke-width="1.5" stroke-linecap="round" stroke-linejoin="round"/>
<path d="M23.2254 13.5003L17.7254 4.00032C17.5515 3.6964 17.3003 3.44383 16.9974 3.26817C16.6945 3.09251 16.3506 3 16.0004 3C15.6502 3 15.3063 3.09251 15.0034 3.26817C14.7004 3.44383 14.4493 3.6964 14.2754 4.00032L11.2754 9.17532" stroke="black" stroke-width="1.5" stroke-linecap="round" stroke-linejoin="round"/>
</svg>
