<svg width="32" height="32" viewBox="0 0 32 32" fill="none" xmlns="http://www.w3.org/2000/svg">
<path d="M24 15H27.3875C27.572 15.0004 27.753 14.9491 27.9099 14.8519C28.0668 14.7547 28.1932 14.6154 28.275 14.45L30.575 9.85C30.689 9.61962 30.711 9.35453 30.6367 9.10848C30.5625 8.86243 30.3974 8.65384 30.175 8.525L24 5" stroke="black" stroke-width="1.5" stroke-linecap="round" stroke-linejoin="round"/>
<path d="M8.00026 15H4.61277C4.42822 15.0004 4.24725 14.9491 4.09038 14.8519C3.93351 14.7547 3.80703 14.6154 3.72526 14.45L1.42526 9.85C1.31131 9.61962 1.28924 9.35453 1.36352 9.10848C1.4378 8.86243 1.60287 8.65384 1.82526 8.525L8.00026 5" stroke="black" stroke-width="1.5" stroke-linecap="round" stroke-linejoin="round"/>
<path d="M20 5C20 6.06087 19.5786 7.07828 18.8284 7.82843C18.0783 8.57857 17.0609 9 16 9C14.9391 9 13.9217 8.57857 13.1716 7.82843C12.4214 7.07828 12 6.06087 12 5H8V26C8 26.2652 8.10536 26.5196 8.29289 26.7071C8.48043 26.8946 8.73478 27 9 27H23C23.2652 27 23.5196 26.8946 23.7071 26.7071C23.8946 26.5196 24 26.2652 24 26V5H20Z" stroke="black" stroke-width="1.5" stroke-linecap="round" stroke-linejoin="round"/>
</svg>
