<svg width="32" height="32" viewBox="0 0 32 32" fill="none" xmlns="http://www.w3.org/2000/svg">
<path d="M26 5H6C5.44772 5 5 5.44772 5 6V26C5 26.5523 5.44772 27 6 27H26C26.5523 27 27 26.5523 27 26V6C27 5.44772 26.5523 5 26 5Z" stroke="black" stroke-width="1.5" stroke-linecap="round" stroke-linejoin="round"/>
<path d="M13.2375 11.8375C13.5071 11.2008 13.9884 10.6768 14.5998 10.3541C15.2113 10.0314 15.9155 9.92985 16.5933 10.0666C17.271 10.2033 17.8807 10.5699 18.3193 11.1045C18.7578 11.639 18.9983 12.3086 19 13C19.0027 13.5973 18.824 14.1814 18.4875 14.675V14.675L13 22H19" stroke="black" stroke-width="1.5" stroke-linecap="round" stroke-linejoin="round"/>
</svg>
