<svg width="32" height="32" viewBox="0 0 32 32" fill="none" xmlns="http://www.w3.org/2000/svg">
<path d="M23 4H9C8.44772 4 8 4.44772 8 5V27C8 27.5523 8.44772 28 9 28H23C23.5523 28 24 27.5523 24 27V5C24 4.44772 23.5523 4 23 4Z" stroke="black" stroke-width="1.5" stroke-linecap="round" stroke-linejoin="round"/>
<path d="M16 14C17.6569 14 19 12.6569 19 11C19 9.34315 17.6569 8 16 8C14.3431 8 13 9.34315 13 11C13 12.6569 14.3431 14 16 14Z" stroke="black" stroke-width="1.5" stroke-linecap="round" stroke-linejoin="round"/>
<path d="M16 24C17.6569 24 19 22.6569 19 21C19 19.3431 17.6569 18 16 18C14.3431 18 13 19.3431 13 21C13 22.6569 14.3431 24 16 24Z" stroke="black" stroke-width="1.5" stroke-linecap="round" stroke-linejoin="round"/>
<path d="M24 9H27" stroke="black" stroke-width="1.5" stroke-linecap="round" stroke-linejoin="round"/>
<path d="M24 19H27" stroke="black" stroke-width="1.5" stroke-linecap="round" stroke-linejoin="round"/>
<path d="M5 9H8" stroke="black" stroke-width="1.5" stroke-linecap="round" stroke-linejoin="round"/>
<path d="M5 19H8" stroke="black" stroke-width="1.5" stroke-linecap="round" stroke-linejoin="round"/>
</svg>
