<svg width="32" height="32" viewBox="0 0 32 32" fill="none" xmlns="http://www.w3.org/2000/svg">
<path d="M4 27C4 27 8 20 8 12C8 9.87827 8.84285 7.84344 10.3431 6.34315C11.8434 4.84285 13.8783 4 16 4C18.1217 4 20.1566 4.84285 21.6569 6.34315C23.1571 7.84344 24 9.87827 24 12C24 20 28 27 28 27" stroke="black" stroke-width="1.5" stroke-linecap="round" stroke-linejoin="round"/>
<path d="M12.5 14.75C13.1904 14.75 13.75 14.1904 13.75 13.5C13.75 12.8096 13.1904 12.25 12.5 12.25C11.8096 12.25 11.25 12.8096 11.25 13.5C11.25 14.1904 11.8096 14.75 12.5 14.75Z" fill="black"/>
<path d="M19.5 14.75C20.1904 14.75 20.75 14.1904 20.75 13.5C20.75 12.8096 20.1904 12.25 19.5 12.25C18.8096 12.25 18.25 12.8096 18.25 13.5C18.25 14.1904 18.8096 14.75 19.5 14.75Z" fill="black"/>
<path d="M20 18L16 20L12 18" stroke="black" stroke-width="1.5" stroke-linecap="round" stroke-linejoin="round"/>
<path d="M10.7998 27.0001C11.3284 26.0893 12.087 25.3334 12.9996 24.8079C13.9122 24.2824 14.9468 24.0059 15.9998 24.0059C17.0529 24.0059 18.0874 24.2824 19 24.8079C19.9126 25.3334 20.6712 26.0893 21.1998 27.0001" stroke="black" stroke-width="1.5" stroke-linecap="round" stroke-linejoin="round"/>
</svg>
