<svg width="32" height="32" viewBox="0 0 32 32" fill="none" xmlns="http://www.w3.org/2000/svg">
<path d="M9.7501 18H23.7501C24.2805 18 24.7892 17.7893 25.1643 17.4142C25.5394 17.0391 25.7501 16.5304 25.7501 16C25.7501 15.4696 25.5394 14.9609 25.1643 14.5858C24.7892 14.2107 24.2805 14 23.7501 14H5.7501C3.6001 14 1.8501 15.7875 1.8501 18C1.8501 20.2125 3.6001 22 5.7501 22H24.0001C25.5914 22 27.1175 21.3679 28.2427 20.2426C29.368 19.1174 30.0001 17.5913 30.0001 16C30.0001 14.4087 29.368 12.8826 28.2427 11.7574C27.1175 10.6321 25.5914 10 24.0001 10H10.0001" stroke="black" stroke-width="1.5" stroke-linecap="round" stroke-linejoin="round"/>
</svg>
