<svg width="32" height="32" viewBox="0 0 32 32" fill="none" xmlns="http://www.w3.org/2000/svg">
<path d="M8.5 4L16.75 20.5" stroke="black" stroke-width="1.5" stroke-linecap="round" stroke-linejoin="round"/>
<path d="M16.75 4H8.5V20.5H16.75V4Z" stroke="black" stroke-width="1.5" stroke-linecap="round" stroke-linejoin="round"/>
<path d="M16.75 20.5V28.75C15.6661 28.7516 14.5926 28.5394 13.5909 28.1254C12.5892 27.7113 11.6791 27.1037 10.9127 26.3373C10.1463 25.5709 9.53867 24.6608 9.12465 23.6591C8.71063 22.6574 8.49836 21.5839 8.50001 20.5" stroke="black" stroke-width="1.5" stroke-linecap="round" stroke-linejoin="round"/>
<path d="M16.75 20.5H17.75C19.938 20.5 22.0365 19.6308 23.5836 18.0836C25.1308 16.5365 26 14.438 26 12.25C26 10.062 25.1308 7.96354 23.5836 6.41637C22.0365 4.86919 19.938 4 17.75 4H16.75" stroke="black" stroke-width="1.5" stroke-linecap="round" stroke-linejoin="round"/>
</svg>
