<svg width="32" height="32" viewBox="0 0 32 32" fill="none" xmlns="http://www.w3.org/2000/svg">
<path d="M18 28H14" stroke="black" stroke-width="1.5" stroke-linecap="round" stroke-linejoin="round"/>
<path d="M15.3749 2.4752C12.9999 4.3752 5.06243 11.9752 11.9999 24.0002H19.9999C26.7999 11.9752 18.9749 4.3877 16.6249 2.4752C16.4496 2.32876 16.2284 2.24854 15.9999 2.24854C15.7715 2.24854 15.5503 2.32876 15.3749 2.4752Z" stroke="black" stroke-width="1.5" stroke-linecap="round" stroke-linejoin="round"/>
<path d="M9.23769 13.9248L5.31269 18.6248C5.21381 18.7402 5.14404 18.8776 5.10924 19.0255C5.07444 19.1734 5.07562 19.3275 5.11269 19.4748L6.65019 26.4373C6.68729 26.6028 6.76587 26.7561 6.87855 26.8829C6.99123 27.0097 7.1343 27.1057 7.2943 27.162C7.45431 27.2182 7.62599 27.2328 7.79321 27.2045C7.96043 27.1761 8.11768 27.1057 8.25019 26.9998L12.0002 23.9998" stroke="black" stroke-width="1.5" stroke-linecap="round" stroke-linejoin="round"/>
<path d="M22.6875 13.8252L26.6875 18.6252C26.7864 18.7406 26.8561 18.878 26.8909 19.0259C26.9257 19.1738 26.9246 19.3278 26.8875 19.4752L25.35 26.4377C25.3129 26.6032 25.2343 26.7565 25.1216 26.8833C25.009 27.0101 24.8659 27.1061 24.7059 27.1623C24.5459 27.2186 24.3742 27.2332 24.207 27.2049C24.0398 27.1765 23.8825 27.1061 23.75 27.0002L20 24.0002" stroke="black" stroke-width="1.5" stroke-linecap="round" stroke-linejoin="round"/>
<path d="M16 13.25C16.6904 13.25 17.25 12.6904 17.25 12C17.25 11.3096 16.6904 10.75 16 10.75C15.3096 10.75 14.75 11.3096 14.75 12C14.75 12.6904 15.3096 13.25 16 13.25Z" fill="black"/>
</svg>
