<svg width="32" height="32" viewBox="0 0 32 32" fill="none" xmlns="http://www.w3.org/2000/svg">
<path d="M28.1875 16.0004H24.1875C23.6571 16.0004 23.1484 16.2111 22.7733 16.5862C22.3982 16.9613 22.1875 17.47 22.1875 18.0004V23.0004C22.1875 23.5308 22.3982 24.0396 22.7733 24.4146C23.1484 24.7897 23.6571 25.0004 24.1875 25.0004H26.1875C26.7179 25.0004 27.2266 24.7897 27.6017 24.4146C27.9768 24.0396 28.1875 23.5308 28.1875 23.0004V16.0004ZM28.1875 16.0004C28.1876 14.4161 27.8739 12.8475 27.2646 11.385C26.6553 9.92254 25.7624 8.5952 24.6375 7.47958C23.5126 6.36396 22.1779 5.48214 20.7104 4.885C19.2429 4.28786 17.6718 3.98721 16.0875 4.00042C14.5043 3.98887 12.9344 4.29074 11.4684 4.88863C10.0024 5.48651 8.66919 6.36859 7.5456 7.48405C6.42201 8.5995 5.53026 9.92628 4.92174 11.3879C4.31322 12.8496 3.99996 14.4172 4 16.0004V23.0004C4 23.5308 4.21071 24.0396 4.58579 24.4146C4.96086 24.7897 5.46957 25.0004 6 25.0004H8C8.53043 25.0004 9.03914 24.7897 9.41421 24.4146C9.78929 24.0396 10 23.5308 10 23.0004V18.0004C10 17.47 9.78929 16.9613 9.41421 16.5862C9.03914 16.2111 8.53043 16.0004 8 16.0004H4" stroke="black" stroke-width="1.5" stroke-linecap="round" stroke-linejoin="round"/>
<path d="M28.1875 23V26C28.1875 27.0609 27.7661 28.0783 27.0159 28.8284C26.2658 29.5786 25.2484 30 24.1875 30H17" stroke="black" stroke-width="1.5" stroke-linecap="round" stroke-linejoin="round"/>
</svg>
