<svg width="32" height="32" viewBox="0 0 32 32" fill="none" xmlns="http://www.w3.org/2000/svg">
<path d="M4 6.33797V23.663C3.99984 23.8179 4.03566 23.9707 4.10464 24.1094C4.17362 24.2481 4.27387 24.3688 4.3975 24.4621C4.52112 24.5555 4.66474 24.6188 4.81702 24.6471C4.9693 24.6755 5.12608 24.6681 5.275 24.6255L27.275 18.213C27.4841 18.1532 27.6679 18.0269 27.7988 17.8532C27.9296 17.6795 28.0002 17.4679 28 17.2505V12.7505C28.0002 12.533 27.9296 12.3214 27.7988 12.1478C27.6679 11.9741 27.4841 11.8478 27.275 11.788L5.275 5.37547C5.12608 5.33287 4.9693 5.32545 4.81702 5.3538C4.66474 5.38214 4.52112 5.44547 4.3975 5.5388C4.27387 5.63212 4.17362 5.75289 4.10464 5.89157C4.03566 6.03026 3.99984 6.18308 4 6.33797Z" stroke="black" stroke-width="1.5" stroke-linecap="round" stroke-linejoin="round"/>
<path d="M23 19.4621V23.9996C23 24.2648 22.8946 24.5192 22.7071 24.7067C22.5196 24.8943 22.2652 24.9996 22 24.9996H18C17.7348 24.9996 17.4804 24.8943 17.2929 24.7067C17.1054 24.5192 17 24.2648 17 23.9996V8.78711" stroke="black" stroke-width="1.5" stroke-linecap="round" stroke-linejoin="round"/>
</svg>
