<svg width="32" height="32" viewBox="0 0 32 32" fill="none" xmlns="http://www.w3.org/2000/svg">
<path d="M5.5 16H26.5" stroke="black" stroke-width="1.5" stroke-linecap="round" stroke-linejoin="round"/>
<path d="M12 26L9 30" stroke="black" stroke-width="1.5" stroke-linecap="round" stroke-linejoin="round"/>
<path d="M20 26L23 30" stroke="black" stroke-width="1.5" stroke-linecap="round" stroke-linejoin="round"/>
<path d="M23.5 4H8.5C6.84315 4 5.5 5.34315 5.5 7V23C5.5 24.6569 6.84315 26 8.5 26H23.5C25.1569 26 26.5 24.6569 26.5 23V7C26.5 5.34315 25.1569 4 23.5 4Z" stroke="black" stroke-width="1.5" stroke-linecap="round" stroke-linejoin="round"/>
<path d="M21.5 22.75C22.1904 22.75 22.75 22.1904 22.75 21.5C22.75 20.8096 22.1904 20.25 21.5 20.25C20.8096 20.25 20.25 20.8096 20.25 21.5C20.25 22.1904 20.8096 22.75 21.5 22.75Z" fill="black"/>
<path d="M10.5 22.75C11.1904 22.75 11.75 22.1904 11.75 21.5C11.75 20.8096 11.1904 20.25 10.5 20.25C9.80964 20.25 9.25 20.8096 9.25 21.5C9.25 22.1904 9.80964 22.75 10.5 22.75Z" fill="black"/>
</svg>
