<svg width="32" height="32" viewBox="0 0 32 32" fill="none" xmlns="http://www.w3.org/2000/svg">
<path d="M9 13L19 23" stroke="black" stroke-width="1.5" stroke-linecap="round" stroke-linejoin="round"/>
<path d="M12.7252 22.9248L8.8252 26.8248" stroke="black" stroke-width="1.5" stroke-linecap="round" stroke-linejoin="round"/>
<path d="M9.2252 19.4248L5.3252 23.3248" stroke="black" stroke-width="1.5" stroke-linecap="round" stroke-linejoin="round"/>
<path d="M17.0125 11.5253L23.875 3.87532C24.4386 3.31174 25.203 2.99512 26 2.99512C26.797 2.99512 27.5614 3.31174 28.125 3.87532C28.6886 4.43891 29.0052 5.20329 29.0052 6.00032C29.0052 6.79735 28.6886 7.56174 28.125 8.12532L20.475 14.9878C20.3742 15.0787 20.293 15.1891 20.2362 15.3123C20.1794 15.4356 20.1484 15.5691 20.1448 15.7048C20.1413 15.8404 20.1655 15.9754 20.2158 16.1014C20.2661 16.2274 20.3415 16.3419 20.4375 16.4378L21.5875 17.5878C21.9585 17.9643 22.1665 18.4717 22.1665 19.0003C22.1665 19.5289 21.9585 20.0363 21.5875 20.4128L12 30.0003L2 20.0003L11.5875 10.4128C11.964 10.0418 12.4714 9.83385 13 9.83385C13.5286 9.83385 14.036 10.0418 14.4125 10.4128L15.5625 11.5628C15.6584 11.6588 15.7729 11.7342 15.8989 11.7845C16.025 11.8348 16.1599 11.859 16.2956 11.8555C16.4312 11.852 16.5647 11.8209 16.688 11.7641C16.8112 11.7074 16.9217 11.6261 17.0125 11.5253V11.5253Z" stroke="black" stroke-width="1.5" stroke-linecap="round" stroke-linejoin="round"/>
</svg>
