<svg width="32" height="32" viewBox="0 0 32 32" fill="none" xmlns="http://www.w3.org/2000/svg">
<path d="M7.7125 25.5125L2 16L7.7125 6.4875C7.79951 6.33931 7.92369 6.21638 8.07277 6.13089C8.22184 6.04539 8.39065 6.00027 8.5625 6H27C27.2652 6 27.5196 6.10536 27.7071 6.29289C27.8946 6.48043 28 6.73478 28 7V25C28 25.2652 27.8946 25.5196 27.7071 25.7071C27.5196 25.8946 27.2652 26 27 26H8.5625C8.39065 25.9997 8.22184 25.9546 8.07277 25.8691C7.92369 25.7836 7.79951 25.6607 7.7125 25.5125V25.5125Z" stroke="black" stroke-width="1.5" stroke-linecap="round" stroke-linejoin="round"/>
<path d="M20 13L14 19" stroke="black" stroke-width="1.5" stroke-linecap="round" stroke-linejoin="round"/>
<path d="M20 19L14 13" stroke="black" stroke-width="1.5" stroke-linecap="round" stroke-linejoin="round"/>
</svg>
