<svg width="32" height="32" viewBox="0 0 32 32" fill="none" xmlns="http://www.w3.org/2000/svg">
<path d="M6 25H8C8.53043 25 9.03914 24.7893 9.41421 24.4142C9.78929 24.0391 10 23.5304 10 23C10 22.4696 9.78929 21.9609 9.41421 21.5858C9.03914 21.2107 8.53043 21 8 21H6V27" stroke="black" stroke-width="1.5" stroke-linecap="round" stroke-linejoin="round"/>
<path d="M8.6001 24.9126L10.0001 27.0001" stroke="black" stroke-width="1.5" stroke-linecap="round" stroke-linejoin="round"/>
<path d="M14 26.5C14.5418 26.9041 15.1991 27.1232 15.875 27.125C17 27.125 18 26.75 18 25.5C18 23.5 14 24.375 14 22.5C14 21.5 14.75 20.875 15.875 20.875C16.5509 20.8768 17.2082 21.0959 17.75 21.5" stroke="black" stroke-width="1.5" stroke-linecap="round" stroke-linejoin="round"/>
<path d="M23 28H25C25.2652 28 25.5196 27.8946 25.7071 27.7071C25.8946 27.5196 26 27.2652 26 27V11L19 4H7C6.73478 4 6.48043 4.10536 6.29289 4.29289C6.10536 4.48043 6 4.73478 6 5V16" stroke="black" stroke-width="1.5" stroke-linecap="round" stroke-linejoin="round"/>
<path d="M19 4V11H26" stroke="black" stroke-width="1.5" stroke-linecap="round" stroke-linejoin="round"/>
</svg>
