<svg width="32" height="32" viewBox="0 0 32 32" fill="none" xmlns="http://www.w3.org/2000/svg">
<path d="M11.6002 7.375L10.6377 5.0625" stroke="black" stroke-width="1.5" stroke-linecap="round" stroke-linejoin="round"/>
<path d="M5.375 13.6002L3.0625 12.6377" stroke="black" stroke-width="1.5" stroke-linecap="round" stroke-linejoin="round"/>
<path d="M26.625 13.6002L28.9375 12.6377" stroke="black" stroke-width="1.5" stroke-linecap="round" stroke-linejoin="round"/>
<path d="M20.3999 7.375L21.3624 5.0625" stroke="black" stroke-width="1.5" stroke-linecap="round" stroke-linejoin="round"/>
<path d="M30 20H2" stroke="black" stroke-width="1.5" stroke-linecap="round" stroke-linejoin="round"/>
<path d="M26 25H6" stroke="black" stroke-width="1.5" stroke-linecap="round" stroke-linejoin="round"/>
<path d="M8.775 20.0001C8.46467 18.8859 8.41624 17.715 8.63352 16.5789C8.85079 15.4429 9.32787 14.3725 10.0275 13.4514C10.7271 12.5303 11.6302 11.7835 12.6663 11.2694C13.7024 10.7553 14.8434 10.4878 16 10.4878C17.1566 10.4878 18.2976 10.7553 19.3337 11.2694C20.3698 11.7835 21.2729 12.5303 21.9725 13.4514C22.6721 14.3725 23.1492 15.4429 23.3665 16.5789C23.5838 17.715 23.5353 18.8859 23.225 20.0001" stroke="black" stroke-width="1.5" stroke-linecap="round" stroke-linejoin="round"/>
</svg>
