<svg width="32" height="32" viewBox="0 0 32 32" fill="none" xmlns="http://www.w3.org/2000/svg">
<path d="M12.5 15.75C13.1904 15.75 13.75 15.1904 13.75 14.5C13.75 13.8096 13.1904 13.25 12.5 13.25C11.8096 13.25 11.25 13.8096 11.25 14.5C11.25 15.1904 11.8096 15.75 12.5 15.75Z" fill="black"/>
<path d="M19.5 15.75C20.1904 15.75 20.75 15.1904 20.75 14.5C20.75 13.8096 20.1904 13.25 19.5 13.25C18.8096 13.25 18.25 13.8096 18.25 14.5C18.25 15.1904 18.8096 15.75 19.5 15.75Z" fill="black"/>
<path d="M27 27L23.3375 24L19.6625 27L16 24L12.3375 27L8.6625 24L5 27V15C5 12.0826 6.15893 9.28473 8.22183 7.22183C10.2847 5.15893 13.0826 4 16 4C18.9174 4 21.7153 5.15893 23.7782 7.22183C25.8411 9.28473 27 12.0826 27 15V27Z" stroke="black" stroke-width="1.5" stroke-linecap="round" stroke-linejoin="round"/>
</svg>
