<svg width="32" height="32" viewBox="0 0 32 32" fill="none" xmlns="http://www.w3.org/2000/svg">
<path d="M12 7V25" stroke="black" stroke-width="1.5" stroke-linecap="round" stroke-linejoin="round"/>
<path d="M3.00002 20.9C2.99874 20.6697 3.078 20.4462 3.22409 20.2682C3.37018 20.0901 3.5739 19.9687 3.80002 19.925C4.69941 19.734 5.50594 19.24 6.08465 18.5255C6.66336 17.811 6.97913 16.9194 6.97913 16C6.97913 15.0806 6.66336 14.189 6.08465 13.4745C5.50594 12.76 4.69941 12.266 3.80002 12.075C3.5739 12.0313 3.37018 11.9099 3.22409 11.7318C3.078 11.5538 2.99874 11.3303 3.00002 11.1V8C3.00002 7.73478 3.10537 7.48043 3.29291 7.29289C3.48044 7.10536 3.7348 7 4.00002 7H28C28.2652 7 28.5196 7.10536 28.7071 7.29289C28.8947 7.48043 29 7.73478 29 8V11.1C29.0013 11.3303 28.922 11.5538 28.7759 11.7318C28.6299 11.9099 28.4261 12.0313 28.2 12.075C27.3006 12.266 26.4941 12.76 25.9154 13.4745C25.3367 14.189 25.0209 15.0806 25.0209 16C25.0209 16.9194 25.3367 17.811 25.9154 18.5255C26.4941 19.24 27.3006 19.734 28.2 19.925C28.4261 19.9687 28.6299 20.0901 28.7759 20.2682C28.922 20.4462 29.0013 20.6697 29 20.9V24C29 24.2652 28.8947 24.5196 28.7071 24.7071C28.5196 24.8946 28.2652 25 28 25H4.00002C3.7348 25 3.48044 24.8946 3.29291 24.7071C3.10537 24.5196 3.00002 24.2652 3.00002 24V20.9Z" stroke="black" stroke-width="1.5" stroke-linecap="round" stroke-linejoin="round"/>
</svg>
