<svg width="32" height="32" viewBox="0 0 32 32" fill="none" xmlns="http://www.w3.org/2000/svg">
<path d="M11.4873 19C11.4873 20.6625 13.5123 22 15.9998 22C18.4873 22 20.5123 20.6625 20.5123 19C20.5123 15 11.7373 16.5 11.7373 13C11.7373 11.3375 13.5123 10 15.9998 10C17.8623 10 19.3248 10.75 19.9373 11.8375" stroke="black" stroke-width="1.5" stroke-linecap="round" stroke-linejoin="round"/>
<path d="M26 5H6C5.44772 5 5 5.44772 5 6V26C5 26.5523 5.44772 27 6 27H26C26.5523 27 27 26.5523 27 26V6C27 5.44772 26.5523 5 26 5Z" stroke="black" stroke-width="1.5" stroke-linecap="round" stroke-linejoin="round"/>
</svg>
