<svg width="32" height="32" viewBox="0 0 32 32" fill="none" xmlns="http://www.w3.org/2000/svg">
<path d="M27.7004 18.6746C27.9078 17.7643 28.0085 16.8331 28.0004 15.8996C27.9504 9.28706 22.4754 3.93707 15.8754 3.99957C13.0559 4.0293 10.3368 5.05099 8.19533 6.88538C6.05386 8.71977 4.62675 11.2497 4.16439 14.0313C3.70204 16.8128 4.23398 19.6684 5.66687 22.0969C7.09977 24.5254 9.3421 26.3718 12.0004 27.3121C12.4527 27.475 12.9375 27.5264 13.4138 27.4619C13.8901 27.3974 14.3438 27.2189 14.7364 26.9417C15.129 26.6644 15.4489 26.2965 15.669 25.8691C15.889 25.4418 16.0028 24.9677 16.0004 24.4871V23.9996C15.9988 23.6051 16.0753 23.2143 16.2254 22.8496C16.3756 22.4848 16.5965 22.1535 16.8754 21.8746C17.1543 21.5957 17.4857 21.3747 17.8504 21.2246C18.2152 21.0744 18.606 20.9979 19.0004 20.9996H24.7754C25.4541 21 26.1128 20.7703 26.6441 20.348C27.1754 19.9258 27.5478 19.3358 27.7004 18.6746V18.6746Z" stroke="black" stroke-width="1.5" stroke-linecap="round" stroke-linejoin="round"/>
<path d="M16 10.75C16.6904 10.75 17.25 10.1904 17.25 9.5C17.25 8.80964 16.6904 8.25 16 8.25C15.3096 8.25 14.75 8.80964 14.75 9.5C14.75 10.1904 15.3096 10.75 16 10.75Z" fill="black"/>
<path d="M10.375 14C11.0654 14 11.625 13.4404 11.625 12.75C11.625 12.0596 11.0654 11.5 10.375 11.5C9.68464 11.5 9.125 12.0596 9.125 12.75C9.125 13.4404 9.68464 14 10.375 14Z" fill="black"/>
<path d="M10.375 20.5C11.0654 20.5 11.625 19.9404 11.625 19.25C11.625 18.5596 11.0654 18 10.375 18C9.68464 18 9.125 18.5596 9.125 19.25C9.125 19.9404 9.68464 20.5 10.375 20.5Z" fill="black"/>
<path d="M21.625 14C22.3154 14 22.875 13.4404 22.875 12.75C22.875 12.0596 22.3154 11.5 21.625 11.5C20.9346 11.5 20.375 12.0596 20.375 12.75C20.375 13.4404 20.9346 14 21.625 14Z" fill="black"/>
</svg>
