<svg width="32" height="32" viewBox="0 0 32 32" fill="none" xmlns="http://www.w3.org/2000/svg">
<path d="M6.17546 11.8255C5.48602 11.0646 5.11559 10.0677 5.14086 9.04119C5.16613 8.01472 5.58517 7.03727 6.31122 6.31122C7.03727 5.58517 8.01472 5.16613 9.04119 5.14086C10.0677 5.11559 11.0646 5.48602 11.8255 6.17546L25.8255 20.1755C26.5149 20.9364 26.8853 21.9332 26.8601 22.9597C26.8348 23.9862 26.4157 24.9636 25.6897 25.6897C24.9636 26.4157 23.9862 26.8348 22.9597 26.8601C21.9332 26.8853 20.9364 26.5149 20.1755 25.8255L6.17546 11.8255Z" stroke="black" stroke-width="1.5" stroke-linecap="round" stroke-linejoin="round"/>
<path d="M20.1755 6.17546C20.9364 5.48602 21.9332 5.11559 22.9597 5.14086C23.9862 5.16613 24.9636 5.58517 25.6897 6.31122C26.4157 7.03727 26.8348 8.01472 26.8601 9.04119C26.8853 10.0677 26.5149 11.0646 25.8255 11.8255L11.8255 25.8255C11.0646 26.5149 10.0677 26.8853 9.04119 26.8601C8.01472 26.8348 7.03727 26.4157 6.31122 25.6897C5.58517 24.9636 5.16613 23.9862 5.14086 22.9597C5.11559 21.9332 5.48602 20.9364 6.17546 20.1755L20.1755 6.17546Z" stroke="black" stroke-width="1.5" stroke-linecap="round" stroke-linejoin="round"/>
<path opacity="0.5" d="M16 16.5C16.2761 16.5 16.5 16.2761 16.5 16C16.5 15.7239 16.2761 15.5 16 15.5C15.7239 15.5 15.5 15.7239 15.5 16C15.5 16.2761 15.7239 16.5 16 16.5Z" stroke="black" stroke-width="1.5" stroke-linecap="round" stroke-linejoin="round"/>
<path d="M16 17.25C16.6904 17.25 17.25 16.6904 17.25 16C17.25 15.3096 16.6904 14.75 16 14.75C15.3096 14.75 14.75 15.3096 14.75 16C14.75 16.6904 15.3096 17.25 16 17.25Z" fill="black"/>
</svg>
