<svg width="32" height="32" viewBox="0 0 32 32" fill="none" xmlns="http://www.w3.org/2000/svg">
<path d="M16 28C22.6274 28 28 22.6274 28 16C28 9.37258 22.6274 4 16 4C9.37258 4 4 9.37258 4 16C4 22.6274 9.37258 28 16 28Z" stroke="black" stroke-width="1.5" stroke-linecap="round" stroke-linejoin="round"/>
<path d="M11.5 14.75C12.1904 14.75 12.75 14.1904 12.75 13.5C12.75 12.8096 12.1904 12.25 11.5 12.25C10.8096 12.25 10.25 12.8096 10.25 13.5C10.25 14.1904 10.8096 14.75 11.5 14.75Z" fill="black"/>
<path d="M19 13.5H22" stroke="black" stroke-width="1.5" stroke-linecap="round" stroke-linejoin="round"/>
<path d="M21.1998 19C20.6712 19.9107 19.9126 20.6667 19 21.1922C18.0874 21.7176 17.0529 21.9942 15.9998 21.9942C14.9468 21.9942 13.9122 21.7176 12.9996 21.1922C12.087 20.6667 11.3284 19.9107 10.7998 19" stroke="black" stroke-width="1.5" stroke-linecap="round" stroke-linejoin="round"/>
</svg>
