<svg width="32" height="32" viewBox="0 0 32 32" fill="none" xmlns="http://www.w3.org/2000/svg">
<path d="M14.5 20C15.8807 20 17 18.8807 17 17.5C17 16.1193 15.8807 15 14.5 15C13.1193 15 12 16.1193 12 17.5C12 18.8807 13.1193 20 14.5 20Z" stroke="black" stroke-width="1.5" stroke-linecap="round" stroke-linejoin="round"/>
<path d="M4 28.0002L12.7375 19.2627" stroke="black" stroke-width="1.5" stroke-linecap="round" stroke-linejoin="round"/>
<path d="M4 28L21.4375 25.1C21.6096 25.0706 21.7709 24.9962 21.9048 24.8842C22.0387 24.7722 22.1406 24.6267 22.2 24.4625L25 17L15 7L7.5375 9.8C7.37305 9.86264 7.22777 9.96706 7.11598 10.103C7.00419 10.2389 6.92975 10.4016 6.9 10.575L4 28Z" stroke="black" stroke-width="1.5" stroke-linecap="round" stroke-linejoin="round"/>
<path d="M25 16.9999L28.2875 13.7124C28.382 13.6193 28.457 13.5084 28.5082 13.3861C28.5595 13.2638 28.5858 13.1325 28.5858 12.9999C28.5858 12.8673 28.5595 12.736 28.5082 12.6137C28.457 12.4914 28.382 12.3804 28.2875 12.2874L19.7125 3.71239C19.6195 3.61791 19.5085 3.54287 19.3862 3.49165C19.2639 3.44044 19.1326 3.41406 19 3.41406C18.8674 3.41406 18.7361 3.44044 18.6138 3.49165C18.4915 3.54287 18.3805 3.61791 18.2875 3.71239L15 6.99989" stroke="black" stroke-width="1.5" stroke-linecap="round" stroke-linejoin="round"/>
</svg>
