<svg width="32" height="32" viewBox="0 0 32 32" fill="none" xmlns="http://www.w3.org/2000/svg">
<path d="M15 4L23 10L15 16V4Z" stroke="black" stroke-width="1.5" stroke-linecap="round" stroke-linejoin="round"/>
<path d="M15 16L23 22L15 28V16Z" stroke="black" stroke-width="1.5" stroke-linecap="round" stroke-linejoin="round"/>
<path d="M7 10L15 16" stroke="black" stroke-width="1.5" stroke-linecap="round" stroke-linejoin="round"/>
<path d="M7 22L15 16" stroke="black" stroke-width="1.5" stroke-linecap="round" stroke-linejoin="round"/>
<path d="M6.5 17.25C7.19036 17.25 7.75 16.6904 7.75 16C7.75 15.3096 7.19036 14.75 6.5 14.75C5.80964 14.75 5.25 15.3096 5.25 16C5.25 16.6904 5.80964 17.25 6.5 17.25Z" fill="black"/>
<path d="M24.5 17.25C25.1904 17.25 25.75 16.6904 25.75 16C25.75 15.3096 25.1904 14.75 24.5 14.75C23.8096 14.75 23.25 15.3096 23.25 16C23.25 16.6904 23.8096 17.25 24.5 17.25Z" fill="black"/>
</svg>
