<svg width="32" height="32" viewBox="0 0 32 32" fill="none" xmlns="http://www.w3.org/2000/svg">
<path d="M15.1128 4.56275L3.28778 25.6753C3.18953 25.8531 3.14778 26.0566 3.1681 26.2588C3.18841 26.4609 3.26981 26.6521 3.40148 26.8069C3.53314 26.9616 3.70881 27.0726 3.90511 27.125C4.1014 27.1774 4.309 27.1688 4.50028 27.1003L15.6503 23.1253C15.8668 23.0377 16.1088 23.0377 16.3253 23.1253L27.4753 27.1003C27.6666 27.1688 27.8742 27.1774 28.0704 27.125C28.2667 27.0726 28.4424 26.9616 28.5741 26.8069C28.7057 26.6521 28.7871 26.4609 28.8075 26.2588C28.8278 26.0566 28.786 25.8531 28.6878 25.6753L16.8628 4.56275C16.7763 4.40645 16.6495 4.27617 16.4957 4.18545C16.3418 4.09472 16.1664 4.04688 15.9878 4.04688C15.8091 4.04688 15.6338 4.09472 15.4799 4.18545C15.326 4.27617 15.1993 4.40645 15.1128 4.56275Z" stroke="black" stroke-width="1.5" stroke-linecap="round" stroke-linejoin="round"/>
<path d="M15.9873 23V15" stroke="black" stroke-width="1.5" stroke-linecap="round" stroke-linejoin="round"/>
</svg>
