<svg width="32" height="32" viewBox="0 0 32 32" fill="none" xmlns="http://www.w3.org/2000/svg">
<path d="M20.5 9.75C21.1904 9.75 21.75 9.19036 21.75 8.5C21.75 7.80964 21.1904 7.25 20.5 7.25C19.8096 7.25 19.25 7.80964 19.25 8.5C19.25 9.19036 19.8096 9.75 20.5 9.75Z" fill="black"/>
<path d="M15 17L10 23" stroke="black" stroke-width="1.5" stroke-linecap="round" stroke-linejoin="round"/>
<path d="M26 11.9999V14.9999C26 18.1825 24.7357 21.2347 22.4853 23.4851C20.2348 25.7356 17.1826 26.9999 14 26.9999H1L13 11.9999V9.49986C13.0026 7.92082 13.58 6.39674 14.6242 5.21228C15.6684 4.02782 17.1081 3.26397 18.6744 3.0634C20.2406 2.86284 21.8263 3.23927 23.1353 4.1224C24.4443 5.00552 25.3871 6.33494 25.7875 7.86236L29 9.99986L26 11.9999Z" stroke="black" stroke-width="1.5" stroke-linecap="round" stroke-linejoin="round"/>
</svg>
