<svg width="32" height="32" viewBox="0 0 32 32" fill="none" xmlns="http://www.w3.org/2000/svg">
<path d="M19.4247 12.6628C17.193 11.8914 14.7662 11.8958 12.5372 12.6753C12.3746 12.7318 12.2292 12.8294 12.1154 12.9586C12.0015 13.0878 11.9229 13.2443 11.8872 13.4128L11.1622 17.1003C11.128 17.2638 11.0543 17.4165 10.9475 17.545C10.8408 17.6736 10.7042 17.7741 10.5497 17.8378L4.63725 20.2003C4.43613 20.2836 4.21311 20.2981 4.00288 20.2416C3.79264 20.1851 3.60697 20.0607 3.47475 19.8878C2.58158 18.7337 2.13964 17.2936 2.23168 15.8372C2.32371 14.3807 2.9434 13.0077 3.97475 11.9753C7.16483 8.78765 11.49 6.99707 15.9997 6.99707C20.5095 6.99707 24.8347 8.78765 28.0247 11.9753C29.0561 13.0077 29.6758 14.3807 29.7678 15.8372C29.8599 17.2936 29.4179 18.7337 28.5247 19.8878C28.3925 20.0607 28.2069 20.1851 27.9966 20.2416C27.7864 20.2981 27.5634 20.2836 27.3622 20.2003L21.4497 17.8378C21.2968 17.7752 21.1612 17.6767 21.0545 17.5504C20.9479 17.4242 20.8733 17.274 20.8372 17.1128L20.0622 13.4003C20.0289 13.2327 19.9526 13.0766 19.8408 12.9474C19.7291 12.8181 19.5857 12.72 19.4247 12.6628V12.6628Z" stroke="black" stroke-width="1.5" stroke-linecap="round" stroke-linejoin="round"/>
<path d="M5 25H27" stroke="black" stroke-width="1.5" stroke-linecap="round" stroke-linejoin="round"/>
</svg>
