<svg width="32" height="32" viewBox="0 0 32 32" fill="none" xmlns="http://www.w3.org/2000/svg">
<path d="M23.0749 23.0753C17.8749 28.2628 10.6749 27.8503 7.19988 27.2628C6.58424 27.1595 6.01615 26.8668 5.57474 26.4254C5.13334 25.984 4.84063 25.4159 4.73738 24.8003C4.14988 21.3253 3.73738 14.1253 8.92488 8.92528C14.1124 3.72528 21.3249 4.15028 24.7999 4.73778C25.4155 4.84102 25.9836 5.13374 26.425 5.57514C26.8664 6.01654 27.1591 6.58464 27.2624 7.20028C27.8499 10.6753 28.2624 17.8753 23.0749 23.0753Z" stroke="black" stroke-width="1.5" stroke-linecap="round" stroke-linejoin="round"/>
<path d="M20 12L12 20" stroke="black" stroke-width="1.5" stroke-linecap="round" stroke-linejoin="round"/>
<path d="M15.5879 12.7627L19.2379 16.4127" stroke="black" stroke-width="1.5" stroke-linecap="round" stroke-linejoin="round"/>
<path d="M12.7627 15.5879L16.4127 19.2379" stroke="black" stroke-width="1.5" stroke-linecap="round" stroke-linejoin="round"/>
<path d="M18.5254 4.52539L27.4754 13.4754" stroke="black" stroke-width="1.5" stroke-linecap="round" stroke-linejoin="round"/>
<path d="M4.52539 18.5254L13.4754 27.4754" stroke="black" stroke-width="1.5" stroke-linecap="round" stroke-linejoin="round"/>
</svg>
