<svg width="32" height="32" viewBox="0 0 32 32" fill="none" xmlns="http://www.w3.org/2000/svg">
<path d="M6 5L26 27" stroke="black" stroke-width="1.5" stroke-linecap="round" stroke-linejoin="round"/>
<path d="M13.3877 7.18757C14.2528 7.06162 15.126 6.99895 16.0002 7.00007C20.8168 6.9871 25.4421 8.88398 28.8627 12.2751" stroke="black" stroke-width="1.5" stroke-linecap="round" stroke-linejoin="round"/>
<path d="M3.1377 12.2748C4.8332 10.5959 6.8421 9.26657 9.0502 8.3623" stroke="black" stroke-width="1.5" stroke-linecap="round" stroke-linejoin="round"/>
<path d="M19.0127 13.375C21.1307 13.8996 23.0689 14.9831 24.6252 16.5125" stroke="black" stroke-width="1.5" stroke-linecap="round" stroke-linejoin="round"/>
<path d="M7.375 16.5125C9.06078 14.8591 11.1873 13.7264 13.5 13.25" stroke="black" stroke-width="1.5" stroke-linecap="round" stroke-linejoin="round"/>
<path d="M11.6123 20.7626C12.7396 19.6863 14.2227 19.0613 15.7803 19.006C17.3378 18.9507 18.8615 19.469 20.0623 20.4626" stroke="black" stroke-width="1.5" stroke-linecap="round" stroke-linejoin="round"/>
<path d="M16 26.25C16.6904 26.25 17.25 25.6904 17.25 25C17.25 24.3096 16.6904 23.75 16 23.75C15.3096 23.75 14.75 24.3096 14.75 25C14.75 25.6904 15.3096 26.25 16 26.25Z" fill="black"/>
</svg>
