<svg width="32" height="32" viewBox="0 0 32 32" fill="none" xmlns="http://www.w3.org/2000/svg">
<path d="M16 22V10" stroke="black" stroke-width="1.5" stroke-linecap="round" stroke-linejoin="round"/>
<path d="M11 18C11.9889 18 12.9556 18.2932 13.7779 18.8427C14.6001 19.3921 15.241 20.173 15.6194 21.0866C15.9978 22.0002 16.0969 23.0055 15.9039 23.9755C15.711 24.9454 15.2348 25.8363 14.5355 26.5355C13.8363 27.2348 12.9454 27.711 11.9755 27.9039C11.0055 28.0969 10.0002 27.9978 9.08658 27.6194C8.17295 27.241 7.39206 26.6001 6.84265 25.7779C6.29324 24.9556 6 23.9889 6 23V22.1625" stroke="black" stroke-width="1.5" stroke-linecap="round" stroke-linejoin="round"/>
<path d="M21 18C20.0111 18 19.0444 18.2932 18.2222 18.8427C17.3999 19.3921 16.759 20.173 16.3806 21.0866C16.0022 22.0002 15.9031 23.0055 16.0961 23.9755C16.289 24.9454 16.7652 25.8363 17.4645 26.5355C18.1637 27.2348 19.0546 27.711 20.0246 27.9039C20.9945 28.0969 21.9998 27.9978 22.9134 27.6194C23.8271 27.241 24.6079 26.6001 25.1574 25.7779C25.7068 24.9556 26 23.9889 26 23V22.1625" stroke="black" stroke-width="1.5" stroke-linecap="round" stroke-linejoin="round"/>
<path d="M8.99951 22.5H7.99951C6.58129 22.5038 5.20757 22.0051 4.12207 21.0924C3.03656 20.1797 2.30945 18.912 2.06974 17.5142C1.83003 16.1163 2.09321 14.6788 2.81259 13.4566C3.53198 12.2343 4.66106 11.3064 5.99951 10.8375V9C5.99951 7.67392 6.5263 6.40215 7.46398 5.46447C8.40166 4.52678 9.67343 4 10.9995 4C12.3256 4 13.5974 4.52678 14.535 5.46447C15.4727 6.40215 15.9995 7.67392 15.9995 9V23" stroke="black" stroke-width="1.5" stroke-linecap="round" stroke-linejoin="round"/>
<path d="M23 22.5H24C25.4182 22.5038 26.7919 22.0051 27.8774 21.0924C28.963 20.1797 29.6901 18.912 29.9298 17.5142C30.1695 16.1163 29.9063 14.6788 29.1869 13.4566C28.4675 12.2343 27.3385 11.3064 26 10.8375V9C26 7.67392 25.4732 6.40215 24.5355 5.46447C23.5979 4.52678 22.3261 4 21 4C19.6739 4 18.4021 4.52678 17.4645 5.46447C16.5268 6.40215 16 7.67392 16 9" stroke="black" stroke-width="1.5" stroke-linecap="round" stroke-linejoin="round"/>
<path d="M11 10.5V11.5C11 12.4283 10.6313 13.3185 9.97487 13.9749C9.3185 14.6313 8.42826 15 7.5 15" stroke="black" stroke-width="1.5" stroke-linecap="round" stroke-linejoin="round"/>
<path d="M21 10.5V11.5C21 12.4283 21.3687 13.3185 22.0251 13.9749C22.6815 14.6313 23.5717 15 24.5 15" stroke="black" stroke-width="1.5" stroke-linecap="round" stroke-linejoin="round"/>
</svg>
