<svg width="32" height="32" viewBox="0 0 32 32" fill="none" xmlns="http://www.w3.org/2000/svg">
<path d="M23.5 6C24.6046 6 25.5 5.10457 25.5 4C25.5 2.89543 24.6046 2 23.5 2C22.3954 2 21.5 2.89543 21.5 4C21.5 5.10457 22.3954 6 23.5 6Z" stroke="black" stroke-width="1.5" stroke-linecap="round" stroke-linejoin="round"/>
<path d="M20.125 22C18.8498 22.6588 17.4353 23.0025 16 23.0025C14.5647 23.0025 13.1502 22.6588 11.875 22" stroke="black" stroke-width="1.5" stroke-linecap="round" stroke-linejoin="round"/>
<path d="M16 9L17 3L21.525 3.7" stroke="black" stroke-width="1.5" stroke-linecap="round" stroke-linejoin="round"/>
<path d="M7.42456 11.2375C9.71206 9.8375 12.7121 9 15.9996 9C19.2871 9 22.2871 9.8375 24.5746 11.2375C24.8369 10.8775 25.1762 10.5804 25.5677 10.3678C25.9592 10.1553 26.3931 10.0325 26.8379 10.0086C27.2828 9.98468 27.7274 10.0601 28.1394 10.2294C28.5515 10.3988 28.9206 10.6577 29.2201 10.9875C29.5196 11.3173 29.7418 11.7097 29.8708 12.1361C29.9997 12.5625 30.032 13.0123 29.9654 13.4528C29.8988 13.8933 29.7349 14.3134 29.4857 14.6826C29.2365 15.0519 28.9082 15.361 28.5246 15.5875V15.5875C28.8389 16.3529 29.0002 17.1725 28.9996 18C28.9996 22.975 23.1746 27 15.9996 27C8.82456 27 2.99956 22.975 2.99956 18C2.99888 17.1725 3.16025 16.3529 3.47456 15.5875V15.5875C3.09097 15.361 2.76264 15.0519 2.51341 14.6826C2.26418 14.3134 2.10032 13.8933 2.03372 13.4528C1.96712 13.0123 1.99945 12.5625 2.12836 12.1361C2.25728 11.7097 2.47955 11.3173 2.77903 10.9875C3.0785 10.6577 3.44767 10.3988 3.85972 10.2294C4.27177 10.0601 4.71635 9.98468 5.16119 10.0086C5.60603 10.0325 6.03996 10.1553 6.43146 10.3678C6.82296 10.5804 7.1622 10.8775 7.42456 11.2375V11.2375Z" stroke="black" stroke-width="1.5" stroke-linecap="round" stroke-linejoin="round"/>
<path d="M11 18.25C11.9665 18.25 12.75 17.4665 12.75 16.5C12.75 15.5335 11.9665 14.75 11 14.75C10.0335 14.75 9.25 15.5335 9.25 16.5C9.25 17.4665 10.0335 18.25 11 18.25Z" fill="black"/>
<path d="M21 18.25C21.9665 18.25 22.75 17.4665 22.75 16.5C22.75 15.5335 21.9665 14.75 21 14.75C20.0335 14.75 19.25 15.5335 19.25 16.5C19.25 17.4665 20.0335 18.25 21 18.25Z" fill="black"/>
</svg>
