<svg width="32" height="32" viewBox="0 0 32 32" fill="none" xmlns="http://www.w3.org/2000/svg">
<path d="M11.5 8.75C12.1904 8.75 12.75 8.19036 12.75 7.5C12.75 6.80964 12.1904 6.25 11.5 6.25C10.8096 6.25 10.25 6.80964 10.25 7.5C10.25 8.19036 10.8096 8.75 11.5 8.75Z" fill="black"/>
<path d="M20.5 8.75C21.1904 8.75 21.75 8.19036 21.75 7.5C21.75 6.80964 21.1904 6.25 20.5 6.25C19.8096 6.25 19.25 6.80964 19.25 7.5C19.25 8.19036 19.8096 8.75 20.5 8.75Z" fill="black"/>
<path d="M11.5 17.25C12.1904 17.25 12.75 16.6904 12.75 16C12.75 15.3096 12.1904 14.75 11.5 14.75C10.8096 14.75 10.25 15.3096 10.25 16C10.25 16.6904 10.8096 17.25 11.5 17.25Z" fill="black"/>
<path d="M20.5 17.25C21.1904 17.25 21.75 16.6904 21.75 16C21.75 15.3096 21.1904 14.75 20.5 14.75C19.8096 14.75 19.25 15.3096 19.25 16C19.25 16.6904 19.8096 17.25 20.5 17.25Z" fill="black"/>
<path d="M11.5 25.75C12.1904 25.75 12.75 25.1904 12.75 24.5C12.75 23.8096 12.1904 23.25 11.5 23.25C10.8096 23.25 10.25 23.8096 10.25 24.5C10.25 25.1904 10.8096 25.75 11.5 25.75Z" fill="black"/>
<path d="M20.5 25.75C21.1904 25.75 21.75 25.1904 21.75 24.5C21.75 23.8096 21.1904 23.25 20.5 23.25C19.8096 23.25 19.25 23.8096 19.25 24.5C19.25 25.1904 19.8096 25.75 20.5 25.75Z" fill="black"/>
</svg>
