<svg width="32" height="32" viewBox="0 0 32 32" fill="none" xmlns="http://www.w3.org/2000/svg">
<path d="M13.3246 19.0127L12.2371 20.2377C11.3993 21.074 10.3325 21.6432 9.17129 21.8734C8.01011 22.1036 6.80676 21.9844 5.7133 21.5309C4.61983 21.0774 3.68533 20.31 3.02788 19.3256C2.37043 18.3412 2.01953 17.184 2.01953 16.0002C2.01953 14.8164 2.37043 13.6592 3.02788 12.6748C3.68533 11.6904 4.61983 10.923 5.7133 10.4695C6.80676 10.016 8.01011 9.8968 9.17129 10.127C10.3325 10.3572 11.3993 10.9264 12.2371 11.7627L19.7621 20.2377C20.5999 21.074 21.6668 21.6432 22.828 21.8734C23.9892 22.1036 25.1925 21.9844 26.286 21.5309C27.3794 21.0774 28.3139 20.31 28.9714 19.3256C29.6288 18.3412 29.9797 17.184 29.9797 16.0002C29.9797 14.8164 29.6288 13.6592 28.9714 12.6748C28.3139 11.6904 27.3794 10.923 26.286 10.4695C25.1925 10.016 23.9892 9.8968 22.828 10.127C21.6668 10.3572 20.5999 10.9264 19.7621 11.7627L18.6746 12.9877" stroke="black" stroke-width="1.5" stroke-linecap="round" stroke-linejoin="round"/>
</svg>
