<svg width="32" height="32" viewBox="0 0 32 32" fill="none" xmlns="http://www.w3.org/2000/svg">
<path d="M2.92525 9.46273C2.78616 9.24624 2.73707 8.984 2.78843 8.73185C2.83979 8.47971 2.98755 8.25757 3.20025 8.11273C6.93247 5.43824 11.4087 4 16.0002 4C20.5918 4 25.068 5.43824 28.8002 8.11273C29.0129 8.25757 29.1607 8.47971 29.2121 8.73185C29.2634 8.984 29.2143 9.24624 29.0752 9.46273L16.8377 28.6752C16.749 28.8173 16.6256 28.9345 16.479 29.0157C16.3325 29.0969 16.1678 29.1395 16.0002 29.1395C15.8327 29.1395 15.668 29.0969 15.5215 29.0157C15.3749 28.9345 15.2515 28.8173 15.1627 28.6752L2.92525 9.46273Z" stroke="black" stroke-width="1.5" stroke-linecap="round" stroke-linejoin="round"/>
<path d="M4.58789 12.0748C7.80701 9.43854 11.8395 7.99805 16.0004 7.99805C20.1612 7.99805 24.1938 9.43854 27.4129 12.0748" stroke="black" stroke-width="1.5" stroke-linecap="round" stroke-linejoin="round"/>
<path d="M20.5375 22.8627C20.0134 22.7135 19.5315 22.444 19.13 22.0757C18.7285 21.7073 18.4186 21.2503 18.2248 20.7411C18.0311 20.2318 17.9589 19.6844 18.0141 19.1423C18.0692 18.6003 18.2502 18.0786 18.5425 17.6188C18.8348 17.159 19.2304 16.7738 19.6979 16.4938C20.1653 16.2139 20.6917 16.047 21.235 16.0063C21.7783 15.9657 22.3237 16.0525 22.8276 16.2597C23.3314 16.467 23.78 16.7891 24.1375 17.2002" stroke="black" stroke-width="1.5" stroke-linecap="round" stroke-linejoin="round"/>
<path d="M7.2373 16.225C7.46922 15.6321 7.85845 15.1137 8.3631 14.7256C8.86774 14.3375 9.46869 14.0944 10.1012 14.0224C10.7338 13.9505 11.374 14.0524 11.9529 14.3173C12.5318 14.5821 13.0275 14.9999 13.3867 15.5255C13.7458 16.0512 13.9548 16.6648 13.9911 17.3004C14.0274 17.936 13.8897 18.5695 13.5927 19.1326C13.2958 19.6957 12.8508 20.1672 12.3059 20.4962C11.7609 20.8253 11.1364 20.9995 10.4998 21H10.2748" stroke="black" stroke-width="1.5" stroke-linecap="round" stroke-linejoin="round"/>
</svg>
