<svg width="32" height="32" viewBox="0 0 32 32" fill="none" xmlns="http://www.w3.org/2000/svg">
<path d="M21 13H11C8.79086 13 7 14.7909 7 17V18C7 20.2091 8.79086 22 11 22H21C23.2091 22 25 20.2091 25 18V17C25 14.7909 23.2091 13 21 13Z" stroke="black" stroke-width="1.5" stroke-linecap="round" stroke-linejoin="round"/>
<path d="M3 8C3 7.20435 3.31607 6.44129 3.87868 5.87868C4.44129 5.31607 5.20435 5 6 5C6.79565 5 7.55871 5.31607 8.12132 5.87868C8.68393 6.44129 9 7.20435 9 8H23C23 7.20435 23.3161 6.44129 23.8787 5.87868C24.4413 5.31607 25.2044 5 26 5C26.7956 5 27.5587 5.31607 28.1213 5.87868C28.6839 6.44129 29 7.20435 29 8V18C28.9967 20.1207 28.1528 22.1536 26.6532 23.6532C25.1536 25.1528 23.1207 25.9967 21 26H11C8.87928 25.9967 6.84637 25.1528 5.3468 23.6532C3.84722 22.1536 3.00331 20.1207 3 18V8Z" stroke="black" stroke-width="1.5" stroke-linecap="round" stroke-linejoin="round"/>
<path d="M11.5 18.75C12.1904 18.75 12.75 18.1904 12.75 17.5C12.75 16.8096 12.1904 16.25 11.5 16.25C10.8096 16.25 10.25 16.8096 10.25 17.5C10.25 18.1904 10.8096 18.75 11.5 18.75Z" fill="black"/>
<path d="M20.5 18.75C21.1904 18.75 21.75 18.1904 21.75 17.5C21.75 16.8096 21.1904 16.25 20.5 16.25C19.8096 16.25 19.25 16.8096 19.25 17.5C19.25 18.1904 19.8096 18.75 20.5 18.75Z" fill="black"/>
</svg>
