<svg width="32" height="32" viewBox="0 0 32 32" fill="none" xmlns="http://www.w3.org/2000/svg">
<path d="M9 27H27" stroke="black" stroke-width="1.5" stroke-linecap="round" stroke-linejoin="round"/>
<path d="M3.35043 10H5.50043L8.00043 13H12.0004L10.4379 8.3125C10.3885 8.16229 10.3754 8.00251 10.3997 7.84626C10.424 7.69001 10.4851 7.54176 10.5778 7.41366C10.6705 7.28557 10.7923 7.18129 10.9331 7.10938C11.0739 7.03747 11.2298 6.99999 11.3879 7H13.5004L19.0004 13H26.0004C27.0613 13 28.0787 13.4214 28.8289 14.1716C29.579 14.9217 30.0004 15.9391 30.0004 17V20H7.97543C7.11634 19.9987 6.28051 19.7208 5.59162 19.2075C4.90274 18.6943 4.39741 17.9728 4.15043 17.15L2.38793 11.2875C2.34299 11.1378 2.33377 10.9796 2.361 10.8257C2.38824 10.6718 2.45118 10.5264 2.54477 10.4012C2.63836 10.276 2.75999 10.1745 2.89991 10.1049C3.03982 10.0352 3.19412 9.99926 3.35043 10V10Z" stroke="black" stroke-width="1.5" stroke-linecap="round" stroke-linejoin="round"/>
</svg>
