<svg width="32" height="32" viewBox="0 0 32 32" fill="none" xmlns="http://www.w3.org/2000/svg">
<path d="M26.1873 10.0503L21.9873 14.0003L25.9873 25.0003L22.9873 28.0003L17.0123 19.2503L13.9873 22.0003V25.0003L10.9873 28.0003L9.2123 22.7628L3.9873 21.0003L6.9873 18.0003H9.9873L12.9873 15.0003L3.9873 9.00032L6.9873 6.00032L17.9873 10.0003L21.9498 5.81282L21.8623 5.87532C22.4259 5.31174 23.1903 4.99512 23.9873 4.99512C24.7843 4.99512 25.5487 5.31174 26.1123 5.87532C26.6759 6.43891 26.9925 7.20329 26.9925 8.00032C26.9925 8.79735 26.6759 9.56174 26.1123 10.1253L26.1873 10.0503Z" stroke="black" stroke-width="1.5" stroke-linecap="round" stroke-linejoin="round"/>
</svg>
