<svg width="32" height="32" viewBox="0 0 32 32" fill="none" xmlns="http://www.w3.org/2000/svg">
<path d="M3 27H21" stroke="black" stroke-width="1.5" stroke-linecap="round" stroke-linejoin="round"/>
<path d="M2.11274 17.5495L6.82524 21.962C7.4536 22.5511 8.2553 22.9216 9.11111 23.0184C9.96693 23.1153 10.8311 22.9333 11.5752 22.4995L30.5002 11.4995L28.1752 8.64954C27.5704 7.91088 26.7214 7.41288 25.7815 7.24554C24.8416 7.07819 23.8728 7.25252 23.0502 7.73704L17.5002 10.9995L10.0002 8.49954L7.93774 9.38704C7.78344 9.45317 7.64826 9.55708 7.54468 9.68919C7.4411 9.82131 7.37245 9.97737 7.34505 10.143C7.31765 10.3086 7.33239 10.4785 7.38792 10.6369C7.44344 10.7953 7.53795 10.9372 7.66274 11.0495L11.5002 14.4995L8.00024 16.4995L4.50024 14.9995L2.40024 15.8995C2.24746 15.9652 2.11345 16.0679 2.01035 16.1983C1.90725 16.3288 1.83831 16.4829 1.80977 16.6467C1.78122 16.8105 1.79398 16.9789 1.84688 17.1365C1.89978 17.2941 1.99116 17.4361 2.11274 17.5495V17.5495Z" stroke="black" stroke-width="1.5" stroke-linecap="round" stroke-linejoin="round"/>
</svg>
