<svg width="32" height="32" viewBox="0 0 32 32" fill="none" xmlns="http://www.w3.org/2000/svg">
<path d="M27 14C27 20.075 20 29 16 29C12 29 5 20.075 5 14C5 11.0826 6.15893 8.28473 8.22183 6.22183C10.2847 4.15893 13.0826 3 16 3C18.9174 3 21.7153 4.15893 23.7782 6.22183C25.8411 8.28473 27 11.0826 27 14V14Z" stroke="black" stroke-width="1.5" stroke-linecap="round" stroke-linejoin="round"/>
<path d="M13 18.5C11.9391 18.5 10.9217 18.0786 10.1716 17.3284C9.42143 16.5783 9 15.5609 9 14.5V14C9 13.7348 9.10536 13.4804 9.29289 13.2929C9.48043 13.1054 9.73478 13 10 13C11.0609 13 12.0783 13.4214 12.8284 14.1716C13.5786 14.9217 14 15.9391 14 17V17.5C14 17.7652 13.8946 18.0196 13.7071 18.2071C13.5196 18.3946 13.2652 18.5 13 18.5V18.5Z" stroke="black" stroke-width="1.5" stroke-linecap="round" stroke-linejoin="round"/>
<path d="M22 13C22.2652 13 22.5196 13.1054 22.7071 13.2929C22.8946 13.4804 23 13.7348 23 14V14.5C23 15.5609 22.5786 16.5783 21.8284 17.3284C21.0783 18.0786 20.0609 18.5 19 18.5C18.7348 18.5 18.4804 18.3946 18.2929 18.2071C18.1054 18.0196 18 17.7652 18 17.5V17C18 15.9391 18.4214 14.9217 19.1716 14.1716C19.9217 13.4214 20.9391 13 22 13Z" stroke="black" stroke-width="1.5" stroke-linecap="round" stroke-linejoin="round"/>
<path d="M14 23H18" stroke="black" stroke-width="1.5" stroke-linecap="round" stroke-linejoin="round"/>
</svg>
