<svg width="32" height="32" viewBox="0 0 32 32" fill="none" xmlns="http://www.w3.org/2000/svg">
<path d="M16 18C17.6569 18 19 16.6569 19 15C19 13.3431 17.6569 12 16 12C14.3431 12 13 13.3431 13 15C13 16.6569 14.3431 18 16 18Z" stroke="black" stroke-width="1.5" stroke-linecap="round" stroke-linejoin="round"/>
<path d="M16.3629 28H15.6379C15.1746 28.0001 14.7257 27.8394 14.3678 27.5453C14.0099 27.2512 13.7652 26.842 13.6754 26.3875L12.4754 20.3875C12.4181 20.0976 12.4258 19.7986 12.498 19.512C12.5701 19.2254 12.7048 18.9583 12.8925 18.73C13.0801 18.5017 13.3161 18.3178 13.5833 18.1916C13.8505 18.0654 14.1424 17.9999 14.4379 18H17.5629C17.8584 17.9999 18.1503 18.0654 18.4175 18.1916C18.6847 18.3178 18.9207 18.5017 19.1083 18.73C19.296 18.9583 19.4307 19.2254 19.5028 19.512C19.575 19.7986 19.5827 20.0976 19.5254 20.3875L18.3254 26.3875C18.2356 26.842 17.9909 27.2512 17.633 27.5453C17.2751 27.8394 16.8261 28.0001 16.3629 28V28Z" stroke="black" stroke-width="1.5" stroke-linecap="round" stroke-linejoin="round"/>
<path d="M8.5375 18.9005C8.06927 17.6884 7.9033 16.3806 8.05396 15.09C8.20461 13.7994 8.66735 12.565 9.40215 11.4934C10.137 10.4218 11.1217 9.54527 12.2713 8.93967C13.4209 8.33406 14.7007 8.01758 16 8.01758C17.2993 8.01758 18.5791 8.33406 19.7287 8.93967C20.8783 9.54527 21.863 10.4218 22.5978 11.4934C23.3327 12.565 23.7954 13.7994 23.946 15.09C24.0967 16.3806 23.9307 17.6884 23.4625 18.9005" stroke="black" stroke-width="1.5" stroke-linecap="round" stroke-linejoin="round"/>
<path d="M9.55 26.1123C7.36041 24.7167 5.68258 22.6485 4.76838 20.2182C3.85417 17.7879 3.75291 15.1266 4.4798 12.6338C5.20669 10.1411 6.72251 7.95138 8.79972 6.39338C10.8769 4.83538 13.4034 3.99316 16 3.99316C18.5966 3.99316 21.1231 4.83538 23.2003 6.39338C25.2775 7.95138 26.7933 10.1411 27.5202 12.6338C28.2471 15.1266 28.1458 17.7879 27.2316 20.2182C26.3174 22.6485 24.6396 24.7167 22.45 26.1123" stroke="black" stroke-width="1.5" stroke-linecap="round" stroke-linejoin="round"/>
</svg>
