<svg width="32" height="32" viewBox="0 0 32 32" fill="none" xmlns="http://www.w3.org/2000/svg">
<path d="M27 6H5C4.44772 6 4 6.44772 4 7V25C4 25.5523 4.44772 26 5 26H27C27.5523 26 28 25.5523 28 25V7C28 6.44772 27.5523 6 27 6Z" stroke="black" stroke-width="1.5" stroke-linecap="round" stroke-linejoin="round"/>
<path d="M8.5 11.75C9.19036 11.75 9.75 11.1904 9.75 10.5C9.75 9.80964 9.19036 9.25 8.5 9.25C7.80964 9.25 7.25 9.80964 7.25 10.5C7.25 11.1904 7.80964 11.75 8.5 11.75Z" fill="black"/>
<path d="M13.5 11.75C14.1904 11.75 14.75 11.1904 14.75 10.5C14.75 9.80964 14.1904 9.25 13.5 9.25C12.8096 9.25 12.25 9.80964 12.25 10.5C12.25 11.1904 12.8096 11.75 13.5 11.75Z" fill="black"/>
</svg>
