<svg width="32" height="33" viewBox="0 0 32 33" fill="none" xmlns="http://www.w3.org/2000/svg">
<path d="M28 22.6273V10.3023C27.999 10.1243 27.9512 9.94966 27.8612 9.79603C27.7712 9.64241 27.6423 9.51523 27.4875 9.42732L16.4875 3.23982C16.3393 3.15424 16.1711 3.10919 16 3.10919C15.8289 3.10919 15.6607 3.15424 15.5125 3.23982L4.5125 9.42732C4.35769 9.51523 4.22879 9.64241 4.13882 9.79603C4.04884 9.94966 4.00096 10.1243 4 10.3023V22.6273C4.00096 22.8053 4.04884 22.98 4.13882 23.1336C4.22879 23.2872 4.35769 23.4144 4.5125 23.5023L15.5125 29.6898C15.6607 29.7754 15.8289 29.8204 16 29.8204C16.1711 29.8204 16.3393 29.7754 16.4875 29.6898L27.4875 23.5023C27.6423 23.4144 27.7712 23.2872 27.8612 23.1336C27.9512 22.98 27.999 22.8053 28 22.6273V22.6273Z" stroke="#383E45" stroke-width="1.5" stroke-linecap="round" stroke-linejoin="round"/>
<path d="M22.125 19.5273V13.0273L10 6.33984" stroke="#383E45" stroke-width="1.5" stroke-linecap="round" stroke-linejoin="round"/>
<path d="M27.8627 9.78986L16.1127 16.4649L4.1377 9.78986" stroke="#383E45" stroke-width="1.5" stroke-linecap="round" stroke-linejoin="round"/>
<path d="M16.1125 16.4648L16 29.8148" stroke="#383E45" stroke-width="1.5" stroke-linecap="round" stroke-linejoin="round"/>
</svg>
