<svg width="33" height="33" viewBox="0 0 33 33" fill="none" xmlns="http://www.w3.org/2000/svg">
<path d="M16.5 28.4648C23.1274 28.4648 28.5 23.0923 28.5 16.4648C28.5 9.83743 23.1274 4.46484 16.5 4.46484C9.87258 4.46484 4.5 9.83743 4.5 16.4648C4.5 23.0923 9.87258 28.4648 16.5 28.4648Z" stroke="#383E45" stroke-width="1.5" stroke-linecap="round" stroke-linejoin="round"/>
<path d="M6.7002 23.3899L8.1627 22.5024C8.30774 22.4129 8.42751 22.2878 8.51064 22.1391C8.59377 21.9903 8.63751 21.8228 8.6377 21.6524L8.6627 17.1399C8.66469 16.9528 8.72116 16.7703 8.8252 16.6149L11.3002 12.7274C11.3745 12.6125 11.4712 12.5139 11.5847 12.4375C11.6981 12.361 11.8258 12.3084 11.9602 12.2827C12.0945 12.257 12.2327 12.2588 12.3663 12.2879C12.4999 12.3171 12.6263 12.373 12.7377 12.4524L15.1877 14.2274C15.3991 14.3747 15.6564 14.4413 15.9127 14.4149L19.8502 13.8774C20.0891 13.8445 20.3073 13.7242 20.4627 13.5399L23.2377 10.3399C23.4022 10.1448 23.4871 9.89478 23.4752 9.63986L23.3377 6.60236" stroke="#383E45" stroke-width="1.5" stroke-linecap="round" stroke-linejoin="round"/>
<path d="M23.8876 25.9273L22.5376 24.5773C22.4127 24.4525 22.2577 24.3621 22.0876 24.3148L19.4001 23.6148C19.164 23.5502 18.9599 23.4013 18.8263 23.1963C18.6927 22.9913 18.6389 22.7444 18.6751 22.5023L18.9626 20.4773C18.9911 20.307 19.0622 20.1467 19.1693 20.0112C19.2764 19.8757 19.416 19.7695 19.5751 19.7023L23.3751 18.1148C23.5516 18.0412 23.7455 18.0198 23.9338 18.053C24.1221 18.0862 24.2969 18.1728 24.4376 18.3023L27.5501 21.1523" stroke="#383E45" stroke-width="1.5" stroke-linecap="round" stroke-linejoin="round"/>
</svg>
