<?xml version="1.0" encoding="UTF-8"?>
<!-- Created with Inkscape (http://www.inkscape.org/) -->
<svg width="105.5" height="24.743" version="1.1" viewBox="0 0 105.5 24.743" xmlns="http://www.w3.org/2000/svg">
 <g transform="matrix(.31133 0 0 .30539 3.9613 1.6262)">
  <rect y=".44014" width="306.78" height="73.504" fill="#fff"/>
  <path d="m29 36v-24h19.05c20.637 0 22.801 0.45227 26.862 5.6149 1.9167 2.4367 2.0883 3.9473 2.0883 18.385s-0.17159 15.948-2.0883 18.385c-4.0609 5.1626-6.2246 5.6149-26.862 5.6149h-19.05zm28.8 4.8c1.5525-1.5525 1.5525-8.0475 0-9.6-0.66-0.66-3.135-1.2-5.5-1.2h-4.3v12h4.3c2.365 0 4.84-0.54 5.5-1.2zm24.224 2.45c0.02779-19.509 0.73229-23.467 4.9244-27.662l3.0858-3.088 40.966-0.61438v48.114h-19v-6.1045l-5.25 0.30226c-4.8967 0.28192-5.2713 0.48733-5.5664 3.0523l-0.31642 2.75h-18.867zm29.976-9.75c0-3.4574-0.0524-3.5-4.3-3.5-4.8263 0-6.7 1.3144-6.7 4.7 0 2.1212 0.42754 2.3 5.5 2.3h5.5zm30.625 13.75c3.6739-7.0125 7.0612-13.178 7.5272-13.7 2.388-2.6772 0.75239-3.55-6.6526-3.55h-7.5v-18h24.583c13.521 0 24.433 0.34275 24.25 0.76168-0.18333 0.41892-3.5958 6.8874-7.5833 14.374-3.9875 7.487-7.25 13.894-7.25 14.238 0 0.3441 3.375 0.62564 7.5 0.62564h7.5v18h-49.055zm47.685 6.5c8.9262-16.37 11.69-21.738 11.69-22.703 0-0.6364-2.9417-1.0471-7.5-1.0471h-7.5v-18h24.5c13.475 0 24.5 0.18796 24.5 0.41768s-3.375 6.7039-7.5 14.387-7.5 14.245-7.5 14.582c0 0.33707 3.375 0.61286 7.5 0.61286h7.5v18h-49.098zm50.69-17.75v-24h22.947l0.27674 14.75 0.27673 14.75 16.5 0.58088v17.919h-40z"/>
 </g>
</svg>
