<svg width="97" height="24" viewBox="0 0 97 24" fill="none" xmlns="http://www.w3.org/2000/svg">
<path d="M28.4412 17.6114C29.6528 17.3419 30.2525 14.9842 30.1627 12.6533C30.0073 8.59839 28.4047 6.27959 27.2781 6.07078C25.9403 6.56853 25.5615 9.00145 25.6465 11.194C25.7897 14.9599 27.1543 17.439 28.4412 17.6114ZM19.8652 11.8641C19.8652 8.26332 22.3079 5 27.788 5C33.1953 5 35.7763 8.26332 35.7763 11.8641C35.7763 15.465 33.1953 18.6894 27.788 18.6894C22.6818 18.6894 19.8652 15.4625 19.8652 11.8641Z" fill="white"/>
<path d="M38.7842 5.31543H44.3469V16.8657H48.0958V18.3736H38.7842V5.31543Z" fill="white"/>
<path d="M55.8978 13.6364L54.3997 7.03693H53.8291L52.3334 13.6315L55.8978 13.6364ZM56.2037 14.984H52.0274C52.0274 14.984 51.3791 17.8952 51.2577 18.3711H49.6455L52.6077 5.31543H59.9842L62.91 18.3711H56.971L56.2037 14.984Z" fill="white"/>
<path d="M82.7179 12.6822C83.0214 12.7404 84.2258 12.823 84.2258 12.823C84.2258 12.823 85.3645 11.3322 85.3645 9.38C85.3645 8.5666 85.3645 6.3692 82.7179 6.3692V12.6822ZM77.1504 5.31542H84.1602C85.9983 5.31542 88.3146 5.01677 89.7909 6.37649C90.6116 7.13404 90.9418 8.25823 90.9151 9.35329C90.8665 11.5313 89.9099 12.806 88.3705 13.5344L88.6036 13.9423L91.5002 18.3711H85.5126L83.4537 13.8185L82.7131 13.7432V18.3711H77.1504V5.31542Z" fill="white"/>
<path d="M72.0783 5.31543H66.5156V18.3711H72.0783V5.31543Z" fill="white"/>
<path d="M10.0603 13.5126C10.3953 13.5781 11.5608 13.6461 11.5608 13.6461C11.5608 13.6461 12.685 12.2378 12.685 9.77336C12.685 8.85312 12.685 6.36679 10.0578 6.36679V13.5126H10.0603ZM11.5632 5.31543C14.8363 5.31543 18.0316 5.60437 18.0316 9.24161C18.0316 13.8695 14.9868 14.8893 12.0124 14.8893C11.284 14.8893 10.5944 14.8237 10.0627 14.712V18.3711H4.5V5.31543H11.5632Z" fill="white"/>
</svg>
