<svg width="111" height="24" viewBox="0 0 111 24" fill="none" xmlns="http://www.w3.org/2000/svg">
<g clip-path="url(#clip0_249_3171)">
<path fill-rule="evenodd" clip-rule="evenodd" d="M70.6932 13.6158C70.6343 13.08 70.431 12.5686 70.0592 12.1491C69.6285 11.6648 68.7645 11.1209 67.1755 11.1236H66.0547C64.0083 11.1236 62.6816 11.0613 61.4136 11.6269C59.7257 12.3791 58.2598 13.8214 58.4363 15.8563C58.5059 16.6383 58.958 17.377 59.6347 17.7667C60.3276 18.1645 61.2317 18.3512 62.0262 18.3512C62.1198 18.3512 63.2059 18.3512 63.2059 18.3512C65.2522 18.3512 66.4533 18.4134 67.7212 17.8479C68.7458 17.3906 69.7195 16.6735 70.2705 15.6669C70.6076 15.0526 70.7681 14.3166 70.6905 13.6185L70.6932 13.6158ZM66.4934 14.9877C66.2366 15.3855 65.8273 15.7048 65.394 15.8861C64.7466 16.1566 64.0538 16.2027 63.3637 16.2027H62.2776C62.2776 16.2027 62.283 15.9104 62.283 15.8238C62.275 15.1446 62.3873 14.8389 62.6414 14.4763C63.2085 13.6645 64.1153 13.3722 65.0596 13.2965C65.3191 13.2748 65.5812 13.2505 65.8434 13.2505C66.0627 13.2505 66.7903 13.2505 66.7903 13.2505C66.7903 13.2505 66.7877 13.908 66.7743 14.1624C66.7609 14.4573 66.6539 14.7387 66.4961 14.985L66.4934 14.9877Z" fill="white"/>
<path fill-rule="evenodd" clip-rule="evenodd" d="M56.0175 11.3942C55.3381 11.2075 54.6265 11.2102 53.9444 11.2183H52.5962L51.6439 13.3966H53.7679C53.3586 14.782 52.6123 15.583 51.4085 15.8861C50.277 16.1702 49.3006 16.0565 49.3006 16.0565L53.3345 6.38275H49.2525C49.2525 6.38275 45.9114 14.2679 45.5396 15.2691C44.8227 17.193 46.4946 18.1591 48.1798 18.2646C49.52 18.3485 49.322 18.3485 50.4669 18.3485C54.343 18.3485 57.8098 15.6588 57.8365 13.5129C57.8499 12.417 57.1063 11.6891 56.0202 11.3915L56.0175 11.3942Z" fill="white"/>
<path fill-rule="evenodd" clip-rule="evenodd" d="M86.2376 17.856C86.5746 18.1266 86.9251 18.2592 87.3156 18.2592H89.3165L92.2403 11.2508C91.9648 11.2318 91.0098 11.1696 90.4026 11.1696C89.3085 11.1696 88.2947 11.4943 87.3905 12.1356L83.3566 14.8118L84.3464 12.5442C84.4239 12.3629 84.8038 11.4943 84.9188 11.2264C84.5978 11.2264 83.4529 11.2264 83.0731 11.221C81.8533 11.221 80.893 11.5105 79.954 12.1573L76.0432 14.6792L77.5144 11.2291H73.4431L70.4043 18.2619H73.8497L79.3415 14.203L78.2394 16.6573C78.1163 16.917 78.0548 17.1633 78.0521 17.3906C78.0521 17.6476 78.1297 17.8587 78.2822 18.0156C78.5363 18.2754 79.0124 18.4053 79.6946 18.4053C80.4409 18.4053 81.3584 18.0346 82.4204 17.2986L86.8234 14.2219C86.8234 14.2219 85.8738 16.4245 85.7909 16.6518C85.7614 16.7574 85.7454 16.8602 85.7454 16.9603C85.7454 17.2959 85.9005 17.5908 86.2269 17.856H86.2376Z" fill="white"/>
<path fill-rule="evenodd" clip-rule="evenodd" d="M29.5939 18.2483L32.6622 11.221H26.8815C24.8351 11.221 23.3211 11.1588 22.0558 11.7243C20.3732 12.4766 18.9127 13.9188 19.1026 15.9537C19.1534 16.5003 19.4156 17.0469 19.7714 17.4609C20.3465 18.1266 21.5288 18.4486 22.3902 18.4486C23.7009 18.4486 25.445 17.9723 26.2448 16.936C26.1325 17.4501 26.4535 17.8695 26.82 18.0671C27.2346 18.2889 27.7455 18.2538 28.4544 18.2538C28.4544 18.2538 29.5351 18.2538 29.5939 18.2538V18.2483ZM26.4856 16.0592C24.4178 16.7005 23.3131 16.3163 23.075 15.767C22.8904 15.3422 23.0402 14.9417 23.2917 14.5791C23.8935 13.7078 24.8084 13.3722 26.4562 13.3722H27.6519L26.4856 16.0619V16.0592Z" fill="white"/>
<path fill-rule="evenodd" clip-rule="evenodd" d="M41.6448 11.2318L37.8891 14.184L39.141 11.221H35.1125L32.1299 18.251H36.1878L36.9663 16.7492L40.8798 13.5562L40.3528 14.7766H44.162L45.6868 11.2318H41.6448Z" fill="white"/>
<path fill-rule="evenodd" clip-rule="evenodd" d="M20.1245 10.4796L22.4946 5C22.4946 5 18.3564 5 18.2467 5.00271C16.1281 5.01624 13.6751 5.12177 11.4254 5.9092C6.21188 7.73031 4.94661 10.7907 4.64433 12.0219C4.08526 14.2977 5.19003 16.7087 7.27118 17.7586C9.11425 18.6867 11.2248 18.5758 12.672 18.3187C14.5659 17.9832 16.0826 17.3337 17.1794 16.3867C17.2141 16.3569 17.7973 15.8806 17.8454 15.7129L18.0568 14.9308C16.4732 15.5207 15.1464 15.8211 13.8998 15.8752C13.0625 15.9104 11.5324 15.8211 10.6577 14.801C9.29615 13.2099 10.4945 10.8259 11.5699 9.69753C12.779 8.42844 15.0447 7.53818 17.586 7.28112L16.2003 10.4796H20.1192H20.1245Z" fill="white"/>
<path fill-rule="evenodd" clip-rule="evenodd" d="M102.932 18.2483L106 11.221H100.219C98.173 11.221 96.659 11.1588 95.3937 11.7243C93.7111 12.4766 92.2506 13.9188 92.4405 15.9537C92.4913 16.5003 92.7535 17.0469 93.1093 17.4609C93.6844 18.1266 94.8667 18.4486 95.7281 18.4486C97.0388 18.4486 98.7829 17.9723 99.5827 16.936C99.4704 17.4501 99.7914 17.8695 100.158 18.0671C100.572 18.2889 101.083 18.2538 101.792 18.2538C101.792 18.2538 102.873 18.2538 102.932 18.2538V18.2483ZM99.8235 16.0592C97.7557 16.7005 96.6509 16.3163 96.4129 15.767C96.2283 15.3422 96.3781 14.9417 96.6295 14.5791C97.2314 13.7078 98.1463 13.3722 99.7941 13.3722H100.99L99.8235 16.0619V16.0592Z" fill="white"/>
</g>
<defs>
<clipPath id="clip0_249_3171">
<rect width="101.5" height="13.5" fill="white" transform="translate(4.5 5)"/>
</clipPath>
</defs>
</svg>
