<svg width="590" height="333" viewBox="0 0 590 333" fill="none" xmlns="http://www.w3.org/2000/svg">
<g filter="url(#filter0_d_249_3211)">
<path fill-rule="evenodd" clip-rule="evenodd" d="M94.0966 99.2957L88.947 97.8439L74.2793 101.219L63.8909 108.019L66.0611 114.117L58.6089 119.403L56.3052 127.928L47.465 125.219L42.5416 129.22L48.3345 134.123L42.9041 146.314L50.3857 163.062L39.3825 168.526L34.3987 164.995L21.8657 169.283L8.17296 167.964L8 185.542L19.0798 195.412L19.6057 201.891L25.0588 205.15L26.9194 220.785L34.8136 220.549L45.0356 202.526L54.0312 199.22L64.0421 202.714L68.4239 186.614L81.3252 180.568L83.5531 185.101L89.9478 183.688L106.848 185.542L115.35 199.577L127.964 201.891L131.673 208.199L145.81 208.907L141.311 201.944L149.687 200.208L156.208 195.772L192.384 199.968L201.002 203.185L200.361 208.533L208.36 215.367L223.404 214.918L230.688 236.184L241.384 238.733L251.797 239.604L256.756 245.378L270.09 251.965L293.872 243.951L305.783 244.985L308.633 248.188L328.758 248.745L325.016 242.802L332.051 236.478L345.982 240.412L356.909 245.894L364.636 241.841L379.438 242.764L386.361 245.902L400.897 244.761L413.074 235.575L435.001 234.431L438.115 216.912L431.744 213.18L443.858 206.115L457.265 203.662L480.366 217.876L486.884 215.664L497.244 215.549L501.672 219.757L508.115 219.743L519.245 208.89L526.342 228.325L518.769 230.4L517.127 235.91L523.967 241.037L524.467 246.275L529.545 246.535L529.763 241.197L542.174 238.032L545.719 221.952L540.964 191.55L530.404 184.152L536.18 181.244L559.992 199.363L562.209 195.929L567.647 194.446L558.049 192.605L549.936 183.974L548.577 179.067L518.377 162.263L516.291 170.175L505.046 168.656L502.684 175.295L488.503 177.396L487.87 141.143L503.064 131.01L505.429 124.372L512.633 124.853L518.585 117.57L507.717 104.582L510.336 97.4704L517.862 100.096L521.036 97.9082L517.792 92.5052L525.508 92.134L535.006 117.374L541.564 123.153L563.046 132.359L582 135.678L568.739 113.649L559.567 104.754L542.396 99.5213L534.552 92.7812L538.147 84.515L536.032 79.1667L541.783 76.152L526.825 53.8103L532.115 50.7127L530.891 46.4295L515.129 48.2787L511.278 42.0148L501.788 39.8787L513.236 33.2053L518.769 26.256L505.676 18L497.244 29.2363L472.997 43.2528L466.903 58.2325L462.336 74.1338L455.437 76.6062L451.333 72.5869L443.089 74.4369L440.611 83.0689L426.752 84.1442L411.643 88.7446L405.809 82.7908L400.87 78.2881L409.332 76.1127L407.878 71.6353L394.942 76.7338L383.928 80.7468L387.47 86.639L400.654 84.194L402.037 88.4602L407.232 92.2284L413.166 97.9082L393.499 109.652L385.147 103.668L372.487 105.631L353.153 110.294L345.833 109.587L342.843 105.824L344.794 98.906L338.207 95.1251L333.272 95.3844L325.802 89.9596L327.317 85.2551L319.253 81.9184L314.924 77.1896L312.513 70.8588L305.716 74.1134L308.214 79.4843L307.546 83.6934L317.794 86.7901L321.828 97.263L291.642 106.436L292.701 111.752L278.796 113.473L277.125 118.598L271.472 118.512L265.379 119.866L257.167 116.651L253.703 108.488L239.843 116.428L236.412 125.411L230.663 126.272L224.793 118.575L216.157 119.157L199.98 113.879L178.512 111.539L171.733 107.755L164.854 108.897L155.813 106.744L147.566 107.841L140.507 104.305L135.009 105.802L137.917 96.4759L147.838 88.1383L154.457 101.892L167.421 99.0669L164.768 81.2419L166.765 76.6262L153.334 75.6601L116.464 96.4564L97.8173 95.1194L94.0966 99.2957ZM228.293 81.6498L192.253 94.9323L196.58 103.095L205.201 103.349L210.902 93.2315L227.981 87.5169L244.406 87.3285L248.662 82.1914L228.293 81.6498Z" fill="#FCFDFF"/>
<path d="M88.947 97.8439L89.0827 97.3627L88.9596 97.328L88.8349 97.3567L88.947 97.8439ZM94.0966 99.2957L93.961 99.7769L94.262 99.8618L94.47 99.6283L94.0966 99.2957ZM74.2793 101.219L74.1671 100.732L74.0801 100.752L74.0054 100.801L74.2793 101.219ZM63.8909 108.019L63.6171 107.6L63.288 107.816L63.4198 108.186L63.8909 108.019ZM66.0611 114.117L66.3504 114.525L66.6591 114.306L66.5322 113.95L66.0611 114.117ZM58.6089 119.403L58.3197 118.995L58.1731 119.099L58.1262 119.272L58.6089 119.403ZM56.3052 127.928L56.1587 128.406L56.653 128.558L56.7879 128.059L56.3052 127.928ZM47.465 125.219L47.6115 124.741L47.3566 124.662L47.1496 124.831L47.465 125.219ZM42.5416 129.22L42.2262 128.832L41.7584 129.212L42.2186 129.602L42.5416 129.22ZM48.3345 134.123L48.7912 134.327L48.9439 133.984L48.6575 133.742L48.3345 134.123ZM42.9041 146.314L42.4473 146.111L42.3566 146.315L42.4476 146.518L42.9041 146.314ZM50.3857 163.062L50.6081 163.509L51.038 163.296L50.8422 162.858L50.3857 163.062ZM39.3825 168.526L39.0935 168.934L39.3373 169.107L39.6049 168.974L39.3825 168.526ZM34.3987 164.995L34.6878 164.587L34.479 164.44L34.2369 164.522L34.3987 164.995ZM21.8657 169.283L21.8177 169.781L21.9253 169.791L22.0275 169.756L21.8657 169.283ZM8.17296 167.964L8.22091 167.466L7.67835 167.414L7.67298 167.959L8.17296 167.964ZM8 185.542L7.50002 185.537L7.49779 185.764L7.66741 185.915L8 185.542ZM19.0798 195.412L19.5781 195.372L19.5619 195.172L19.4123 195.039L19.0798 195.412ZM19.6057 201.891L19.1073 201.931L19.1281 202.188L19.3492 202.32L19.6057 201.891ZM25.0588 205.15L25.5553 205.091L25.5262 204.847L25.3153 204.721L25.0588 205.15ZM26.9194 220.785L26.4229 220.844L26.477 221.298L26.9344 221.285L26.9194 220.785ZM34.8136 220.549L34.8286 221.049L35.1098 221.04L35.2486 220.796L34.8136 220.549ZM45.0356 202.526L44.8631 202.057L44.6911 202.12L44.6007 202.279L45.0356 202.526ZM54.0312 199.22L54.196 198.748L54.0269 198.689L53.8588 198.751L54.0312 199.22ZM64.0421 202.714L63.8773 203.186L64.3837 203.363L64.5245 202.845L64.0421 202.714ZM68.4239 186.614L68.2117 186.162L68.0022 186.26L67.9414 186.483L68.4239 186.614ZM81.3252 180.568L81.774 180.347L81.5575 179.907L81.1131 180.115L81.3252 180.568ZM83.5531 185.101L83.1043 185.322L83.2775 185.674L83.661 185.59L83.5531 185.101ZM89.9478 183.688L90.0023 183.191L89.9204 183.182L89.8399 183.2L89.9478 183.688ZM106.848 185.542L107.276 185.283L107.148 185.072L106.903 185.045L106.848 185.542ZM115.35 199.577L114.923 199.836L115.039 200.028L115.26 200.069L115.35 199.577ZM127.964 201.891L128.395 201.638L128.279 201.44L128.054 201.399L127.964 201.891ZM131.673 208.199L131.242 208.453L131.379 208.685L131.649 208.699L131.673 208.199ZM145.81 208.907L145.785 209.406L146.76 209.455L146.23 208.635L145.81 208.907ZM141.311 201.944L141.21 201.455L140.496 201.603L140.892 202.216L141.311 201.944ZM149.687 200.208L149.789 200.697L149.886 200.677L149.968 200.621L149.687 200.208ZM156.208 195.772L156.265 195.275L156.08 195.254L155.926 195.359L156.208 195.772ZM192.384 199.968L192.559 199.499L192.502 199.478L192.441 199.471L192.384 199.968ZM201.002 203.185L201.498 203.244L201.545 202.854L201.176 202.716L201.002 203.185ZM200.361 208.533L199.865 208.473L199.833 208.739L200.036 208.913L200.361 208.533ZM208.36 215.367L208.035 215.747L208.182 215.872L208.375 215.867L208.36 215.367ZM223.404 214.918L223.877 214.756L223.758 214.407L223.389 214.418L223.404 214.918ZM230.688 236.184L230.215 236.346L230.305 236.607L230.573 236.671L230.688 236.184ZM241.384 238.733L241.268 239.219L241.304 239.228L241.342 239.231L241.384 238.733ZM251.797 239.604L252.176 239.278L252.043 239.123L251.838 239.106L251.797 239.604ZM256.756 245.378L256.376 245.704L256.443 245.781L256.534 245.826L256.756 245.378ZM270.09 251.965L269.868 252.413L270.054 252.505L270.25 252.439L270.09 251.965ZM293.872 243.951L293.915 243.453L293.811 243.444L293.712 243.477L293.872 243.951ZM305.783 244.985L306.156 244.652L306.024 244.504L305.826 244.486L305.783 244.985ZM308.633 248.188L308.26 248.521L308.403 248.682L308.619 248.688L308.633 248.188ZM328.758 248.745L328.744 249.244L329.68 249.27L329.181 248.478L328.758 248.745ZM325.016 242.802L324.682 242.43L324.369 242.712L324.593 243.068L325.016 242.802ZM332.051 236.478L332.187 235.997L331.922 235.922L331.717 236.106L332.051 236.478ZM345.982 240.412L346.206 239.965L346.164 239.943L346.118 239.93L345.982 240.412ZM356.909 245.894L356.685 246.341L356.914 246.456L357.142 246.337L356.909 245.894ZM364.636 241.841L364.667 241.342L364.527 241.333L364.403 241.398L364.636 241.841ZM379.438 242.764L379.645 242.308L379.561 242.27L379.47 242.265L379.438 242.764ZM386.361 245.902L386.154 246.357L386.272 246.41L386.4 246.4L386.361 245.902ZM400.897 244.761L400.936 245.259L401.082 245.248L401.198 245.16L400.897 244.761ZM413.074 235.575L413.048 235.075L412.895 235.083L412.772 235.175L413.074 235.575ZM435.001 234.431L435.027 234.93L435.424 234.909L435.493 234.518L435.001 234.431ZM438.115 216.912L438.607 217L438.668 216.657L438.368 216.481L438.115 216.912ZM431.744 213.18L431.492 212.748L430.753 213.179L431.491 213.611L431.744 213.18ZM443.858 206.115L443.768 205.623L443.681 205.639L443.606 205.683L443.858 206.115ZM457.265 203.662L457.527 203.236L457.363 203.136L457.175 203.17L457.265 203.662ZM480.366 217.876L480.104 218.302L480.305 218.425L480.527 218.35L480.366 217.876ZM486.884 215.664L486.878 215.164L486.798 215.165L486.723 215.191L486.884 215.664ZM497.244 215.549L497.588 215.187L497.441 215.047L497.238 215.049L497.244 215.549ZM501.672 219.757L501.328 220.119L501.473 220.257L501.673 220.257L501.672 219.757ZM508.115 219.743L508.116 220.243L508.319 220.242L508.464 220.101L508.115 219.743ZM519.245 208.89L519.715 208.718L519.45 207.992L518.896 208.532L519.245 208.89ZM526.342 228.325L526.474 228.807L526.998 228.664L526.812 228.153L526.342 228.325ZM518.769 230.4L518.637 229.918L518.369 229.992L518.29 230.258L518.769 230.4ZM517.127 235.91L516.648 235.767L516.549 236.101L516.827 236.31L517.127 235.91ZM523.967 241.037L524.465 240.99L524.444 240.77L524.267 240.637L523.967 241.037ZM524.467 246.275L523.969 246.323L524.01 246.752L524.441 246.774L524.467 246.275ZM529.545 246.535L529.52 247.035L530.024 247.06L530.045 246.556L529.545 246.535ZM529.763 241.197L529.639 240.712L529.278 240.804L529.263 241.177L529.763 241.197ZM542.174 238.032L542.297 238.517L542.596 238.441L542.662 238.14L542.174 238.032ZM545.719 221.952L546.207 222.059L546.227 221.967L546.213 221.874L545.719 221.952ZM540.964 191.55L541.458 191.473L541.425 191.262L541.251 191.14L540.964 191.55ZM530.404 184.152L530.179 183.705L529.432 184.081L530.117 184.561L530.404 184.152ZM536.18 181.244L536.483 180.846L536.234 180.657L535.955 180.797L536.18 181.244ZM559.992 199.363L559.69 199.761L560.12 200.088L560.413 199.634L559.992 199.363ZM562.209 195.929L562.078 195.446L561.893 195.497L561.789 195.657L562.209 195.929ZM567.647 194.446L567.779 194.929L567.741 193.955L567.647 194.446ZM558.049 192.605L557.684 192.947L557.795 193.065L557.955 193.096L558.049 192.605ZM549.936 183.974L549.454 184.107L549.487 184.226L549.571 184.316L549.936 183.974ZM548.577 179.067L549.059 178.933L549.003 178.731L548.82 178.63L548.577 179.067ZM518.377 162.263L518.62 161.826L518.057 161.513L517.893 162.136L518.377 162.263ZM516.291 170.175L516.224 170.67L516.662 170.73L516.775 170.302L516.291 170.175ZM505.046 168.656L505.113 168.16L504.711 168.106L504.575 168.488L505.046 168.656ZM502.684 175.295L502.757 175.789L503.054 175.745L503.155 175.462L502.684 175.295ZM488.503 177.396L488.003 177.404L488.013 177.974L488.576 177.89L488.503 177.396ZM487.87 141.143L487.592 140.727L487.365 140.879L487.37 141.152L487.87 141.143ZM503.064 131.01L503.342 131.426L503.48 131.334L503.535 131.178L503.064 131.01ZM505.429 124.372L505.462 123.873L505.085 123.847L504.958 124.204L505.429 124.372ZM512.633 124.853L512.6 125.352L512.857 125.369L513.02 125.169L512.633 124.853ZM518.585 117.57L518.973 117.886L519.234 117.566L518.969 117.249L518.585 117.57ZM507.717 104.582L507.248 104.41L507.148 104.681L507.334 104.903L507.717 104.582ZM510.336 97.4704L510.501 96.9984L510.037 96.8364L509.867 97.2977L510.336 97.4704ZM517.862 100.096L517.697 100.569L517.937 100.652L518.146 100.508L517.862 100.096ZM521.036 97.9082L521.32 98.3198L521.707 98.0534L521.465 97.6508L521.036 97.9082ZM517.792 92.5052L517.768 92.0057L516.933 92.0459L517.363 92.7626L517.792 92.5052ZM525.508 92.134L525.976 91.9579L525.848 91.6171L525.484 91.6346L525.508 92.134ZM535.006 117.374L534.538 117.55L534.582 117.667L534.676 117.749L535.006 117.374ZM541.564 123.153L541.234 123.528L541.294 123.581L541.367 123.613L541.564 123.153ZM563.046 132.359L562.849 132.819L562.902 132.842L562.959 132.852L563.046 132.359ZM582 135.678L581.914 136.17L582.994 136.36L582.428 135.42L582 135.678ZM568.739 113.649L569.167 113.391L569.134 113.336L569.087 113.29L568.739 113.649ZM559.567 104.754L559.915 104.395L559.828 104.31L559.713 104.275L559.567 104.754ZM542.396 99.5213L542.07 99.9006L542.15 99.969L542.251 99.9996L542.396 99.5213ZM534.552 92.7812L534.094 92.5819L533.947 92.9201L534.227 93.1605L534.552 92.7812ZM538.147 84.515L538.605 84.7143L538.688 84.5241L538.612 84.3312L538.147 84.515ZM536.032 79.1667L535.8 78.7239L535.402 78.9326L535.567 79.3506L536.032 79.1667ZM541.783 76.152L542.015 76.5948L542.508 76.3363L542.198 75.8738L541.783 76.152ZM526.825 53.8103L526.572 53.3788L526.114 53.6472L526.41 54.0885L526.825 53.8103ZM532.115 50.7127L532.368 51.1442L532.703 50.9482L532.596 50.5753L532.115 50.7127ZM530.891 46.4295L531.372 46.2921L531.255 45.8834L530.833 45.9329L530.891 46.4295ZM515.129 48.2787L514.703 48.5406L514.871 48.8125L515.188 48.7753L515.129 48.2787ZM511.278 42.0148L511.704 41.7529L511.594 41.5733L511.388 41.527L511.278 42.0148ZM501.788 39.8787L501.537 39.4467L500.438 40.0872L501.679 40.3665L501.788 39.8787ZM513.236 33.2053L513.488 33.6373L513.569 33.5901L513.628 33.5168L513.236 33.2053ZM518.769 26.256L519.16 26.5674L519.508 26.1307L519.035 25.833L518.769 26.256ZM505.676 18L505.943 17.5771L505.553 17.3312L505.276 17.6999L505.676 18ZM497.244 29.2363L497.494 29.6691L497.583 29.618L497.644 29.5364L497.244 29.2363ZM472.997 43.2528L472.747 42.8199L472.599 42.9056L472.534 43.0644L472.997 43.2528ZM466.903 58.2325L466.44 58.0441L466.43 58.0688L466.422 58.0945L466.903 58.2325ZM462.336 74.1338L462.505 74.6045L462.746 74.5181L462.817 74.2718L462.336 74.1338ZM455.437 76.6062L455.087 76.9634L455.311 77.1825L455.606 77.0769L455.437 76.6062ZM451.333 72.5869L451.683 72.2297L451.489 72.0395L451.224 72.099L451.333 72.5869ZM443.089 74.4369L442.979 73.949L442.69 74.0139L442.608 74.2989L443.089 74.4369ZM440.611 83.0689L440.649 83.5674L440.995 83.5405L441.091 83.2069L440.611 83.0689ZM426.752 84.1442L426.713 83.6457L426.659 83.65L426.606 83.6659L426.752 84.1442ZM411.643 88.7446L411.286 89.0945L411.499 89.3113L411.789 89.2229L411.643 88.7446ZM405.809 82.7908L406.166 82.4408L406.156 82.4308L406.146 82.4213L405.809 82.7908ZM400.87 78.2881L400.746 77.8039L399.85 78.0343L400.533 78.6576L400.87 78.2881ZM409.332 76.1127L409.456 76.597L409.972 76.4645L409.808 75.9583L409.332 76.1127ZM407.878 71.6353L408.354 71.4809L408.19 70.9752L407.695 71.1702L407.878 71.6353ZM394.942 76.7338L395.113 77.2037L395.125 77.199L394.942 76.7338ZM383.928 80.7468L383.756 80.277L383.187 80.4846L383.499 81.0044L383.928 80.7468ZM387.47 86.639L387.041 86.8966L387.22 87.1939L387.561 87.1306L387.47 86.639ZM400.654 84.194L401.129 84.0398L400.994 83.6224L400.563 83.7024L400.654 84.194ZM402.037 88.4602L401.562 88.6145L401.612 88.7693L401.744 88.8649L402.037 88.4602ZM407.232 92.2284L407.578 91.8672L407.553 91.8437L407.525 91.8237L407.232 92.2284ZM413.166 97.9082L413.423 98.3375L413.986 98.0009L413.512 97.547L413.166 97.9082ZM393.499 109.652L393.207 110.059L393.474 110.25L393.755 110.082L393.499 109.652ZM385.147 103.668L385.438 103.261L385.272 103.143L385.07 103.174L385.147 103.668ZM372.487 105.631L372.411 105.136L372.39 105.14L372.37 105.145L372.487 105.631ZM353.153 110.294L353.105 110.791L353.189 110.799L353.271 110.78L353.153 110.294ZM345.833 109.587L345.442 109.898L345.574 110.065L345.785 110.085L345.833 109.587ZM342.843 105.824L342.362 105.688L342.292 105.934L342.452 106.135L342.843 105.824ZM344.794 98.906L345.275 99.0417L345.381 98.6664L345.043 98.4724L344.794 98.906ZM338.207 95.1251L338.456 94.6915L338.328 94.6181L338.181 94.6258L338.207 95.1251ZM333.272 95.3844L332.978 95.789L333.122 95.893L333.298 95.8837L333.272 95.3844ZM325.802 89.9596L325.326 89.8063L325.215 90.1513L325.508 90.3642L325.802 89.9596ZM327.317 85.2551L327.793 85.4085L327.935 84.9695L327.508 84.7931L327.317 85.2551ZM319.253 81.9184L318.884 82.256L318.959 82.3379L319.062 82.3804L319.253 81.9184ZM314.924 77.1896L314.457 77.3675L314.491 77.4567L314.555 77.5272L314.924 77.1896ZM312.513 70.8588L312.98 70.6809L312.787 70.1733L312.297 70.4079L312.513 70.8588ZM305.716 74.1134L305.5 73.6624L305.054 73.8759L305.263 74.3242L305.716 74.1134ZM308.214 79.4843L308.707 79.5626L308.731 79.4118L308.667 79.2734L308.214 79.4843ZM307.546 83.6934L307.052 83.6151L306.984 84.0459L307.401 84.172L307.546 83.6934ZM317.794 86.7901L318.261 86.6103L318.173 86.3822L317.939 86.3114L317.794 86.7901ZM321.828 97.263L321.974 97.7414L322.488 97.585L322.295 97.0832L321.828 97.263ZM291.642 106.436L291.497 105.958L291.063 106.089L291.152 106.534L291.642 106.436ZM292.701 111.752L292.762 112.248L293.296 112.182L293.191 111.654L292.701 111.752ZM278.796 113.473L278.734 112.977L278.419 113.016L278.32 113.318L278.796 113.473ZM277.125 118.598L277.118 119.098L277.486 119.104L277.601 118.753L277.125 118.598ZM271.472 118.512L271.479 118.013L271.421 118.012L271.363 118.024L271.472 118.512ZM265.379 119.866L265.196 120.332L265.338 120.388L265.487 120.355L265.379 119.866ZM257.167 116.651L256.707 116.846L256.789 117.04L256.985 117.117L257.167 116.651ZM253.703 108.488L254.163 108.293L253.943 107.774L253.454 108.054L253.703 108.488ZM239.843 116.428L239.595 115.994L239.44 116.083L239.376 116.25L239.843 116.428ZM236.412 125.411L236.486 125.905L236.774 125.862L236.879 125.589L236.412 125.411ZM230.663 126.272L230.266 126.575L230.445 126.81L230.737 126.767L230.663 126.272ZM224.793 118.575L225.191 118.272L225.028 118.058L224.759 118.076L224.793 118.575ZM216.157 119.157L216.002 119.633L216.094 119.663L216.19 119.656L216.157 119.157ZM199.98 113.879L200.135 113.404L200.086 113.388L200.034 113.382L199.98 113.879ZM178.512 111.539L178.269 111.976L178.357 112.025L178.458 112.036L178.512 111.539ZM171.733 107.755L171.976 107.318L171.824 107.233L171.651 107.262L171.733 107.755ZM164.854 108.897L164.738 109.383L164.836 109.406L164.936 109.39L164.854 108.897ZM155.813 106.744L155.929 106.257L155.839 106.236L155.747 106.248L155.813 106.744ZM147.566 107.841L147.342 108.288L147.48 108.357L147.632 108.337L147.566 107.841ZM140.507 104.305L140.731 103.858L140.56 103.772L140.376 103.822L140.507 104.305ZM135.009 105.802L134.531 105.653L134.26 106.524L135.14 106.285L135.009 105.802ZM137.917 96.4759L137.596 96.0931L137.484 96.1873L137.44 96.327L137.917 96.4759ZM147.838 88.1383L148.288 87.9214L148.009 87.3412L147.516 87.7555L147.838 88.1383ZM154.457 101.892L154.006 102.109L154.178 102.465L154.563 102.381L154.457 101.892ZM167.421 99.0669L167.527 99.5555L167.984 99.4559L167.916 98.9933L167.421 99.0669ZM164.768 81.2419L164.31 81.0434L164.253 81.1744L164.274 81.3155L164.768 81.2419ZM166.765 76.6262L167.224 76.8246L167.503 76.178L166.801 76.1275L166.765 76.6262ZM153.334 75.6601L153.37 75.1614L153.22 75.1505L153.088 75.2246L153.334 75.6601ZM116.464 96.4564L116.428 96.9551L116.578 96.9659L116.709 96.8919L116.464 96.4564ZM97.8173 95.1194L97.8531 94.6207L97.6076 94.6031L97.444 94.7868L97.8173 95.1194ZM192.253 94.9323L192.081 94.4631L191.544 94.6609L191.812 95.1664L192.253 94.9323ZM228.293 81.6498L228.306 81.15L228.21 81.1474L228.12 81.1806L228.293 81.6498ZM196.58 103.095L196.138 103.329L196.274 103.586L196.565 103.594L196.58 103.095ZM205.201 103.349L205.186 103.848L205.488 103.857L205.636 103.594L205.201 103.349ZM210.902 93.2315L210.743 92.7574L210.561 92.8184L210.466 92.986L210.902 93.2315ZM227.981 87.5169L227.975 87.0169L227.896 87.0178L227.822 87.0427L227.981 87.5169ZM244.406 87.3285L244.412 87.8285L244.643 87.8258L244.791 87.6475L244.406 87.3285ZM248.662 82.1914L249.047 82.5104L249.702 81.7189L248.675 81.6916L248.662 82.1914ZM88.8113 98.3252L93.961 99.7769L94.2323 98.8144L89.0827 97.3627L88.8113 98.3252ZM74.3914 101.706L89.0591 98.3312L88.8349 97.3567L74.1671 100.732L74.3914 101.706ZM64.1647 108.437L74.5531 101.637L74.0054 100.801L63.6171 107.6L64.1647 108.437ZM66.5322 113.95L64.362 107.851L63.4198 108.186L65.5901 114.285L66.5322 113.95ZM58.8982 119.811L66.3504 114.525L65.7719 113.71L58.3197 118.995L58.8982 119.811ZM56.7879 128.059L59.0916 119.533L58.1262 119.272L55.8225 127.798L56.7879 128.059ZM47.3185 125.697L56.1587 128.406L56.4517 127.45L47.6115 124.741L47.3185 125.697ZM42.8569 129.608L47.7803 125.607L47.1496 124.831L42.2262 128.832L42.8569 129.608ZM48.6575 133.742L42.8646 128.838L42.2186 129.602L48.0115 134.505L48.6575 133.742ZM43.3608 146.518L48.7912 134.327L47.8778 133.92L42.4473 146.111L43.3608 146.518ZM50.8422 162.858L43.3606 146.11L42.4476 146.518L49.9292 163.266L50.8422 162.858ZM39.6049 168.974L50.6081 163.509L50.1633 162.614L39.1601 168.079L39.6049 168.974ZM34.1097 165.403L39.0935 168.934L39.6716 168.119L34.6878 164.587L34.1097 165.403ZM22.0275 169.756L34.5606 165.469L34.2369 164.522L21.7038 168.81L22.0275 169.756ZM8.12501 168.461L21.8177 169.781L21.9136 168.785L8.22091 167.466L8.12501 168.461ZM8.49998 185.547L8.67294 167.969L7.67298 167.959L7.50002 185.537L8.49998 185.547ZM19.4123 195.039L8.33259 185.168L7.66741 185.915L18.7472 195.786L19.4123 195.039ZM20.104 201.85L19.5781 195.372L18.5814 195.453L19.1073 201.931L20.104 201.85ZM25.3153 204.721L19.8622 201.462L19.3492 202.32L24.8023 205.579L25.3153 204.721ZM27.4159 220.726L25.5553 205.091L24.5623 205.209L26.4229 220.844L27.4159 220.726ZM34.7987 220.049L26.9045 220.285L26.9344 221.285L34.8286 221.049L34.7987 220.049ZM44.6007 202.279L34.3787 220.302L35.2486 220.796L45.4705 202.773L44.6007 202.279ZM53.8588 198.751L44.8631 202.057L45.208 202.995L54.2037 199.69L53.8588 198.751ZM64.2068 202.242L54.196 198.748L53.8665 199.693L63.8773 203.186L64.2068 202.242ZM67.9414 186.483L63.5596 202.583L64.5245 202.845L68.9063 186.746L67.9414 186.483ZM81.1131 180.115L68.2117 186.162L68.636 187.067L81.5374 181.021L81.1131 180.115ZM84.0018 184.881L81.774 180.347L80.8765 180.789L83.1043 185.322L84.0018 184.881ZM89.8399 183.2L83.4451 184.613L83.661 185.59L90.0557 184.176L89.8399 183.2ZM106.903 185.045L90.0023 183.191L89.8933 184.185L106.794 186.039L106.903 185.045ZM115.778 199.318L107.276 185.283L106.421 185.801L114.923 199.836L115.778 199.318ZM128.054 201.399L115.44 199.085L115.26 200.069L127.874 202.383L128.054 201.399ZM132.105 207.946L128.395 201.638L127.533 202.144L131.242 208.453L132.105 207.946ZM145.835 208.407L131.698 207.7L131.649 208.699L145.785 209.406L145.835 208.407ZM140.892 202.216L145.39 209.178L146.23 208.635L141.731 201.673L140.892 202.216ZM149.586 199.718L141.21 201.455L141.413 202.434L149.789 200.697L149.586 199.718ZM155.926 195.359L149.406 199.794L149.968 200.621L156.489 196.185L155.926 195.359ZM192.441 199.471L156.265 195.275L156.15 196.269L192.326 200.464L192.441 199.471ZM201.176 202.716L192.559 199.499L192.209 200.436L200.827 203.653L201.176 202.716ZM200.857 208.592L201.498 203.244L200.505 203.125L199.865 208.473L200.857 208.592ZM208.685 214.987L200.686 208.153L200.036 208.913L208.035 215.747L208.685 214.987ZM223.389 214.418L208.345 214.867L208.375 215.867L223.419 215.417L223.389 214.418ZM231.161 236.022L223.877 214.756L222.931 215.08L230.215 236.346L231.161 236.022ZM241.499 238.246L230.804 235.698L230.573 236.671L241.268 239.219L241.499 238.246ZM251.838 239.106L241.425 238.234L241.342 239.231L251.755 240.102L251.838 239.106ZM257.135 245.052L252.176 239.278L251.417 239.93L256.376 245.704L257.135 245.052ZM270.311 251.517L256.977 244.929L256.534 245.826L269.868 252.413L270.311 251.517ZM293.712 243.477L269.93 251.491L270.25 252.439L294.032 244.425L293.712 243.477ZM305.826 244.486L293.915 243.453L293.829 244.449L305.739 245.483L305.826 244.486ZM309.007 247.856L306.156 244.652L305.409 245.317L308.26 248.521L309.007 247.856ZM328.772 248.245L308.647 247.689L308.619 248.688L328.744 249.244L328.772 248.245ZM324.593 243.068L328.335 249.011L329.181 248.478L325.44 242.535L324.593 243.068ZM331.717 236.106L324.682 242.43L325.351 243.174L332.385 236.85L331.717 236.106ZM346.118 239.93L332.187 235.997L331.915 236.959L345.846 240.893L346.118 239.93ZM357.133 245.447L346.206 239.965L345.758 240.859L356.685 246.341L357.133 245.447ZM364.403 241.398L356.677 245.451L357.142 246.337L364.868 242.283L364.403 241.398ZM379.47 242.265L364.667 241.342L364.605 242.34L379.407 243.263L379.47 242.265ZM386.567 245.446L379.645 242.308L379.232 243.219L386.154 246.357L386.567 245.446ZM400.858 244.262L386.322 245.403L386.4 246.4L400.936 245.259L400.858 244.262ZM412.772 235.175L400.596 244.361L401.198 245.16L413.375 235.974L412.772 235.175ZM434.975 233.931L413.048 235.075L413.1 236.074L435.027 234.93L434.975 233.931ZM437.623 216.825L434.509 234.343L435.493 234.518L438.607 217L437.623 216.825ZM431.491 213.611L437.862 217.344L438.368 216.481L431.996 212.748L431.491 213.611ZM443.606 205.683L431.492 212.748L431.996 213.612L444.11 206.547L443.606 205.683ZM457.175 203.17L443.768 205.623L443.948 206.607L457.355 204.154L457.175 203.17ZM480.628 217.45L457.527 203.236L457.003 204.088L480.104 218.302L480.628 217.45ZM486.723 215.191L480.206 217.403L480.527 218.35L487.044 216.138L486.723 215.191ZM497.238 215.049L486.878 215.164L486.889 216.164L497.25 216.049L497.238 215.049ZM502.017 219.394L497.588 215.187L496.9 215.912L501.328 220.119L502.017 219.394ZM508.114 219.243L501.671 219.257L501.673 220.257L508.116 220.243L508.114 219.243ZM518.896 208.532L507.766 219.385L508.464 220.101L519.595 209.248L518.896 208.532ZM526.812 228.153L519.715 208.718L518.776 209.061L525.872 228.496L526.812 228.153ZM518.901 230.883L526.474 228.807L526.21 227.843L518.637 229.918L518.901 230.883ZM517.606 236.052L519.248 230.543L518.29 230.258L516.648 235.767L517.606 236.052ZM524.267 240.637L517.427 235.51L516.827 236.31L523.667 241.437L524.267 240.637ZM524.964 246.228L524.465 240.99L523.469 241.084L523.969 246.323L524.964 246.228ZM529.571 246.036L524.492 245.776L524.441 246.774L529.52 247.035L529.571 246.036ZM529.263 241.177L529.046 246.515L530.045 246.556L530.262 241.217L529.263 241.177ZM542.05 237.548L529.639 240.712L529.886 241.681L542.297 238.517L542.05 237.548ZM545.231 221.844L541.685 237.925L542.662 238.14L546.207 222.059L545.231 221.844ZM540.47 191.627L545.225 222.029L546.213 221.874L541.458 191.473L540.47 191.627ZM530.117 184.561L540.677 191.959L541.251 191.14L530.691 183.742L530.117 184.561ZM535.955 180.797L530.179 183.705L530.629 184.598L536.405 181.69L535.955 180.797ZM560.295 198.965L536.483 180.846L535.877 181.642L559.69 199.761L560.295 198.965ZM561.789 195.657L559.572 199.092L560.413 199.634L562.629 196.2L561.789 195.657ZM567.515 193.964L562.078 195.446L562.341 196.411L567.779 194.929L567.515 193.964ZM557.955 193.096L567.553 194.937L567.741 193.955L558.143 192.114L557.955 193.096ZM549.571 184.316L557.684 192.947L558.413 192.262L550.3 183.631L549.571 184.316ZM548.095 179.2L549.454 184.107L550.418 183.84L549.059 178.933L548.095 179.2ZM518.134 162.7L548.334 179.503L548.82 178.63L518.62 161.826L518.134 162.7ZM516.775 170.302L518.86 162.391L517.893 162.136L515.808 170.048L516.775 170.302ZM504.979 169.151L516.224 170.67L516.358 169.679L505.113 168.16L504.979 169.151ZM503.155 175.462L505.517 168.823L504.575 168.488L502.213 175.127L503.155 175.462ZM488.576 177.89L502.757 175.789L502.611 174.8L488.43 176.901L488.576 177.89ZM487.37 141.152L488.003 177.404L489.003 177.387L488.37 141.135L487.37 141.152ZM502.787 130.594L487.592 140.727L488.147 141.559L503.342 131.426L502.787 130.594ZM504.958 124.204L502.593 130.842L503.535 131.178L505.9 124.539L504.958 124.204ZM512.667 124.354L505.462 123.873L505.396 124.87L512.6 125.352L512.667 124.354ZM518.198 117.253L512.246 124.536L513.02 125.169L518.973 117.886L518.198 117.253ZM507.334 104.903L518.202 117.891L518.969 117.249L508.101 104.262L507.334 104.903ZM509.867 97.2977L507.248 104.41L508.186 104.755L510.805 97.6432L509.867 97.2977ZM518.027 99.6243L510.501 96.9984L510.171 97.9425L517.697 100.569L518.027 99.6243ZM520.753 97.4965L517.578 99.6847L518.146 100.508L521.32 98.3198L520.753 97.4965ZM517.363 92.7626L520.608 98.1656L521.465 97.6508L518.221 92.2478L517.363 92.7626ZM525.484 91.6346L517.768 92.0057L517.816 93.0046L525.532 92.6334L525.484 91.6346ZM535.474 117.198L525.976 91.9579L525.04 92.3101L534.538 117.55L535.474 117.198ZM541.895 122.778L535.337 116.999L534.676 117.749L541.234 123.528L541.895 122.778ZM563.243 131.9L541.761 122.694L541.367 123.613L562.849 132.819L563.243 131.9ZM582.086 135.185L563.132 131.867L562.959 132.852L581.914 136.17L582.086 135.185ZM568.31 113.907L581.572 135.936L582.428 135.42L569.167 113.391L568.31 113.907ZM559.219 105.112L568.391 114.008L569.087 113.29L559.915 104.395L559.219 105.112ZM542.251 99.9996L559.421 105.232L559.713 104.275L542.542 99.043L542.251 99.9996ZM534.227 93.1605L542.07 99.9006L542.722 99.1421L534.878 92.402L534.227 93.1605ZM537.688 84.3156L534.094 92.5819L535.011 92.9806L538.605 84.7143L537.688 84.3156ZM535.567 79.3506L537.682 84.6988L538.612 84.3312L536.497 78.9829L535.567 79.3506ZM541.551 75.7091L535.8 78.7239L536.265 79.6096L542.015 76.5948L541.551 75.7091ZM526.41 54.0885L541.367 76.4301L542.198 75.8738L527.24 53.5321L526.41 54.0885ZM531.863 50.2812L526.572 53.3788L527.078 54.2418L532.368 51.1442L531.863 50.2812ZM530.41 46.5669L531.635 50.8501L532.596 50.5753L531.372 46.2921L530.41 46.5669ZM515.188 48.7753L530.949 46.9261L530.833 45.9329L515.071 47.7821L515.188 48.7753ZM510.853 42.2767L514.703 48.5406L515.555 48.0168L511.704 41.7529L510.853 42.2767ZM501.679 40.3665L511.169 42.5026L511.388 41.527L501.898 39.3909L501.679 40.3665ZM512.985 32.7734L501.537 39.4467L502.04 40.3106L513.488 33.6373L512.985 32.7734ZM518.378 25.9445L512.845 32.8939L513.628 33.5168L519.16 26.5674L518.378 25.9445ZM505.409 18.4229L518.502 26.6789L519.035 25.833L505.943 17.5771L505.409 18.4229ZM497.644 29.5364L506.076 18.3001L505.276 17.6999L496.844 28.9361L497.644 29.5364ZM473.247 43.6857L497.494 29.6691L496.994 28.8034L472.747 42.8199L473.247 43.6857ZM467.366 58.4209L473.46 43.4412L472.534 43.0644L466.44 58.0441L467.366 58.4209ZM462.817 74.2718L467.383 58.3705L466.422 58.0945L461.856 73.9958L462.817 74.2718ZM455.606 77.0769L462.505 74.6045L462.168 73.6631L455.268 76.1355L455.606 77.0769ZM450.983 72.9441L455.087 76.9634L455.787 76.2489L451.683 72.2297L450.983 72.9441ZM443.198 74.9247L451.443 73.0748L451.224 72.099L442.979 73.949L443.198 74.9247ZM441.091 83.2069L443.569 74.5748L442.608 74.2989L440.13 82.9309L441.091 83.2069ZM426.791 84.6428L440.649 83.5674L440.572 82.5704L426.713 83.6457L426.791 84.6428ZM411.789 89.2229L426.898 84.6226L426.606 83.6659L411.498 88.2663L411.789 89.2229ZM405.452 83.1407L411.286 89.0945L412 88.3946L406.166 82.4408L405.452 83.1407ZM400.533 78.6576L405.472 83.1603L406.146 82.4213L401.207 77.9186L400.533 78.6576ZM409.208 75.6285L400.746 77.8039L400.995 78.7724L409.456 76.597L409.208 75.6285ZM407.403 71.7897L408.856 76.2671L409.808 75.9583L408.354 71.4809L407.403 71.7897ZM395.125 77.199L408.062 72.1005L407.695 71.1702L394.759 76.2686L395.125 77.199ZM384.099 81.2166L395.113 77.2036L394.771 76.264L383.756 80.277L384.099 81.2166ZM387.898 86.3814L384.356 80.4892L383.499 81.0044L387.041 86.8966L387.898 86.3814ZM400.563 83.7024L387.379 86.1474L387.561 87.1306L400.745 84.6856L400.563 83.7024ZM402.513 88.306L401.129 84.0398L400.178 84.3483L401.562 88.6145L402.513 88.306ZM407.525 91.8237L402.331 88.0555L401.744 88.8649L406.938 92.6331L407.525 91.8237ZM413.512 97.547L407.578 91.8672L406.886 92.5896L412.82 98.2694L413.512 97.547ZM393.755 110.082L413.423 98.3375L412.91 97.4789L393.242 109.223L393.755 110.082ZM384.855 104.074L393.207 110.059L393.79 109.246L385.438 103.261L384.855 104.074ZM372.564 106.125L385.223 104.162L385.07 103.174L372.411 105.136L372.564 106.125ZM353.271 110.78L372.605 106.117L372.37 105.145L353.036 109.807L353.271 110.78ZM345.785 110.085L353.105 110.791L353.201 109.796L345.881 109.09L345.785 110.085ZM342.452 106.135L345.442 109.898L346.225 109.276L343.235 105.513L342.452 106.135ZM344.312 98.7703L342.362 105.688L343.324 105.959L345.275 99.0417L344.312 98.7703ZM337.958 95.5587L344.545 99.3396L345.043 98.4724L338.456 94.6915L337.958 95.5587ZM333.298 95.8837L338.233 95.6244L338.181 94.6258L333.246 94.8851L333.298 95.8837ZM325.508 90.3642L332.978 95.789L333.566 94.9798L326.095 89.555L325.508 90.3642ZM326.841 85.1018L325.326 89.8063L326.277 90.113L327.793 85.4085L326.841 85.1018ZM319.062 82.3804L327.126 85.7171L327.508 84.7931L319.444 81.4564L319.062 82.3804ZM314.555 77.5272L318.884 82.256L319.622 81.5808L315.293 76.8519L314.555 77.5272ZM312.046 71.0368L314.457 77.3675L315.391 77.0116L312.98 70.6809L312.046 71.0368ZM305.932 74.5644L312.729 71.3098L312.297 70.4079L305.5 73.6624L305.932 74.5644ZM308.667 79.2734L306.169 73.9026L305.263 74.3242L307.76 79.6951L308.667 79.2734ZM308.04 83.7717L308.707 79.5626L307.72 79.4059L307.052 83.6151L308.04 83.7717ZM317.939 86.3114L307.691 83.2148L307.401 84.172L317.65 87.2687L317.939 86.3114ZM322.295 97.0832L318.261 86.6103L317.328 86.9698L321.362 97.4427L322.295 97.0832ZM291.787 106.914L321.974 97.7414L321.683 96.7846L291.497 105.958L291.787 106.914ZM293.191 111.654L292.132 106.338L291.152 106.534L292.21 111.85L293.191 111.654ZM278.857 113.969L292.762 112.248L292.639 111.256L278.734 112.977L278.857 113.969ZM277.601 118.753L279.271 113.628L278.32 113.318L276.65 118.443L277.601 118.753ZM271.464 119.012L277.118 119.098L277.133 118.098L271.479 118.013L271.464 119.012ZM265.487 120.355L271.58 119.001L271.363 118.024L265.27 119.378L265.487 120.355ZM256.985 117.117L265.196 120.332L265.561 119.401L257.35 116.186L256.985 117.117ZM253.242 108.683L256.707 116.846L257.628 116.456L254.163 108.293L253.242 108.683ZM240.092 116.862L253.951 108.922L253.454 108.054L239.595 115.994L240.092 116.862ZM236.879 125.589L240.31 116.607L239.376 116.25L235.944 125.232L236.879 125.589ZM230.737 126.767L236.486 125.905L236.337 124.916L230.589 125.778L230.737 126.767ZM224.396 118.878L230.266 126.575L231.061 125.969L225.191 118.272L224.396 118.878ZM216.19 119.656L224.827 119.074L224.759 118.076L216.123 118.659L216.19 119.656ZM199.825 114.355L216.002 119.633L216.312 118.682L200.135 113.404L199.825 114.355ZM178.458 112.036L199.926 114.376L200.034 113.382L178.567 111.042L178.458 112.036ZM171.489 108.191L178.269 111.976L178.756 111.102L171.976 107.318L171.489 108.191ZM164.936 109.39L171.815 108.248L171.651 107.262L164.772 108.403L164.936 109.39ZM155.697 107.23L164.738 109.383L164.969 108.41L155.929 106.257L155.697 107.23ZM147.632 108.337L155.879 107.239L155.747 106.248L147.5 107.346L147.632 108.337ZM140.283 104.752L147.342 108.288L147.79 107.394L140.731 103.858L140.283 104.752ZM135.14 106.285L140.639 104.787L140.376 103.822L134.877 105.32L135.14 106.285ZM137.44 96.327L134.531 105.653L135.486 105.951L138.395 96.6247L137.44 96.327ZM147.516 87.7555L137.596 96.0931L138.239 96.8586L148.159 88.521L147.516 87.7555ZM154.908 101.675L148.288 87.9214L147.387 88.3551L154.006 102.109L154.908 101.675ZM167.314 98.5784L154.351 101.404L154.563 102.381L167.527 99.5555L167.314 98.5784ZM164.274 81.3155L166.926 99.1405L167.916 98.9933L165.263 81.1683L164.274 81.3155ZM166.306 76.4277L164.31 81.0434L165.227 81.4404L167.224 76.8246L166.306 76.4277ZM153.298 76.1588L166.729 77.1249L166.801 76.1275L153.37 75.1614L153.298 76.1588ZM116.709 96.8919L153.58 76.0956L153.088 75.2246L116.218 96.0209L116.709 96.8919ZM97.7815 95.6181L116.428 96.9551L116.5 95.9577L97.8531 94.6207L97.7815 95.6181ZM94.47 99.6283L98.1906 95.452L97.444 94.7868L93.7233 98.9631L94.47 99.6283ZM192.426 95.4014L228.466 82.1189L228.12 81.1806L192.081 94.4631L192.426 95.4014ZM197.022 102.86L192.695 94.6981L191.812 95.1664L196.138 103.329L197.022 102.86ZM205.215 102.849L196.595 102.595L196.565 103.594L205.186 103.848L205.215 102.849ZM210.466 92.986L204.765 103.103L205.636 103.594L211.337 93.477L210.466 92.986ZM227.822 87.0427L210.743 92.7574L211.061 93.7057L228.139 87.991L227.822 87.0427ZM244.4 86.8286L227.975 87.0169L227.986 88.0168L244.412 87.8285L244.4 86.8286ZM248.277 81.8724L244.021 87.0095L244.791 87.6475L249.047 82.5104L248.277 81.8724ZM228.28 82.1496L248.648 82.6913L248.675 81.6916L228.306 81.15L228.28 82.1496Z" fill="#CCD3D9"/>
</g>
<path d="M320 107.75C318.906 107.751 317.858 108.186 317.085 108.96C316.311 109.733 315.876 110.781 315.875 111.875C315.875 115.405 319.625 118.072 319.784 118.184C319.848 118.227 319.923 118.25 320 118.25C320.077 118.25 320.152 118.227 320.216 118.184C320.375 118.072 324.125 115.405 324.125 111.875C324.124 110.781 323.689 109.733 322.915 108.96C322.142 108.186 321.094 107.751 320 107.75ZM320 110.375C320.297 110.375 320.587 110.463 320.833 110.628C321.08 110.793 321.272 111.027 321.386 111.301C321.499 111.575 321.529 111.877 321.471 112.168C321.413 112.459 321.27 112.726 321.061 112.936C320.851 113.145 320.584 113.288 320.293 113.346C320.002 113.404 319.7 113.374 319.426 113.261C319.152 113.147 318.918 112.955 318.753 112.708C318.588 112.462 318.5 112.172 318.5 111.875C318.5 111.477 318.658 111.096 318.939 110.814C319.221 110.533 319.602 110.375 320 110.375Z" fill="#003B5C"/>
<path d="M272 160.75C270.906 160.751 269.858 161.186 269.085 161.96C268.311 162.733 267.876 163.781 267.875 164.875C267.875 168.405 271.625 171.072 271.784 171.184C271.848 171.227 271.923 171.25 272 171.25C272.077 171.25 272.152 171.227 272.216 171.184C272.375 171.072 276.125 168.405 276.125 164.875C276.124 163.781 275.689 162.733 274.915 161.96C274.142 161.186 273.094 160.751 272 160.75ZM272 163.375C272.297 163.375 272.587 163.463 272.833 163.628C273.08 163.793 273.272 164.027 273.386 164.301C273.499 164.575 273.529 164.877 273.471 165.168C273.413 165.459 273.27 165.726 273.061 165.936C272.851 166.145 272.584 166.288 272.293 166.346C272.002 166.404 271.7 166.374 271.426 166.261C271.152 166.147 270.918 165.955 270.753 165.708C270.588 165.462 270.5 165.172 270.5 164.875C270.5 164.477 270.658 164.096 270.939 163.814C271.221 163.533 271.602 163.375 272 163.375Z" fill="#003B5C"/>
<path d="M376 208.75C374.906 208.751 373.858 209.186 373.085 209.96C372.311 210.733 371.876 211.781 371.875 212.875C371.875 216.405 375.625 219.072 375.784 219.184C375.848 219.227 375.923 219.25 376 219.25C376.077 219.25 376.152 219.227 376.216 219.184C376.375 219.072 380.125 216.405 380.125 212.875C380.124 211.781 379.689 210.733 378.915 209.96C378.142 209.186 377.094 208.751 376 208.75ZM376 211.375C376.297 211.375 376.587 211.463 376.833 211.628C377.08 211.793 377.272 212.027 377.386 212.301C377.499 212.575 377.529 212.877 377.471 213.168C377.413 213.459 377.27 213.726 377.061 213.936C376.851 214.145 376.584 214.288 376.293 214.346C376.002 214.404 375.7 214.374 375.426 214.261C375.152 214.147 374.918 213.955 374.753 213.708C374.588 213.462 374.5 213.172 374.5 212.875C374.5 212.477 374.658 212.096 374.939 211.814C375.221 211.533 375.602 211.375 376 211.375Z" fill="#003B5C"/>
<path d="M507 108.75C505.906 108.751 504.858 109.186 504.085 109.96C503.311 110.733 502.876 111.781 502.875 112.875C502.875 116.405 506.625 119.072 506.784 119.184C506.848 119.227 506.923 119.25 507 119.25C507.077 119.25 507.152 119.227 507.216 119.184C507.375 119.072 511.125 116.405 511.125 112.875C511.124 111.781 510.689 110.733 509.915 109.96C509.142 109.186 508.094 108.751 507 108.75ZM507 111.375C507.297 111.375 507.587 111.463 507.833 111.628C508.08 111.793 508.272 112.027 508.386 112.301C508.499 112.575 508.529 112.877 508.471 113.168C508.413 113.459 508.27 113.726 508.061 113.936C507.851 114.145 507.584 114.288 507.293 114.346C507.002 114.404 506.7 114.374 506.426 114.261C506.152 114.147 505.918 113.955 505.753 113.708C505.588 113.462 505.5 113.172 505.5 112.875C505.5 112.477 505.658 112.096 505.939 111.814C506.221 111.533 506.602 111.375 507 111.375Z" fill="#003B5C"/>
<path d="M525 177.75C523.906 177.751 522.858 178.186 522.085 178.96C521.311 179.733 520.876 180.781 520.875 181.875C520.875 185.405 524.625 188.072 524.784 188.184C524.848 188.227 524.923 188.25 525 188.25C525.077 188.25 525.152 188.227 525.216 188.184C525.375 188.072 529.125 185.405 529.125 181.875C529.124 180.781 528.689 179.733 527.915 178.96C527.142 178.186 526.094 177.751 525 177.75ZM525 180.375C525.297 180.375 525.587 180.463 525.833 180.628C526.08 180.793 526.272 181.027 526.386 181.301C526.499 181.575 526.529 181.877 526.471 182.168C526.413 182.459 526.27 182.726 526.061 182.936C525.851 183.145 525.584 183.288 525.293 183.346C525.002 183.404 524.7 183.374 524.426 183.261C524.152 183.147 523.918 182.955 523.753 182.708C523.588 182.462 523.5 182.172 523.5 181.875C523.5 181.477 523.658 181.096 523.939 180.814C524.221 180.533 524.602 180.375 525 180.375Z" fill="#003B5C"/>
<path d="M91 141.75C89.9064 141.751 88.8579 142.186 88.0846 142.96C87.3112 143.733 86.8762 144.781 86.875 145.875C86.875 149.405 90.625 152.072 90.7844 152.184C90.8482 152.227 90.9233 152.25 91 152.25C91.0767 152.25 91.1518 152.227 91.2156 152.184C91.375 152.072 95.125 149.405 95.125 145.875C95.1238 144.781 94.6888 143.733 93.9154 142.96C93.1421 142.186 92.0936 141.751 91 141.75ZM91 144.375C91.2967 144.375 91.5867 144.463 91.8334 144.628C92.08 144.793 92.2723 145.027 92.3858 145.301C92.4994 145.575 92.5291 145.877 92.4712 146.168C92.4133 146.459 92.2704 146.726 92.0607 146.936C91.8509 147.145 91.5836 147.288 91.2926 147.346C91.0017 147.404 90.7001 147.374 90.426 147.261C90.1519 147.147 89.9176 146.955 89.7528 146.708C89.588 146.462 89.5 146.172 89.5 145.875C89.5 145.477 89.658 145.096 89.9393 144.814C90.2206 144.533 90.6022 144.375 91 144.375Z" fill="#003B5C"/>
<path d="M181 178.75C179.906 178.751 178.858 179.186 178.085 179.96C177.311 180.733 176.876 181.781 176.875 182.875C176.875 186.405 180.625 189.072 180.784 189.184C180.848 189.227 180.923 189.25 181 189.25C181.077 189.25 181.152 189.227 181.216 189.184C181.375 189.072 185.125 186.405 185.125 182.875C185.124 181.781 184.689 180.733 183.915 179.96C183.142 179.186 182.094 178.751 181 178.75ZM181 181.375C181.297 181.375 181.587 181.463 181.833 181.628C182.08 181.793 182.272 182.027 182.386 182.301C182.499 182.575 182.529 182.877 182.471 183.168C182.413 183.459 182.27 183.726 182.061 183.936C181.851 184.145 181.584 184.288 181.293 184.346C181.002 184.404 180.7 184.374 180.426 184.261C180.152 184.147 179.918 183.955 179.753 183.708C179.588 183.462 179.5 183.172 179.5 182.875C179.5 182.477 179.658 182.096 179.939 181.814C180.221 181.533 180.602 181.375 181 181.375Z" fill="#003B5C"/>
<path d="M118 179.75C116.906 179.751 115.858 180.186 115.085 180.96C114.311 181.733 113.876 182.781 113.875 183.875C113.875 187.405 117.625 190.072 117.784 190.184C117.848 190.227 117.923 190.25 118 190.25C118.077 190.25 118.152 190.227 118.216 190.184C118.375 190.072 122.125 187.405 122.125 183.875C122.124 182.781 121.689 181.733 120.915 180.96C120.142 180.186 119.094 179.751 118 179.75ZM118 182.375C118.297 182.375 118.587 182.463 118.833 182.628C119.08 182.793 119.272 183.027 119.386 183.301C119.499 183.575 119.529 183.877 119.471 184.168C119.413 184.459 119.27 184.726 119.061 184.936C118.851 185.145 118.584 185.288 118.293 185.346C118.002 185.404 117.7 185.374 117.426 185.261C117.152 185.147 116.918 184.955 116.753 184.708C116.588 184.462 116.5 184.172 116.5 183.875C116.5 183.477 116.658 183.096 116.939 182.814C117.221 182.533 117.602 182.375 118 182.375Z" fill="#003B5C"/>
<path d="M35 198.75C33.9064 198.751 32.8579 199.186 32.0846 199.96C31.3112 200.733 30.8762 201.781 30.875 202.875C30.875 206.405 34.625 209.072 34.7844 209.184C34.8482 209.227 34.9233 209.25 35 209.25C35.0767 209.25 35.1518 209.227 35.2156 209.184C35.375 209.072 39.125 206.405 39.125 202.875C39.1238 201.781 38.6888 200.733 37.9154 199.96C37.1421 199.186 36.0936 198.751 35 198.75ZM35 201.375C35.2967 201.375 35.5867 201.463 35.8334 201.628C36.08 201.793 36.2723 202.027 36.3858 202.301C36.4994 202.575 36.5291 202.877 36.4712 203.168C36.4133 203.459 36.2704 203.726 36.0607 203.936C35.8509 204.145 35.5836 204.288 35.2926 204.346C35.0017 204.404 34.7001 204.374 34.426 204.261C34.1519 204.147 33.9176 203.955 33.7528 203.708C33.588 203.462 33.5 203.172 33.5 202.875C33.5 202.477 33.658 202.096 33.9393 201.814C34.2206 201.533 34.6022 201.375 35 201.375Z" fill="#003B5C"/>
<path d="M106 125.75C104.906 125.751 103.858 126.186 103.085 126.96C102.311 127.733 101.876 128.781 101.875 129.875C101.875 133.405 105.625 136.072 105.784 136.184C105.848 136.227 105.923 136.25 106 136.25C106.077 136.25 106.152 136.227 106.216 136.184C106.375 136.072 110.125 133.405 110.125 129.875C110.124 128.781 109.689 127.733 108.915 126.96C108.142 126.186 107.094 125.751 106 125.75ZM106 128.375C106.297 128.375 106.587 128.463 106.833 128.628C107.08 128.793 107.272 129.027 107.386 129.301C107.499 129.575 107.529 129.877 107.471 130.168C107.413 130.459 107.27 130.726 107.061 130.936C106.851 131.145 106.584 131.288 106.293 131.346C106.002 131.404 105.7 131.374 105.426 131.261C105.152 131.147 104.918 130.955 104.753 130.708C104.588 130.462 104.5 130.172 104.5 129.875C104.5 129.477 104.658 129.096 104.939 128.814C105.221 128.533 105.602 128.375 106 128.375Z" fill="#003B5C"/>
<path d="M497 196.75C495.906 196.751 494.858 197.186 494.085 197.96C493.311 198.733 492.876 199.781 492.875 200.875C492.875 204.405 496.625 207.072 496.784 207.184C496.848 207.227 496.923 207.25 497 207.25C497.077 207.25 497.152 207.227 497.216 207.184C497.375 207.072 501.125 204.405 501.125 200.875C501.124 199.781 500.689 198.733 499.915 197.96C499.142 197.186 498.094 196.751 497 196.75ZM497 199.375C497.297 199.375 497.587 199.463 497.833 199.628C498.08 199.793 498.272 200.027 498.386 200.301C498.499 200.575 498.529 200.877 498.471 201.168C498.413 201.459 498.27 201.726 498.061 201.936C497.851 202.145 497.584 202.288 497.293 202.346C497.002 202.404 496.7 202.374 496.426 202.261C496.152 202.147 495.918 201.955 495.753 201.708C495.588 201.462 495.5 201.172 495.5 200.875C495.5 200.477 495.658 200.096 495.939 199.814C496.221 199.533 496.602 199.375 497 199.375Z" fill="#003B5C"/>
<path d="M162 132.375C159.995 132.377 158.073 133.175 156.655 134.593C155.237 136.01 154.44 137.932 154.438 139.938C154.438 146.409 161.312 151.298 161.605 151.505C161.722 151.583 161.859 151.624 162 151.624C162.141 151.624 162.278 151.583 162.395 151.505C162.688 151.298 169.562 146.409 169.562 139.938C169.56 137.932 168.763 136.01 167.345 134.593C165.927 133.175 164.005 132.377 162 132.375ZM162 137.188C162.544 137.188 163.076 137.349 163.528 137.651C163.98 137.953 164.333 138.383 164.541 138.885C164.749 139.388 164.803 139.941 164.697 140.474C164.591 141.007 164.329 141.497 163.945 141.882C163.56 142.267 163.07 142.529 162.536 142.635C162.003 142.741 161.45 142.686 160.948 142.478C160.445 142.27 160.016 141.918 159.713 141.465C159.411 141.013 159.25 140.481 159.25 139.938C159.25 139.208 159.54 138.509 160.055 137.993C160.571 137.477 161.271 137.188 162 137.188Z" fill="#60C0C3"/>
<g filter="url(#filter1_d_249_3211)">
<rect x="173" y="117" width="63" height="25" rx="4" fill="white" shape-rendering="crispEdges"/>
<path d="M186.176 125.6H187.304V129.26H188.576L191.12 125.6H192.404L189.5 129.692L192.644 134H191.276L188.576 130.232H187.304V134H186.176V125.6ZM194.958 134.072C194.374 134.072 193.918 133.912 193.59 133.592C193.262 133.264 193.098 132.808 193.098 132.224C193.098 131.608 193.274 131.14 193.626 130.82C193.978 130.492 194.542 130.328 195.318 130.328H196.83V129.716C196.83 129.284 196.73 128.972 196.53 128.78C196.338 128.58 196.038 128.48 195.63 128.48C195.422 128.48 195.246 128.504 195.102 128.552C194.958 128.592 194.842 128.652 194.754 128.732C194.666 128.804 194.598 128.888 194.55 128.984C194.502 129.08 194.474 129.176 194.466 129.272H193.434C193.458 129.024 193.514 128.796 193.602 128.588C193.69 128.38 193.822 128.2 193.998 128.048C194.174 127.896 194.394 127.776 194.658 127.688C194.93 127.6 195.258 127.556 195.642 127.556C196.41 127.556 196.974 127.736 197.334 128.096C197.694 128.448 197.874 128.988 197.874 129.716V134H196.95V132.944C196.87 133.08 196.778 133.216 196.674 133.352C196.57 133.488 196.438 133.612 196.278 133.724C196.126 133.828 195.942 133.912 195.726 133.976C195.51 134.04 195.254 134.072 194.958 134.072ZM195.258 133.16C195.738 133.16 196.118 133.02 196.398 132.74C196.686 132.452 196.83 132.064 196.83 131.576V131.192H195.366C194.91 131.192 194.59 131.276 194.406 131.444C194.23 131.604 194.142 131.86 194.142 132.212C194.142 132.492 194.234 132.72 194.418 132.896C194.602 133.072 194.882 133.16 195.258 133.16ZM201.531 134.084C200.731 134.084 200.135 133.92 199.743 133.592C199.351 133.264 199.131 132.796 199.083 132.188H200.139C200.195 132.5 200.323 132.744 200.523 132.92C200.731 133.088 201.067 133.172 201.531 133.172C202.043 133.172 202.403 133.088 202.611 132.92C202.819 132.744 202.923 132.5 202.923 132.188C202.923 131.876 202.819 131.636 202.611 131.468C202.403 131.292 202.043 131.204 201.531 131.204H200.643V130.316H201.471C201.903 130.316 202.211 130.236 202.395 130.076C202.587 129.916 202.683 129.684 202.683 129.38C202.683 129.084 202.591 128.856 202.407 128.696C202.223 128.536 201.911 128.456 201.471 128.456C201.095 128.456 200.819 128.536 200.643 128.696C200.467 128.856 200.355 129.084 200.307 129.38H199.203C199.227 129.116 199.299 128.872 199.419 128.648C199.539 128.424 199.695 128.232 199.887 128.072C200.087 127.904 200.319 127.776 200.583 127.688C200.855 127.6 201.151 127.556 201.471 127.556C201.855 127.556 202.187 127.6 202.467 127.688C202.755 127.776 202.991 127.9 203.175 128.06C203.367 128.22 203.507 128.412 203.595 128.636C203.691 128.852 203.739 129.092 203.739 129.356C203.739 129.508 203.715 129.656 203.667 129.8C203.627 129.936 203.563 130.064 203.475 130.184C203.395 130.304 203.295 130.408 203.175 130.496C203.063 130.584 202.935 130.652 202.791 130.7C203.183 130.796 203.479 130.984 203.679 131.264C203.879 131.536 203.979 131.852 203.979 132.212C203.979 132.78 203.783 133.236 203.391 133.58C202.999 133.916 202.379 134.084 201.531 134.084ZM206.969 134.072C206.385 134.072 205.929 133.912 205.601 133.592C205.273 133.264 205.109 132.808 205.109 132.224C205.109 131.608 205.285 131.14 205.637 130.82C205.989 130.492 206.553 130.328 207.329 130.328H208.841V129.716C208.841 129.284 208.741 128.972 208.541 128.78C208.349 128.58 208.049 128.48 207.641 128.48C207.433 128.48 207.257 128.504 207.113 128.552C206.969 128.592 206.853 128.652 206.765 128.732C206.677 128.804 206.609 128.888 206.561 128.984C206.513 129.08 206.485 129.176 206.477 129.272H205.445C205.469 129.024 205.525 128.796 205.613 128.588C205.701 128.38 205.833 128.2 206.009 128.048C206.185 127.896 206.405 127.776 206.669 127.688C206.941 127.6 207.269 127.556 207.653 127.556C208.421 127.556 208.985 127.736 209.345 128.096C209.705 128.448 209.885 128.988 209.885 129.716V134H208.961V132.944C208.881 133.08 208.789 133.216 208.685 133.352C208.581 133.488 208.449 133.612 208.289 133.724C208.137 133.828 207.953 133.912 207.737 133.976C207.521 134.04 207.265 134.072 206.969 134.072ZM207.269 133.16C207.749 133.16 208.129 133.02 208.409 132.74C208.697 132.452 208.841 132.064 208.841 131.576V131.192H207.377C206.921 131.192 206.601 131.276 206.417 131.444C206.241 131.604 206.153 131.86 206.153 132.212C206.153 132.492 206.245 132.72 206.429 132.896C206.613 133.072 206.893 133.16 207.269 133.16ZM211.623 127.64H212.691V130.304H215.595V127.64H216.663V134H215.595V131.216H212.691V134H211.623V127.64ZM218.466 127.64H219.534V130.064H220.974C221.814 130.064 222.422 130.236 222.798 130.58C223.174 130.924 223.362 131.412 223.362 132.044C223.362 132.668 223.174 133.152 222.798 133.496C222.422 133.832 221.814 134 220.974 134H218.466V127.64ZM220.974 133.076C221.478 133.076 221.826 132.992 222.018 132.824C222.21 132.656 222.306 132.392 222.306 132.032C222.306 131.664 222.21 131.396 222.018 131.228C221.826 131.06 221.478 130.976 220.974 130.976H219.534V133.076H220.974Z" fill="#0B0C0C"/>
<rect x="173.5" y="117.5" width="62" height="24" rx="3.5" stroke="#E3EAF1" shape-rendering="crispEdges"/>
</g>
<defs>
<filter id="filter0_d_249_3211" x="0.498047" y="17.3312" width="589.496" height="256.173" filterUnits="userSpaceOnUse" color-interpolation-filters="sRGB">
<feFlood flood-opacity="0" result="BackgroundImageFix"/>
<feColorMatrix in="SourceAlpha" type="matrix" values="0 0 0 0 0 0 0 0 0 0 0 0 0 0 0 0 0 0 127 0" result="hardAlpha"/>
<feOffset dy="14"/>
<feGaussianBlur stdDeviation="3.5"/>
<feComposite in2="hardAlpha" operator="out"/>
<feColorMatrix type="matrix" values="0 0 0 0 0 0 0 0 0 0 0 0 0 0 0 0 0 0 0.05 0"/>
<feBlend mode="normal" in2="BackgroundImageFix" result="effect1_dropShadow_249_3211"/>
<feBlend mode="normal" in="SourceGraphic" in2="effect1_dropShadow_249_3211" result="shape"/>
</filter>
<filter id="filter1_d_249_3211" x="169" y="117" width="71" height="33" filterUnits="userSpaceOnUse" color-interpolation-filters="sRGB">
<feFlood flood-opacity="0" result="BackgroundImageFix"/>
<feColorMatrix in="SourceAlpha" type="matrix" values="0 0 0 0 0 0 0 0 0 0 0 0 0 0 0 0 0 0 127 0" result="hardAlpha"/>
<feOffset dy="4"/>
<feGaussianBlur stdDeviation="2"/>
<feComposite in2="hardAlpha" operator="out"/>
<feColorMatrix type="matrix" values="0 0 0 0 0 0 0 0 0 0 0 0 0 0 0 0 0 0 0.04 0"/>
<feBlend mode="normal" in2="BackgroundImageFix" result="effect1_dropShadow_249_3211"/>
<feBlend mode="normal" in="SourceGraphic" in2="effect1_dropShadow_249_3211" result="shape"/>
</filter>
</defs>
</svg>
