<svg width="106" height="205" viewBox="0 0 106 205" fill="none" xmlns="http://www.w3.org/2000/svg">
<g opacity="0.2">
<path d="M103.436 61.088H94.3859M103.464 37.722H94.4137M103.464 34.3576H94.4137M103.464 31.0394H94.4137M97.4365 7.63639L94.7649 10.3168M73.5493 5.02065H64.4991M67.5405 90.6929L64.8689 93.3733M40.7505 2.85782L34.3534 9.28162M40.7505 2.85782V7.79352M40.7505 2.85782H35.8325M36.0359 63.7037L33.3643 66.3841M10.5679 65.4783H1.52693M10.5771 62.1047H1.52693M10.5771 58.7865H1.52693M9.24592 85.9051L2.84886 92.3289M9.24592 85.9051V90.8408M9.24592 85.9051H4.32795M103.991 61.1065L98.9434 66.1715L93.896 61.1065L95.9944 58.0933H101.809L104 61.1065H103.991ZM103.991 89.1216L98.9434 94.1867L93.896 89.1216L98.9434 84.0565L103.991 89.1216ZM97.566 7.57169C97.566 7.84897 97.6676 8.11702 97.8803 8.44052C98.324 9.15222 99.0173 9.66058 99.8863 9.64209C102.586 9.59588 103.011 6.49027 103.113 4.41062C103.15 3.59725 103.15 2.66372 103.076 1.85959C103.076 1.85959 101.347 1.79489 100.543 1.83186C98.4719 1.92429 95.3751 2.3587 95.3288 5.06687C95.3104 5.9357 95.8188 6.62891 96.5214 7.07257C96.8449 7.28516 97.2054 7.44229 97.5752 7.57169H97.566ZM74.1039 5.03914L69.0565 10.1042L64.0092 5.03914L66.1076 2.02596H71.9223L74.1132 5.03914H74.1039ZM74.1039 34.3853L69.0565 39.4504L64.0092 34.3853L69.0565 29.3202L74.1039 34.3853ZM71.8576 64.9607C70.3045 66.5135 67.7993 66.5135 66.2463 64.9607C64.6932 63.4079 64.6932 60.8846 66.2463 59.3226C67.7993 57.7698 70.3045 57.7698 71.8576 59.3226C73.4106 60.8754 73.4106 63.3987 71.8576 64.9607ZM67.6699 90.6282C67.6699 90.9055 67.7716 91.1735 67.9842 91.497C68.4372 92.2087 69.1213 92.7171 69.9902 92.6986C72.6896 92.6524 73.1148 89.5468 73.2165 87.4671C73.2535 86.6538 73.2535 85.7202 73.1795 84.9161C73.1795 84.9161 71.4508 84.8514 70.6373 84.8884C68.5666 84.9808 65.4698 85.4152 65.4235 88.1234C65.405 88.9922 65.9135 89.6854 66.616 90.1383C66.9488 90.3509 67.3001 90.5081 67.6699 90.6375V90.6282ZM40.353 91.9407C38.7999 93.4935 36.2855 93.4935 34.7417 91.9407C33.1979 90.3879 33.1887 87.8646 34.7417 86.3025C36.2947 84.7497 38.8092 84.7497 40.353 86.3025C41.906 87.8553 41.906 90.3786 40.353 91.9407ZM36.1653 63.639C36.1653 63.9163 36.267 64.1843 36.4796 64.5078C36.9326 65.2195 37.6167 65.7279 38.4856 65.7094C41.185 65.6632 41.6102 62.5576 41.7119 60.4779C41.7489 59.6646 41.7489 58.731 41.6749 57.9269C41.6749 57.9269 39.9462 57.8622 39.142 57.8992C37.0713 57.9916 33.9744 58.426 33.9282 61.1342C33.9097 62.003 34.4181 62.6962 35.1207 63.1491C35.4443 63.3525 35.8048 63.5188 36.1746 63.6482L36.1653 63.639ZM37.5427 31.0948C38.6243 29.921 40.4732 29.9579 41.4715 31.0578C42.4052 32.093 42.3405 33.7937 41.2497 34.8105L37.5427 38.5261L33.8358 34.8105C32.7357 33.7937 32.6802 32.093 33.6139 31.0578C34.6123 29.9579 36.4519 29.921 37.5427 31.0948ZM11.0948 6.0651L6.04739 11.1302L1 6.0651L6.04739 1L11.0948 6.0651ZM8.84841 37.1951C7.29537 38.7479 4.78092 38.7479 3.23712 37.1951C1.68408 35.6423 1.68408 33.119 3.23712 31.557C4.79016 30.0042 7.30461 30.0042 8.84841 31.557C10.4015 33.1098 10.4015 35.6331 8.84841 37.1951Z" stroke="#003B5C" stroke-width="1.34" stroke-miterlimit="10"/>
<path d="M103.436 170.409H94.3859M103.464 147.043H94.4137M103.464 143.679H94.4137M103.464 140.361H94.4137M97.4365 116.958L94.7649 119.638M73.5493 114.342H64.4991M67.5405 200.014L64.8689 202.695M40.7505 112.179L34.3534 118.603M40.7505 112.179V117.115M40.7505 112.179H35.8325M36.0359 173.025L33.3643 175.706M10.5679 174.8H1.52693M10.5771 171.426H1.52693M10.5771 168.108H1.52693M9.24592 195.227L2.84886 201.65M9.24592 195.227V200.162M9.24592 195.227H4.32795M103.991 170.428L98.9434 175.493L93.896 170.428L95.9944 167.415H101.809L104 170.428H103.991ZM103.991 198.443L98.9434 203.508L93.896 198.443L98.9434 193.378L103.991 198.443ZM97.566 116.893C97.566 117.171 97.6676 117.439 97.8803 117.762C98.324 118.474 99.0173 118.982 99.8863 118.964C102.586 118.917 103.011 115.812 103.113 113.732C103.15 112.919 103.15 111.985 103.076 111.181C103.076 111.181 101.347 111.116 100.543 111.153C98.4719 111.246 95.3751 111.68 95.3288 114.388C95.3104 115.257 95.8188 115.95 96.5214 116.394C96.8449 116.607 97.2054 116.764 97.5752 116.893H97.566ZM74.1039 114.361L69.0565 119.426L64.0092 114.361L66.1076 111.347H71.9223L74.1132 114.361H74.1039ZM74.1039 143.707L69.0565 148.772L64.0092 143.707L69.0565 138.642L74.1039 143.707ZM71.8576 174.282C70.3045 175.835 67.7993 175.835 66.2463 174.282C64.6932 172.729 64.6932 170.206 66.2463 168.644C67.7993 167.091 70.3045 167.091 71.8576 168.644C73.4106 170.197 73.4106 172.72 71.8576 174.282ZM67.6699 199.95C67.6699 200.227 67.7716 200.495 67.9842 200.819C68.4372 201.53 69.1213 202.039 69.9902 202.02C72.6896 201.974 73.1148 198.868 73.2165 196.789C73.2535 195.975 73.2535 195.042 73.1795 194.238C73.1795 194.238 71.4508 194.173 70.6373 194.21C68.5666 194.302 65.4698 194.737 65.4235 197.445C65.405 198.314 65.9135 199.007 66.616 199.46C66.9488 199.672 67.3001 199.83 67.6699 199.959V199.95ZM40.353 201.262C38.7999 202.815 36.2855 202.815 34.7417 201.262C33.1979 199.709 33.1887 197.186 34.7417 195.624C36.2947 194.071 38.8092 194.071 40.353 195.624C41.906 197.177 41.906 199.7 40.353 201.262ZM36.1653 172.961C36.1653 173.238 36.267 173.506 36.4796 173.829C36.9326 174.541 37.6167 175.049 38.4856 175.031C41.185 174.985 41.6102 171.879 41.7119 169.799C41.7489 168.986 41.7489 168.053 41.6749 167.248C41.6749 167.248 39.9462 167.184 39.142 167.221C37.0713 167.313 33.9744 167.748 33.9282 170.456C33.9097 171.325 34.4181 172.018 35.1207 172.471C35.4443 172.674 35.8048 172.84 36.1746 172.97L36.1653 172.961ZM37.5427 140.416C38.6243 139.242 40.4732 139.279 41.4715 140.379C42.4052 141.415 42.3405 143.115 41.2497 144.132L37.5427 147.848L33.8358 144.132C32.7357 143.115 32.6802 141.415 33.6139 140.379C34.6123 139.279 36.4519 139.242 37.5427 140.416ZM11.0948 115.387L6.04739 120.452L1 115.387L6.04739 110.322L11.0948 115.387ZM8.84841 146.517C7.29537 148.069 4.78092 148.069 3.23712 146.517C1.68408 144.964 1.68408 142.441 3.23712 140.878C4.79016 139.326 7.30461 139.326 8.84841 140.878C10.4015 142.431 10.4015 144.955 8.84841 146.517Z" stroke="#003B5C" stroke-width="1.34" stroke-miterlimit="10"/>
</g>
</svg>
