<svg width="20" height="20" viewBox="0 0 20 20" fill="none" xmlns="http://www.w3.org/2000/svg">
<path d="M12.4531 3.125C13.5132 3.40951 14.4799 3.96785 15.256 4.74399C16.0321 5.52013 16.5905 6.48676 16.875 7.54687" stroke="#60C0C3" stroke-linecap="round" stroke-linejoin="round"/>
<path d="M11.8047 5.53906C12.4423 5.7084 13.0238 6.04327 13.4903 6.50974C13.9567 6.97622 14.2916 7.55772 14.4609 8.19531" stroke="#60C0C3" stroke-linecap="round" stroke-linejoin="round"/>
<path d="M7.22656 9.75C7.8697 11.0781 8.94365 12.1493 10.2734 12.7891C10.3715 12.8355 10.48 12.8556 10.5882 12.8474C10.6965 12.8392 10.8007 12.8029 10.8906 12.7422L12.8437 11.4375C12.93 11.379 13.0298 11.3433 13.1336 11.3337C13.2374 11.3241 13.342 11.341 13.4375 11.3828L17.0937 12.9531C17.2187 13.0051 17.3231 13.0968 17.3909 13.2139C17.4586 13.3311 17.486 13.4673 17.4687 13.6016C17.3529 14.506 16.9114 15.3373 16.2269 15.9398C15.5424 16.5423 14.6619 16.8748 13.75 16.875C10.9321 16.875 8.22956 15.7556 6.23699 13.763C4.24442 11.7704 3.125 9.06792 3.125 6.25C3.12521 5.33812 3.45767 4.45756 4.06018 3.77309C4.66268 3.08861 5.49395 2.64713 6.39844 2.53125C6.53269 2.514 6.66888 2.54137 6.78605 2.60913C6.90322 2.67689 6.99486 2.78128 7.04687 2.90625L8.61719 6.57031C8.65802 6.66433 8.67511 6.76695 8.66693 6.86913C8.65876 6.97131 8.62558 7.06991 8.57031 7.15625L7.26562 9.14062C7.20754 9.23037 7.17345 9.33352 7.16661 9.44021C7.15977 9.5469 7.18041 9.65356 7.22656 9.75V9.75Z" stroke="#60C0C3" stroke-linecap="round" stroke-linejoin="round"/>
</svg>
