<svg width="12" height="12" viewBox="0 0 12 12" fill="none" xmlns="http://www.w3.org/2000/svg">
<path d="M10.0966 4.35469C10.068 4.28644 10.0197 4.22821 9.95798 4.18733C9.89625 4.14646 9.8238 4.12477 9.74977 4.125H2.24977C2.17573 4.12477 2.10329 4.14646 2.04156 4.18733C1.97983 4.22821 1.93158 4.28644 1.90289 4.35469C1.87588 4.42396 1.86902 4.49946 1.88312 4.57246C1.89723 4.64545 1.93171 4.71297 1.98258 4.76719L5.73258 8.51719C5.80426 8.5865 5.90006 8.62524 5.99977 8.62524C6.09947 8.62524 6.19528 8.5865 6.26696 8.51719L10.017 4.76719C10.0678 4.71297 10.1023 4.64545 10.1164 4.57246C10.1305 4.49946 10.1237 4.42396 10.0966 4.35469Z" fill="#959A9E"/>
</svg>
