<svg width="119" height="13" viewBox="0 0 119 13" fill="none" xmlns="http://www.w3.org/2000/svg">
<path d="M4.06629 10.098C3.48762 10.098 2.96962 10.0093 2.51229 9.832C2.05496 9.65467 1.66762 9.37933 1.35029 9.006C1.03296 8.63267 0.790289 8.15667 0.622289 7.578C0.454289 6.99933 0.370289 6.30867 0.370289 5.506V4.386C0.370289 2.93933 0.696956 1.866 1.35029 1.166C2.00362 0.456666 2.90896 0.102 4.06629 0.102C5.08362 0.102 5.89096 0.34 6.48829 0.816C7.09496 1.292 7.49162 2.04333 7.67829 3.07H6.36229C6.18496 2.40733 5.91429 1.94067 5.55029 1.67C5.18629 1.39933 4.69162 1.264 4.06629 1.264C3.31029 1.264 2.72229 1.50667 2.30229 1.992C1.88229 2.468 1.67229 3.266 1.67229 4.386V5.506C1.67229 6.14067 1.72362 6.67733 1.82629 7.116C1.93829 7.55467 2.09696 7.90933 2.30229 8.18C2.50762 8.45067 2.75496 8.64667 3.04429 8.768C3.34296 8.88 3.68362 8.936 4.06629 8.936C4.39296 8.936 4.67762 8.90333 4.92029 8.838C5.17229 8.76333 5.38696 8.656 5.56429 8.516C5.75096 8.36667 5.90496 8.17533 6.02629 7.942C6.15696 7.70867 6.26896 7.424 6.36229 7.088H7.67829C7.46362 8.17067 7.04829 8.94533 6.43229 9.412C5.82562 9.86933 5.03696 10.098 4.06629 10.098ZM11.9746 10.098C11.5266 10.098 11.116 10.028 10.7426 9.888C10.3786 9.73867 10.066 9.524 9.80465 9.244C9.55265 8.95467 9.35198 8.60467 9.20265 8.194C9.06265 7.774 8.99265 7.29333 8.99265 6.752V5.688C8.99265 4.64267 9.24932 3.84933 9.76265 3.308C10.2853 2.75733 10.9993 2.482 11.9046 2.482C12.81 2.482 13.5193 2.75733 14.0326 3.308C14.5553 3.84933 14.8166 4.652 14.8166 5.716V6.654H10.2246C10.234 7.50333 10.3926 8.11467 10.7006 8.488C11.018 8.852 11.4426 9.034 11.9746 9.034C12.208 9.034 12.4086 9.006 12.5766 8.95C12.754 8.88467 12.8986 8.80067 13.0106 8.698C13.132 8.59533 13.2253 8.47867 13.2906 8.348C13.356 8.21733 13.4026 8.082 13.4306 7.942H14.6766C14.5273 8.67 14.224 9.21133 13.7666 9.566C13.3093 9.92067 12.712 10.098 11.9746 10.098ZM11.9186 3.546C11.3866 3.546 10.9713 3.70933 10.6726 4.036C10.3833 4.35333 10.234 4.89 10.2246 5.646H13.6546C13.636 4.89 13.4773 4.35333 13.1786 4.036C12.8893 3.70933 12.4693 3.546 11.9186 3.546ZM16.5881 2.58H17.6941V3.812C17.9088 3.40133 18.1934 3.07933 18.5481 2.846C18.9121 2.61267 19.3601 2.496 19.8921 2.496C20.2841 2.496 20.6434 2.566 20.9701 2.706C21.2968 2.846 21.5768 3.05133 21.8101 3.322C22.0528 3.58333 22.2394 3.91467 22.3701 4.316C22.5101 4.71733 22.5801 5.17467 22.5801 5.688V6.752C22.5801 7.30267 22.5101 7.788 22.3701 8.208C22.2394 8.628 22.0528 8.978 21.8101 9.258C21.5768 9.538 21.2968 9.748 20.9701 9.888C20.6434 10.028 20.2841 10.098 19.8921 10.098C19.3881 10.098 18.9634 9.98133 18.6181 9.748C18.2728 9.51467 18.0114 9.216 17.8341 8.852V12.8H16.5881V2.58ZM19.6401 9.006C20.1441 9.006 20.5548 8.82867 20.8721 8.474C21.1894 8.11 21.3481 7.536 21.3481 6.752V5.688C21.3481 4.988 21.1894 4.46533 20.8721 4.12C20.5548 3.76533 20.1441 3.588 19.6401 3.588C19.0801 3.588 18.6368 3.76533 18.3101 4.12C17.9928 4.46533 17.8341 4.988 17.8341 5.688V6.752C17.8341 7.536 17.9928 8.11 18.3101 8.474C18.6368 8.82867 19.0801 9.006 19.6401 9.006ZM24.3537 2.58H27.1257C28.0404 2.58 28.7124 2.77133 29.1417 3.154C29.5804 3.52733 29.7997 4.01267 29.7997 4.61C29.7997 4.76867 29.7717 4.92733 29.7157 5.086C29.669 5.24467 29.5944 5.394 29.4917 5.534C29.3984 5.674 29.2817 5.79533 29.1417 5.898C29.011 6.00067 28.8617 6.08 28.6937 6.136C29.151 6.248 29.4964 6.46267 29.7297 6.78C29.963 7.09733 30.0797 7.466 30.0797 7.886C30.0797 8.53 29.8604 9.04333 29.4217 9.426C28.9924 9.80867 28.3204 10 27.4057 10H24.3537V2.58ZM27.4057 8.95C27.9377 8.95 28.311 8.85667 28.5257 8.67C28.7404 8.474 28.8477 8.194 28.8477 7.83C28.8477 7.47533 28.7404 7.20467 28.5257 7.018C28.311 6.83133 27.9377 6.738 27.4057 6.738H25.5717V8.95H27.4057ZM27.1257 5.702C27.6577 5.702 28.031 5.61333 28.2457 5.436C28.4604 5.24933 28.5677 4.99267 28.5677 4.666C28.5677 4.33933 28.4604 4.08733 28.2457 3.91C28.031 3.72333 27.6577 3.63 27.1257 3.63H25.5717V5.702H27.1257ZM31.8459 2.58H33.0359V8.25L36.4939 2.58H37.7259V10H36.5359V4.33L33.0779 10H31.8459V2.58ZM42.4903 10.098C42.0423 10.098 41.6316 10.028 41.2583 9.888C40.8943 9.73867 40.5816 9.524 40.3203 9.244C40.0683 8.95467 39.8676 8.60467 39.7183 8.194C39.5783 7.774 39.5083 7.29333 39.5083 6.752V5.688C39.5083 5.184 39.5783 4.736 39.7183 4.344C39.8676 3.94267 40.0683 3.60667 40.3203 3.336C40.5816 3.056 40.8943 2.846 41.2583 2.706C41.6316 2.55667 42.0423 2.482 42.4903 2.482C42.8636 2.482 43.2136 2.53333 43.5403 2.636C43.8763 2.73867 44.1703 2.888 44.4223 3.084C44.6743 3.28 44.8796 3.518 45.0383 3.798C45.1969 4.06867 45.2949 4.372 45.3323 4.708H44.0863C44.0116 4.4 43.8483 4.134 43.5963 3.91C43.3443 3.686 42.9756 3.574 42.4903 3.574C41.9583 3.574 41.5336 3.75133 41.2163 4.106C40.8989 4.45133 40.7403 4.97867 40.7403 5.688V6.752C40.7403 7.54533 40.8989 8.11933 41.2163 8.474C41.5336 8.82867 41.9583 9.006 42.4903 9.006C42.9756 9.006 43.3443 8.88933 43.5963 8.656C43.8483 8.42267 44.0069 8.16133 44.0723 7.872H45.3323C45.1643 8.60933 44.8376 9.16467 44.3523 9.538C43.8763 9.91133 43.2556 10.098 42.4903 10.098ZM46.967 2.58H48.213V5.688H51.601V2.58H52.847V10H51.601V6.752H48.213V10H46.967V2.58ZM54.9514 2.58H56.1974V5.408H57.4014C58.3814 5.408 59.0907 5.60867 59.5294 6.01C59.9774 6.41133 60.2014 6.98067 60.2014 7.718C60.2014 8.446 59.9774 9.01067 59.5294 9.412C59.0907 9.804 58.3814 10 57.4014 10H54.9514V2.58ZM57.4014 8.95C58.008 8.95 58.4234 8.852 58.6474 8.656C58.8714 8.46 58.9834 8.14267 58.9834 7.704C58.9834 7.26533 58.8714 6.948 58.6474 6.752C58.4234 6.556 58.008 6.458 57.4014 6.458H56.1974V8.95H57.4014ZM61.2654 2.58H62.5114V10H61.2654V2.58ZM64.6174 2.58H65.8074V8.25L69.2654 2.58H70.4974V10H69.3074V4.33L65.8494 10H64.6174V2.58ZM67.5574 1.852C66.8574 1.852 66.344 1.698 66.0174 1.39C65.6907 1.07267 65.5274 0.619999 65.5274 0.0319998H66.6614C66.6614 0.386666 66.7314 0.643333 66.8714 0.802C67.0207 0.951333 67.2494 1.026 67.5574 1.026C67.8747 1.026 68.1034 0.951333 68.2434 0.802C68.3927 0.643333 68.4674 0.386666 68.4674 0.0319998H69.5874C69.5874 0.619999 69.424 1.07267 69.0974 1.39C68.7707 1.698 68.2574 1.852 67.5574 1.852ZM76.1018 2.58H81.8418V10H80.5958V3.658H77.3478V10H76.1018V2.58ZM86.6657 10.098C85.7324 10.098 84.9904 9.81333 84.4397 9.244C83.8891 8.66533 83.6137 7.83467 83.6137 6.752V5.688C83.6137 5.184 83.6837 4.736 83.8237 4.344C83.9731 3.94267 84.1784 3.60667 84.4397 3.336C84.7104 3.056 85.0324 2.846 85.4057 2.706C85.7791 2.55667 86.1991 2.482 86.6657 2.482C87.1324 2.482 87.5524 2.55667 87.9257 2.706C88.2991 2.846 88.6164 3.056 88.8777 3.336C89.1484 3.60667 89.3537 3.94267 89.4937 4.344C89.6431 4.736 89.7177 5.184 89.7177 5.688V6.752C89.7177 7.83467 89.4424 8.66533 88.8917 9.244C88.3411 9.81333 87.5991 10.098 86.6657 10.098ZM86.6657 9.006C87.2257 9.006 87.6691 8.82867 87.9957 8.474C88.3224 8.11 88.4857 7.536 88.4857 6.752V5.688C88.4857 4.97867 88.3224 4.45133 87.9957 4.106C87.6691 3.75133 87.2257 3.574 86.6657 3.574C86.1057 3.574 85.6624 3.75133 85.3357 4.106C85.0091 4.45133 84.8457 4.97867 84.8457 5.688V6.752C84.8457 7.536 85.0091 8.11 85.3357 8.474C85.6624 8.82867 86.1057 9.006 86.6657 9.006ZM91.4963 2.58H92.6023V3.812C92.817 3.40133 93.1016 3.07933 93.4563 2.846C93.8203 2.61267 94.2683 2.496 94.8003 2.496C95.1923 2.496 95.5516 2.566 95.8783 2.706C96.205 2.846 96.485 3.05133 96.7183 3.322C96.961 3.58333 97.1476 3.91467 97.2783 4.316C97.4183 4.71733 97.4883 5.17467 97.4883 5.688V6.752C97.4883 7.30267 97.4183 7.788 97.2783 8.208C97.1476 8.628 96.961 8.978 96.7183 9.258C96.485 9.538 96.205 9.748 95.8783 9.888C95.5516 10.028 95.1923 10.098 94.8003 10.098C94.2963 10.098 93.8716 9.98133 93.5263 9.748C93.181 9.51467 92.9196 9.216 92.7423 8.852V12.8H91.4963V2.58ZM94.5483 9.006C95.0523 9.006 95.463 8.82867 95.7803 8.474C96.0976 8.11 96.2563 7.536 96.2563 6.752V5.688C96.2563 4.988 96.0976 4.46533 95.7803 4.12C95.463 3.76533 95.0523 3.588 94.5483 3.588C93.9883 3.588 93.545 3.76533 93.2183 4.12C92.901 4.46533 92.7423 4.988 92.7423 5.688V6.752C92.7423 7.536 92.901 8.11 93.2183 8.474C93.545 8.82867 93.9883 9.006 94.5483 9.006ZM100.816 3.658H98.4499V2.58H104.414V3.658H102.048V10H100.816V3.658ZM107.409 10.084C106.728 10.084 106.196 9.89733 105.813 9.524C105.431 9.14133 105.239 8.60933 105.239 7.928C105.239 7.20933 105.445 6.66333 105.855 6.29C106.266 5.90733 106.924 5.716 107.829 5.716H109.593V5.002C109.593 4.498 109.477 4.134 109.243 3.91C109.019 3.67667 108.669 3.56 108.193 3.56C107.951 3.56 107.745 3.588 107.577 3.644C107.409 3.69067 107.274 3.76067 107.171 3.854C107.069 3.938 106.989 4.036 106.933 4.148C106.877 4.26 106.845 4.372 106.835 4.484H105.631C105.659 4.19467 105.725 3.92867 105.827 3.686C105.93 3.44333 106.084 3.23333 106.289 3.056C106.495 2.87867 106.751 2.73867 107.059 2.636C107.377 2.53333 107.759 2.482 108.207 2.482C109.103 2.482 109.761 2.692 110.181 3.112C110.601 3.52267 110.811 4.15267 110.811 5.002V10H109.733V8.768C109.64 8.92667 109.533 9.08533 109.411 9.244C109.29 9.40267 109.136 9.54733 108.949 9.678C108.772 9.79933 108.557 9.89733 108.305 9.972C108.053 10.0467 107.755 10.084 107.409 10.084ZM107.759 9.02C108.319 9.02 108.763 8.85667 109.089 8.53C109.425 8.194 109.593 7.74133 109.593 7.172V6.724H107.885C107.353 6.724 106.98 6.822 106.765 7.018C106.56 7.20467 106.457 7.50333 106.457 7.914C106.457 8.24067 106.565 8.50667 106.779 8.712C106.994 8.91733 107.321 9.02 107.759 9.02ZM112.166 8.824C112.446 8.78667 112.679 8.70267 112.866 8.572C113.053 8.44133 113.202 8.24533 113.314 7.984C113.426 7.71333 113.505 7.37267 113.552 6.962C113.599 6.55133 113.622 6.04733 113.622 5.45V2.58H118.508V10H117.262V3.658H114.84V5.45C114.84 7.046 114.635 8.222 114.224 8.978C113.813 9.72467 113.127 10.098 112.166 10.098V8.824Z" fill="white"/>
</svg>

