<?xml version="1.0" encoding="utf-8"?><svg viewBox="0 0 1062 867" xmlns="http://www.w3.org/2000/svg" xmlns:xlink="http://www.w3.org/1999/xlink"><style>:root>svg{display:none}:root>svg:target{display:block}</style><svg fill="none" viewBox="0 0 20 21" id="arrow" xmlns="http://www.w3.org/2000/svg"><path d="M16.875 10.965H3.125M8.75 5.34l-5.625 5.625L8.75 16.59"   stroke-width="1.5" stroke-linecap="round" stroke-linejoin="round"/></svg><svg fill="none" viewBox="0 0 20 20" id="arrow-blue" xmlns="http://www.w3.org/2000/svg"><path d="M16.875 10H3.125M8.75 4.375 3.125 10l5.625 5.625"   stroke-linecap="round" stroke-linejoin="round"/></svg><svg fill="none" viewBox="0 0 20 21" id="arrow-next" xmlns="http://www.w3.org/2000/svg"><path d="M3.125 10.965h13.75M11.25 5.34l5.625 5.625-5.625 5.625"   stroke-width="1.5" stroke-linecap="round" stroke-linejoin="round"/></svg><svg fill="none" viewBox="0 0 20 20" id="arrow45" xmlns="http://www.w3.org/2000/svg"><path d="M5 15 15 5M6.875 5H15v8.125"   stroke-width="1.5" stroke-linecap="round" stroke-linejoin="round"/></svg><svg fill="none" viewBox="0 0 32 33" id="box" xmlns="http://www.w3.org/2000/svg"><path d="M28 22.627V10.302a1.013 1.013 0 0 0-.512-.875l-11-6.187a.975.975 0 0 0-.976 0l-11 6.187a1.012 1.012 0 0 0-.512.875v12.325a1.013 1.013 0 0 0 .513.875l11 6.188a.975.975 0 0 0 .975 0l11-6.188a1.013 1.013 0 0 0 .512-.875v0Z"   stroke-width="1.5" stroke-linecap="round" stroke-linejoin="round"/><path d="M22.125 19.527v-6.5L10 6.34"   stroke-width="1.5" stroke-linecap="round" stroke-linejoin="round"/><path d="m27.863 9.79-11.75 6.675L4.138 9.79M16.113 16.465 16 29.815"  stroke-width="1.5" stroke-linecap="round" stroke-linejoin="round"/></svg><svg fill="none" viewBox="0 0 20 20" id="calendar" xmlns="http://www.w3.org/2000/svg"><path d="M16.25 3.125H3.75a.625.625 0 0 0-.625.625v12.5c0 .345.28.625.625.625h12.5c.345 0 .625-.28.625-.625V3.75a.625.625 0 0 0-.625-.625ZM13.75 1.875v2.5M6.25 1.875v2.5M3.125 6.875h13.75"   stroke-width="1.5" stroke-linecap="round" stroke-linejoin="round"/></svg><svg fill="none" viewBox="0 0 32 32" id="danger" xmlns="http://www.w3.org/2000/svg"><path d="M16 28c6.627 0 12-5.373 12-12S22.627 4 16 4 4 9.373 4 16s5.373 12 12 12ZM16 10v7"   stroke-width="1.5" stroke-linecap="round" stroke-linejoin="round"/><path d="M16 22.75a1.25 1.25 0 1 0 0-2.5 1.25 1.25 0 0 0 0 2.5Z" fill="#842029"/></svg><svg viewBox="0 0 10 7" id="down-arrow" xmlns="http://www.w3.org/2000/svg"><path d="M7.918.995 4.615 4.297 1.313.995A.77.77 0 0 0 .225 2.082l3.847 3.846c.3.3.787.3 1.087 0l3.846-3.846A.77.77 0 1 0 7.918.995Z" fill="#67748E" fill-rule="nonzero"/></svg><svg viewBox="0 0 10 7" id="down-arrow-dark" xmlns="http://www.w3.org/2000/svg"><path d="M7.918.995 4.615 4.297 1.313.995A.77.77 0 0 0 .225 2.082l3.847 3.846c.3.3.787.3 1.087 0l3.846-3.846A.77.77 0 1 0 7.918.995Z" fill="#252f40" fill-rule="nonzero"/></svg><svg viewBox="0 0 10 7" id="down-arrow-white" xmlns="http://www.w3.org/2000/svg"><path d="M7.918.995 4.615 4.297 1.313.995A.77.77 0 0 0 .225 2.082l3.847 3.846c.3.3.787.3 1.087 0l3.846-3.846A.77.77 0 1 0 7.918.995z" fill="#fff"/></svg><svg fill="none" viewBox="0 0 20 20" id="download" xmlns="http://www.w3.org/2000/svg"><path d="M6.719 6.406 10 3.125l3.281 3.281M10 11.875v-8.75M16.875 11.875v4.375a.624.624 0 0 1-.625.625H3.75a.625.625 0 0 1-.625-.625v-4.375"   stroke-linecap="round" stroke-linejoin="round"/></svg><svg fill="none" viewBox="0 0 20 20" id="edit" xmlns="http://www.w3.org/2000/svg"><path d="M7.242 16.875H3.75a.625.625 0 0 1-.625-.625v-3.492a.617.617 0 0 1 .18-.438l9.375-9.375a.625.625 0 0 1 .89 0l3.485 3.485a.627.627 0 0 1 0 .89L7.68 16.695a.618.618 0 0 1-.438.18v0ZM10.625 5 15 9.375"   stroke-linecap="round" stroke-linejoin="round"/></svg><svg fill="none" viewBox="0 0 16 16" id="edit-gray" xmlns="http://www.w3.org/2000/svg"><path d="M5.794 13.5H3a.5.5 0 0 1-.5-.5v-2.794a.494.494 0 0 1 .144-.35l7.5-7.5a.5.5 0 0 1 .712 0l2.788 2.788a.5.5 0 0 1 0 .712l-7.5 7.5a.492.492 0 0 1-.35.144v0ZM8.5 4 12 7.5M10.25 5.75l-6 6M5.969 13.469 2.53 10.03"   stroke-linecap="round" stroke-linejoin="round"/></svg><svg fill="none" viewBox="0 0 16 16" id="edit-remove" xmlns="http://www.w3.org/2000/svg"><path d="M13.5 3.5h-11M6.5 6.5v4M9.5 6.5v4M12.5 3.5V13a.5.5 0 0 1-.5.5H4a.5.5 0 0 1-.5-.5V3.5M10.5 3.5v-1a1 1 0 0 0-1-1h-3a1 1 0 0 0-1 1v1"   stroke-linecap="round" stroke-linejoin="round"/></svg><svg fill="none" viewBox="0 0 20 20" id="filter" xmlns="http://www.w3.org/2000/svg"><path d="M3.289 3.75H16.71a.625.625 0 0 1 .46 1.047l-5.132 5.648a.61.61 0 0 0-.164.422v4.422a.616.616 0 0 1-.281.524l-2.5 1.664a.625.625 0 0 1-.97-.516v-6.094a.61.61 0 0 0-.163-.422L2.828 4.797a.625.625 0 0 1 .46-1.047v0Z"   stroke-width="1.5" stroke-linecap="round" stroke-linejoin="round"/></svg><svg fill="none" viewBox="0 0 33 33" id="globe" xmlns="http://www.w3.org/2000/svg"><path d="M16.5 28.465c6.627 0 12-5.373 12-12 0-6.628-5.373-12-12-12s-12 5.372-12 12c0 6.627 5.373 12 12 12Z"   stroke-width="1.5" stroke-linecap="round" stroke-linejoin="round"/><path d="m6.7 23.39 1.463-.888a1 1 0 0 0 .475-.85l.025-4.512a.962.962 0 0 1 .162-.525l2.475-3.888a1.011 1.011 0 0 1 1.438-.275l2.45 1.775c.211.148.468.214.725.188l3.937-.538a.975.975 0 0 0 .613-.337l2.775-3.2c.164-.195.25-.445.237-.7l-.137-3.038M23.888 25.927l-1.35-1.35a1.025 1.025 0 0 0-.45-.262l-2.688-.7a1 1 0 0 1-.725-1.113l.288-2.025a1.024 1.024 0 0 1 .612-.775l3.8-1.587a1 1 0 0 1 1.063.187l3.112 2.85"   stroke-width="1.5" stroke-linecap="round" stroke-linejoin="round"/></svg><svg fill="none" viewBox="0 0 20 20" id="key" xmlns="http://www.w3.org/2000/svg"><path d="M17.101 5.547a4.992 4.992 0 0 1-7.015 6.328v0l-4.383 5.078a1.878 1.878 0 1 1-2.656-2.656l5.078-4.383a4.992 4.992 0 0 1 6.328-7.016l-3.281 3.274.445 2.21 2.211.446 3.273-3.281Z"   stroke-width="1.5" stroke-linecap="round" stroke-linejoin="round"/></svg><svg fill="none" viewBox="0 0 33 33" id="key-gray" xmlns="http://www.w3.org/2000/svg"><path d="M27.862 9.375A7.987 7.987 0 0 1 16.637 19.5v0l-7.012 8.125a3.005 3.005 0 1 1-4.25-4.25l8.125-7.012A7.988 7.988 0 0 1 23.625 5.138l-5.25 5.237.712 3.538 3.538.712 5.237-5.25Z"   stroke-width="1.5" stroke-linecap="round" stroke-linejoin="round"/></svg><svg fill="none" viewBox="0 0 20 20" id="lk-btn-user" xmlns="http://www.w3.org/2000/svg"><path d="M10 17.5a7.5 7.5 0 1 0 0-15 7.5 7.5 0 0 0 0 15Z"   stroke-width="1.5" stroke-linecap="round" stroke-linejoin="round"/><path d="M10 12.5a3.125 3.125 0 1 0 0-6.25 3.125 3.125 0 0 0 0 6.25Z"   stroke-width="1.5" stroke-linecap="round" stroke-linejoin="round"/><path d="M4.984 15.578a5.625 5.625 0 0 1 10.032 0"   stroke-width="1.5" stroke-linecap="round" stroke-linejoin="round"/></svg><svg fill="none" viewBox="0 0 111 24" id="logo_carbota" xmlns="http://www.w3.org/2000/svg"><g clip-path="url(#ata)" fill-rule="evenodd" clip-rule="evenodd" fill="#fff"><path d="M70.693 13.616a2.615 2.615 0 0 0-.634-1.467c-.43-.484-1.294-1.028-2.883-1.025h-1.121c-2.047 0-3.373-.063-4.641.503-1.688.752-3.154 2.194-2.978 4.23.07.781.522 1.52 1.199 1.91.693.398 1.597.584 2.391.584h1.18c2.046 0 3.247.062 4.515-.503 1.025-.457 1.998-1.174 2.55-2.181.337-.614.497-1.35.42-2.049l.002-.002Zm-4.2 1.372a2.458 2.458 0 0 1-1.099.898c-.647.27-1.34.317-2.03.317h-1.086s.005-.293.005-.38c-.008-.678.104-.984.358-1.347.568-.812 1.474-1.104 2.419-1.18.26-.021.521-.045.783-.045h.947s-.002.657-.016.911c-.013.295-.12.577-.278.823l-.003.003ZM56.017 11.394c-.679-.187-1.39-.184-2.073-.176h-1.348l-.952 2.179h2.124c-.41 1.385-1.156 2.186-2.36 2.49-1.131.283-2.107.17-2.107.17l4.033-9.674h-4.082s-3.34 7.885-3.712 8.886c-.717 1.924.955 2.89 2.64 2.996 1.34.084 1.142.084 2.287.084 3.876 0 7.343-2.69 7.37-4.836.013-1.096-.73-1.824-1.817-2.121l-.003.002ZM86.238 17.856c.337.27.687.403 1.078.403h2l2.924-7.008a32.943 32.943 0 0 0-1.837-.081 5.113 5.113 0 0 0-3.013.966l-4.033 2.676.99-2.268c.077-.181.457-1.05.572-1.318-.321 0-1.466 0-1.846-.005-1.22 0-2.18.29-3.119.936l-3.91 2.522 1.47-3.45h-4.07l-3.04 7.033h3.446l5.492-4.059-1.103 2.454c-.123.26-.184.506-.187.734 0 .257.078.468.23.625.254.26.73.39 1.413.39.746 0 1.663-.371 2.725-1.107l4.403-3.077s-.95 2.202-1.032 2.43c-.03.105-.046.208-.046.308 0 .336.155.63.482.896h.01ZM29.594 18.248l3.068-7.027h-5.78c-2.047 0-3.56-.062-4.826.503-1.683.753-3.143 2.195-2.953 4.23.05.546.313 1.093.668 1.507.575.666 1.758.988 2.62.988 1.31 0 3.054-.477 3.854-1.513-.113.514.208.933.575 1.131.415.222.925.187 1.634.187h1.14v-.006Zm-3.108-2.189c-2.068.642-3.173.257-3.411-.292-.185-.425-.035-.825.217-1.188.601-.871 1.516-1.207 3.164-1.207h1.196l-1.166 2.69v-.003ZM41.645 11.232l-3.756 2.952 1.252-2.963h-4.029l-2.982 7.03h4.058l.778-1.502 3.914-3.193-.527 1.22h3.809l1.525-3.544h-4.042ZM20.125 10.48 22.495 5s-4.139 0-4.248.003c-2.119.013-4.572.119-6.822.906-5.213 1.821-6.478 4.882-6.78 6.113-.56 2.276.545 4.687 2.626 5.737 1.843.928 3.954.817 5.401.56 1.894-.336 3.41-.985 4.507-1.932.035-.03.618-.506.666-.674l.212-.782c-1.584.59-2.91.89-4.157.944-.838.035-2.368-.054-3.242-1.074-1.362-1.591-.163-3.975.912-5.103 1.209-1.27 3.475-2.16 6.016-2.417L16.2 10.48h3.925ZM102.932 18.248 106 11.221h-5.781c-2.046 0-3.56-.062-4.825.503-1.683.753-3.143 2.195-2.954 4.23.051.546.314 1.093.67 1.507.574.666 1.757.988 2.618.988 1.31 0 3.055-.477 3.855-1.513-.113.514.208.933.575 1.131.414.222.925.187 1.634.187h1.14v-.006Zm-3.109-2.189c-2.067.642-3.172.257-3.41-.292-.185-.425-.035-.825.216-1.188.602-.871 1.517-1.207 3.165-1.207h1.196l-1.166 2.69v-.003Z"/></g><defs><clipPath id="ata"><path fill="#fff" transform="translate(4.5 5)" d="M0 0h101.5v13.5H0z"/></clipPath></defs></svg><svg viewBox="0 0 105.5 24.743" id="logo_dazzl" xmlns="http://www.w3.org/2000/svg"><path fill="#fff" d="M3.961 1.76h95.51v22.448H3.961z"/><path d="M12.99 12.62V5.29h5.93c6.426 0 7.1.139 8.364 1.716.596.744.65 1.205.65 5.614s-.054 4.87-.65 5.615c-1.265 1.576-1.938 1.715-8.363 1.715H12.99zm8.966 1.466c.484-.474.484-2.458 0-2.932-.205-.201-.976-.366-1.712-.366h-1.339v3.665h1.339c.736 0 1.507-.165 1.712-.367zm7.542.748c.008-5.958.228-7.166 1.533-8.447l.96-.943 12.755-.188v14.693H38.83v-1.864l-1.634.093c-1.525.086-1.641.148-1.733.932l-.099.84H29.49zm9.332-2.977c0-1.056-.016-1.07-1.338-1.07-1.503 0-2.086.402-2.086 1.436 0 .648.133.703 1.712.703h1.712zm9.535 4.199c1.144-2.142 2.198-4.025 2.343-4.184.744-.818.234-1.084-2.071-1.084h-2.335V5.29h7.653c4.21 0 7.607.105 7.55.232-.057.128-1.12 2.104-2.36 4.39-1.242 2.287-2.258 4.243-2.258 4.348 0 .105 1.05.191 2.335.191h2.335v5.497H46.285zM63.21 18.04c2.779-5 3.639-6.639 3.639-6.933 0-.195-.916-.32-2.335-.32H62.18V5.29h7.628c4.195 0 7.627.057 7.627.127s-1.05 2.048-2.335 4.394-2.335 4.35-2.335 4.453c0 .103 1.051.187 2.335.187h2.335v5.497H62.15zm15.78-5.42V5.29h7.145l.086 4.504.086 4.505 5.137.177v5.473H78.992z"/></svg><svg fill="none" viewBox="0 0 97 24" id="logo_polar" xmlns="http://www.w3.org/2000/svg"><path d="M28.441 17.611c1.212-.27 1.812-2.627 1.722-4.958-.156-4.055-1.758-6.373-2.885-6.582-1.338.498-1.716 2.93-1.631 5.123.143 3.766 1.507 6.245 2.794 6.417Zm-8.576-5.747c0-3.6 2.443-6.864 7.923-6.864 5.407 0 7.988 3.263 7.988 6.864s-2.58 6.825-7.988 6.825c-5.106 0-7.923-3.226-7.923-6.825ZM38.784 5.315h5.563v11.55h3.749v1.509h-9.312V5.315ZM55.898 13.636l-1.498-6.6h-.57l-1.497 6.596 3.565.004Zm.306 1.348h-4.177s-.648 2.911-.77 3.387h-1.611l2.962-13.056h7.376l2.926 13.056h-5.939l-.767-3.387ZM82.718 12.682c.303.058 1.508.141 1.508.141s1.139-1.49 1.139-3.443c0-.813 0-3.01-2.647-3.01v6.312ZM77.15 5.315h7.01c1.838 0 4.155-.298 5.63 1.061.822.758 1.152 1.882 1.125 2.977-.049 2.178-1.005 3.453-2.544 4.181l.233.408 2.896 4.43h-5.987l-2.06-4.553-.74-.076v4.628H77.15V5.315ZM72.078 5.315h-5.562v13.056h5.562V5.315ZM10.06 13.513c.335.065 1.5.133 1.5.133s1.125-1.408 1.125-3.873c0-.92 0-3.406-2.627-3.406v7.146h.002Zm1.503-8.198c3.273 0 6.469.29 6.469 3.927 0 4.627-3.045 5.647-6.02 5.647a9.874 9.874 0 0 1-1.95-.177v3.66H4.5V5.314h7.063Z" fill="#fff"/></svg><svg fill="none" viewBox="0 0 20 20" id="mail" xmlns="http://www.w3.org/2000/svg"><path d="M17.5 4.375 10 11.25 2.5 4.375"   stroke-linecap="round" stroke-linejoin="round"/><path d="M2.5 4.375h15V15a.624.624 0 0 1-.625.625H3.125A.625.625 0 0 1 2.5 15V4.375ZM8.633 10l-5.938 5.445M17.305 15.445 11.367 10"   stroke-linecap="round" stroke-linejoin="round"/></svg><svg fill="none" viewBox="0 0 590 333" id="map" xmlns="http://www.w3.org/2000/svg"><g filter="url(#axa)"><path fill-rule="evenodd" clip-rule="evenodd" d="m94.097 99.296-5.15-1.452-14.668 3.375-10.388 6.8 2.17 6.098-7.452 5.286-2.304 8.525-8.84-2.709-4.923 4.001 5.792 4.903-5.43 12.191 7.482 16.748-11.004 5.464-4.983-3.531-12.533 4.288-13.693-1.319L8 185.542l11.08 9.87.526 6.479 5.453 3.259 1.86 15.635 7.895-.236 10.222-18.023 8.995-3.306 10.011 3.494 4.382-16.1 12.901-6.046 2.228 4.533 6.395-1.413 16.9 1.854 8.502 14.035 12.614 2.314 3.709 6.308 14.137.708-4.499-6.963 8.376-1.736 6.521-4.436 36.176 4.196 8.618 3.217-.641 5.348 7.999 6.834 15.044-.449 7.284 21.266 10.696 2.549 10.413.871 4.959 5.774 13.334 6.587 23.782-8.014 11.911 1.034 2.85 3.203 20.125.557-3.742-5.943 7.035-6.324 13.931 3.934 10.927 5.482 7.727-4.053 14.802.923 6.923 3.138 14.536-1.141 12.177-9.186 21.927-1.144 3.114-17.519-6.371-3.732 12.114-7.065 13.407-2.453 23.101 14.214 6.518-2.212 10.36-.115 4.428 4.208 6.443-.014 11.13-10.853 7.097 19.435-7.573 2.075-1.642 5.51 6.84 5.127.5 5.238 5.078.26.218-5.338 12.411-3.165 3.545-16.08-4.755-30.402-10.56-7.398 5.776-2.908 23.812 18.119 2.217-3.434 5.438-1.483-9.598-1.841-8.113-8.631-1.359-4.907-30.2-16.804-2.086 7.912-11.245-1.519-2.362 6.639-14.181 2.101-.633-36.253 15.194-10.133 2.365-6.638 7.204.481 5.952-7.283-10.868-12.988 2.619-7.112 7.526 2.626 3.174-2.188-3.244-5.403 7.716-.371 9.498 25.24 6.558 5.779 21.482 9.206L582 135.678l-13.261-22.029-9.172-8.895-17.171-5.233-7.844-6.74 3.595-8.266-2.115-5.348 5.751-3.015-14.958-22.342 5.29-3.097-1.224-4.284-15.762 1.85-3.851-6.264-9.49-2.136 11.448-6.674 5.533-6.949L505.676 18l-8.432 11.236-24.247 14.017-6.094 14.98-4.567 15.9-6.899 2.473-4.104-4.02-8.244 1.85-2.478 8.633-13.859 1.075-15.109 4.6-5.834-5.953-4.939-4.503 8.462-2.175-1.454-4.478-12.936 5.099-11.014 4.013 3.542 5.892 13.184-2.445 1.383 4.266 5.195 3.768 5.934 5.68-19.667 11.744-8.352-5.984-12.66 1.963-19.334 4.663-7.32-.707-2.99-3.763 1.951-6.918-6.587-3.78-4.935.258-7.47-5.424 1.515-4.705-8.064-3.337-4.329-4.728-2.411-6.331-6.797 3.254 2.498 5.371-.668 4.21 10.248 3.096 4.034 10.473-30.186 9.173 1.059 5.316-13.905 1.721-1.671 5.125-5.653-.086-6.093 1.354-8.212-3.215-3.464-8.163-13.86 7.94-3.431 8.983-5.749.861-5.87-7.697-8.636.582-16.177-5.278-21.468-2.34-6.779-3.784-6.879 1.142-9.041-2.153-8.247 1.097-7.059-3.536-5.498 1.497 2.908-9.326 9.921-8.338 6.619 13.754 12.964-2.825-2.653-17.825 1.997-4.616-13.431-.966-36.87 20.796-18.647-1.337-3.72 4.177ZM228.293 81.65l-36.04 13.282 4.327 8.163 8.621.254 5.701-10.118 17.079-5.714 16.425-.188 4.256-5.138-20.369-.541Z" fill="#FCFDFF"/><path d="m88.947 97.844.136-.481-.123-.035-.125.029.112.487Zm5.15 1.452-.136.48.301.086.208-.234-.373-.332Zm-19.818 1.923-.112-.487-.087.02-.075.049.274.418Zm-10.388 6.8-.274-.419-.329.216.132.37.47-.167Zm2.17 6.098.29.408.308-.219-.127-.356-.47.167Zm-7.452 5.286-.29-.408-.146.104-.047.173.483.131Zm-2.304 8.525-.146.478.494.152.135-.499-.483-.131Zm-8.84-2.709.146-.478-.254-.079-.207.169.315.388Zm-4.923 4.001-.316-.388-.468.38.46.39.324-.382Zm5.792 4.903.457.204.153-.343-.287-.242-.322.381Zm-5.43 12.191-.457-.203-.09.204.09.203.457-.204Zm7.482 16.748.222.447.43-.213-.196-.438-.456.204Zm-11.004 5.464-.288.408.243.173.268-.133-.222-.448Zm-4.983-3.531.289-.408-.209-.147-.242.082.162.473Zm-12.533 4.288-.048.498.107.01.102-.035-.161-.473Zm-13.693-1.319.048-.498-.543-.052-.005.545.5.005ZM8 185.542l-.5-.005-.002.227.17.151.332-.373Zm11.08 9.87.498-.04-.016-.2-.15-.133-.332.373Zm.526 6.479-.499.04.021.257.221.132.257-.429Zm5.453 3.259.496-.059-.029-.244-.21-.126-.257.429Zm1.86 15.635-.496.059.054.454.457-.013-.015-.5Zm7.895-.236.015.5.28-.009.14-.244-.435-.247Zm10.222-18.023-.173-.469-.172.063-.09.159.435.247Zm8.995-3.306.165-.472-.17-.059-.167.062.172.469Zm10.011 3.494-.165.472.507.177.14-.518-.482-.131Zm4.382-16.1-.212-.452-.21.098-.06.223.482.131Zm12.901-6.046.449-.221-.216-.44-.445.208.212.453Zm2.228 4.533-.449.221.174.352.383-.084-.108-.489Zm6.395-1.413.054-.497-.082-.009-.08.018.108.488Zm16.9 1.854.428-.259-.128-.211-.245-.027-.055.497Zm8.502 14.035-.427.259.116.192.221.041.09-.492Zm12.614 2.314.431-.253-.116-.198-.225-.041-.09.492Zm3.709 6.308-.431.254.137.232.27.014.024-.5Zm14.137.708-.025.499.975.049-.53-.82-.42.272Zm-4.499-6.963-.101-.489-.714.148.396.613.419-.272Zm8.376-1.736.102.489.097-.02.082-.056-.281-.413Zm6.521-4.436.057-.497-.185-.021-.154.105.282.413Zm36.176 4.196.175-.469-.057-.021-.061-.007-.057.497Zm8.618 3.217.496.059.047-.39-.369-.138-.174.469Zm-.641 5.348-.496-.06-.032.266.203.174.325-.38Zm7.999 6.834-.325.38.147.125.193-.005-.015-.5Zm15.044-.449.473-.162-.119-.349-.369.011.015.5Zm7.284 21.266-.473.162.09.261.268.064.115-.487Zm10.696 2.549-.116.486.036.009.038.003.042-.498Zm10.413.871.379-.326-.133-.155-.205-.017-.041.498Zm4.959 5.774-.38.326.067.077.091.045.222-.448Zm13.334 6.587-.222.448.186.092.196-.066-.16-.474Zm23.782-8.014.043-.498-.104-.009-.099.033.16.474Zm11.911 1.034.373-.333-.132-.148-.198-.018-.043.499Zm2.85 3.203-.373.333.143.161.216.006.014-.5Zm20.125.557-.014.499.936.026-.499-.792-.423.267Zm-3.742-5.943-.334-.372-.313.282.224.356.423-.266Zm7.035-6.324.136-.481-.265-.075-.205.184.334.372Zm13.931 3.934.224-.447-.042-.022-.046-.013-.136.482Zm10.927 5.482-.224.447.229.115.228-.119-.233-.443Zm7.727-4.053.031-.499-.14-.009-.124.065.233.443Zm14.802.923.207-.456-.084-.038-.091-.005-.032.499Zm6.923 3.138-.207.455.118.053.128-.01-.039-.498Zm14.536-1.141.039.498.146-.011.116-.088-.301-.399Zm12.177-9.186-.026-.5-.153.008-.123.092.302.4Zm21.927-1.144.026.499.397-.021.069-.391-.492-.087Zm3.114-17.519.492.088.061-.343-.3-.176-.253.431Zm-6.371-3.732-.252-.432-.739.431.738.432.253-.431Zm12.114-7.065-.09-.492-.087.016-.075.044.252.432Zm13.407-2.453.262-.426-.164-.1-.188.034.09.492Zm23.101 14.214-.262.426.201.123.222-.075-.161-.474Zm6.518-2.212-.006-.5-.08.001-.075.026.161.473Zm10.36-.115.344-.362-.147-.14-.203.002.006.5Zm4.428 4.208-.344.362.145.138h.2l-.001-.5Zm6.443-.014.001.5.203-.001.145-.141-.349-.358Zm11.13-10.853.47-.172-.265-.726-.554.54.349.358Zm7.097 19.435.132.482.524-.143-.186-.511-.47.172Zm-7.573 2.075-.132-.482-.268.074-.079.266.479.142Zm-1.642 5.51-.479-.143-.099.334.278.209.3-.4Zm6.84 5.127.498-.047-.021-.22-.177-.133-.3.4Zm.5 5.238-.498.048.041.429.431.022.026-.499Zm5.078.26-.025.5.504.025.021-.504-.5-.021Zm.218-5.338-.124-.485-.361.092-.015.373.5.02Zm12.411-3.165.123.485.299-.076.066-.301-.488-.108Zm3.545-16.08.488.107.02-.092-.014-.093-.494.078Zm-4.755-30.402.494-.077-.033-.211-.174-.122-.287.41Zm-10.56-7.398-.225-.447-.747.376.685.48.287-.409Zm5.776-2.908.303-.398-.249-.189-.279.14.225.447Zm23.812 18.119-.302.398.43.327.293-.454-.421-.271Zm2.217-3.434-.131-.483-.185.051-.104.16.42.272Zm5.438-1.483.132.483-.038-.974-.094.491Zm-9.598-1.841-.365.342.111.118.16.031.094-.491Zm-8.113-8.631-.482.133.033.119.084.09.365-.342Zm-1.359-4.907.482-.134-.056-.202-.183-.101-.243.437Zm-30.2-16.804.243-.437-.563-.313-.164.623.484.127Zm-2.086 7.912-.067.495.438.06.113-.428-.484-.127Zm-11.245-1.519.067-.496-.402-.054-.136.382.471.168Zm-2.362 6.639.073.494.297-.044.101-.283-.471-.167Zm-14.181 2.101-.5.008.01.57.563-.084-.073-.494Zm-.633-36.253-.278-.416-.227.152.005.273.5-.009Zm15.194-10.133.278.416.138-.092.055-.156-.471-.168Zm2.365-6.638.033-.499-.377-.026-.127.357.471.168Zm7.204.481-.033.499.257.017.163-.2-.387-.316Zm5.952-7.283.388.316.261-.32-.265-.317-.384.321Zm-10.868-12.988-.469-.172-.1.271.186.222.383-.321Zm2.619-7.112.165-.472-.464-.162-.17.462.469.172Zm7.526 2.626-.165.473.24.083.209-.144-.284-.412Zm3.174-2.188.284.412.387-.267-.242-.402-.429.257Zm-3.244-5.403-.024-.5-.835.04.43.718.429-.258Zm7.716-.371.468-.176-.128-.34-.364.017.024.499Zm9.498 25.24-.468.176.044.117.094.082.33-.375Zm6.558 5.779-.33.375.06.053.073.032.197-.46Zm21.482 9.206-.197.46.053.023.057.01.087-.493ZM582 135.678l-.086.492 1.08.19-.566-.94-.428.258Zm-13.261-22.029.428-.258-.033-.055-.047-.046-.348.359Zm-9.172-8.895.348-.359-.087-.085-.115-.035-.146.479Zm-17.171-5.233-.326.38.08.068.101.03.145-.478Zm-7.844-6.74-.458-.2-.147.34.28.24.325-.38Zm3.595-8.266.458.2.083-.19-.076-.194-.465.184Zm-2.115-5.348-.232-.443-.398.209.165.418.465-.184Zm5.751-3.015.232.443.493-.259-.31-.462-.415.278ZM526.825 53.81l-.253-.431-.458.268.296.442.415-.279Zm5.29-3.097.253.431.335-.196-.107-.373-.481.138Zm-1.224-4.284.481-.137-.117-.409-.422.05.058.496Zm-15.762 1.85-.426.262.168.272.317-.038-.059-.496Zm-3.851-6.264.426-.262-.11-.18-.206-.046-.11.488Zm-9.49-2.136-.251-.432-1.099.64 1.241.28.109-.488Zm11.448-6.674.252.432.081-.047.059-.073-.392-.312Zm5.533-6.949.391.311.348-.436-.473-.298-.266.423ZM505.676 18l.267-.423-.39-.246-.277.369.4.3Zm-8.432 11.236.25.433.089-.051.061-.082-.4-.3Zm-24.247 14.017-.25-.433-.148.086-.065.158.463.189Zm-6.094 14.98-.463-.189-.01.025-.008.025.481.139Zm-4.567 15.9.169.472.241-.087.071-.246-.481-.138Zm-6.899 2.473-.35.357.224.22.295-.106-.169-.47Zm-4.104-4.02.35-.356-.194-.19-.265.059.109.488Zm-8.244 1.85-.11-.487-.289.065-.082.285.481.138Zm-2.478 8.633.038.498.346-.026.096-.334-.48-.138Zm-13.859 1.075-.039-.498-.054.004-.053.016.146.478Zm-15.109 4.6-.357.35.213.217.29-.088-.146-.478Zm-5.834-5.953.357-.35-.01-.01-.01-.01-.337.37Zm-4.939-4.503-.124-.484-.896.23.683.624.337-.37Zm8.462-2.175.124.484.516-.132-.164-.507-.476.155Zm-1.454-4.478.476-.154-.164-.506-.495.195.183.465Zm-12.936 5.099.171.47.012-.005-.183-.465Zm-11.014 4.013-.172-.47-.569.208.312.52.429-.258Zm3.542 5.892-.429.258.179.297.341-.063-.091-.492Zm13.184-2.445.475-.154-.135-.418-.431.08.091.492Zm1.383 4.266-.475.155.05.154.132.096.293-.405Zm5.195 3.768.346-.36-.025-.024-.028-.02-.293.404Zm5.934 5.68.257.43.563-.337-.474-.454-.346.361Zm-19.667 11.744-.292.407.267.191.281-.168-.256-.43Zm-8.352-5.984.291-.407-.166-.118-.202.031.077.494Zm-12.66 1.963-.076-.495-.021.004-.02.005.117.486Zm-19.334 4.663-.048.497.084.008.082-.019-.118-.486Zm-7.32-.707-.391.311.132.167.211.02.048-.498Zm-2.99-3.763-.481-.136-.07.246.16.201.391-.311Zm1.951-6.918.481.136.106-.376-.338-.194-.249.434Zm-6.587-3.78.249-.434-.128-.074-.147.008.026.5Zm-4.935.258-.294.405.144.104.176-.01-.026-.499Zm-7.47-5.424-.476-.154-.111.345.293.213.294-.404Zm1.515-4.705.476.154.142-.44-.427-.176-.191.462Zm-8.064-3.337-.369.338.075.082.103.042.191-.462Zm-4.329-4.728-.467.178.034.089.064.07.369-.337Zm-2.411-6.331.467-.178-.193-.508-.49.235.216.45Zm-6.797 3.254-.216-.45-.446.213.209.448.453-.21Zm2.498 5.371.493.079.024-.151-.064-.139-.453.211Zm-.668 4.21-.494-.079-.068.43.417.127.145-.479Zm10.248 3.096.467-.18-.088-.228-.234-.07-.145.478Zm4.034 10.473.146.478.514-.156-.193-.502-.467.18Zm-30.186 9.173-.145-.478-.434.131.089.445.49-.098Zm1.059 5.316.061.496.534-.066-.105-.528-.49.098Zm-13.905 1.721-.062-.496-.315.039-.099.302.476.155Zm-1.671 5.125-.007.5.368.006.115-.351-.476-.155Zm-5.653-.086.007-.499-.058-.001-.058.012.109.488Zm-6.093 1.354-.183.466.142.056.149-.033-.108-.489Zm-8.212-3.215-.46.195.082.194.196.077.182-.466Zm-3.464-8.163.46-.195-.22-.519-.489.28.249.434Zm-13.86 7.94-.248-.434-.155.089-.064.167.467.178Zm-3.431 8.983.074.494.288-.043.105-.273-.467-.178Zm-5.749.861-.397.303.179.235.292-.043-.074-.495Zm-5.87-7.697.398-.303-.163-.214-.269.018.034.499Zm-8.636.582-.155.476.092.03.096-.007-.033-.499Zm-16.177-5.278.155-.475-.049-.016-.052-.006-.054.497Zm-21.468-2.34-.243.437.088.049.101.011.054-.497Zm-6.779-3.784.243-.437-.152-.085-.173.029.082.493Zm-6.879 1.142-.116.486.098.023.1-.016-.082-.493Zm-9.041-2.153.116-.487-.09-.021-.092.012.066.496Zm-8.247 1.097-.224.447.138.069.152-.02-.066-.496Zm-7.059-3.536.224-.447-.171-.086-.184.05.131.483Zm-5.498 1.497-.478-.149-.271.871.88-.239-.131-.483Zm2.908-9.326-.321-.383-.112.094-.044.14.477.149Zm9.921-8.338.45-.217-.279-.58-.493.415.322.382Zm6.619 13.754-.451.217.172.356.385-.084-.106-.489Zm12.964-2.825.106.489.457-.1-.068-.463-.495.074Zm-2.653-17.825-.458-.199-.057.131.021.141.494-.073Zm1.997-4.616.459.199.279-.647-.702-.05-.036.498Zm-13.431-.966.036-.499-.15-.01-.132.074.246.435Zm-36.87 20.796-.036.5.15.01.131-.074-.245-.436ZM97.817 95.12l.036-.498-.245-.018-.164.184.373.332Zm94.436-.187-.172-.469-.537.198.268.505.441-.234Zm36.04-13.282.013-.5-.096-.003-.09.034.173.469Zm-31.713 21.445-.442.234.136.257.291.008.015-.499Zm8.621.254-.015.499.302.009.148-.263-.435-.245Zm5.701-10.118-.159-.474-.182.061-.095.168.436.245Zm17.079-5.714-.006-.5h-.079l-.074.026.159.474Zm16.425-.188.006.5.231-.003.148-.178-.385-.32Zm4.256-5.138.385.32.655-.792-1.027-.027-.013.5ZM88.812 98.325l5.149 1.452.271-.963-5.15-1.451-.27.962Zm-14.42 3.381 14.667-3.375-.224-.974-14.668 3.375.224.974Zm-10.227 6.731 10.388-6.8-.548-.836-10.388 6.799.548.837Zm2.367 5.513-2.17-6.099-.942.335 2.17 6.099.942-.335Zm-7.634 5.861 7.452-5.286-.578-.815-7.452 5.285.578.816Zm-2.11 8.248 2.304-8.526-.966-.261-2.303 8.526.965.261Zm-9.47-2.362 8.84 2.709.294-.956-8.84-2.709-.294.956Zm-4.461 3.911 4.923-4.001-.63-.776-4.924 4.001.63.776Zm5.8 4.134-5.792-4.904-.646.764 5.792 4.903.646-.763Zm-5.296 12.776 5.43-12.191-.913-.407-5.43 12.191.913.407Zm7.481 16.34-7.481-16.748-.913.408 7.481 16.748.913-.408Zm-11.237 6.116 11.003-5.465-.445-.895-11.003 5.465.445.895Zm-5.495-3.571 4.983 3.531.579-.815-4.984-3.532-.578.816Zm-12.082 4.353 12.533-4.287-.324-.947-12.533 4.288.323.946Zm-13.903-1.295 13.693 1.32.096-.996-13.693-1.319-.096.995Zm.375 17.086.173-17.578-1-.01-.173 17.578 1 .01Zm10.912 9.492-11.08-9.871-.665.747 11.08 9.871.665-.747Zm.692 6.811-.526-6.478-.997.081.526 6.478.997-.081Zm5.211 2.871-5.453-3.259-.513.858 5.453 3.259.513-.858Zm2.1 16.005-1.86-15.635-.993.118 1.86 15.635.994-.118Zm7.384-.677-7.895.236.03 1 7.895-.236-.03-1Zm9.802-17.77-10.222 18.023.87.494 10.221-18.023-.87-.494Zm9.258-3.528-8.996 3.306.345.938 8.996-3.305-.345-.939Zm10.348 3.491-10.011-3.494-.33.945 10.011 3.493.33-.944Zm3.734-15.759-4.381 16.1.965.262 4.381-16.099-.965-.263Zm13.172-6.368-12.901 6.047.424.905 12.901-6.046-.424-.906Zm2.889 4.766-2.228-4.534-.898.442 2.228 4.533.898-.441Zm5.838-1.681-6.395 1.413.216.977 6.395-1.414-.216-.976Zm17.063 1.845-16.9-1.854-.11.994 16.901 1.854.109-.994Zm8.875 14.273-8.502-14.035-.855.518 8.502 14.035.855-.518Zm12.276 2.081-12.614-2.314-.18.984 12.614 2.314.18-.984Zm4.051 6.547-3.71-6.308-.862.506 3.709 6.309.863-.507Zm13.73.461-14.137-.707-.049.999 14.136.707.05-.999Zm-4.943-6.191 4.498 6.962.84-.543-4.499-6.962-.839.543Zm8.694-2.498-8.376 1.737.203.979 8.376-1.737-.203-.979Zm6.34-4.359-6.52 4.435.562.827 6.521-4.436-.563-.826Zm36.515 4.112-36.176-4.196-.115.994 36.176 4.195.115-.993Zm8.735 3.245-8.617-3.217-.35.937 8.618 3.217.349-.937Zm-.319 5.876.641-5.348-.993-.119-.64 5.348.992.119Zm7.828 6.395-7.999-6.834-.65.76 7.999 6.834.65-.76Zm14.704-.569-15.044.449.03 1 15.044-.45-.03-.999Zm7.772 21.604-7.284-21.266-.946.324 7.284 21.266.946-.324Zm10.338 2.224-10.695-2.548-.231.973 10.695 2.548.231-.973Zm10.339.86-10.413-.872-.083.997 10.413.871.083-.996Zm5.297 5.946-4.959-5.774-.759.652 4.959 5.774.759-.652Zm13.176 6.465-13.334-6.588-.443.897 13.334 6.587.443-.896Zm23.401-8.04-23.782 8.014.32.948 23.782-8.014-.32-.948Zm12.114 1.009-11.911-1.033-.086.996 11.91 1.034.087-.997Zm3.181 3.37-2.851-3.204-.747.665 2.851 3.204.747-.665Zm19.765.389-20.125-.556-.028.999 20.125.556.028-.999Zm-4.179-5.177 3.742 5.943.846-.533-3.741-5.943-.847.533Zm7.124-6.962-7.035 6.324.669.744 7.034-6.324-.668-.744Zm14.401 3.824-13.931-3.933-.272.962 13.931 3.934.272-.963Zm11.015 5.517-10.927-5.482-.448.894 10.927 5.482.448-.894Zm7.27-4.049-7.726 4.053.465.886 7.726-4.054-.465-.885Zm15.067.867-14.803-.923-.062.998 14.802.923.063-.998Zm7.097 3.181-6.922-3.138-.413.911 6.922 3.138.413-.911Zm14.291-1.184-14.536 1.141.078.997 14.536-1.141-.078-.997Zm11.914-9.087-12.176 9.186.602.799 12.177-9.186-.603-.799Zm22.203-1.244-21.927 1.144.052.999 21.927-1.144-.052-.999Zm2.648-17.106-3.114 17.518.984.175L438.607 217l-.984-.175Zm-6.132-3.214 6.371 3.733.506-.863-6.372-3.733-.505.863Zm12.115-7.928-12.114 7.065.504.864 12.114-7.065-.504-.864Zm13.569-2.513-13.407 2.453.18.984 13.407-2.453-.18-.984Zm23.453 14.28-23.101-14.214-.524.852 23.101 14.214.524-.852Zm6.095-2.259-6.517 2.212.321.947 6.517-2.212-.321-.947Zm10.515-.142-10.36.115.011 1 10.361-.115-.012-1Zm4.779 4.345-4.429-4.207-.688.725 4.428 4.207.689-.725Zm6.097-.151-6.443.014.002 1 6.443-.014-.002-1Zm10.782-10.711-11.13 10.853.698.716 11.131-10.853-.699-.716Zm7.916 19.621-7.097-19.435-.939.343 7.096 19.435.94-.343Zm-7.911 2.73 7.573-2.076-.264-.964-7.573 2.075.264.965Zm-1.295 5.169 1.642-5.509-.958-.285-1.642 5.509.958.285Zm6.661 4.585-6.84-5.127-.6.8 6.84 5.127.6-.8Zm.697 5.591-.499-5.238-.996.094.5 5.239.995-.095Zm4.607-.192-5.079-.26-.051.998 5.079.261.051-.999Zm-.308-4.859-.217 5.338.999.041.217-5.339-.999-.04Zm12.787-3.629-12.411 3.164.247.969 12.411-3.164-.247-.969Zm3.181-15.704-3.546 16.081.977.215 3.545-16.081-.976-.215Zm-4.761-30.217 4.755 30.402.988-.155-4.755-30.401-.988.154Zm-10.353-7.066 10.56 7.398.574-.819-10.56-7.398-.574.819Zm5.838-3.764-5.776 2.908.45.893 5.776-2.908-.45-.893Zm24.34 18.168-23.812-18.119-.606.796 23.813 18.119.605-.796Zm1.494-3.308-2.217 3.435.841.542 2.216-3.434-.84-.543Zm5.726-1.693-5.437 1.482.263.965 5.438-1.482-.264-.965Zm-9.56-.868 9.598 1.841.188-.982-9.598-1.841-.188.982Zm-8.384-8.78 8.113 8.631.729-.685-8.113-8.631-.729.685Zm-1.476-5.116 1.359 4.907.964-.267-1.359-4.907-.964.267Zm-29.961-16.5 30.2 16.803.486-.873-30.2-16.804-.486.874Zm-1.359 7.602 2.085-7.911-.967-.255-2.085 7.912.967.254Zm-11.796-1.151 11.245 1.519.134-.991-11.245-1.519-.134.991Zm-1.824 6.311 2.362-6.639-.942-.335-2.362 6.639.942.335Zm-14.579 2.428 14.181-2.101-.146-.989-14.181 2.101.146.989Zm-1.206-36.738.633 36.252 1-.017-.633-36.252-1 .017Zm15.417-10.558-15.195 10.133.555.832 15.195-10.133-.555-.832Zm2.171-6.39-2.365 6.638.942.336 2.365-6.639-.942-.335Zm7.709.15-7.205-.481-.066.997 7.204.482.067-.998Zm5.531-7.101-5.952 7.283.774.633 5.953-7.283-.775-.633Zm-10.864-12.35 10.868 12.988.767-.642-10.868-12.987-.767.641Zm2.533-7.605-2.619 7.112.938.345 2.619-7.112-.938-.345Zm8.16 2.326-7.526-2.626-.33.944 7.526 2.627.33-.945Zm2.726-2.127-3.175 2.188.568.823 3.174-2.188-.567-.823Zm-3.39-4.734 3.245 5.403.857-.515-3.244-5.403-.858.515Zm8.121-1.128-7.716.37.048 1 7.716-.372-.048-.998Zm9.99 25.563-9.498-25.24-.936.352 9.498 25.24.936-.352Zm6.421 5.58-6.558-5.779-.661.75 6.558 5.779.661-.75Zm21.348 9.122-21.482-9.206-.394.919 21.482 9.206.394-.919Zm18.843 3.285-18.954-3.318-.173.985 18.955 3.318.172-.985Zm-13.776-21.278 13.262 22.029.856-.516-13.261-22.029-.857.516Zm-9.091-8.795 9.172 8.896.696-.718-9.172-8.895-.696.717ZM542.251 100l17.17 5.232.292-.957-17.171-5.232-.291.957Zm-8.024-6.84 7.843 6.74.652-.758-7.844-6.74-.651.758Zm3.461-8.844-3.594 8.266.917.399 3.594-8.267-.917-.398Zm-2.121-4.965 2.115 5.348.93-.368-2.115-5.348-.93.368Zm5.984-3.642-5.751 3.015.465.886 5.75-3.015-.464-.886ZM526.41 54.09l14.957 22.341.831-.556-14.958-22.342-.83.557Zm5.453-3.808-5.291 3.098.506.863 5.29-3.098-.505-.863Zm-1.453-3.714 1.225 4.283.961-.275-1.224-4.283-.962.275Zm-15.222 2.208 15.761-1.849-.116-.993-15.762 1.85.117.992Zm-4.335-6.498 3.85 6.264.852-.524-3.851-6.264-.851.524Zm-9.174-1.91 9.49 2.136.219-.976-9.49-2.136-.219.976Zm11.306-7.594-11.448 6.674.503.864 11.448-6.674-.503-.864Zm5.393-6.829-5.533 6.95.783.623 5.532-6.95-.782-.622Zm-12.969-7.521 13.093 8.256.533-.846-13.092-8.256-.534.846Zm-7.765 11.113 8.432-11.236-.8-.6-8.432 11.236.8.6Zm-24.397 14.15 24.247-14.017-.5-.866-24.247 14.017.5.866Zm-5.881 14.735 6.094-14.98-.926-.377-6.094 14.98.926.377Zm-4.549 15.85 4.566-15.9-.961-.277-4.566 15.902.961.276Zm-7.211 2.806 6.899-2.472-.337-.942-6.9 2.472.338.942Zm-4.623-4.133 4.104 4.02.7-.715-4.104-4.02-.7.715Zm-7.785 1.98 8.245-1.85-.219-.975-8.245 1.85.219.976Zm-2.107 8.283 2.478-8.632-.961-.276-2.478 8.632.961.276Zm-14.3 1.436 13.858-1.076-.077-.997-13.859 1.076.078.997Zm-15.002 4.58 15.109-4.6-.292-.957-15.108 4.6.291.957Zm-6.337-6.082 5.834 5.953.714-.7-5.834-5.953-.714.7Zm-4.919-4.483 4.939 4.502.674-.739-4.939-4.502-.674.739Zm8.675-3.03-8.462 2.176.249.968 8.461-2.175-.248-.968Zm-1.805-3.838 1.453 4.477.952-.309-1.454-4.477-.951.309Zm-12.278 5.409 12.937-5.099-.367-.93-12.936 5.099.366.93Zm-11.026 4.018 11.014-4.013-.342-.94-11.015 4.013.343.94Zm3.799 5.164-3.542-5.892-.857.515 3.542 5.893.857-.516Zm12.665-2.679-13.184 2.445.182.984 13.184-2.445-.182-.984Zm1.95 4.604-1.384-4.266-.951.308 1.384 4.267.951-.309Zm5.012 3.518-5.194-3.769-.587.81 5.194 3.768.587-.81Zm5.987 5.723-5.934-5.68-.692.723 5.934 5.68.692-.723Zm-19.757 12.535 19.668-11.744-.513-.86-19.668 11.745.513.859Zm-8.9-6.008 8.352 5.985.583-.813-8.352-5.985-.583.813Zm-12.291 2.051 12.659-1.963-.153-.988-12.659 1.962.153.989Zm-19.293 4.655 19.334-4.663-.235-.972-19.334 4.662.235.973Zm-7.486-.695 7.32.706.096-.995-7.32-.706-.096.995Zm-3.333-3.95 2.99 3.763.783-.622-2.99-3.763-.783.622Zm1.86-7.365-1.95 6.918.962.271 1.951-6.917-.963-.272Zm-6.354-3.211 6.587 3.78.498-.867-6.587-3.78-.498.867Zm-4.66.325 4.935-.26-.052-.998-4.935.26.052.998Zm-7.79-5.52 7.47 5.425.588-.81-7.471-5.424-.587.81Zm1.333-5.262-1.515 4.704.951.307 1.516-4.704-.952-.307Zm-7.779-2.722 8.064 3.337.382-.924-8.064-3.337-.382.924Zm-4.507-4.853 4.329 4.729.738-.675-4.329-4.73-.738.676Zm-2.509-6.49 2.411 6.33.934-.355-2.411-6.331-.934.356Zm-6.114 3.527 6.797-3.254-.432-.902-6.797 3.254.432.902Zm2.735 4.71-2.498-5.371-.906.421 2.497 5.371.907-.422Zm-.627 4.498.667-4.21-.987-.156-.668 4.21.988.156Zm9.899 2.54-10.248-3.097-.29.957 10.249 3.097.289-.958Zm4.356 10.771-4.034-10.473-.933.36 4.034 10.473.933-.36Zm-30.508 9.831 30.187-9.173-.291-.956-30.186 9.173.29.956Zm1.404 4.74-1.059-5.316-.98.196 1.058 5.316.981-.196Zm-14.334 2.315 13.905-1.721-.123-.992-13.905 1.721.123.992Zm-1.256 4.784 1.67-5.125-.951-.31-1.67 5.125.951.31Zm-6.137.259 5.654.086.015-1-5.654-.085-.015.999Zm-5.977 1.343 6.093-1.354-.217-.977-6.093 1.354.217.977Zm-8.502-3.238 8.211 3.215.365-.931-8.211-3.215-.365.931Zm-3.743-8.434 3.465 8.163.921-.39-3.465-8.163-.921.39Zm-13.15 8.179 13.859-7.94-.497-.868-13.859 7.94.497.868Zm-3.213 8.727 3.431-8.982-.934-.357-3.432 8.982.935.357Zm-6.142 1.178 5.749-.862-.149-.989-5.748.862.148.989Zm-6.341-7.889 5.87 7.697.795-.606-5.87-7.697-.795.606Zm-8.206.778 8.637-.582-.068-.998-8.636.583.067.997Zm-16.365-5.301 16.177 5.278.31-.951-16.177-5.278-.31.951Zm-21.367-2.319 21.468 2.34.108-.994-21.467-2.34-.109.994Zm-6.969-3.845 6.78 3.785.487-.874-6.78-3.784-.487.873Zm-6.553 1.199 6.879-1.142-.164-.986-6.879 1.141.164.987Zm-9.239-2.16 9.041 2.153.231-.973-9.04-2.153-.232.973Zm-8.065 1.107 8.247-1.098-.132-.991-8.247 1.098.132.991Zm-7.349-3.585 7.059 3.536.448-.894-7.059-3.536-.448.894Zm-5.143 1.533 5.499-1.498-.263-.965-5.499 1.498.263.965Zm2.3-9.958-2.909 9.326.955.298 2.909-9.326-.955-.298Zm10.076-8.572-9.92 8.338.643.766 9.92-8.338-.643-.766Zm7.392 13.92-6.62-13.754-.901.434 6.619 13.754.902-.434Zm12.406-3.097-12.963 2.826.212.977 12.964-2.826-.213-.977Zm-3.04-17.263 2.652 17.826.99-.148-2.653-17.825-.989.147Zm2.032-4.887-1.996 4.615.917.397 1.997-4.615-.918-.397Zm-13.008-.27 13.431.967.072-.998-13.431-.966-.072.998Zm-36.589 20.734 36.871-20.796-.492-.871-36.87 20.796.491.87Zm-18.928-1.274 18.647 1.337.072-.997-18.647-1.337-.072.997Zm-3.311 4.01 3.72-4.176-.746-.665-3.72 4.176.746.665Zm97.956-4.227 36.04-13.282-.346-.938-36.039 13.282.345.938Zm4.596 7.459-4.327-8.162-.883.468 4.326 8.163.884-.469Zm8.193-.011-8.62-.254-.03.999 8.621.254.029-.999Zm5.251-9.863-5.701 10.117.871.491 5.701-10.117-.871-.491Zm17.356-5.943-17.079 5.714.318.949 17.078-5.715-.317-.948Zm16.578-.214-16.425.188.011 1 16.426-.188-.012-1Zm3.877-4.957-4.256 5.138.77.637 4.256-5.137-.77-.638Zm-19.997.278 20.368.541.027-1-20.369-.541-.026 1Z" fill="#CCD3D9"/></g><path d="M320 107.75a4.124 4.124 0 0 0-2.915 1.21 4.124 4.124 0 0 0-1.21 2.915c0 3.53 3.75 6.197 3.909 6.309a.387.387 0 0 0 .432 0c.159-.112 3.909-2.779 3.909-6.309a4.124 4.124 0 0 0-1.21-2.915 4.124 4.124 0 0 0-2.915-1.21Zm0 2.625a1.495 1.495 0 0 1 1.386.926 1.504 1.504 0 0 1-.325 1.635 1.507 1.507 0 0 1-1.635.325 1.503 1.503 0 0 1-.487-2.447 1.503 1.503 0 0 1 1.061-.439ZM272 160.75a4.124 4.124 0 0 0-2.915 1.21 4.124 4.124 0 0 0-1.21 2.915c0 3.53 3.75 6.197 3.909 6.309a.387.387 0 0 0 .432 0c.159-.112 3.909-2.779 3.909-6.309a4.124 4.124 0 0 0-1.21-2.915 4.124 4.124 0 0 0-2.915-1.21Zm0 2.625a1.495 1.495 0 0 1 1.386.926 1.504 1.504 0 0 1-.325 1.635 1.507 1.507 0 0 1-1.635.325 1.503 1.503 0 0 1-.487-2.447 1.503 1.503 0 0 1 1.061-.439ZM376 208.75a4.124 4.124 0 0 0-2.915 1.21 4.124 4.124 0 0 0-1.21 2.915c0 3.53 3.75 6.197 3.909 6.309a.387.387 0 0 0 .432 0c.159-.112 3.909-2.779 3.909-6.309a4.124 4.124 0 0 0-1.21-2.915 4.124 4.124 0 0 0-2.915-1.21Zm0 2.625a1.495 1.495 0 0 1 1.386.926 1.504 1.504 0 0 1-.325 1.635 1.507 1.507 0 0 1-1.635.325 1.503 1.503 0 0 1-.487-2.447 1.503 1.503 0 0 1 1.061-.439ZM507 108.75a4.124 4.124 0 0 0-2.915 1.21 4.124 4.124 0 0 0-1.21 2.915c0 3.53 3.75 6.197 3.909 6.309a.387.387 0 0 0 .432 0c.159-.112 3.909-2.779 3.909-6.309a4.124 4.124 0 0 0-1.21-2.915 4.124 4.124 0 0 0-2.915-1.21Zm0 2.625a1.495 1.495 0 0 1 1.386.926 1.504 1.504 0 0 1-.325 1.635 1.507 1.507 0 0 1-1.635.325 1.503 1.503 0 0 1-.487-2.447 1.503 1.503 0 0 1 1.061-.439ZM525 177.75a4.124 4.124 0 0 0-2.915 1.21 4.124 4.124 0 0 0-1.21 2.915c0 3.53 3.75 6.197 3.909 6.309a.387.387 0 0 0 .432 0c.159-.112 3.909-2.779 3.909-6.309a4.124 4.124 0 0 0-1.21-2.915 4.124 4.124 0 0 0-2.915-1.21Zm0 2.625a1.495 1.495 0 0 1 1.386.926 1.504 1.504 0 0 1-.325 1.635 1.507 1.507 0 0 1-1.635.325 1.503 1.503 0 0 1-.487-2.447 1.503 1.503 0 0 1 1.061-.439ZM91 141.75a4.127 4.127 0 0 0-4.125 4.125c0 3.53 3.75 6.197 3.91 6.309a.386.386 0 0 0 .43 0c.16-.112 3.91-2.779 3.91-6.309A4.127 4.127 0 0 0 91 141.75Zm0 2.625a1.499 1.499 0 1 1 0 2.998 1.499 1.499 0 0 1 0-2.998ZM181 178.75a4.124 4.124 0 0 0-2.915 1.21 4.124 4.124 0 0 0-1.21 2.915c0 3.53 3.75 6.197 3.909 6.309a.387.387 0 0 0 .432 0c.159-.112 3.909-2.779 3.909-6.309a4.124 4.124 0 0 0-1.21-2.915 4.124 4.124 0 0 0-2.915-1.21Zm0 2.625a1.495 1.495 0 0 1 1.386.926 1.504 1.504 0 0 1-.325 1.635 1.507 1.507 0 0 1-1.635.325 1.503 1.503 0 0 1-.487-2.447 1.503 1.503 0 0 1 1.061-.439ZM118 179.75a4.124 4.124 0 0 0-2.915 1.21 4.124 4.124 0 0 0-1.21 2.915c0 3.53 3.75 6.197 3.909 6.309a.387.387 0 0 0 .432 0c.159-.112 3.909-2.779 3.909-6.309a4.124 4.124 0 0 0-1.21-2.915 4.124 4.124 0 0 0-2.915-1.21Zm0 2.625a1.495 1.495 0 0 1 1.386.926 1.504 1.504 0 0 1-.325 1.635 1.507 1.507 0 0 1-1.635.325 1.503 1.503 0 0 1-.487-2.447 1.503 1.503 0 0 1 1.061-.439ZM35 198.75a4.127 4.127 0 0 0-4.125 4.125c0 3.53 3.75 6.197 3.91 6.309a.386.386 0 0 0 .43 0c.16-.112 3.91-2.779 3.91-6.309A4.127 4.127 0 0 0 35 198.75Zm0 2.625a1.499 1.499 0 1 1 0 2.998 1.499 1.499 0 0 1 0-2.998ZM106 125.75a4.124 4.124 0 0 0-2.915 1.21 4.124 4.124 0 0 0-1.21 2.915c0 3.53 3.75 6.197 3.909 6.309a.387.387 0 0 0 .432 0c.159-.112 3.909-2.779 3.909-6.309a4.124 4.124 0 0 0-1.21-2.915 4.124 4.124 0 0 0-2.915-1.21Zm0 2.625a1.495 1.495 0 0 1 1.386.926 1.504 1.504 0 0 1-.325 1.635 1.507 1.507 0 0 1-1.635.325 1.503 1.503 0 0 1-.487-2.447 1.503 1.503 0 0 1 1.061-.439ZM497 196.75a4.124 4.124 0 0 0-2.915 1.21 4.124 4.124 0 0 0-1.21 2.915c0 3.53 3.75 6.197 3.909 6.309a.387.387 0 0 0 .432 0c.159-.112 3.909-2.779 3.909-6.309a4.124 4.124 0 0 0-1.21-2.915 4.124 4.124 0 0 0-2.915-1.21Zm0 2.625a1.495 1.495 0 0 1 1.386.926 1.504 1.504 0 0 1-.325 1.635 1.507 1.507 0 0 1-1.635.325 1.503 1.503 0 0 1-.487-2.447 1.503 1.503 0 0 1 1.061-.439Z" fill="#003B5C"/><path d="M162 132.375a7.57 7.57 0 0 0-7.562 7.563c0 6.471 6.874 11.36 7.167 11.567a.71.71 0 0 0 .79 0c.293-.207 7.167-5.096 7.167-11.567a7.57 7.57 0 0 0-7.562-7.563Zm0 4.813a2.75 2.75 0 1 1 .001 5.501 2.75 2.75 0 0 1-.001-5.501Z" fill="#60C0C3"/><g filter="url(#axb)"><rect x="173" y="117" width="63" height="25" rx="4" fill="#fff" shape-rendering="crispEdges"/><path d="M186.176 125.6h1.128v3.66h1.272l2.544-3.66h1.284l-2.904 4.092 3.144 4.308h-1.368l-2.7-3.768h-1.272V134h-1.128v-8.4Zm8.782 8.472c-.584 0-1.04-.16-1.368-.48-.328-.328-.492-.784-.492-1.368 0-.616.176-1.084.528-1.404.352-.328.916-.492 1.692-.492h1.512v-.612c0-.432-.1-.744-.3-.936-.192-.2-.492-.3-.9-.3-.208 0-.384.024-.528.072-.144.04-.26.1-.348.18a.788.788 0 0 0-.288.54h-1.032c.024-.248.08-.476.168-.684.088-.208.22-.388.396-.54a1.93 1.93 0 0 1 .66-.36c.272-.088.6-.132.984-.132.768 0 1.332.18 1.692.54.36.352.54.892.54 1.62V134h-.924v-1.056a4.07 4.07 0 0 1-.276.408 1.77 1.77 0 0 1-.396.372 1.956 1.956 0 0 1-.552.252 2.72 2.72 0 0 1-.768.096Zm.3-.912c.48 0 .86-.14 1.14-.42.288-.288.432-.676.432-1.164v-.384h-1.464c-.456 0-.776.084-.96.252-.176.16-.264.416-.264.768 0 .28.092.508.276.684.184.176.464.264.84.264Zm6.273.924c-.8 0-1.396-.164-1.788-.492-.392-.328-.612-.796-.66-1.404h1.056c.056.312.184.556.384.732.208.168.544.252 1.008.252.512 0 .872-.084 1.08-.252.208-.176.312-.42.312-.732s-.104-.552-.312-.72c-.208-.176-.568-.264-1.08-.264h-.888v-.888h.828c.432 0 .74-.08.924-.24.192-.16.288-.392.288-.696 0-.296-.092-.524-.276-.684-.184-.16-.496-.24-.936-.24-.376 0-.652.08-.828.24-.176.16-.288.388-.336.684h-1.104a1.926 1.926 0 0 1 .684-1.308c.2-.168.432-.296.696-.384a2.87 2.87 0 0 1 .888-.132c.384 0 .716.044.996.132.288.088.524.212.708.372.192.16.332.352.42.576.096.216.144.456.144.72 0 .152-.024.3-.072.444-.04.136-.104.264-.192.384-.08.12-.18.224-.3.312-.112.088-.24.156-.384.204.392.096.688.284.888.564.2.272.3.588.3.948 0 .568-.196 1.024-.588 1.368-.392.336-1.012.504-1.86.504Zm5.438-.012c-.584 0-1.04-.16-1.368-.48-.328-.328-.492-.784-.492-1.368 0-.616.176-1.084.528-1.404.352-.328.916-.492 1.692-.492h1.512v-.612c0-.432-.1-.744-.3-.936-.192-.2-.492-.3-.9-.3-.208 0-.384.024-.528.072-.144.04-.26.1-.348.18a.788.788 0 0 0-.288.54h-1.032c.024-.248.08-.476.168-.684.088-.208.22-.388.396-.54a1.93 1.93 0 0 1 .66-.36c.272-.088.6-.132.984-.132.768 0 1.332.18 1.692.54.36.352.54.892.54 1.62V134h-.924v-1.056a4.07 4.07 0 0 1-.276.408 1.77 1.77 0 0 1-.396.372 1.956 1.956 0 0 1-.552.252 2.72 2.72 0 0 1-.768.096Zm.3-.912c.48 0 .86-.14 1.14-.42.288-.288.432-.676.432-1.164v-.384h-1.464c-.456 0-.776.084-.96.252-.176.16-.264.416-.264.768 0 .28.092.508.276.684.184.176.464.264.84.264Zm4.354-5.52h1.068v2.664h2.904v-2.664h1.068V134h-1.068v-2.784h-2.904V134h-1.068v-6.36Zm6.843 0h1.068v2.424h1.44c.84 0 1.448.172 1.824.516.376.344.564.832.564 1.464 0 .624-.188 1.108-.564 1.452-.376.336-.984.504-1.824.504h-2.508v-6.36Zm2.508 5.436c.504 0 .852-.084 1.044-.252.192-.168.288-.432.288-.792 0-.368-.096-.636-.288-.804-.192-.168-.54-.252-1.044-.252h-1.44v2.1h1.44Z" fill="#0B0C0C"/><rect x="173.5" y="117.5" width="62" height="24" rx="3.5"   shape-rendering="crispEdges"/></g><defs><filter id="axa" x=".498" y="17.331" width="589.496" height="256.173" filterUnits="userSpaceOnUse" color-interpolation-filters="sRGB"><feFlood flood-opacity="0" result="BackgroundImageFix"/><feColorMatrix in="SourceAlpha" values="0 0 0 0 0 0 0 0 0 0 0 0 0 0 0 0 0 0 127 0" result="hardAlpha"/><feOffset dy="14"/><feGaussianBlur stdDeviation="3.5"/><feComposite in2="hardAlpha" operator="out"/><feColorMatrix values="0 0 0 0 0 0 0 0 0 0 0 0 0 0 0 0 0 0 0.05 0"/><feBlend in2="BackgroundImageFix" result="effect1_dropShadow_249_3211"/><feBlend in="SourceGraphic" in2="effect1_dropShadow_249_3211" result="shape"/></filter><filter id="axb" x="169" y="117" width="71" height="33" filterUnits="userSpaceOnUse" color-interpolation-filters="sRGB"><feFlood flood-opacity="0" result="BackgroundImageFix"/><feColorMatrix in="SourceAlpha" values="0 0 0 0 0 0 0 0 0 0 0 0 0 0 0 0 0 0 127 0" result="hardAlpha"/><feOffset dy="4"/><feGaussianBlur stdDeviation="2"/><feComposite in2="hardAlpha" operator="out"/><feColorMatrix values="0 0 0 0 0 0 0 0 0 0 0 0 0 0 0 0 0 0 0.04 0"/><feBlend in2="BackgroundImageFix" result="effect1_dropShadow_249_3211"/><feBlend in="SourceGraphic" in2="effect1_dropShadow_249_3211" result="shape"/></filter></defs></svg><svg fill="none" viewBox="0 0 32 32" id="navbar-toggler-icon-bg" xmlns="http://www.w3.org/2000/svg"><path d="M9.125 16h13.75M9.125 11h13.75M9.125 21h13.75"   stroke-width="1.5" stroke-linecap="round" stroke-linejoin="round"/><rect x=".5" y=".5" width="31" height="31" rx="3.5"  /></svg><svg fill="none" viewBox="0 0 16 16" id="navbar-width-icon" xmlns="http://www.w3.org/2000/svg"><path d="m4 12 8-8M5.5 4H12v6.5"   stroke-linecap="round" stroke-linejoin="round"/></svg><svg fill="none" viewBox="0 0 106 205" id="pattern" xmlns="http://www.w3.org/2000/svg"><g opacity=".2"   stroke-width="1.34" stroke-miterlimit="10"><path d="M103.436 61.088h-9.05m9.078-23.366h-9.05m9.05-3.364h-9.05m9.05-3.319h-9.05m3.022-23.403-2.671 2.68M73.549 5.022H64.5m3.041 85.672-2.671 2.68M40.75 2.858l-6.398 6.424m6.398-6.424v4.936m0-4.936h-4.918m.203 60.846-2.672 2.68m-22.796-.906H1.527m9.05-3.373h-9.05m9.05-3.319h-9.05m7.719 27.12-6.397 6.423m6.397-6.424v4.936m0-4.936H4.328m99.663-24.799-5.048 5.065-5.047-5.065 2.098-3.013h5.815L104 61.106h-.009Zm0 28.016-5.048 5.065-5.047-5.065 5.047-5.066 5.048 5.066Zm-6.425-81.55c0 .277.102.545.314.869.444.711 1.137 1.22 2.006 1.201 2.7-.046 3.125-3.152 3.227-5.231.037-.814.037-1.747-.037-2.551 0 0-1.729-.065-2.533-.028-2.071.092-5.168.527-5.214 3.235-.019.869.49 1.562 1.192 2.006.324.212.684.37 1.054.499h-.009ZM74.104 5.039l-5.047 5.065-5.048-5.065 2.099-3.013h5.814l2.191 3.013h-.01Zm0 29.346-5.047 5.065-5.048-5.065 5.047-5.065 5.048 5.065Zm-2.246 30.576a3.962 3.962 0 0 1-5.612 0 3.994 3.994 0 0 1 0-5.638 3.962 3.962 0 0 1 5.612 0 3.994 3.994 0 0 1 0 5.638ZM67.67 90.628c0 .278.102.546.314.869.453.712 1.137 1.22 2.006 1.202 2.7-.047 3.125-3.152 3.227-5.232.037-.813.037-1.747-.037-2.55 0 0-1.73-.066-2.543-.029-2.07.093-5.167.527-5.213 3.235-.019.87.49 1.562 1.192 2.015.333.213.684.37 1.054.5v-.01Zm-27.317 1.313a3.962 3.962 0 0 1-5.611 0 4.002 4.002 0 0 1 0-5.639 3.962 3.962 0 0 1 5.611 0 3.994 3.994 0 0 1 0 5.639Zm-4.188-28.302c0 .277.102.545.315.869.453.712 1.137 1.22 2.006 1.201 2.699-.046 3.124-3.151 3.226-5.231.037-.813.037-1.747-.037-2.551 0 0-1.729-.065-2.533-.028-2.07.093-5.168.527-5.214 3.235-.018.869.49 1.562 1.193 2.015.323.203.684.37 1.054.5l-.01-.01Zm1.378-32.544c1.081-1.174 2.93-1.137 3.928-.037.934 1.035.87 2.736-.221 3.752l-3.707 3.716-3.707-3.716c-1.1-1.016-1.156-2.717-.222-3.752.998-1.1 2.838-1.137 3.929.037ZM11.095 6.065 6.047 11.13 1 6.065 6.047 1l5.048 5.065Zm-2.247 31.13a3.962 3.962 0 0 1-5.61 0 3.994 3.994 0 0 1 0-5.638 3.962 3.962 0 0 1 5.61 0 3.994 3.994 0 0 1 0 5.638ZM103.436 170.409h-9.05m9.078-23.366h-9.05m9.05-3.364h-9.05m9.05-3.318h-9.05m3.022-23.403-2.671 2.68m-21.216-5.296H64.5m3.041 85.672-2.671 2.681M40.75 112.179l-6.398 6.424m6.398-6.424v4.936m0-4.936h-4.918m.203 60.846-2.672 2.681m-22.796-.906H1.527m9.05-3.374h-9.05m9.05-3.318h-9.05m7.719 27.119-6.397 6.423m6.397-6.423v4.935m0-4.935H4.328m99.663-24.799-5.048 5.065-5.047-5.065 2.098-3.013h5.815l2.191 3.013h-.009Zm0 28.015-5.048 5.065-5.047-5.065 5.047-5.065 5.048 5.065Zm-6.425-81.55c0 .278.102.546.314.869.444.712 1.137 1.22 2.006 1.202 2.7-.047 3.125-3.152 3.227-5.232.037-.813.037-1.747-.037-2.551 0 0-1.729-.065-2.533-.028-2.071.093-5.168.527-5.214 3.235-.019.869.49 1.562 1.192 2.006.324.213.684.37 1.054.499h-.009Zm-23.462-2.532-5.047 5.065-5.048-5.065 2.099-3.014h5.814l2.191 3.014h-.01Zm0 29.346-5.047 5.065-5.048-5.065 5.047-5.065 5.048 5.065Zm-2.246 30.575a3.962 3.962 0 0 1-5.612 0 3.994 3.994 0 0 1 0-5.638 3.962 3.962 0 0 1 5.612 0 3.994 3.994 0 0 1 0 5.638ZM67.67 199.95c0 .277.102.545.314.869.453.711 1.137 1.22 2.006 1.201 2.7-.046 3.125-3.152 3.227-5.231.037-.814.037-1.747-.037-2.551 0 0-1.73-.065-2.543-.028-2.07.092-5.167.527-5.213 3.235-.019.869.49 1.562 1.192 2.015.333.212.684.37 1.054.499v-.009Zm-27.317 1.312a3.961 3.961 0 0 1-5.611 0 4.002 4.002 0 0 1 0-5.638 3.961 3.961 0 0 1 5.611 0 3.994 3.994 0 0 1 0 5.638Zm-4.188-28.301c0 .277.102.545.315.868.453.712 1.137 1.22 2.006 1.202 2.699-.046 3.124-3.152 3.226-5.232.037-.813.037-1.746-.037-2.551 0 0-1.729-.064-2.533-.027-2.07.092-5.168.527-5.214 3.235-.018.869.49 1.562 1.193 2.015.323.203.684.369 1.054.499l-.01-.009Zm1.378-32.545c1.081-1.174 2.93-1.137 3.928-.037.934 1.036.87 2.736-.221 3.753l-3.707 3.716-3.707-3.716c-1.1-1.017-1.156-2.717-.222-3.753.998-1.1 2.838-1.137 3.929.037Zm-26.448-25.029-5.048 5.065L1 115.387l5.047-5.065 5.048 5.065Zm-2.247 31.13a3.963 3.963 0 0 1-5.61 0 3.995 3.995 0 0 1 0-5.639 3.963 3.963 0 0 1 5.61 0 3.995 3.995 0 0 1 0 5.639Z"/></g></svg><svg fill="none" viewBox="0 0 20 20" id="pdf" xmlns="http://www.w3.org/2000/svg"><path d="M3.75 10V3.125a.625.625 0 0 1 .625-.625h7.5l4.375 4.375V10"   stroke-width="1.5" stroke-linecap="round" stroke-linejoin="round"/><path d="M11.875 2.5v4.375h4.375M3.75 15.625H5a1.25 1.25 0 0 0 0-2.5H3.75v3.75M16.875 13.125h-2.188v3.75M16.563 15.313h-1.875M10 16.875a1.875 1.875 0 1 0 0-3.75H8.906v3.75H10Z"   stroke-width="1.5" stroke-linecap="round" stroke-linejoin="round"/></svg><svg fill="none" viewBox="0 0 20 20" id="phone" xmlns="http://www.w3.org/2000/svg"><path d="M12.453 3.125a6.258 6.258 0 0 1 4.422 4.422M11.805 5.54a3.742 3.742 0 0 1 2.656 2.655M7.227 9.75a6.532 6.532 0 0 0 3.046 3.04.626.626 0 0 0 .618-.048l1.953-1.305a.618.618 0 0 1 .594-.054l3.656 1.57a.618.618 0 0 1 .375.649 3.75 3.75 0 0 1-3.719 3.273A10.625 10.625 0 0 1 3.125 6.25a3.75 3.75 0 0 1 3.273-3.719.617.617 0 0 1 .649.375l1.57 3.664a.625.625 0 0 1-.047.586L7.266 9.141a.625.625 0 0 0-.04.609v0Z"   stroke-linecap="round" stroke-linejoin="round"/></svg><svg fill="none" viewBox="0 0 20 20" id="plus" xmlns="http://www.w3.org/2000/svg"><path d="M3.125 10h13.75M10 3.125v13.75"   stroke-linecap="round" stroke-linejoin="round"/></svg><svg fill="none" viewBox="0 0 20 20" id="plus-white" xmlns="http://www.w3.org/2000/svg"><path d="M3.125 10h13.75M10 3.125v13.75"   stroke-width="1.5" stroke-linecap="round" stroke-linejoin="round"/></svg><svg fill="none" viewBox="0 0 20 20" id="qrcode" xmlns="http://www.w3.org/2000/svg"><path d="M8.125 3.75h-3.75a.625.625 0 0 0-.625.625v3.75c0 .345.28.625.625.625h3.75c.345 0 .625-.28.625-.625v-3.75a.625.625 0 0 0-.625-.625ZM8.125 11.25h-3.75a.625.625 0 0 0-.625.625v3.75c0 .345.28.625.625.625h3.75c.345 0 .625-.28.625-.625v-3.75a.625.625 0 0 0-.625-.625ZM15.625 3.75h-3.75a.625.625 0 0 0-.625.625v3.75c0 .345.28.625.625.625h3.75c.345 0 .625-.28.625-.625v-3.75a.625.625 0 0 0-.625-.625ZM11.25 11.25v2.5M11.25 16.25h2.5v-5M13.75 12.5h2.5M16.25 15v1.25"   stroke-width="1.5" stroke-linecap="round" stroke-linejoin="round"/></svg><svg fill="none" viewBox="0 0 20 20" id="remove-red" xmlns="http://www.w3.org/2000/svg"><path d="M16.875 4.375H3.125M8.125 8.125v5M11.875 8.125v5M15.625 4.375V16.25a.624.624 0 0 1-.625.625H5a.625.625 0 0 1-.625-.625V4.375M13.125 4.375v-1.25a1.25 1.25 0 0 0-1.25-1.25h-3.75a1.25 1.25 0 0 0-1.25 1.25v1.25"   stroke-linecap="round" stroke-linejoin="round"/></svg><svg fill="none" viewBox="0 0 1062 867" id="results" xmlns="http://www.w3.org/2000/svg"><path d="M34.789 398.086v9"   stroke-width="2.921" stroke-linecap="round"/><g   stroke-width="2.921" stroke-linecap="round"><path d="m14.574 402.961 7.354 7.571M5.972 423.114h10.399M13.73 443.625l7.354-7.57"/></g><path d="M34.789 446.086v-9M49.789 440.086l-6-6M61.789 425.086h-9M55.789 404.086l-6 6M517.789 5.086v6M499.789 23.086h6M517.789 41.086v-6M532.789 23.086h-6M169.789 257.086v9M142.789 284.086h9M169.789 308.086v-9M193.789 284.086h-9M815.55 584.203c7.169 0 12.984 5.816 12.984 12.987 0 7.174-5.815 12.988-12.984 12.988-7.17 0-12.984-5.814-12.984-12.988"   stroke-width="2.921" stroke-linecap="round"/><path fill-rule="evenodd" clip-rule="evenodd" d="M874.97 466.376c7.71-2.405 19.527-11.833 22.262-21.978 2.481 8.968 12.88 19.573 22.263 20.376-10.562 3.739-20.661 14.849-22.263 23.577-1.09-8.896-15.057-20.678-22.262-21.975ZM83.603 580.202c3.856-1.202 9.762-5.915 11.13-10.987 1.24 4.481 6.438 9.785 11.13 10.187-5.28 1.868-10.328 7.424-11.13 11.788-.545-4.448-7.529-10.341-11.13-10.988Z" fill="#EBECEE"/><path fill-rule="evenodd" clip-rule="evenodd" d="M155.16 162.877c0 5.564-4.507 10.07-10.067 10.07-5.563 0-10.068-4.506-10.068-10.07 0-5.561 4.505-10.07 10.068-10.07 5.56 0 10.067 4.509 10.067 10.07Z" fill="#D1D8DF"/><path fill-rule="evenodd" clip-rule="evenodd" d="M827.446 189.918c0 9.296-7.537 16.831-16.828 16.831-9.296 0-16.829-7.535-16.829-16.831s7.533-16.832 16.829-16.832c9.291 0 16.828 7.536 16.828 16.832ZM1060.53 144.315c0 7.375-5.98 13.351-13.35 13.351-7.37 0-13.34-5.976-13.34-13.351 0-7.376 5.97-13.352 13.34-13.352s13.35 5.976 13.35 13.352Z" fill="#EBECEE"/><path clip-rule="evenodd" d="M343.319 767.889a8.415 8.415 0 0 1-8.415 8.417c-4.645 0-8.412-3.768-8.412-8.417 0-4.65 3.767-8.417 8.412-8.417a8.415 8.415 0 0 1 8.415 8.417ZM338.313 98.18c0 5.565-4.508 10.071-10.068 10.071s-10.068-4.506-10.068-10.07c0-5.561 4.508-10.07 10.068-10.07s10.068 4.508 10.068 10.07ZM595.121 861.094c-6.433 2.449-13.633-.784-16.081-7.217-2.447-6.435.782-13.639 7.218-16.085 6.431-2.448 13.631.782 16.079 7.217 2.45 6.435-.782 13.637-7.216 16.085Z"   stroke-width="2.921" stroke-linecap="round"/><g fill-rule="evenodd" clip-rule="evenodd"><path d="M591.286 623.086H345.272c-17.315 0-31.489-14.216-31.489-31.59V240.668c0-17.374 14.174-31.582 31.489-31.582h246.014c17.323 0 31.497 14.208 31.497 31.582v350.828c0 17.374-14.174 31.59-31.497 31.59Z" fill="#E0E2EE"/><path d="M570.286 638.086H324.272c-17.315 0-31.489-14.216-31.489-31.59V255.668c0-17.374 14.174-31.582 31.489-31.582h246.014c17.323 0 31.497 14.208 31.497 31.582v350.828c0 17.374-14.174 31.59-31.497 31.59Z" fill="#E8EBF2"/><path d="M549.86 649.927H303.337c-17.351 0-31.554-14.156-31.554-31.458V269.093c0-17.302 14.203-31.451 31.554-31.451H549.86c17.358 0 31.561 14.149 31.561 31.451v349.376c0 17.302-14.203 31.458-31.561 31.458Z" fill="#D8DBEA"/><path d="M549.86 649.927H303.337c-17.351 0-31.554-14.156-31.554-31.458V269.093c0-17.302 14.203-31.451 31.554-31.451H549.86c17.358 0 31.561 14.149 31.561 31.451v349.376c0 17.302-14.203 31.458-31.561 31.458Z" fill="#F1F2F7"/><path d="M514.326 344.086H332.239c-5.2 0-9.456-4.05-9.456-8.997 0-4.954 4.256-9.003 9.456-9.003h182.087c5.2 0 9.457 4.049 9.457 9.003 0 4.947-4.257 8.997-9.457 8.997ZM514.326 398.086H332.239c-5.2 0-9.456-4.05-9.456-8.997 0-4.954 4.256-9.003 9.456-9.003h182.087c5.2 0 9.457 4.049 9.457 9.003 0 4.947-4.257 8.997-9.457 8.997ZM514.326 452.086H332.239c-5.2 0-9.456-4.05-9.456-8.997s4.256-9.003 9.456-9.003h182.087c5.2 0 9.457 4.056 9.457 9.003s-4.257 8.997-9.457 8.997ZM514.326 506.086H332.239c-5.2 0-9.456-4.05-9.456-8.997 0-4.954 4.256-9.003 9.456-9.003h182.087c5.2 0 9.457 4.049 9.457 9.003 0 4.947-4.257 8.997-9.457 8.997ZM427.286 560.086H332.28c-5.223 0-9.497-4.05-9.497-8.997 0-4.954 4.274-9.003 9.497-9.003h95.006c5.222 0 9.497 4.049 9.497 9.003 0 4.947-4.275 8.997-9.497 8.997Z" fill="#E0E2EE"/><path d="M619.048 490.296c-36.411 36.404-92.778 40.511-133.7 12.405-5.23-3.657-10.208-7.764-14.85-12.405a99.941 99.941 0 0 1-6.764-7.427c-4.245-5.168-7.963-10.679-11.009-16.374a100.332 100.332 0 0 1-11.01-30.373c-6.428-33.084 3.184-68.694 28.783-94.281 25.661-25.664 61.277-35.213 94.366-28.847a103.824 103.824 0 0 1 30.378 11.008c5.704 3.114 11.14 6.832 16.316 11.076a99.886 99.886 0 0 1 7.421 6.763c4.649 4.641 8.818 9.611 12.406 14.847 28.119 40.908 24.004 97.273-12.337 133.608Z" fill="#fff" fill-opacity=".1"/><path d="M608.859 483.126c-37.88 37.887-99.267 37.88-137.154 0-37.837-37.837-37.837-99.231.05-137.111 37.837-37.838 99.224-37.838 137.062 0 37.88 37.88 37.88 99.274.042 137.111ZM628.3 326.552c-48.622-48.622-127.413-48.622-176.035 0-48.615 48.615-48.657 127.455-.042 176.077 44.252 44.238 113.611 48.228 162.395 11.906 4.765-3.553 9.354-7.535 13.731-11.906 4.37-4.377 8.353-8.966 11.898-13.731 36.322-48.791 32.297-118.101-11.947-162.346Z" fill="#CCD3D9"/><path d="m819.649 685.911-2.041 2.041c-13.505 13.512-35.619 13.512-49.131 0L643.783 563.258l51.172-51.172L819.649 636.78c13.512 13.512 13.512 35.619 0 49.131Z" fill="url(#bha)"/><path d="m642.935 485.086 36.848 36.848-26.16 26.152-36.84-36.848c4.862-3.625 9.537-7.689 14.011-12.148 4.459-4.459 8.523-9.142 12.141-14.004Z" fill="#CCD3D9"/><path d="m817.783 635.247-50.846 50.839-9.154-9.161 50.839-50.839 9.161 9.161ZM697.783 513.846l-52.239 52.24-7.761-7.761 52.238-52.239 7.762 7.76Z" fill="#003B5C"/><path d="M583.783 332.982 455.672 461.086a90.025 90.025 0 0 1-9.889-27.306l110.692-110.694c9.478 1.853 18.66 5.126 27.308 9.896ZM625.783 363.431 487.281 494.086c-4.96-3.265-9.681-6.94-14.083-11.093-2.266-2.139-4.41-4.331-6.415-6.647l140.188-132.26a93.2 93.2 0 0 1 7.045 6.059c4.403 4.153 8.364 8.6 11.767 13.286Z" fill="#fff" fill-opacity=".5"/></g><defs><linearGradient id="bha" x1="736.783" y1="419.086" x2="550.783" y2="605.086" gradientUnits="userSpaceOnUse"><stop stop-color="#60C0C3"/><stop offset="1" stop-color="#6088C3"/></linearGradient></defs></svg><svg fill="none" viewBox="0 0 20 20" id="search" xmlns="http://www.w3.org/2000/svg"><path d="M9.063 15.625a6.562 6.562 0 1 0 0-13.125 6.562 6.562 0 0 0 0 13.125ZM13.703 13.703 17.5 17.5"   stroke-width="1.5" stroke-linecap="round" stroke-linejoin="round"/></svg><svg fill="none" viewBox="0 0 56 57" id="send" xmlns="http://www.w3.org/2000/svg"><rect y=".5" width="56" height="56" rx="28" fill="#43B02A" fill-opacity=".1"/><path d="m36.25 23.25-10.5 10.5-5.25-5.25"   stroke-width="1.5" stroke-linecap="round" stroke-linejoin="round"/></svg><svg fill="none" viewBox="0 0 80 81" id="send-warning" xmlns="http://www.w3.org/2000/svg"><rect y=".5" width="80" height="80" rx="40" fill="#F5BD0B" fill-opacity=".15"/><path d="M40 21a19.5 19.5 0 1 0 19.5 19.5A19.537 19.537 0 0 0 40 21Zm-1.5 10.5a1.5 1.5 0 1 1 3 0V42a1.5 1.5 0 1 1-3 0V31.5ZM40 51a2.25 2.25 0 1 1 0-4.5 2.25 2.25 0 0 1 0 4.5Z" fill="#F5BD0B"/></svg><svg fill="none" viewBox="0 0 20 20" id="setting" xmlns="http://www.w3.org/2000/svg"><path d="M10 13.75a3.75 3.75 0 1 0 0-7.5 3.75 3.75 0 0 0 0 7.5Z"   stroke-width="1.5" stroke-linecap="round" stroke-linejoin="round"/><path d="M15.422 6.305c.188.269.353.554.492.851l2.024 1.125a7.97 7.97 0 0 1 .007 3.438l-2.03 1.125c-.14.297-.305.582-.493.851l.039 2.32a8.124 8.124 0 0 1-2.976 1.727l-1.993-1.195a6.91 6.91 0 0 1-.984 0l-1.984 1.187a8.015 8.015 0 0 1-2.985-1.718l.04-2.313a6.252 6.252 0 0 1-.493-.86L2.063 11.72a7.969 7.969 0 0 1-.008-3.438l2.031-1.125a5.75 5.75 0 0 1 .492-.851l-.039-2.32a8.125 8.125 0 0 1 2.977-1.727l1.992 1.195c.328-.023.657-.023.984 0l1.985-1.187a8.015 8.015 0 0 1 2.984 1.718l-.039 2.32Z"   stroke-width="1.5" stroke-linecap="round" stroke-linejoin="round"/></svg><svg fill="none" viewBox="0 0 12 12" id="sort-arrow" xmlns="http://www.w3.org/2000/svg"><path d="M10.097 4.355a.374.374 0 0 0-.347-.23h-7.5a.375.375 0 0 0-.347.23.394.394 0 0 0 .08.412l3.75 3.75a.384.384 0 0 0 .534 0l3.75-3.75a.394.394 0 0 0 .08-.412Z" fill="#959A9E"/></svg><svg fill="none" viewBox="0 0 119 13" id="sp" xmlns="http://www.w3.org/2000/svg"><path d="M4.066 10.098a4.273 4.273 0 0 1-1.554-.266 2.858 2.858 0 0 1-1.162-.826c-.317-.373-.56-.85-.728-1.428C.454 6.999.37 6.308.37 5.506v-1.12c0-1.447.327-2.52.98-3.22C2.004.456 2.91.102 4.066.102c1.018 0 1.825.238 2.422.714.607.476 1.004 1.227 1.19 2.254H6.362c-.177-.663-.448-1.13-.812-1.4-.364-.27-.858-.406-1.484-.406-.756 0-1.344.243-1.764.728-.42.476-.63 1.274-.63 2.394v1.12c0 .635.052 1.171.154 1.61.112.439.271.793.476 1.064.206.27.453.467.742.588.299.112.64.168 1.022.168.327 0 .612-.033.854-.098.252-.075.467-.182.644-.322.187-.15.341-.34.462-.574.131-.233.243-.518.336-.854h1.316c-.214 1.083-.63 1.857-1.246 2.324-.606.457-1.395.686-2.366.686Zm7.909 0c-.448 0-.859-.07-1.232-.21a2.633 2.633 0 0 1-.938-.644 3.292 3.292 0 0 1-.602-1.05c-.14-.42-.21-.9-.21-1.442V5.688c0-1.045.256-1.839.77-2.38.522-.55 1.236-.826 2.142-.826.905 0 1.614.275 2.128.826.522.541.784 1.344.784 2.408v.938h-4.592c.009.85.168 1.46.476 1.834.317.364.742.546 1.274.546.233 0 .434-.028.602-.084.177-.065.322-.15.434-.252.121-.103.214-.22.28-.35.065-.13.112-.266.14-.406h1.246c-.15.728-.453 1.27-.91 1.624-.458.355-1.055.532-1.792.532Zm-.056-6.552c-.532 0-.948.163-1.246.49-.29.317-.439.854-.448 1.61h3.43c-.019-.756-.178-1.293-.476-1.61-.29-.327-.71-.49-1.26-.49Zm4.67-.966h1.105v1.232c.215-.41.5-.733.854-.966.364-.233.812-.35 1.344-.35.392 0 .751.07 1.078.21.327.14.607.345.84.616.243.261.43.593.56.994.14.401.21.859.21 1.372v1.064c0 .55-.07 1.036-.21 1.456-.13.42-.317.77-.56 1.05-.233.28-.513.49-.84.63-.327.14-.686.21-1.078.21-.504 0-.929-.117-1.274-.35a2.263 2.263 0 0 1-.784-.896V12.8h-1.246V2.58Zm3.051 6.426c.504 0 .915-.177 1.232-.532.317-.364.476-.938.476-1.722V5.688c0-.7-.159-1.223-.476-1.568-.317-.355-.728-.532-1.232-.532-.56 0-1.003.177-1.33.532-.317.345-.476.868-.476 1.568v1.064c0 .784.159 1.358.476 1.722.327.355.77.532 1.33.532Zm4.714-6.426h2.772c.914 0 1.586.191 2.016.574.438.373.658.859.658 1.456 0 .159-.028.317-.084.476a1.442 1.442 0 0 1-.224.448c-.094.14-.21.261-.35.364-.131.103-.28.182-.448.238.457.112.802.327 1.036.644.233.317.35.686.35 1.106 0 .644-.22 1.157-.658 1.54-.43.383-1.102.574-2.016.574h-3.052V2.58Zm3.052 6.37c.532 0 .905-.093 1.12-.28.214-.196.322-.476.322-.84 0-.355-.108-.625-.322-.812-.215-.187-.588-.28-1.12-.28h-1.834V8.95h1.834Zm-.28-3.248c.532 0 .905-.089 1.12-.266.214-.187.322-.443.322-.77s-.108-.579-.322-.756c-.215-.187-.588-.28-1.12-.28h-1.554v2.072h1.554Zm4.72-3.122h1.19v5.67l3.458-5.67h1.232V10h-1.19V4.33L33.078 10h-1.232V2.58Zm10.644 7.518c-.448 0-.858-.07-1.232-.21a2.633 2.633 0 0 1-.938-.644 3.292 3.292 0 0 1-.602-1.05c-.14-.42-.21-.9-.21-1.442V5.688c0-.504.07-.952.21-1.344.15-.401.35-.737.602-1.008.262-.28.574-.49.938-.63.374-.15.784-.224 1.232-.224.374 0 .724.051 1.05.154.336.103.63.252.882.448s.458.434.616.714c.159.27.257.574.294.91h-1.246a1.535 1.535 0 0 0-.49-.798c-.252-.224-.62-.336-1.106-.336-.532 0-.956.177-1.274.532-.317.345-.476.873-.476 1.582v1.064c0 .793.159 1.367.476 1.722.318.355.742.532 1.274.532.486 0 .854-.117 1.106-.35a1.52 1.52 0 0 0 .476-.784h1.26c-.168.737-.494 1.293-.98 1.666-.476.373-1.096.56-1.862.56Zm4.477-7.518h1.246v3.108h3.388V2.58h1.246V10h-1.246V6.752h-3.388V10h-1.246V2.58Zm7.984 0h1.246v2.828h1.204c.98 0 1.69.2 2.128.602.448.401.672.97.672 1.708 0 .728-.224 1.293-.672 1.694-.438.392-1.148.588-2.128.588h-2.45V2.58Zm2.45 6.37c.607 0 1.022-.098 1.246-.294.224-.196.336-.513.336-.952 0-.439-.112-.756-.336-.952-.224-.196-.639-.294-1.246-.294h-1.204V8.95h1.204Zm3.864-6.37h1.246V10h-1.246V2.58Zm3.352 0h1.19v5.67l3.458-5.67h1.232V10h-1.19V4.33L65.85 10h-1.232V2.58Zm2.94-.728c-.7 0-1.213-.154-1.54-.462-.326-.317-.49-.77-.49-1.358h1.134c0 .355.07.611.21.77.15.15.378.224.686.224.318 0 .546-.075.686-.224.15-.159.224-.415.224-.77h1.12c0 .588-.163 1.04-.49 1.358-.326.308-.84.462-1.54.462Zm8.545.728h5.74V10h-1.246V3.658h-3.248V10h-1.246V2.58Zm10.564 7.518c-.934 0-1.676-.285-2.226-.854-.55-.579-.826-1.41-.826-2.492V5.688c0-.504.07-.952.21-1.344a2.87 2.87 0 0 1 .616-1.008c.27-.28.592-.49.966-.63.373-.15.793-.224 1.26-.224.466 0 .886.075 1.26.224.373.14.69.35.952.63.27.27.476.607.616 1.008.15.392.224.84.224 1.344v1.064c0 1.083-.276 1.913-.826 2.492-.55.57-1.293.854-2.226.854Zm0-1.092c.56 0 1.003-.177 1.33-.532.326-.364.49-.938.49-1.722V5.688c0-.71-.164-1.237-.49-1.582-.327-.355-.77-.532-1.33-.532s-1.004.177-1.33.532c-.327.345-.49.873-.49 1.582v1.064c0 .784.163 1.358.49 1.722.326.355.77.532 1.33.532Zm4.83-6.426h1.106v1.232c.215-.41.5-.733.854-.966.364-.233.812-.35 1.344-.35.392 0 .752.07 1.078.21.327.14.607.345.84.616.243.261.43.593.56.994.14.401.21.859.21 1.372v1.064c0 .55-.07 1.036-.21 1.456-.13.42-.317.77-.56 1.05-.233.28-.513.49-.84.63-.326.14-.686.21-1.078.21-.504 0-.928-.117-1.274-.35a2.263 2.263 0 0 1-.784-.896V12.8h-1.246V2.58Zm3.052 6.426c.504 0 .915-.177 1.232-.532.318-.364.476-.938.476-1.722V5.688c0-.7-.158-1.223-.476-1.568-.317-.355-.728-.532-1.232-.532-.56 0-1.003.177-1.33.532-.317.345-.476.868-.476 1.568v1.064c0 .784.159 1.358.476 1.722.327.355.77.532 1.33.532Zm6.268-5.348H98.45V2.58h5.964v1.078h-2.366V10h-1.232V3.658Zm6.593 6.426c-.681 0-1.213-.187-1.596-.56-.382-.383-.574-.915-.574-1.596 0-.719.206-1.265.616-1.638.411-.383 1.069-.574 1.974-.574h1.764v-.714c0-.504-.116-.868-.35-1.092-.224-.233-.574-.35-1.05-.35-.242 0-.448.028-.616.084a.987.987 0 0 0-.406.21.932.932 0 0 0-.336.63h-1.204c.028-.29.094-.555.196-.798.103-.243.257-.453.462-.63.206-.177.462-.317.77-.42.318-.103.7-.154 1.148-.154.896 0 1.554.21 1.974.63.42.41.63 1.04.63 1.89V10h-1.078V8.768c-.093.159-.2.317-.322.476a2.052 2.052 0 0 1-1.106.728 3.17 3.17 0 0 1-.896.112Zm.35-1.064c.56 0 1.004-.163 1.33-.49.336-.336.504-.789.504-1.358v-.448h-1.708c-.532 0-.905.098-1.12.294-.205.187-.308.485-.308.896 0 .327.108.593.322.798.215.205.542.308.98.308Zm4.407-.196c.28-.037.513-.121.7-.252.187-.13.336-.327.448-.588a3.85 3.85 0 0 0 .238-1.022c.047-.41.07-.915.07-1.512V2.58h4.886V10h-1.246V3.658h-2.422V5.45c0 1.596-.205 2.772-.616 3.528-.411.747-1.097 1.12-2.058 1.12V8.824Z" fill="#fff"/></svg><svg fill="none" viewBox="0 0 33 33" id="star" xmlns="http://www.w3.org/2000/svg"><path d="m17.05 24.337 6.3 4c.813.513 1.813-.25 1.575-1.187L23.1 19.975a1.087 1.087 0 0 1 .362-1.1l5.65-4.713c.738-.612.363-1.85-.6-1.912l-7.375-.475a1.037 1.037 0 0 1-.912-.675l-2.75-6.925a1.038 1.038 0 0 0-1.95 0l-2.75 6.925a1.038 1.038 0 0 1-.912.675l-7.376.475c-.962.063-1.337 1.3-.6 1.912l5.65 4.713a1.087 1.087 0 0 1 .363 1.1l-1.688 6.65c-.287 1.125.913 2.038 1.876 1.425l5.862-3.713a1.025 1.025 0 0 1 1.1 0v0Z"   stroke-width="1.5" stroke-linecap="round" stroke-linejoin="round"/></svg><svg fill="none" viewBox="0 0 20 20" id="telegram" xmlns="http://www.w3.org/2000/svg"><path d="m6.875 10.54 7.023 6.179a.624.624 0 0 0 1.024-.328l2.937-12.829a.625.625 0 0 0-.836-.718L2.601 8.508c-.578.226-.5 1.07.11 1.195l4.164.836ZM6.875 10.54l10.633-7.68"   stroke-linecap="round" stroke-linejoin="round"/><path d="m10.383 13.625-2.438 2.438a.625.625 0 0 1-1.07-.438v-5.086"   stroke-linecap="round" stroke-linejoin="round"/></svg><svg fill="none" viewBox="0 0 32 33" id="timer" xmlns="http://www.w3.org/2000/svg"><path d="M16 27.465c6.075 0 11-4.925 11-11s-4.925-11-11-11-11 4.925-11 11 4.925 11 11 11ZM16 16.465l4.95-4.95M13 1.465h6"   stroke-width="1.5" stroke-linecap="round" stroke-linejoin="round"/></svg><svg fill="none" viewBox="0 0 20 20" id="toggler-close" xmlns="http://www.w3.org/2000/svg"><path d="m15.625 4.375-11.25 11.25M15.625 15.625 4.375 4.375"   stroke-width="1.5" stroke-linecap="round" stroke-linejoin="round"/></svg><svg fill="none" viewBox="0 0 20 20" id="user" xmlns="http://www.w3.org/2000/svg"><path d="M10 12.5a5 5 0 1 0 0-10 5 5 0 0 0 0 10Z"   stroke-width="1.5" stroke-linecap="round" stroke-linejoin="round"/><path d="M2.422 16.875a8.75 8.75 0 0 1 15.156 0"   stroke-width="1.5" stroke-linecap="round" stroke-linejoin="round"/></svg><svg fill="none" viewBox="0 0 33 33" id="users" xmlns="http://www.w3.org/2000/svg"><path d="M16.5 22.965a5 5 0 1 0 0-10 5 5 0 0 0 0 10ZM25 14.965a7.474 7.474 0 0 1 6 3M2 17.965a7.475 7.475 0 0 1 6-3"   stroke-width="1.5" stroke-linecap="round" stroke-linejoin="round"/><path d="M9.3 27.465a8.012 8.012 0 0 1 14.4 0M8 14.965a4 4 0 1 1 3.925-4.75M21.075 10.215A4 4 0 1 1 25 14.965"   stroke-width="1.5" stroke-linecap="round" stroke-linejoin="round"/></svg><svg fill="none" viewBox="0 0 20 20" id="vue" xmlns="http://www.w3.org/2000/svg"><path d="M10 4.375C3.75 4.375 1.25 10 1.25 10s2.5 5.625 8.75 5.625S18.75 10 18.75 10 16.25 4.375 10 4.375Z"   stroke-width="1.5" stroke-linecap="round" stroke-linejoin="round"/><path d="M10 13.125a3.125 3.125 0 1 0 0-6.25 3.125 3.125 0 0 0 0 6.25Z"   stroke-width="1.5" stroke-linecap="round" stroke-linejoin="round"/></svg><svg fill="none" viewBox="0 0 20 20" id="vueclose" xmlns="http://www.w3.org/2000/svg"><path d="M10 4.375C3.75 4.375 1.25 10 1.25 10s2.5 5.625 8.75 5.625S18.75 10 18.75 10 16.25 4.375 10 4.375Z"   stroke-width="1.5" stroke-linecap="round" stroke-linejoin="round"/><path d="M10 13.125a3.125 3.125 0 1 0 0-6.25 3.125 3.125 0 0 0 0 6.25Z"   stroke-width="1.5" stroke-linecap="round" stroke-linejoin="round"/><path   d="m17.365 1.342-15 16"/></svg><svg fill="none" viewBox="0 0 24 24" id="warning" xmlns="http://www.w3.org/2000/svg"><path d="M12 21a9 9 0 1 0 0-18 9 9 0 0 0 0 18Z"   stroke-width="1.5" stroke-linecap="round" stroke-linejoin="round"/><path d="M11.25 11.25H12v5.25h.75"   stroke-width="1.5" stroke-linecap="round" stroke-linejoin="round"/><path d="M11.813 8.813a.937.937 0 1 0 0-1.875.937.937 0 0 0 0 1.875Z" fill="#F5BD0B"/></svg><svg fill="none" viewBox="0 0 14 14" id="warning-btn" xmlns="http://www.w3.org/2000/svg"><path d="M7 12.25a5.25 5.25 0 1 0 0-10.5 5.25 5.25 0 0 0 0 10.5ZM7 4.375v3.063"  stroke-linecap="round" stroke-linejoin="round"/><path d="M7 9.844a.438.438 0 1 0 0-.875.438.438 0 0 0 0 .875Z" fill="#0B0C0C"/></svg><svg fill="none" viewBox="0 0 20 20" id="whatsapp" xmlns="http://www.w3.org/2000/svg"><path d="M3.547 13.828a7.492 7.492 0 1 1 2.625 2.625v0l-2.594.735a.617.617 0 0 1-.765-.766l.734-2.594Z"   stroke-linecap="round" stroke-linejoin="round"/><path d="M11.883 14.375a6.243 6.243 0 0 1-6.258-6.258 2.187 2.187 0 0 1 2.188-2.18v0a.531.531 0 0 1 .468.274l.914 1.594a.633.633 0 0 1-.007.632l-.735 1.227a3.75 3.75 0 0 0 1.883 1.883l1.226-.735a.634.634 0 0 1 .633-.007l1.594.914a.532.532 0 0 1 .274.469 2.195 2.195 0 0 1-2.18 2.187v0Z"   stroke-linecap="round" stroke-linejoin="round"/></svg></svg>