<svg width="20" height="20" viewBox="0 0 20 20" fill="none" xmlns="http://www.w3.org/2000/svg">
<path d="M6.87484 10.5391L13.8983 16.7187C13.9794 16.7906 14.0779 16.8401 14.184 16.8624C14.2901 16.8847 14.4001 16.879 14.5034 16.8459C14.6066 16.8128 14.6994 16.7535 14.7728 16.6736C14.8461 16.5938 14.8975 16.4963 14.9217 16.3906L17.8592 3.56249C17.8838 3.45202 17.878 3.33692 17.8423 3.2295C17.8067 3.12208 17.7425 3.02637 17.6567 2.95257C17.5708 2.87878 17.4666 2.82968 17.355 2.81051C17.2435 2.79134 17.1288 2.80283 17.0233 2.84374L2.6014 8.5078C2.02328 8.73437 2.1014 9.57812 2.71078 9.70312L6.87484 10.5391Z" stroke="#60C0C3" stroke-linecap="round" stroke-linejoin="round"/>
<path d="M6.875 10.5391L17.5078 2.85938" stroke="#60C0C3" stroke-linecap="round" stroke-linejoin="round"/>
<path d="M10.3828 13.625L7.94531 16.0625C7.85835 16.1508 7.7471 16.2113 7.62571 16.2362C7.50431 16.2611 7.37824 16.2494 7.26352 16.2025C7.1488 16.1556 7.05061 16.0757 6.98143 15.9728C6.91225 15.87 6.87521 15.7489 6.875 15.625V10.5391" stroke="#60C0C3" stroke-linecap="round" stroke-linejoin="round"/>
</svg>
