<svg width="33" height="33" viewBox="0 0 33 33" fill="none" xmlns="http://www.w3.org/2000/svg">
<path d="M16.5 22.9648C19.2614 22.9648 21.5 20.7263 21.5 17.9648C21.5 15.2034 19.2614 12.9648 16.5 12.9648C13.7386 12.9648 11.5 15.2034 11.5 17.9648C11.5 20.7263 13.7386 22.9648 16.5 22.9648Z" stroke="#383E45" stroke-width="1.5" stroke-linecap="round" stroke-linejoin="round"/>
<path d="M25 14.9649C26.1647 14.9629 27.3137 15.2331 28.3554 15.754C29.3972 16.2749 30.3028 17.0319 31 17.9649" stroke="#383E45" stroke-width="1.5" stroke-linecap="round" stroke-linejoin="round"/>
<path d="M2 17.9649C2.69725 17.0319 3.60285 16.2749 4.64457 15.754C5.6863 15.2331 6.83532 14.9629 8 14.9649" stroke="#383E45" stroke-width="1.5" stroke-linecap="round" stroke-linejoin="round"/>
<path d="M9.2998 27.4648C9.95833 26.1162 10.9824 24.9796 12.2554 24.1846C13.5283 23.3895 14.999 22.968 16.4998 22.968C18.0006 22.968 19.4713 23.3895 20.7442 24.1846C22.0172 24.9796 23.0413 26.1162 23.6998 27.4648" stroke="#383E45" stroke-width="1.5" stroke-linecap="round" stroke-linejoin="round"/>
<path d="M8.00015 14.9648C7.24096 14.9656 6.49722 14.7503 5.85584 14.3441C5.21446 13.9379 4.70193 13.3575 4.37814 12.6708C4.05434 11.9841 3.93266 11.2195 4.0273 10.4662C4.12194 9.71293 4.429 9.00215 4.9126 8.4169C5.39619 7.83165 6.03636 7.39612 6.75829 7.16118C7.48022 6.92625 8.25411 6.90162 8.98952 7.09017C9.72493 7.27872 10.3915 7.67267 10.9113 8.22598C11.4312 8.77929 11.7828 9.46911 11.9252 10.2148" stroke="#383E45" stroke-width="1.5" stroke-linecap="round" stroke-linejoin="round"/>
<path d="M21.0752 10.2148C21.2175 9.46911 21.5692 8.77929 22.089 8.22598C22.6089 7.67267 23.2754 7.27872 24.0108 7.09017C24.7462 6.90162 25.5201 6.92625 26.2421 7.16118C26.964 7.39612 27.6042 7.83165 28.0878 8.4169C28.5714 9.00215 28.8784 9.71293 28.9731 10.4662C29.0677 11.2195 28.946 11.9841 28.6222 12.6708C28.2984 13.3575 27.7859 13.9379 27.1445 14.3441C26.5031 14.7503 25.7594 14.9656 25.0002 14.9648" stroke="#383E45" stroke-width="1.5" stroke-linecap="round" stroke-linejoin="round"/>
</svg>
