<svg width="20" height="20" viewBox="0 0 20 20" fill="none" xmlns="http://www.w3.org/2000/svg">
<path d="M15.625 13.75V5.00002C15.626 4.7535 15.5782 4.50922 15.4844 4.28126C15.3905 4.05331 15.2524 3.8462 15.0781 3.67189C14.9038 3.49757 14.6967 3.3595 14.4688 3.26564C14.2408 3.17178 13.9965 3.12398 13.75 3.12502H3.125" stroke="#318FAD" stroke-width="1.5" stroke-linecap="round" stroke-linejoin="round"/>
<path d="M8.125 8.125H13.125" stroke="#318FAD" stroke-width="1.5" stroke-linecap="round" stroke-linejoin="round"/>
<path d="M8.125 10.625H13.125" stroke="#318FAD" stroke-width="1.5" stroke-linecap="round" stroke-linejoin="round"/>
<path d="M1.72656 6.24998C1.52417 6.02337 1.37988 5.75097 1.30611 5.45623C1.23234 5.16149 1.2313 4.85324 1.30308 4.55801C1.37486 4.26277 1.51731 3.98941 1.71817 3.76144C1.91903 3.53347 2.17228 3.35773 2.45612 3.24934C2.73996 3.14095 3.04589 3.10317 3.34757 3.13923C3.64926 3.1753 3.93766 3.28414 4.18795 3.45638C4.43824 3.62863 4.64292 3.85912 4.78438 4.12801C4.92584 4.3969 4.99984 4.69614 5 4.99998V15C5.00016 15.3038 5.07416 15.603 5.21562 15.8719C5.35708 16.1408 5.56176 16.3713 5.81205 16.5436C6.06234 16.7158 6.35074 16.8247 6.65243 16.8607C6.95411 16.8968 7.26004 16.859 7.54388 16.7506C7.82772 16.6422 8.08097 16.4665 8.28183 16.2385C8.48269 16.0105 8.62514 15.7372 8.69692 15.4419C8.7687 15.1467 8.76766 14.8385 8.69389 14.5437C8.62012 14.249 8.47583 13.9766 8.27344 13.75H17.0234C17.2648 14.0198 17.4229 14.3538 17.4786 14.7115C17.5343 15.0692 17.4852 15.4354 17.3373 15.7658C17.1895 16.0963 16.9491 16.3769 16.6452 16.5737C16.3414 16.7705 15.987 16.8751 15.625 16.875H6.875" stroke="#318FAD" stroke-width="1.5" stroke-linecap="round" stroke-linejoin="round"/>
</svg>
