<svg width="32" height="32" viewBox="0 0 32 32" fill="none" xmlns="http://www.w3.org/2000/svg">
<path d="M12 27H30" stroke="black" stroke-width="1.5" stroke-linecap="round" stroke-linejoin="round"/>
<path d="M3.00001 12.9628V6.38778C2.99999 6.22965 3.03748 6.07377 3.10939 5.93294C3.1813 5.79211 3.28558 5.67034 3.41367 5.57763C3.54176 5.48491 3.69002 5.42389 3.84627 5.39958C4.00251 5.37527 4.1623 5.38836 4.31251 5.43778L6.00001 6.00028L8.00001 9.75028L12 11.0003V6.38778C12 6.22965 12.0375 6.07377 12.1094 5.93294C12.1813 5.79211 12.2856 5.67034 12.4137 5.57763C12.5418 5.48491 12.69 5.42389 12.8463 5.39958C13.0025 5.37527 13.1623 5.38836 13.3125 5.43778L15 6.00028L19 13.0003L25.075 14.6878C25.9169 14.9205 26.6592 15.4233 27.1876 16.1189C27.716 16.8144 28.0015 17.6643 28 18.5378V23.0003L5.92501 16.8128C5.08306 16.58 4.34085 16.0772 3.81241 15.3817C3.28397 14.6861 2.99855 13.8363 3.00001 12.9628V12.9628Z" stroke="black" stroke-width="1.5" stroke-linecap="round" stroke-linejoin="round"/>
</svg>
