<svg width="32" height="32" viewBox="0 0 32 32" fill="none" xmlns="http://www.w3.org/2000/svg">
<path d="M17.2627 4.0625C17.5534 3.30751 18.0663 2.65843 18.7336 2.20094C19.4008 1.74344 20.1912 1.49905 21.0002 1.5" stroke="black" stroke-width="1.5" stroke-linecap="round" stroke-linejoin="round"/>
<path d="M27.3125 20.3629C25.7375 24.2129 22.8875 27.0004 20.5 27.0004H11.5C8 27.0004 3.5 21.0004 3.5 14.5004C3.50052 13.0528 3.91995 11.6363 4.70768 10.4218C5.49542 9.20732 6.61779 8.24675 7.93936 7.65601C9.26093 7.06527 10.7252 6.8696 12.1555 7.09263C13.5858 7.31566 14.921 7.94785 16 8.91292V8.91292C16.7637 8.22868 17.6597 7.70833 18.6325 7.38402C19.6052 7.05971 20.6342 6.93831 21.6557 7.02735C22.6773 7.11638 23.6697 7.41395 24.5717 7.90166C25.4737 8.38938 26.2661 9.05687 26.9 9.86292V9.86292C25.9813 10.4177 25.2282 11.2087 24.7192 12.1535C24.2102 13.0983 23.9639 14.1623 24.006 15.2347C24.0482 16.3071 24.3772 17.3485 24.9587 18.2505C25.5403 19.1525 26.3531 19.882 27.3125 20.3629V20.3629Z" stroke="black" stroke-width="1.5" stroke-linecap="round" stroke-linejoin="round"/>
</svg>
