<svg width="20" height="20" viewBox="0 0 20 20" fill="none" xmlns="http://www.w3.org/2000/svg">
                  <path d="M4.39087 8.12509C4.38982 7.38413 4.53538 6.65029 4.81917 5.96584C5.10295 5.28138 5.51934 4.65983 6.04436 4.13699C6.56938 3.61414 7.19266 3.20034 7.87829 2.91941C8.56392 2.63847 9.29836 2.49596 10.0393 2.50009C13.1331 2.52352 15.6096 5.09384 15.6096 8.1954V8.75009C15.6096 11.547 16.1956 13.172 16.7112 14.0626C16.7659 14.1574 16.7948 14.265 16.7949 14.3745C16.795 14.4841 16.7663 14.5917 16.7117 14.6866C16.6571 14.7816 16.5785 14.8605 16.4838 14.9155C16.3891 14.9705 16.2816 14.9997 16.1721 15.0001H3.82837C3.71884 14.9997 3.61134 14.9705 3.51664 14.9155C3.42193 14.8605 3.34334 14.7816 3.28875 14.6866C3.23416 14.5917 3.20547 14.4841 3.20557 14.3745C3.20566 14.265 3.23454 14.1574 3.2893 14.0626C3.80493 13.172 4.39087 11.547 4.39087 8.75009V8.12509Z" stroke="white" stroke-width="1.5" stroke-linecap="round" stroke-linejoin="round"/>
                  <path d="M7.5 15V15.625C7.5 16.288 7.76339 16.9239 8.23223 17.3928C8.70107 17.8616 9.33696 18.125 10 18.125C10.663 18.125 11.2989 17.8616 11.7678 17.3928C12.2366 16.9239 12.5 16.288 12.5 15.625V15" stroke="white" stroke-width="1.5" stroke-linecap="round" stroke-linejoin="round"/>
                  </svg>