<svg width="18" height="18" viewBox="0 0 18 18" fill="none" xmlns="http://www.w3.org/2000/svg">
<path d="M16.6484 7.03125C16.3516 6.72656 16.0469 6.40625 15.9297 6.13281C15.8125 5.85938 15.8203 5.45313 15.8125 5.03906C15.8047 4.28125 15.7891 3.41406 15.1875 2.8125C14.5859 2.21094 13.7188 2.19531 12.9609 2.1875C12.5469 2.17969 12.125 2.17187 11.8672 2.07031C11.6094 1.96875 11.2734 1.64844 10.9688 1.35156C10.4297 0.835938 9.8125 0.25 9 0.25C8.1875 0.25 7.57031 0.835938 7.03125 1.35156C6.72656 1.64844 6.40625 1.95312 6.13281 2.07031C5.85938 2.1875 5.45313 2.17969 5.03906 2.1875C4.28125 2.19531 3.41406 2.21094 2.8125 2.8125C2.21094 3.41406 2.19531 4.28125 2.1875 5.03906C2.17969 5.45313 2.17187 5.875 2.07031 6.13281C1.96875 6.39062 1.64844 6.72656 1.35156 7.03125C0.835938 7.57031 0.25 8.1875 0.25 9C0.25 9.8125 0.835938 10.4297 1.35156 10.9688C1.64844 11.2734 1.95312 11.5938 2.07031 11.8672C2.1875 12.1406 2.17969 12.5469 2.1875 12.9609C2.19531 13.7188 2.21094 14.5859 2.8125 15.1875C3.41406 15.7891 4.28125 15.8047 5.03906 15.8125C5.45313 15.8203 5.875 15.8281 6.13281 15.9297C6.39062 16.0312 6.72656 16.3516 7.03125 16.6484C7.57031 17.1641 8.1875 17.75 9 17.75C9.8125 17.75 10.4297 17.1641 10.9688 16.6484C11.2734 16.3516 11.5938 16.0469 11.8672 15.9297C12.1406 15.8125 12.5469 15.8203 12.9609 15.8125C13.7188 15.8047 14.5859 15.7891 15.1875 15.1875C15.7891 14.5859 15.8047 13.7188 15.8125 12.9609C15.8203 12.5469 15.8281 12.125 15.9297 11.8672C16.0312 11.6094 16.3516 11.2734 16.6484 10.9688C17.1641 10.4297 17.75 9.8125 17.75 9C17.75 8.1875 17.1641 7.57031 16.6484 7.03125ZM12.8672 7.57812L8.28906 11.9531C8.17071 12.0645 8.01405 12.126 7.85156 12.125C7.69146 12.1256 7.53739 12.064 7.42188 11.9531L5.13281 9.76562C5.06932 9.71023 5.01769 9.64257 4.98101 9.56672C4.94434 9.49086 4.92338 9.40837 4.9194 9.32421C4.91541 9.24004 4.92849 9.15594 4.95784 9.07696C4.98719 8.99798 5.03221 8.92575 5.09018 8.86461C5.14816 8.80347 5.2179 8.75469 5.29521 8.72119C5.37253 8.68769 5.45581 8.67017 5.54007 8.66968C5.62432 8.66919 5.70781 8.68574 5.78551 8.71834C5.8632 8.75094 5.9335 8.79891 5.99219 8.85938L7.85156 10.6328L12.0078 6.67188C12.1293 6.56585 12.2871 6.51091 12.4482 6.51853C12.6093 6.52615 12.7612 6.59575 12.8722 6.71277C12.9832 6.8298 13.0446 6.98519 13.0437 7.14646C13.0428 7.30773 12.9795 7.4624 12.8672 7.57812Z" fill="#60C0C3"/>
</svg>
