<svg width="21" height="20" viewBox="0 0 21 20" fill="none" xmlns="http://www.w3.org/2000/svg">
<path d="M7.83331 13.75H2.67706C2.55274 13.75 2.43351 13.7006 2.34561 13.6127C2.2577 13.5248 2.20831 13.4056 2.20831 13.2812V8.125C2.20831 6.63316 2.80095 5.20242 3.85584 4.14752C4.91073 3.09263 6.34147 2.5 7.83331 2.5V2.5C9.32516 2.5 10.7559 3.09263 11.8108 4.14752C12.8657 5.20242 13.4583 6.63316 13.4583 8.125V8.125C13.4583 9.61684 12.8657 11.0476 11.8108 12.1025C10.7559 13.1574 9.32516 13.75 7.83331 13.75V13.75Z" stroke="#318FAD" stroke-width="1.5" stroke-linecap="round" stroke-linejoin="round"/>
<path d="M7.52863 13.75C7.91644 14.8469 8.63486 15.7966 9.5849 16.4682C10.5349 17.1398 11.6699 17.5003 12.8333 17.5H17.9896C18.1139 17.5 18.2331 17.4506 18.321 17.3627C18.4089 17.2748 18.4583 17.1556 18.4583 17.0312V11.875C18.4603 10.4353 17.9094 9.04972 16.9194 8.00443C15.9293 6.95914 14.5757 6.3339 13.138 6.25781" stroke="#318FAD" stroke-width="1.5" stroke-linecap="round" stroke-linejoin="round"/>
</svg>
