<svg width="20" height="20" viewBox="0 0 20 20" fill="none" xmlns="http://www.w3.org/2000/svg">
                <path d="M16.25 11.25H3.75C3.40482 11.25 3.125 11.5298 3.125 11.875V15.625C3.125 15.9702 3.40482 16.25 3.75 16.25H16.25C16.5952 16.25 16.875 15.9702 16.875 15.625V11.875C16.875 11.5298 16.5952 11.25 16.25 11.25Z" stroke="" stroke-linecap="round" stroke-linejoin="round"/>
                <path d="M16.25 3.75H3.75C3.40482 3.75 3.125 4.02982 3.125 4.375V8.125C3.125 8.47018 3.40482 8.75 3.75 8.75H16.25C16.5952 8.75 16.875 8.47018 16.875 8.125V4.375C16.875 4.02982 16.5952 3.75 16.25 3.75Z" stroke="" stroke-linecap="round" stroke-linejoin="round"/>
                <path d="M14.0625 14.375C14.4077 14.375 14.6875 14.0952 14.6875 13.75C14.6875 13.4048 14.4077 13.125 14.0625 13.125C13.7173 13.125 13.4375 13.4048 13.4375 13.75C13.4375 14.0952 13.7173 14.375 14.0625 14.375Z" fill=""/>
                <path d="M14.0625 6.875C14.4077 6.875 14.6875 6.59518 14.6875 6.25C14.6875 5.90482 14.4077 5.625 14.0625 5.625C13.7173 5.625 13.4375 5.90482 13.4375 6.25C13.4375 6.59518 13.7173 6.875 14.0625 6.875Z" fill=""/>
                </svg>