<svg width="240" height="281" viewBox="0 0 240 281" fill="none" xmlns="http://www.w3.org/2000/svg">
<g clip-path="url(#clip0_249_17463)">
<path d="M0 16.0186C0 7.182 7.16344 0.0185547 16 0.0185547H239.5V264.019C239.5 272.855 232.337 280.019 223.5 280.019H0V16.0186Z" fill="#00ABA9"/>
<g opacity="0.1">
<path d="M78.9248 271.401L68.6539 268.651L65.9038 278.922L76.1746 281.672L78.9248 271.401Z" fill="white"/>
<path d="M91.7274 275.686L83.042 273.339L80.6952 282.025L89.3807 284.371L91.7274 275.686Z" fill="white"/>
<path d="M72.9173 255.92L81.6011 258.147L79.1878 266.78L70.6221 264.485L72.9173 255.92Z" fill="white"/>
<path d="M92.0949 263.716L88.5398 262.763L87.5872 266.318L91.1423 267.271L92.0949 263.716Z" fill="white"/>
<path d="M106.078 267.266L102.389 266.288L101.411 269.977L105.1 270.955L106.078 267.266Z" fill="white"/>
<path d="M119.857 270.983L116.17 269.995L115.182 273.682L118.869 274.669L119.857 270.983Z" fill="white"/>
<path d="M147.033 278.614L144.002 277.812L143.199 280.843L146.23 281.645L147.033 278.614Z" fill="white"/>
<path d="M85.1765 244.311L76.7495 242.053L74.4915 250.48L82.9185 252.738L85.1765 244.311Z" fill="white"/>
<path d="M90.5068 245.761L98.9545 248.125L96.7774 256.622L88.2116 254.327L90.5068 245.761Z" fill="white"/>
<path d="M106.127 252.645L109.547 253.661L108.717 257.131L105.179 256.183L106.127 252.645Z" fill="white"/>
<path d="M119.975 256.454L123.445 257.284L122.497 260.822L118.959 259.874L119.975 256.454Z" fill="white"/>
<path d="M164.705 268.551L161.545 267.705L160.733 270.733L163.893 271.58L164.705 268.551Z" fill="white"/>
<path d="M178.624 272.131L175.071 271.169L174.11 274.722L177.662 275.684L178.624 272.131Z" fill="white"/>
<path d="M192.597 275.763L188.913 274.767L187.916 278.452L191.601 279.448L192.597 275.763Z" fill="white"/>
<path d="M206.533 279.245L202.585 278.178L201.518 282.126L205.466 283.193L206.533 279.245Z" fill="white"/>
<path d="M214.574 278.807L223.512 281.202L221.117 290.14L212.179 287.745L214.574 278.807Z" fill="white"/>
<path d="M88.72 230.682L80.427 228.45L78.1956 236.743L86.4886 238.975L88.72 230.682Z" fill="white"/>
<path d="M99.3543 236.226L96.1938 235.38L95.3482 238.54L98.5086 239.386L99.3543 236.226Z" fill="white"/>
<path d="M113.148 239.865L109.988 239.018L109.141 242.178L112.302 243.025L113.148 239.865Z" fill="white"/>
<path d="M182.326 258.435L178.903 257.518L177.986 260.941L181.409 261.858L182.326 258.435Z" fill="white"/>
<path d="M196.061 262.007L192.509 261.045L191.547 264.598L195.099 265.56L196.061 262.007Z" fill="white"/>
<path d="M210.1 265.571L206.279 264.556L205.265 268.377L209.086 269.392L210.1 265.571Z" fill="white"/>
<path d="M226.954 267.479L218.13 265.123L215.774 273.947L224.598 276.304L226.954 267.479Z" fill="white"/>
<path d="M242.812 269.881L230.83 266.67L227.619 278.652L239.601 281.863L242.812 269.881Z" fill="white"/>
<path d="M89.0422 218.843L86.014 218.031L85.2015 221.059L88.2297 221.872L89.0422 218.843Z" fill="white"/>
<path d="M99.8682 221.627L102.916 222.544L102.117 225.523L99.1381 224.725L99.8682 221.627Z" fill="white"/>
<path d="M155.191 236.752L157.916 237.383L157.168 240.176L154.493 239.359L155.191 236.752Z" fill="white"/>
<path d="M171.936 240.923L168.776 240.076L167.93 243.237L171.09 244.083L171.936 240.923Z" fill="white"/>
<path d="M182.546 243.783L185.83 244.563L184.932 247.914L181.698 246.948L182.546 243.783Z" fill="white"/>
<path d="M199.928 248.179L196.375 247.217L195.413 250.77L198.966 251.732L199.928 248.179Z" fill="white"/>
<path d="M216.805 250.118L208.245 247.826L205.954 256.385L214.513 258.677L216.805 250.118Z" fill="white"/>
<path d="M232.704 252.567L220.72 249.365L217.553 261.217L229.537 264.42L232.704 252.567Z" fill="white"/>
<path d="M246.492 256.275L234.51 253.064L231.3 265.047L243.282 268.257L246.492 256.275Z" fill="white"/>
<path d="M89.8491 204.273L92.6422 205.022L91.962 207.933L89.1688 207.184L89.8491 204.273Z" fill="white"/>
<path d="M147.708 220.028L145.209 219.348L144.529 221.847L147.028 222.527L147.708 220.028Z" fill="white"/>
<path d="M161.492 223.673L158.854 222.987L158.167 225.625L160.806 226.312L161.492 223.673Z" fill="white"/>
<path d="M172.713 226.476L175.388 227.293L174.758 230.018L171.965 229.269L172.713 226.476Z" fill="white"/>
<path d="M186.357 229.932L189.522 230.781L188.742 234.064L185.39 233.166L186.357 229.932Z" fill="white"/>
<path d="M206.587 232.62L198.292 230.398L196.069 238.693L204.365 240.916L206.587 232.62Z" fill="white"/>
<path d="M222.631 234.985L210.775 231.828L207.619 243.684L219.474 246.841L222.631 234.985Z" fill="white"/>
<path d="M236.47 238.821L224.619 235.646L221.444 247.496L233.295 250.672L236.47 238.821Z" fill="white"/>
<path d="M250.272 242.53L238.292 239.311L235.073 251.291L247.053 254.51L250.272 242.53Z" fill="white"/>
<path d="M137.365 202.514L135.124 201.922L134.533 204.163L136.773 204.755L137.365 202.514Z" fill="white"/>
<path d="M148.796 205.5L151.403 206.199L150.705 208.806L148.216 208.039L148.796 205.5Z" fill="white"/>
<path d="M165.164 209.885L162.663 209.215L161.992 211.716L164.494 212.387L165.164 209.885Z" fill="white"/>
<path d="M179.369 213.444L176.34 212.633L175.529 215.661L178.557 216.473L179.369 213.444Z" fill="white"/>
<path d="M196.358 215.226L188.33 213.056L186.16 221.083L194.187 223.253L196.358 215.226Z" fill="white"/>
<path d="M212.491 217.623L200.769 214.493L197.639 226.215L209.361 229.345L212.491 217.623Z" fill="white"/>
<path d="M226.368 221.263L214.521 218.077L211.335 229.925L223.183 233.111L226.368 221.263Z" fill="white"/>
<path d="M240.185 224.945L228.337 221.761L225.153 233.61L237.002 236.793L240.185 224.945Z" fill="white"/>
<path d="M253.839 228.706L241.986 225.539L238.819 237.391L250.672 240.558L253.839 228.706Z" fill="white"/>
<path d="M141.207 188.847L138.834 188.222L138.209 190.595L140.581 191.22L141.207 188.847Z" fill="white"/>
<path d="M152.488 191.718L155.095 192.417L154.329 194.906L151.908 194.257L152.488 191.718Z" fill="white"/>
<path d="M166.318 195.226L168.993 196.043L168.295 198.65L165.57 198.019L166.318 195.226Z" fill="white"/>
<path d="M186.149 197.782L178.25 195.657L176.125 203.555L184.023 205.68L186.149 197.782Z" fill="white"/>
<path d="M199.996 201.593L191.964 199.44L189.812 207.472L197.844 209.625L199.996 201.593Z" fill="white"/>
<path d="M216.123 203.93L204.402 200.798L201.271 212.519L212.992 215.651L216.123 203.93Z" fill="white"/>
<path d="M229.963 207.473L218.245 204.333L215.105 216.052L226.823 219.192L229.963 207.473Z" fill="white"/>
<path d="M243.708 211.209L231.86 208.023L228.675 219.871L240.522 223.057L243.708 211.209Z" fill="white"/>
<path d="M130.923 171.386L128.818 170.813L128.245 172.917L130.35 173.49L130.923 171.386Z" fill="white"/>
<path d="M142.587 174.296L144.821 174.895L144.173 177.316L141.938 176.717L142.587 174.296Z" fill="white"/>
<path d="M158.79 178.575L156.288 177.905L155.618 180.406L158.119 181.077L158.79 178.575Z" fill="white"/>
<path d="M172.763 182.25L170 181.5L169.25 184.262L172.012 185.013L172.763 182.25Z" fill="white"/>
<path d="M189.679 184.045L181.91 181.964L179.83 189.733L187.599 191.814L189.679 184.045Z" fill="white"/>
<path d="M203.714 187.696L195.682 185.545L193.531 193.578L201.564 195.728L203.714 187.696Z" fill="white"/>
<path d="M219.866 190.165L208.152 187.007L204.994 198.72L216.708 201.879L219.866 190.165Z" fill="white"/>
<path d="M233.679 193.735L221.96 190.595L218.82 202.314L230.539 205.454L233.679 193.735Z" fill="white"/>
<path d="M247.451 197.412L235.599 194.245L232.432 206.098L244.284 209.265L247.451 197.412Z" fill="white"/>
<path d="M120.436 154.02L118.857 153.593L118.43 155.172L120.009 155.599L120.436 154.02Z" fill="white"/>
<path d="M134.212 157.639L132.634 157.207L132.202 158.785L133.78 159.217L134.212 157.639Z" fill="white"/>
<path d="M148.495 161.227L146.256 160.626L145.656 162.864L147.894 163.465L148.495 161.227Z" fill="white"/>
<path d="M162.477 164.825L159.975 164.153L159.304 166.655L161.806 167.326L162.477 164.825Z" fill="white"/>
<path d="M172.134 164.951L179.092 166.915L177.246 173.805L170.356 171.959L172.134 164.951Z" fill="white"/>
<path d="M187.414 171.239L190.276 172.105L189.527 174.899L186.734 174.15L187.414 171.239Z" fill="white"/>
<path d="M207.332 173.792L199.299 171.642L197.149 179.674L205.181 181.825L207.332 173.792Z" fill="white"/>
<path d="M223.506 176.214L211.785 173.082L208.653 184.803L220.374 187.935L223.506 176.214Z" fill="white"/>
<path d="M237.195 179.843L225.476 176.703L222.336 188.422L234.055 191.562L237.195 179.843Z" fill="white"/>
<path d="M251.184 183.527L239.465 180.387L236.325 192.105L248.043 195.245L251.184 183.527Z" fill="white"/>
<path d="M108.65 135.967L110.513 136.466L110.014 138.328L108.151 137.829L108.65 135.967Z" fill="white"/>
<path d="M124.179 140.246L122.601 139.818L122.173 141.397L123.751 141.825L124.179 140.246Z" fill="white"/>
<path d="M136.26 143.164L138.308 143.713L137.759 145.762L135.593 145.281L136.26 143.164Z" fill="white"/>
<path d="M148.131 143.551L155.394 145.497L153.448 152.759L146.185 150.813L148.131 143.551Z" fill="white"/>
<path d="M171.83 147.703L160.375 144.634L157.306 156.089L168.761 159.158L171.83 147.703Z" fill="white"/>
<path d="M182.816 153.09L175.834 151.23L173.974 158.211L180.955 160.071L182.816 153.09Z" fill="white"/>
<path d="M199.542 155.158L187.955 152.053L184.85 163.64L196.438 166.745L199.542 155.158Z" fill="white"/>
<path d="M213.399 158.804L201.812 155.7L198.708 167.287L210.295 170.391L213.399 158.804Z" fill="white"/>
<path d="M227.199 162.368L215.483 159.218L212.333 170.934L224.049 174.084L227.199 162.368Z" fill="white"/>
<path d="M240.944 166.096L229.228 162.945L226.078 174.661L237.794 177.812L240.944 166.096Z" fill="white"/>
<path d="M114.228 122.586L112.253 122.056L111.723 124.031L113.698 124.561L114.228 122.586Z" fill="white"/>
<path d="M128.122 126.197L126.148 125.664L125.579 127.769L127.553 128.303L128.122 126.197Z" fill="white"/>
<path d="M160.561 134.682L149.108 131.605L147.233 138.582L158.686 141.66L160.561 134.682Z" fill="white"/>
<path d="M174.345 138.436L162.89 135.366L161.02 142.345L172.475 145.414L174.345 138.436Z" fill="white"/>
<path d="M188.12 142.019L176.664 138.95L174.794 145.929L186.25 148.998L188.12 142.019Z" fill="white"/>
<path d="M202.063 145.836L190.479 142.717L188.601 149.693L200.184 152.812L202.063 145.836Z" fill="white"/>
<path d="M215.847 149.417L204.259 146.312L202.354 153.422L213.941 156.527L215.847 149.417Z" fill="white"/>
<path d="M229.585 153.132L217.866 149.992L215.961 157.102L227.679 160.242L229.585 153.132Z" fill="white"/>
</g>
<g filter="url(#filter0_f_249_17463)">
<circle cx="33" cy="256.502" r="50" fill="#8EEB63"/>
</g>
</g>
<defs>
<filter id="filter0_f_249_17463" x="-177" y="46.5024" width="420" height="420" filterUnits="userSpaceOnUse" color-interpolation-filters="sRGB">
<feFlood flood-opacity="0" result="BackgroundImageFix"/>
<feBlend mode="normal" in="SourceGraphic" in2="BackgroundImageFix" result="shape"/>
<feGaussianBlur stdDeviation="80" result="effect1_foregroundBlur_249_17463"/>
</filter>
<clipPath id="clip0_249_17463">
<path d="M0 16.0186C0 7.182 7.16344 0.0185547 16 0.0185547H239.5V264.019C239.5 272.855 232.337 280.019 223.5 280.019H0V16.0186Z" fill="white"/>
</clipPath>
</defs>
</svg>
