<svg width="6" height="22" viewBox="0 0 6 22" fill="none" xmlns="http://www.w3.org/2000/svg">
<path d="M3.25 5.75C4.63071 5.75 5.75 4.63071 5.75 3.25C5.75 1.86929 4.63071 0.75 3.25 0.75C1.86929 0.75 0.75 1.86929 0.75 3.25C0.75 4.63071 1.86929 5.75 3.25 5.75Z" fill="#B8BEC3"/>
<path d="M3.25 13.75C4.63071 13.75 5.75 12.6307 5.75 11.25C5.75 9.86929 4.63071 8.75 3.25 8.75C1.86929 8.75 0.75 9.86929 0.75 11.25C0.75 12.6307 1.86929 13.75 3.25 13.75Z" fill="#B8BEC3"/>
<path d="M3.25 21.75C4.63071 21.75 5.75 20.6307 5.75 19.25C5.75 17.8693 4.63071 16.75 3.25 16.75C1.86929 16.75 0.75 17.8693 0.75 19.25C0.75 20.6307 1.86929 21.75 3.25 21.75Z" fill="#B8BEC3"/>
</svg>
