<svg width="20" height="21" viewBox="0 0 20 21" fill="none" xmlns="http://www.w3.org/2000/svg">
            <path d="M17.6172 10.4998H15.1172C14.7857 10.4998 14.4677 10.6315 14.2333 10.8659C13.9989 11.1003 13.8672 11.4183 13.8672 11.7498V14.8748C13.8672 15.2063 13.9989 15.5242 14.2333 15.7587C14.4677 15.9931 14.7857 16.1248 15.1172 16.1248H16.3672C16.6987 16.1248 17.0167 15.9931 17.2511 15.7587C17.4855 15.5242 17.6172 15.2063 17.6172 14.8748V10.4998ZM17.6172 10.4998C17.6172 9.50958 17.4212 8.52918 17.0404 7.61514C16.6596 6.7011 16.1015 5.87151 15.3984 5.17425C14.6954 4.47699 13.8612 3.92585 12.944 3.55264C12.0268 3.17942 11.0448 2.99152 10.0547 2.99977C9.06518 2.99256 8.08403 3.18122 7.16776 3.5549C6.2515 3.92858 5.41824 4.47988 4.716 5.17704C4.01376 5.8742 3.45642 6.70343 3.07609 7.61696C2.69576 8.53048 2.49997 9.51024 2.5 10.4998V14.8748C2.5 15.2063 2.6317 15.5242 2.86612 15.7587C3.10054 15.9931 3.41848 16.1248 3.75 16.1248H5C5.33152 16.1248 5.64946 15.9931 5.88388 15.7587C6.1183 15.5242 6.25 15.2063 6.25 14.8748V11.7498C6.25 11.4183 6.1183 11.1003 5.88388 10.8659C5.64946 10.6315 5.33152 10.4998 5 10.4998H2.5" stroke="" stroke-width="1.5" stroke-linecap="round" stroke-linejoin="round"/>
            <path d="M17.6172 14.875V16.75C17.6172 17.413 17.3538 18.0489 16.885 18.5178C16.4161 18.9866 15.7802 19.25 15.1172 19.25H10.625" stroke="" stroke-width="1.5" stroke-linecap="round" stroke-linejoin="round"/>
            </svg>