<svg width="33" height="33" viewBox="0 0 33 33" fill="none" xmlns="http://www.w3.org/2000/svg">
<path d="M27.8623 9.37522C28.5183 10.9068 28.6789 12.6052 28.3216 14.2326C27.9643 15.8601 27.107 17.335 25.8698 18.451C24.6326 19.5669 23.0773 20.2681 21.4218 20.4562C19.7663 20.6444 18.0934 20.3101 16.6373 19.5002V19.5002L9.62483 27.6252C9.06125 28.1888 8.29686 28.5054 7.49983 28.5054C6.7028 28.5054 5.93842 28.1888 5.37483 27.6252C4.81125 27.0616 4.49463 26.2973 4.49463 25.5002C4.49463 24.7032 4.81125 23.9388 5.37483 23.3752L13.4998 16.3627C12.6899 14.9066 12.3557 13.2337 12.5438 11.5782C12.732 9.92271 13.4331 8.36748 14.5491 7.13026C15.6651 5.89304 17.14 5.03578 18.7674 4.67849C20.3948 4.3212 22.0932 4.48177 23.6248 5.13772L18.3748 10.3752L19.0873 13.9127L22.6248 14.6252L27.8623 9.37522Z" stroke="#383E45" stroke-width="1.5" stroke-linecap="round" stroke-linejoin="round"/>
</svg>
