<svg width="20" height="20" viewBox="0 0 20 20" fill="none" xmlns="http://www.w3.org/2000/svg">
<path d="M17.1014 5.54686C17.5114 6.50412 17.6117 7.56562 17.3884 8.58275C17.1651 9.59988 16.6293 10.5217 15.8561 11.2192C15.0828 11.9167 14.1108 12.3549 13.0761 12.4725C12.0414 12.5901 10.9958 12.3812 10.0858 11.875V11.875L5.70296 16.9531C5.35072 17.3054 4.87298 17.5032 4.37483 17.5032C3.87669 17.5032 3.39895 17.3054 3.04671 16.9531C2.69447 16.6009 2.49658 16.1231 2.49658 15.625C2.49658 15.1268 2.69447 14.6491 3.04671 14.2969L8.12483 9.91405C7.61866 9.00399 7.40974 7.95843 7.52733 6.92373C7.64492 5.88904 8.08313 4.91702 8.78062 4.14376C9.4781 3.3705 10.3999 2.83471 11.4171 2.6114C12.4342 2.3881 13.4957 2.48845 14.453 2.89842L11.1717 6.17186L11.617 8.3828L13.828 8.82811L17.1014 5.54686Z" stroke="#003B5C" stroke-width="1.5" stroke-linecap="round" stroke-linejoin="round"/>
</svg>
