<svg width="32" height="32" viewBox="0 0 32 32" fill="none" xmlns="http://www.w3.org/2000/svg">
<path d="M16 28C22.6274 28 28 22.6274 28 16C28 9.37258 22.6274 4 16 4C9.37258 4 4 9.37258 4 16C4 22.6274 9.37258 28 16 28Z" stroke="black" stroke-width="1.5" stroke-linecap="round" stroke-linejoin="round"/>
<path d="M16 11.25C16.6904 11.25 17.25 10.6904 17.25 10C17.25 9.30964 16.6904 8.75 16 8.75C15.3096 8.75 14.75 9.30964 14.75 10C14.75 10.6904 15.3096 11.25 16 11.25Z" fill="black"/>
<path d="M16 17.25C16.6904 17.25 17.25 16.6904 17.25 16C17.25 15.3096 16.6904 14.75 16 14.75C15.3096 14.75 14.75 15.3096 14.75 16C14.75 16.6904 15.3096 17.25 16 17.25Z" fill="black"/>
<path d="M16 23.25C16.6904 23.25 17.25 22.6904 17.25 22C17.25 21.3096 16.6904 20.75 16 20.75C15.3096 20.75 14.75 21.3096 14.75 22C14.75 22.6904 15.3096 23.25 16 23.25Z" fill="black"/>
</svg>
