<svg width="32" height="32" viewBox="0 0 32 32" fill="none" xmlns="http://www.w3.org/2000/svg">
<path d="M9.97461 12.4629H3.97461V6.46289" stroke="black" stroke-width="1.5" stroke-linecap="round" stroke-linejoin="round"/>
<path d="M23.7746 8.22481C22.7541 7.20283 21.5422 6.39206 20.208 5.83888C18.8739 5.28571 17.4439 5.00098 15.9996 5.00098C14.5554 5.00098 13.1253 5.28571 11.7912 5.83888C10.4571 6.39206 9.2451 7.20283 8.22461 8.22481L3.97461 12.4623" stroke="black" stroke-width="1.5" stroke-linecap="round" stroke-linejoin="round"/>
<path d="M22.0254 19.5371H28.0254V25.5371" stroke="black" stroke-width="1.5" stroke-linecap="round" stroke-linejoin="round"/>
<path d="M8.22461 23.7746C9.2451 24.7966 10.4571 25.6074 11.7912 26.1605C13.1253 26.7137 14.5554 26.9984 15.9996 26.9984C17.4439 26.9984 18.8739 26.7137 20.208 26.1605C21.5422 25.6074 22.7541 24.7966 23.7746 23.7746L28.0246 19.5371" stroke="black" stroke-width="1.5" stroke-linecap="round" stroke-linejoin="round"/>
</svg>
