<svg width="32" height="32" viewBox="0 0 32 32" fill="none" xmlns="http://www.w3.org/2000/svg">
<path d="M16 20C18.7614 20 21 17.7614 21 15C21 12.2386 18.7614 10 16 10C13.2386 10 11 12.2386 11 15C11 17.7614 13.2386 20 16 20Z" stroke="black" stroke-width="1.5" stroke-linecap="round" stroke-linejoin="round"/>
<path d="M7.9751 24.9248C8.72749 23.4428 9.87555 22.1981 11.292 21.3287C12.7085 20.4592 14.3381 19.999 16.0001 19.999C17.6621 19.999 19.2917 20.4592 20.7082 21.3287C22.1246 22.1981 23.2727 23.4428 24.0251 24.9248" stroke="black" stroke-width="1.5" stroke-linecap="round" stroke-linejoin="round"/>
<path d="M25 9C26.1046 9 27 8.10457 27 7C27 5.89543 26.1046 5 25 5C23.8954 5 23 5.89543 23 7C23 8.10457 23.8954 9 25 9Z" stroke="black" stroke-width="1.5" stroke-linecap="round" stroke-linejoin="round"/>
<path d="M25 5V3.5" stroke="black" stroke-width="1.5" stroke-linecap="round" stroke-linejoin="round"/>
<path d="M23.2626 6L21.9751 5.25" stroke="black" stroke-width="1.5" stroke-linecap="round" stroke-linejoin="round"/>
<path d="M23.2626 8L21.9751 8.75" stroke="black" stroke-width="1.5" stroke-linecap="round" stroke-linejoin="round"/>
<path d="M25 9V10.5" stroke="black" stroke-width="1.5" stroke-linecap="round" stroke-linejoin="round"/>
<path d="M26.7373 8L28.0248 8.75" stroke="black" stroke-width="1.5" stroke-linecap="round" stroke-linejoin="round"/>
<path d="M26.7373 6L28.0248 5.25" stroke="black" stroke-width="1.5" stroke-linecap="round" stroke-linejoin="round"/>
<path d="M27.9125 14.5627C27.9731 15.0394 28.0024 15.5196 28 16.0002C28 18.3736 27.2962 20.6937 25.9776 22.6671C24.6591 24.6405 22.7849 26.1785 20.5922 27.0868C18.3995 27.995 15.9867 28.2327 13.6589 27.7696C11.3312 27.3066 9.19295 26.1637 7.51472 24.4855C5.83649 22.8073 4.6936 20.6691 4.23058 18.3413C3.76756 16.0135 4.0052 13.6007 4.91345 11.408C5.8217 9.2153 7.35977 7.34116 9.33316 6.02258C11.3066 4.704 13.6266 4.00022 16 4.00022C16.3714 3.99787 16.7428 4.01456 17.1125 4.05022" stroke="black" stroke-width="1.5" stroke-linecap="round" stroke-linejoin="round"/>
</svg>
