<svg width="32" height="32" viewBox="0 0 32 32" fill="none" xmlns="http://www.w3.org/2000/svg">
<path d="M15.7875 8.52458C15.1226 7.22404 14.0391 6.18534 12.7116 5.57601C11.3841 4.96667 9.89007 4.82222 8.47044 5.16593C7.0508 5.50965 5.78832 6.3215 4.88657 7.47057C3.98482 8.61964 3.49638 10.0389 3.50002 11.4996C3.50002 19.9996 16 26.9996 16 26.9996C16 26.9996 28.5 19.9996 28.5 11.4996C28.5015 10.2129 28.1211 8.95471 27.407 7.88439C26.6929 6.81407 25.6772 5.97977 24.4885 5.48717C23.2998 4.99458 21.9917 4.86584 20.7298 5.11728C19.468 5.36871 18.3091 5.98901 17.4 6.89958L13.4 10.8996L17.4 14.8996L15.4 16.8996" stroke="black" stroke-width="1.5" stroke-linecap="round" stroke-linejoin="round"/>
</svg>
