<svg width="32" height="32" viewBox="0 0 32 32" fill="none" xmlns="http://www.w3.org/2000/svg">
<path d="M7.0249 14.0004C7.0249 12.8218 7.25704 11.6547 7.70808 10.5658C8.15911 9.47691 8.82021 8.48751 9.65361 7.65411C10.487 6.8207 11.4764 6.15961 12.5653 5.70857C13.6542 5.25754 14.8213 5.02539 15.9999 5.02539C17.1785 5.02539 18.3456 5.25754 19.4345 5.70857C20.5234 6.15961 21.5128 6.8207 22.3462 7.65411C23.1796 8.48751 23.8407 9.47691 24.2917 10.5658C24.7427 11.6547 24.9749 12.8218 24.9749 14.0004V14.0004C24.9749 18.4754 25.9124 21.0754 26.7374 22.5004C26.825 22.6522 26.8712 22.8243 26.8714 22.9995C26.8715 23.1748 26.8256 23.347 26.7383 23.4989C26.6509 23.6508 26.5252 23.7771 26.3737 23.8651C26.2221 23.9531 26.0501 23.9998 25.8749 24.0004H6.1249C5.94966 23.9998 5.77766 23.9531 5.62613 23.8651C5.4746 23.7771 5.34886 23.6508 5.26151 23.4989C5.17416 23.347 5.12826 23.1748 5.12842 22.9995C5.12857 22.8243 5.17478 22.6522 5.2624 22.5004C6.0874 21.0754 7.0249 18.4754 7.0249 14.0004Z" stroke="black" stroke-width="1.5" stroke-linecap="round" stroke-linejoin="round"/>
<path d="M12 24V25C12 26.0609 12.4214 27.0783 13.1716 27.8284C13.9217 28.5786 14.9391 29 16 29C17.0609 29 18.0783 28.5786 18.8284 27.8284C19.5786 27.0783 20 26.0609 20 25V24" stroke="black" stroke-width="1.5" stroke-linecap="round" stroke-linejoin="round"/>
<path d="M22.9248 3C24.9609 4.28526 26.6041 6.10584 27.6748 8.2625" stroke="black" stroke-width="1.5" stroke-linecap="round" stroke-linejoin="round"/>
<path d="M4.3252 8.2625C5.39585 6.10584 7.03913 4.28526 9.0752 3" stroke="black" stroke-width="1.5" stroke-linecap="round" stroke-linejoin="round"/>
</svg>
