<svg width="32" height="32" viewBox="0 0 32 32" fill="none" xmlns="http://www.w3.org/2000/svg">
<path d="M16 28C22.6274 28 28 22.6274 28 16C28 9.37258 22.6274 4 16 4C9.37258 4 4 9.37258 4 16C4 22.6274 9.37258 28 16 28Z" stroke="black" stroke-width="1.5" stroke-linecap="round" stroke-linejoin="round"/>
<path d="M21.1504 14.125C21.2539 13.467 21.4128 12.8188 21.6254 12.1875" stroke="black" stroke-width="1.5" stroke-linecap="round" stroke-linejoin="round"/>
<path d="M21.6254 19.8125C21.4128 19.1812 21.2539 18.533 21.1504 17.875" stroke="black" stroke-width="1.5" stroke-linecap="round" stroke-linejoin="round"/>
<path d="M10.85 14.125C10.7465 13.467 10.5876 12.8188 10.375 12.1875" stroke="black" stroke-width="1.5" stroke-linecap="round" stroke-linejoin="round"/>
<path d="M10.375 19.8125C10.5876 19.1812 10.7465 18.533 10.85 17.875" stroke="black" stroke-width="1.5" stroke-linecap="round" stroke-linejoin="round"/>
<path d="M23.3496 8.86289C23.7022 8.39149 24.0864 7.94462 24.4996 7.52539" stroke="black" stroke-width="1.5" stroke-linecap="round" stroke-linejoin="round"/>
<path d="M24.4996 24.4752C24.0894 24.0532 23.7053 23.6065 23.3496 23.1377" stroke="black" stroke-width="1.5" stroke-linecap="round" stroke-linejoin="round"/>
<path d="M7.5 24.4752C7.91021 24.0532 8.29426 23.6065 8.65 23.1377" stroke="black" stroke-width="1.5" stroke-linecap="round" stroke-linejoin="round"/>
<path d="M8.65 8.86289C8.29745 8.39149 7.91323 7.94462 7.5 7.52539" stroke="black" stroke-width="1.5" stroke-linecap="round" stroke-linejoin="round"/>
</svg>
