<svg width="32" height="32" viewBox="0 0 32 32" fill="none" xmlns="http://www.w3.org/2000/svg">
<path d="M4.1875 3L27.8125 29" stroke="black" stroke-width="1.5" stroke-linecap="round" stroke-linejoin="round"/>
<path d="M11.75 5.375L12 5H20L22 8H26C26.5304 8 27.0391 8.21071 27.4142 8.58579C27.7893 8.96086 28 9.46957 28 10V23.25" stroke="black" stroke-width="1.5" stroke-linecap="round" stroke-linejoin="round"/>
<path d="M25.0875 26H6C5.46957 26 4.96086 25.7893 4.58579 25.4142C4.21071 25.0391 4 24.5304 4 24V10C4 9.46957 4.21071 8.96086 4.58579 8.58579C4.96086 8.21071 5.46957 8 6 8H8.725" stroke="black" stroke-width="1.5" stroke-linecap="round" stroke-linejoin="round"/>
<path d="M19.2624 19.6002C18.8342 20.0416 18.3201 20.3906 17.7517 20.6256C17.1834 20.8606 16.5729 20.9767 15.958 20.9665C15.3431 20.9564 14.7368 20.8203 14.1765 20.5667C13.6162 20.3131 13.1139 19.9473 12.7005 19.492C12.2871 19.0366 11.9714 18.5014 11.773 17.9193C11.5745 17.3372 11.4975 16.7206 11.5466 16.1076C11.5958 15.4945 11.77 14.8981 12.0587 14.355C12.3473 13.812 12.7442 13.3339 13.2249 12.9502" stroke="black" stroke-width="1.5" stroke-linecap="round" stroke-linejoin="round"/>
</svg>
