<svg width="32" height="32" viewBox="0 0 32 32" fill="none" xmlns="http://www.w3.org/2000/svg">
<path d="M16 28C22.6274 28 28 22.6274 28 16C28 9.37258 22.6274 4 16 4C9.37258 4 4 9.37258 4 16C4 22.6274 9.37258 28 16 28Z" stroke="black" stroke-width="1.5" stroke-linecap="round" stroke-linejoin="round"/>
<path d="M16 23.5C16.8284 23.5 17.5 22.8284 17.5 22C17.5 21.1716 16.8284 20.5 16 20.5C15.1716 20.5 14.5 21.1716 14.5 22C14.5 22.8284 15.1716 23.5 16 23.5Z" fill="black"/>
<path d="M16 28C14.4087 28 12.8826 27.3679 11.7574 26.2426C10.6321 25.1174 10 23.5913 10 22C10 20.4087 10.6321 18.8826 11.7574 17.7574C12.8826 16.6321 14.4087 16 16 16C17.5913 16 19.1174 15.3679 20.2426 14.2426C21.3679 13.1174 22 11.5913 22 10C22 8.4087 21.3679 6.88258 20.2426 5.75736C19.1174 4.63214 17.5913 4 16 4" stroke="black" stroke-width="1.5" stroke-linecap="round" stroke-linejoin="round"/>
<path d="M16 11.25C16.6904 11.25 17.25 10.6904 17.25 10C17.25 9.30964 16.6904 8.75 16 8.75C15.3096 8.75 14.75 9.30964 14.75 10C14.75 10.6904 15.3096 11.25 16 11.25Z" fill="black"/>
</svg>
