<svg width="32" height="32" viewBox="0 0 32 32" fill="none" xmlns="http://www.w3.org/2000/svg">
<path d="M11 8H27" stroke="black" stroke-width="1.5" stroke-linecap="round" stroke-linejoin="round"/>
<path d="M11 16H27" stroke="black" stroke-width="1.5" stroke-linecap="round" stroke-linejoin="round"/>
<path d="M11 24H27" stroke="black" stroke-width="1.5" stroke-linecap="round" stroke-linejoin="round"/>
<path d="M5.5 9.25C6.19036 9.25 6.75 8.69036 6.75 8C6.75 7.30964 6.19036 6.75 5.5 6.75C4.80964 6.75 4.25 7.30964 4.25 8C4.25 8.69036 4.80964 9.25 5.5 9.25Z" fill="black"/>
<path d="M5.5 25.25C6.19036 25.25 6.75 24.6904 6.75 24C6.75 23.3096 6.19036 22.75 5.5 22.75C4.80964 22.75 4.25 23.3096 4.25 24C4.25 24.6904 4.80964 25.25 5.5 25.25Z" fill="black"/>
<path d="M5.5 17.25C6.19036 17.25 6.75 16.6904 6.75 16C6.75 15.3096 6.19036 14.75 5.5 14.75C4.80964 14.75 4.25 15.3096 4.25 16C4.25 16.6904 4.80964 17.25 5.5 17.25Z" fill="black"/>
</svg>
