<svg width="32" height="32" viewBox="0 0 32 32" fill="none" xmlns="http://www.w3.org/2000/svg">
<path d="M20.9998 14V12.5C20.9998 11.837 20.7364 11.2011 20.2675 10.7322C19.7987 10.2634 19.1628 10 18.4998 10C17.8367 10 17.2009 10.2634 16.732 10.7322C16.2632 11.2011 15.9998 11.837 15.9998 12.5V4.5C15.9998 3.83696 15.7364 3.20107 15.2675 2.73223C14.7987 2.26339 14.1628 2 13.4998 2C12.8367 2 12.2009 2.26339 11.732 2.73223C11.2632 3.20107 10.9998 3.83696 10.9998 4.5V19.6625L8.26228 14.9125C7.93076 14.3373 7.38433 13.9174 6.74319 13.7451C6.10205 13.5728 5.41872 13.6622 4.84353 13.9937C4.26834 14.3253 3.84841 14.8717 3.67611 15.5128C3.50381 16.154 3.59326 16.8373 3.92478 17.4125C7.99978 26 10.4748 29 15.9998 29C17.313 29 18.6134 28.7413 19.8266 28.2388C21.0399 27.7362 22.1423 26.9997 23.0709 26.0711C23.9994 25.1425 24.736 24.0401 25.2386 22.8268C25.7411 21.6136 25.9998 20.3132 25.9998 19V14C25.9998 13.337 25.7364 12.7011 25.2675 12.2322C24.7987 11.7634 24.1628 11.5 23.4998 11.5C22.8367 11.5 22.2009 11.7634 21.732 12.2322C21.2632 12.7011 20.9998 13.337 20.9998 14V14Z" stroke="black" stroke-width="1.5" stroke-linecap="round" stroke-linejoin="round"/>
</svg>
