<svg width="32" height="32" viewBox="0 0 32 32" fill="none" xmlns="http://www.w3.org/2000/svg">
<path d="M19 10H13.975L13 16.025C13.4895 15.5356 14.1131 15.2022 14.7921 15.0672C15.471 14.9322 16.1747 15.0015 16.8142 15.2665C17.4537 15.5314 18.0003 15.98 18.3849 16.5555C18.7695 17.1311 18.9747 17.8078 18.9747 18.5C18.9747 19.1922 18.7695 19.8689 18.3849 20.4445C18.0003 21.02 17.4537 21.4686 16.8142 21.7335C16.1747 21.9985 15.471 22.0678 14.7921 21.9328C14.1131 21.7978 13.4895 21.4644 13 20.975" stroke="black" stroke-width="1.5" stroke-linecap="round" stroke-linejoin="round"/>
<path d="M26 5H6C5.44772 5 5 5.44772 5 6V26C5 26.5523 5.44772 27 6 27H26C26.5523 27 27 26.5523 27 26V6C27 5.44772 26.5523 5 26 5Z" stroke="black" stroke-width="1.5" stroke-linecap="round" stroke-linejoin="round"/>
</svg>
