<svg width="32" height="32" viewBox="0 0 32 32" fill="none" xmlns="http://www.w3.org/2000/svg">
<path d="M13.5 20C17.6421 20 21 16.6421 21 12.5C21 8.35786 17.6421 5 13.5 5C9.35786 5 6 8.35786 6 12.5C6 16.6421 9.35786 20 13.5 20Z" stroke="black" stroke-width="1.5" stroke-linecap="round" stroke-linejoin="round"/>
<path d="M2.7749 25C4.08897 23.4338 5.73011 22.1744 7.58298 21.3104C9.43585 20.4463 11.4555 19.9985 13.4999 19.9985C15.5443 19.9985 17.564 20.4463 19.4168 21.3104C21.2697 22.1744 22.9108 23.4338 24.2249 25" stroke="black" stroke-width="1.5" stroke-linecap="round" stroke-linejoin="round"/>
<path d="M27.5 19C28.6046 19 29.5 18.1046 29.5 17C29.5 15.8954 28.6046 15 27.5 15C26.3954 15 25.5 15.8954 25.5 17C25.5 18.1046 26.3954 19 27.5 19Z" stroke="black" stroke-width="1.5" stroke-linecap="round" stroke-linejoin="round"/>
<path d="M27.5 15V13.5" stroke="black" stroke-width="1.5" stroke-linecap="round" stroke-linejoin="round"/>
<path d="M25.7626 16L24.4751 15.25" stroke="black" stroke-width="1.5" stroke-linecap="round" stroke-linejoin="round"/>
<path d="M25.7626 18L24.4751 18.75" stroke="black" stroke-width="1.5" stroke-linecap="round" stroke-linejoin="round"/>
<path d="M27.5 19V20.5" stroke="black" stroke-width="1.5" stroke-linecap="round" stroke-linejoin="round"/>
<path d="M29.2373 18L30.5248 18.75" stroke="black" stroke-width="1.5" stroke-linecap="round" stroke-linejoin="round"/>
<path d="M29.2373 16L30.5248 15.25" stroke="black" stroke-width="1.5" stroke-linecap="round" stroke-linejoin="round"/>
</svg>
