<svg width="32" height="32" viewBox="0 0 32 32" fill="none" xmlns="http://www.w3.org/2000/svg">
<path d="M16 29V11" stroke="black" stroke-width="1.5" stroke-linecap="round" stroke-linejoin="round"/>
<path d="M16 19L10 16" stroke="black" stroke-width="1.5" stroke-linecap="round" stroke-linejoin="round"/>
<path d="M16 16L22 13" stroke="black" stroke-width="1.5" stroke-linecap="round" stroke-linejoin="round"/>
<path d="M16.5626 22.65C17.48 23.2749 18.5175 23.702 19.609 23.9042C20.7005 24.1064 21.8221 24.0792 22.9025 23.8244C23.9829 23.5695 24.9985 23.0927 25.8846 22.424C26.7707 21.7554 27.508 20.9097 28.0495 19.9407C28.591 18.9717 28.925 17.9006 29.0301 16.7955C29.1352 15.6905 29.0092 14.5756 28.6601 13.5219C28.3109 12.4682 27.7463 11.4986 27.0022 10.6749C26.258 9.85126 25.3506 9.19147 24.3376 8.73752C24.1151 8.62569 23.9384 8.44014 23.8376 8.21252C23.1895 6.66872 22.1 5.35069 20.7057 4.4238C19.3114 3.49691 17.6744 3.00244 16.0001 3.00244C14.3258 3.00244 12.6888 3.49691 11.2944 4.4238C9.90012 5.35069 8.8106 6.66872 8.16256 8.21252C8.06171 8.44014 7.88499 8.62569 7.66256 8.73752C6.64956 9.19147 5.74213 9.85126 4.99796 10.6749C4.2538 11.4986 3.68919 12.4682 3.34006 13.5219C2.99093 14.5756 2.86492 15.6905 2.97003 16.7955C3.07514 17.9006 3.40908 18.9717 3.95061 19.9407C4.49214 20.9097 5.22941 21.7554 6.11552 22.424C7.00163 23.0927 8.01719 23.5695 9.0976 23.8244C10.178 24.0792 11.2996 24.1064 12.3911 23.9042C13.4826 23.702 14.5201 23.2749 15.4376 22.65C15.6047 22.5403 15.8002 22.4819 16.0001 22.4819C16.1999 22.4819 16.3955 22.5403 16.5626 22.65Z" stroke="black" stroke-width="1.5" stroke-linecap="round" stroke-linejoin="round"/>
</svg>
