<svg width="32" height="32" viewBox="0 0 32 32" fill="none" xmlns="http://www.w3.org/2000/svg">
<path d="M6.47518 15.2373C6.32744 14.9812 6.13071 14.7567 5.89622 14.5767C5.66173 14.3966 5.39408 14.2645 5.10854 14.1879C4.823 14.1113 4.52517 14.0917 4.23204 14.1302C3.93892 14.1687 3.65625 14.2645 3.40018 14.4123C3.1441 14.56 2.91963 14.7567 2.73958 14.9912C2.55953 15.2257 2.42743 15.4934 2.35082 15.7789C2.27421 16.0645 2.2546 16.3623 2.29309 16.6554C2.33159 16.9485 2.42744 17.2312 2.57518 17.4873L7.20018 25.4998C8.40588 27.5425 10.3692 29.0266 12.6633 29.6294C14.9574 30.2323 17.3968 29.9051 19.4509 28.7191C21.5051 27.533 23.008 25.584 23.6329 23.2958C24.2577 21.0076 23.954 18.5652 22.7877 16.4998L20.6627 12.8123C20.346 12.3347 19.859 11.9959 19.3011 11.8651C18.7432 11.7343 18.1563 11.8213 17.6604 12.1083C17.1644 12.3954 16.7966 12.8609 16.6321 13.4098C16.4676 13.9587 16.5188 14.5498 16.7752 15.0623" stroke="black" stroke-width="1.5" stroke-linecap="round" stroke-linejoin="round"/>
<path d="M13.3751 18.1877L8.62508 9.96267C8.47734 9.7066 8.28061 9.48213 8.04612 9.30208C7.81164 9.12203 7.54398 8.98993 7.25844 8.91332C6.9729 8.83671 6.67507 8.8171 6.38195 8.85559C6.08882 8.89409 5.80616 8.98994 5.55008 9.13768C5.294 9.28541 5.06953 9.48214 4.88948 9.71663C4.70943 9.95112 4.57733 10.2188 4.50072 10.5043C4.42412 10.7899 4.4045 11.0877 4.44299 11.3808C4.48149 11.6739 4.57734 11.9566 4.72508 12.2127L9.47508 20.4377" stroke="black" stroke-width="1.5" stroke-linecap="round" stroke-linejoin="round"/>
<path d="M18.775 18.5373L13.525 9.43729C13.2266 8.92012 12.735 8.54265 12.1583 8.38794C11.5817 8.23322 10.9672 8.31392 10.45 8.61229C9.93281 8.91066 9.55535 9.40225 9.40063 9.97893C9.24591 10.5556 9.32662 11.1701 9.62499 11.6873" stroke="black" stroke-width="1.5" stroke-linecap="round" stroke-linejoin="round"/>
<path d="M12.375 8.46239L11.0875 6.22489C10.7891 5.70772 10.2975 5.33025 9.72085 5.17553C9.14417 5.02082 8.52966 5.10152 8.01249 5.39989C7.49531 5.69826 7.11785 6.18985 6.96313 6.76652C6.80841 7.3432 6.88912 7.95772 7.18749 8.47489L7.48749 8.98739" stroke="black" stroke-width="1.5" stroke-linecap="round" stroke-linejoin="round"/>
<path d="M23.4998 23.9377C25.0254 22.5562 26.0322 20.6942 26.3529 18.6612C26.6735 16.6282 26.2887 14.5466 25.2623 12.7627L23.1373 9.08768C22.9895 8.8316 22.7928 8.60713 22.5583 8.42708C22.3238 8.24703 22.0562 8.11493 21.7706 8.03832C21.4851 7.96171 21.1873 7.9421 20.8942 7.98059C20.601 8.01909 20.3184 8.11494 20.0623 8.26268C19.8062 8.41041 19.5817 8.60714 19.4017 8.84163C19.2216 9.07612 19.0895 9.34377 19.0129 9.62931C18.9363 9.91485 18.9167 10.2127 18.9552 10.5058C18.9937 10.7989 19.0895 11.0816 19.2373 11.3377" stroke="black" stroke-width="1.5" stroke-linecap="round" stroke-linejoin="round"/>
<path d="M19.5249 11.8377L15.9874 5.71268C15.689 5.19551 15.1974 4.81805 14.6208 4.66333C14.0441 4.50861 13.4296 4.58931 12.9124 4.88768C12.3952 5.18605 12.0178 5.67764 11.863 6.25432C11.7083 6.83099 11.789 7.44551 12.0874 7.96268" stroke="black" stroke-width="1.5" stroke-linecap="round" stroke-linejoin="round"/>
<path d="M22.0999 1.4126L21.5874 3.3376" stroke="black" stroke-width="1.5" stroke-linecap="round" stroke-linejoin="round"/>
<path d="M25.8873 3.1748L24.7373 4.8123" stroke="black" stroke-width="1.5" stroke-linecap="round" stroke-linejoin="round"/>
<path d="M28.825 6.1123L27.1875 7.2623" stroke="black" stroke-width="1.5" stroke-linecap="round" stroke-linejoin="round"/>
</svg>
