<svg width="32" height="32" viewBox="0 0 32 32" fill="none" xmlns="http://www.w3.org/2000/svg">
<path d="M13 16H27" stroke="black" stroke-width="1.5" stroke-linecap="round" stroke-linejoin="round"/>
<path d="M13 8H27" stroke="black" stroke-width="1.5" stroke-linecap="round" stroke-linejoin="round"/>
<path d="M13 24H27" stroke="black" stroke-width="1.5" stroke-linecap="round" stroke-linejoin="round"/>
<path d="M5 7.5L7 6.5V13.5" stroke="black" stroke-width="1.5" stroke-linecap="round" stroke-linejoin="round"/>
<path d="M5.1375 19.0751C5.22965 18.847 5.36888 18.6408 5.54611 18.4701C5.72333 18.2994 5.93457 18.168 6.16603 18.0844C6.39749 18.0009 6.64397 17.9671 6.88937 17.9852C7.13477 18.0034 7.37359 18.0731 7.59022 18.1898C7.80685 18.3066 7.99644 18.4677 8.14659 18.6626C8.29675 18.8576 8.4041 19.082 8.46165 19.3212C8.51919 19.5605 8.52563 19.8092 8.48055 20.0511C8.43546 20.293 8.33987 20.5227 8.2 20.7251L5 25.0001H8.5" stroke="black" stroke-width="1.5" stroke-linecap="round" stroke-linejoin="round"/>
</svg>
