<svg width="32" height="32" viewBox="0 0 32 32" fill="none" xmlns="http://www.w3.org/2000/svg">
<path d="M26.0002 12.5L11.7502 26.75C11.324 27.1778 10.8175 27.5173 10.2598 27.7489C9.70206 27.9806 9.1041 28.0998 8.5002 28.0998C7.89629 28.0998 7.29833 27.9806 6.74062 27.7489C6.1829 27.5173 5.67641 27.1778 5.2502 26.75V26.75C4.82236 26.3238 4.48289 25.8173 4.25126 25.2596C4.01963 24.7019 3.90039 24.1039 3.90039 23.5C3.90039 22.8961 4.01963 22.2981 4.25126 21.7404C4.48289 21.1827 4.82236 20.6762 5.2502 20.25L21.5002 4L29.0002 11.5L26.0002 12.5Z" stroke="black" stroke-width="1.5" stroke-linecap="round" stroke-linejoin="round"/>
<path d="M8.5 17.0002C8.5 17.0002 11 15.0002 15 17.0002C19 19.0002 21.5 17.0002 21.5 17.0002" stroke="black" stroke-width="1.5" stroke-linecap="round" stroke-linejoin="round"/>
</svg>
