<svg width="32" height="32" viewBox="0 0 32 32" fill="none" xmlns="http://www.w3.org/2000/svg">
<path d="M15.2888 3.71019L11.7003 7.29875C11.3097 7.68928 11.3097 8.32244 11.7003 8.71297L15.2862 12.2989C15.6767 12.6894 16.3099 12.6894 16.7004 12.2989L20.289 8.71031C20.6795 8.31979 20.6795 7.68662 20.289 7.2961L16.7031 3.71019C16.3125 3.31966 15.6794 3.31966 15.2888 3.71019Z" stroke="black" stroke-width="1.5" stroke-linecap="round" stroke-linejoin="round"/>
<path d="M23.2898 11.7102L19.7012 15.2988C19.3107 15.6893 19.3107 16.3224 19.7012 16.713L23.2872 20.2989C23.6777 20.6894 24.3109 20.6894 24.7014 20.2989L28.2899 16.7103C28.6805 16.3198 28.6805 15.6866 28.2899 15.2961L24.704 11.7102C24.3135 11.3197 23.6803 11.3197 23.2898 11.7102Z" stroke="black" stroke-width="1.5" stroke-linecap="round" stroke-linejoin="round"/>
<path d="M7.28884 11.6985L3.70027 15.287C3.30975 15.6776 3.30975 16.3107 3.70027 16.7012L7.28619 20.2872C7.67671 20.6777 8.30988 20.6777 8.7004 20.2872L12.289 16.6986C12.6795 16.3081 12.6795 15.6749 12.289 15.2844L8.70305 11.6985C8.31253 11.3079 7.67936 11.3079 7.28884 11.6985Z" stroke="black" stroke-width="1.5" stroke-linecap="round" stroke-linejoin="round"/>
<path d="M15.2898 19.6985L11.7012 23.287C11.3107 23.6776 11.3107 24.3107 11.7012 24.7012L15.2872 28.2872C15.6777 28.6777 16.3109 28.6777 16.7014 28.2872L20.2899 24.6986C20.6805 24.3081 20.6805 23.6749 20.2899 23.2844L16.704 19.6985C16.3135 19.3079 15.6803 19.3079 15.2898 19.6985Z" stroke="black" stroke-width="1.5" stroke-linecap="round" stroke-linejoin="round"/>
</svg>
