<svg width="32" height="32" viewBox="0 0 32 32" fill="none" xmlns="http://www.w3.org/2000/svg">
<path d="M13 11.5H19" stroke="black" stroke-width="1.5" stroke-linecap="round" stroke-linejoin="round"/>
<path d="M28.7 19.2874L23.2375 6.8749C22.6735 6.31689 21.9121 6.00391 21.1187 6.00391C20.3254 6.00391 19.564 6.31689 19 6.8749V20.9999" stroke="black" stroke-width="1.5" stroke-linecap="round" stroke-linejoin="round"/>
<path d="M12.9998 20.9999V6.8749C12.4358 6.31689 11.6744 6.00391 10.8811 6.00391C10.0877 6.00391 9.3263 6.31689 8.7623 6.8749L3.2998 19.2874" stroke="black" stroke-width="1.5" stroke-linecap="round" stroke-linejoin="round"/>
<path d="M8 26C10.7614 26 13 23.7614 13 21C13 18.2386 10.7614 16 8 16C5.23858 16 3 18.2386 3 21C3 23.7614 5.23858 26 8 26Z" stroke="black" stroke-width="1.5" stroke-linecap="round" stroke-linejoin="round"/>
<path d="M24 26C26.7614 26 29 23.7614 29 21C29 18.2386 26.7614 16 24 16C21.2386 16 19 18.2386 19 21C19 23.7614 21.2386 26 24 26Z" stroke="black" stroke-width="1.5" stroke-linecap="round" stroke-linejoin="round"/>
</svg>
