<svg width="32" height="32" viewBox="0 0 32 32" fill="none" xmlns="http://www.w3.org/2000/svg">
<path d="M4.73795 25.9873L11.4629 7.47485C11.5205 7.31643 11.6172 7.17514 11.744 7.0641C11.8708 6.95306 12.0236 6.87587 12.1882 6.8397C12.3528 6.80353 12.5239 6.80956 12.6856 6.85723C12.8473 6.9049 12.9943 6.99265 13.1129 7.11235L24.8879 18.8873C25.0076 19.006 25.0954 19.153 25.1431 19.3147C25.1907 19.4763 25.1968 19.6474 25.1606 19.8121C25.1244 19.9767 25.0472 20.1295 24.9362 20.2563C24.8251 20.3831 24.6839 20.4798 24.5254 20.5373L6.01294 27.2623C5.83484 27.3304 5.64084 27.3455 5.45436 27.3057C5.26788 27.2659 5.09691 27.173 4.96208 27.0382C4.82726 26.9034 4.73435 26.7324 4.69458 26.5459C4.6548 26.3595 4.66986 26.1654 4.73795 25.9873V25.9873Z" stroke="black" stroke-width="1.5" stroke-linecap="round" stroke-linejoin="round"/>
<path d="M21 9C21 9 21 6 24 6C27 6 27 3 27 3" stroke="black" stroke-width="1.5" stroke-linecap="round" stroke-linejoin="round"/>
<path d="M12.8002 24.8002L7.2002 19.2002" stroke="black" stroke-width="1.5" stroke-linecap="round" stroke-linejoin="round"/>
<path d="M18 2V5" stroke="black" stroke-width="1.5" stroke-linecap="round" stroke-linejoin="round"/>
<path d="M27 14L29 16" stroke="black" stroke-width="1.5" stroke-linecap="round" stroke-linejoin="round"/>
<path d="M27 10L30 9" stroke="black" stroke-width="1.5" stroke-linecap="round" stroke-linejoin="round"/>
<path d="M9.59961 12.5996L19.3996 22.3996" stroke="black" stroke-width="1.5" stroke-linecap="round" stroke-linejoin="round"/>
</svg>
