<svg width="32" height="32" viewBox="0 0 32 32" fill="none" xmlns="http://www.w3.org/2000/svg">
<path d="M28.5125 15.1499L10.525 4.14988C10.3736 4.05647 10.2 4.00516 10.0221 4.00122C9.84424 3.99729 9.66854 4.04088 9.51314 4.1275C9.35774 4.21411 9.22826 4.34062 9.13805 4.49397C9.04785 4.64732 9.0002 4.82196 9 4.99988V26.9999C9.0002 27.1778 9.04785 27.3524 9.13805 27.5058C9.22826 27.6591 9.35774 27.7856 9.51314 27.8723C9.66854 27.9589 9.84424 28.0025 10.0221 27.9985C10.2 27.9946 10.3736 27.9433 10.525 27.8499L28.5125 16.8499C28.6602 16.7625 28.7826 16.6382 28.8676 16.4892C28.9526 16.3401 28.9974 16.1715 28.9974 15.9999C28.9974 15.8283 28.9526 15.6596 28.8676 15.5106C28.7826 15.3615 28.6602 15.2372 28.5125 15.1499V15.1499Z" stroke="black" stroke-width="1.5" stroke-linecap="round" stroke-linejoin="round"/>
</svg>
