<svg width="32" height="32" viewBox="0 0 32 32" fill="none" xmlns="http://www.w3.org/2000/svg">
<path d="M7.41239 5H24.5874C24.7857 5.00033 24.9794 5.05961 25.1439 5.17029C25.3084 5.28098 25.4363 5.43808 25.5114 5.62163C25.5864 5.80518 25.6052 6.00689 25.5653 6.20113C25.5254 6.39537 25.4287 6.57336 25.2874 6.7125L15.9999 16L6.71239 6.7125C6.57111 6.57336 6.47438 6.39537 6.4345 6.20113C6.39462 6.00689 6.41338 5.80518 6.48841 5.62163C6.56344 5.43808 6.69134 5.28098 6.85586 5.17029C7.02039 5.05961 7.2141 5.00033 7.41239 5V5Z" stroke="black" stroke-width="1.5" stroke-linecap="round" stroke-linejoin="round"/>
<path d="M7.41239 27H24.5874C24.7857 26.9997 24.9794 26.9404 25.1439 26.8297C25.3084 26.719 25.4363 26.5619 25.5114 26.3784C25.5864 26.1948 25.6052 25.9931 25.5653 25.7989C25.5254 25.6046 25.4287 25.4266 25.2874 25.2875L15.9999 16L6.71239 25.2875C6.57111 25.4266 6.47438 25.6046 6.4345 25.7989C6.39462 25.9931 6.41338 26.1948 6.48841 26.3784C6.56344 26.5619 6.69134 26.719 6.85586 26.8297C7.02039 26.9404 7.2141 26.9997 7.41239 27Z" stroke="black" stroke-width="1.5" stroke-linecap="round" stroke-linejoin="round"/>
<path d="M22 22H10" stroke="black" stroke-width="1.5" stroke-linecap="round" stroke-linejoin="round"/>
</svg>
