<svg width="32" height="32" viewBox="0 0 32 32" fill="none" xmlns="http://www.w3.org/2000/svg">
<path d="M23.5 24.5C25.1569 24.5 26.5 23.1569 26.5 21.5C26.5 19.8431 25.1569 18.5 23.5 18.5C21.8431 18.5 20.5 19.8431 20.5 21.5C20.5 23.1569 21.8431 24.5 23.5 24.5Z" stroke="black" stroke-width="1.5" stroke-linecap="round" stroke-linejoin="round"/>
<path d="M19.625 27.5C19.8453 26.6396 20.3457 25.877 21.0473 25.3324C21.7489 24.7878 22.6118 24.4922 23.5 24.4922C24.3882 24.4922 25.2511 24.7878 25.9527 25.3324C26.6543 25.877 27.1547 26.6396 27.375 27.5" stroke="black" stroke-width="1.5" stroke-linecap="round" stroke-linejoin="round"/>
<path d="M15 26H5C4.73478 26 4.48043 25.8946 4.29289 25.7071C4.10536 25.5196 4 25.2652 4 25V8C4 7.73478 4.10536 7.48043 4.29289 7.29289C4.48043 7.10536 4.73478 7 5 7H11.6625C11.8787 7.00089 12.089 7.07098 12.2625 7.2L15.7375 9.8C15.911 9.92902 16.1213 9.99911 16.3375 10H27C27.2652 10 27.5196 10.1054 27.7071 10.2929C27.8946 10.4804 28 10.7348 28 11V15" stroke="black" stroke-width="1.5" stroke-linecap="round" stroke-linejoin="round"/>
</svg>
