<svg width="32" height="32" viewBox="0 0 32 32" fill="none" xmlns="http://www.w3.org/2000/svg">
<path d="M17 9V23" stroke="black" stroke-width="1.5" stroke-linecap="round" stroke-linejoin="round"/>
<path d="M28.5 9H22.5V23" stroke="black" stroke-width="1.5" stroke-linecap="round" stroke-linejoin="round"/>
<path d="M27 16H22.5" stroke="black" stroke-width="1.5" stroke-linecap="round" stroke-linejoin="round"/>
<path d="M9.00001 16.0001H12V19.0001C12 20.0609 11.5786 21.0784 10.8284 21.8285C10.0783 22.5786 9.06087 23.0001 8.00001 23.0001C6.93914 23.0001 5.92173 22.5786 5.17158 21.8285C4.42143 21.0784 4.00001 20.0609 4.00001 19.0001V13.0001C3.99809 12.0251 4.35231 11.083 4.9961 10.3509C5.63989 9.61871 6.52893 9.14688 7.49611 9.02406C8.4633 8.90125 9.44204 9.1359 10.2484 9.68391C11.0547 10.2319 11.6332 11.0556 11.875 12.0001" stroke="black" stroke-width="1.5" stroke-linecap="round" stroke-linejoin="round"/>
</svg>
