<svg width="32" height="32" viewBox="0 0 32 32" fill="none" xmlns="http://www.w3.org/2000/svg">
<path d="M16 20C18.7614 20 21 17.7614 21 15C21 12.2386 18.7614 10 16 10C13.2386 10 11 12.2386 11 15C11 17.7614 13.2386 20 16 20Z" stroke="black" stroke-width="1.5" stroke-linecap="round" stroke-linejoin="round"/>
<path d="M7.9751 24.9248C8.72749 23.4428 9.87555 22.1981 11.292 21.3287C12.7085 20.4592 14.3381 19.999 16.0001 19.999C17.6621 19.999 19.2917 20.4592 20.7082 21.3287C22.1246 22.1981 23.2727 23.4428 24.0251 24.9248" stroke="black" stroke-width="1.5" stroke-linecap="round" stroke-linejoin="round"/>
<path d="M25 16L28 19L31 16" stroke="black" stroke-width="1.5" stroke-linecap="round" stroke-linejoin="round"/>
<path d="M1 16L4 13L7 16" stroke="black" stroke-width="1.5" stroke-linecap="round" stroke-linejoin="round"/>
<path d="M28.0001 18.9999V15.9999C28.0029 13.4073 27.166 10.8834 25.6146 8.80614C24.0631 6.72888 21.8807 5.20996 19.3939 4.47672C16.907 3.74348 14.2496 3.83537 11.8194 4.73863C9.38916 5.6419 7.31683 7.30796 5.9126 9.48742" stroke="black" stroke-width="1.5" stroke-linecap="round" stroke-linejoin="round"/>
<path d="M4.00001 13V16C3.99718 18.5927 4.83411 21.1165 6.38554 23.1938C7.93696 25.271 10.1194 26.79 12.6062 27.5232C15.0931 28.2564 17.7505 28.1646 20.1807 27.2613C22.6109 26.358 24.6833 24.692 26.0875 22.5125" stroke="black" stroke-width="1.5" stroke-linecap="round" stroke-linejoin="round"/>
</svg>
