<svg width="32" height="32" viewBox="0 0 32 32" fill="none" xmlns="http://www.w3.org/2000/svg">
<path d="M11.4375 12.4375L19.925 20.925" stroke="black" stroke-width="1.5" stroke-linecap="round" stroke-linejoin="round"/>
<path d="M27.0004 26.9754H9.01292L4.37542 22.3379C4.18872 22.1531 4.04051 21.9331 3.93936 21.6907C3.83821 21.4482 3.78613 21.1881 3.78613 20.9254C3.78613 20.6627 3.83821 20.4026 3.93936 20.1602C4.04051 19.9177 4.18872 19.6977 4.37542 19.5129L18.5129 5.37542C18.6977 5.18872 18.9177 5.04051 19.1602 4.93936C19.4026 4.83821 19.6627 4.78613 19.9254 4.78613C20.1881 4.78613 20.4482 4.83821 20.6907 4.93936C20.9331 5.04051 21.1531 5.18872 21.3379 5.37542L27.0004 11.0254C27.3722 11.4041 27.5805 11.9135 27.5805 12.4442C27.5805 12.9748 27.3722 13.4843 27.0004 13.8629L13.8754 26.9754" stroke="black" stroke-width="1.5" stroke-linecap="round" stroke-linejoin="round"/>
</svg>
