<svg width="32" height="32" viewBox="0 0 32 32" fill="none" xmlns="http://www.w3.org/2000/svg">
<path d="M10 28.75C10.9665 28.75 11.75 27.9665 11.75 27C11.75 26.0335 10.9665 25.25 10 25.25C9.0335 25.25 8.25 26.0335 8.25 27C8.25 27.9665 9.0335 28.75 10 28.75Z" fill="black"/>
<path d="M23 28.75C23.9665 28.75 24.75 27.9665 24.75 27C24.75 26.0335 23.9665 25.25 23 25.25C22.0335 25.25 21.25 26.0335 21.25 27C21.25 27.9665 22.0335 28.75 23 28.75Z" fill="black"/>
<path d="M5.2875 9H27.7125L24.4125 20.55C24.2948 20.9692 24.0426 21.3381 23.6948 21.6001C23.3471 21.862 22.9229 22.0025 22.4875 22H10.5125C10.0771 22.0025 9.65293 21.862 9.30515 21.6001C8.95738 21.3381 8.70524 20.9692 8.5875 20.55L4.0625 4.725C4.0027 4.51594 3.8764 4.33207 3.70271 4.20125C3.52903 4.07042 3.31744 3.99977 3.1 4H1" stroke="black" stroke-width="1.5" stroke-linecap="round" stroke-linejoin="round"/>
</svg>
