<svg width="32" height="32" viewBox="0 0 32 32" fill="none" xmlns="http://www.w3.org/2000/svg">
<path d="M27.9996 15.9252C28.0112 17.5152 27.7054 19.0915 27.1001 20.5617C26.4948 22.032 25.6022 23.3668 24.4746 24.4877C19.8621 29.1002 12.3121 29.1502 7.63708 24.6002C5.92193 22.9312 4.745 20.7875 4.25749 18.4445C3.76998 16.1015 3.99416 13.6663 4.90123 11.4517C5.80831 9.23708 7.35684 7.34428 9.34786 6.01647C11.3389 4.68866 13.6814 3.98649 16.0746 4.0002C16.2243 4.0024 16.3717 4.0378 16.5061 4.10383C16.6405 4.16986 16.7586 4.26489 16.8519 4.38206C16.9451 4.49923 17.0112 4.63562 17.0454 4.78142C17.0796 4.92722 17.081 5.07878 17.0496 5.2252C16.9193 5.80594 16.9203 6.40843 17.0525 6.98875C17.1846 7.56906 17.4446 8.11257 17.8135 8.57965C18.1824 9.04673 18.6508 9.4256 19.1847 9.68865C19.7186 9.95171 20.3045 10.0923 20.8996 10.1002C21.1648 10.1002 21.4191 10.2056 21.6067 10.3931C21.7942 10.5806 21.8996 10.835 21.8996 11.1002C21.9075 11.6953 22.0481 12.2812 22.3111 12.8151C22.5742 13.3489 22.953 13.8174 23.4201 14.1863C23.8872 14.5551 24.4307 14.8151 25.011 14.9473C25.5913 15.0795 26.1938 15.0804 26.7746 14.9502C26.921 14.9188 27.0726 14.9202 27.2184 14.9544C27.3642 14.9886 27.5005 15.0547 27.6177 15.1479C27.7349 15.2412 27.8299 15.3593 27.8959 15.4937C27.962 15.6281 27.9974 15.7755 27.9996 15.9252V15.9252Z" stroke="black" stroke-width="1.5" stroke-linecap="round" stroke-linejoin="round"/>
<path d="M19.5 22.75C20.1904 22.75 20.75 22.1904 20.75 21.5C20.75 20.8096 20.1904 20.25 19.5 20.25C18.8096 20.25 18.25 20.8096 18.25 21.5C18.25 22.1904 18.8096 22.75 19.5 22.75Z" fill="black"/>
<path d="M11.5 21.75C12.1904 21.75 12.75 21.1904 12.75 20.5C12.75 19.8096 12.1904 19.25 11.5 19.25C10.8096 19.25 10.25 19.8096 10.25 20.5C10.25 21.1904 10.8096 21.75 11.5 21.75Z" fill="black"/>
<path d="M10.5 14.75C11.1904 14.75 11.75 14.1904 11.75 13.5C11.75 12.8096 11.1904 12.25 10.5 12.25C9.80964 12.25 9.25 12.8096 9.25 13.5C9.25 14.1904 9.80964 14.75 10.5 14.75Z" fill="black"/>
<path d="M17 16.75C17.6904 16.75 18.25 16.1904 18.25 15.5C18.25 14.8096 17.6904 14.25 17 14.25C16.3096 14.25 15.75 14.8096 15.75 15.5C15.75 16.1904 16.3096 16.75 17 16.75Z" fill="black"/>
</svg>
