<svg width="32" height="32" viewBox="0 0 32 32" fill="none" xmlns="http://www.w3.org/2000/svg">
<path d="M15.2873 8.92508L17.7623 6.45008C18.8102 5.49499 20.1858 4.98038 21.6033 5.0132C23.0207 5.04601 24.371 5.62373 25.3736 6.62629C26.3762 7.62886 26.9539 8.97917 26.9867 10.3966C27.0195 11.8141 26.5049 13.1897 25.5498 14.2376L22.0123 17.7626C21.5025 18.2743 20.8966 18.6804 20.2295 18.9574C19.5624 19.2345 18.8472 19.3771 18.1248 19.3771C17.4024 19.3771 16.6872 19.2345 16.0201 18.9574C15.353 18.6804 14.7471 18.2743 14.2373 17.7626" stroke="black" stroke-width="1.5" stroke-linecap="round" stroke-linejoin="round"/>
<path d="M16.7126 23.0751L14.2376 25.5501C13.1897 26.5052 11.8141 27.0198 10.3966 26.987C8.97917 26.9541 7.62886 26.3764 6.62629 25.3739C5.62373 24.3713 5.04601 23.021 5.0132 21.6035C4.98038 20.1861 5.49499 18.8105 6.45008 17.7626L9.98758 14.2376C10.4974 13.7258 11.1033 13.3198 11.7704 13.0427C12.4375 12.7657 13.1527 12.623 13.8751 12.623C14.5974 12.623 15.3127 12.7657 15.9798 13.0427C16.6469 13.3198 17.2528 13.7258 17.7626 14.2376" stroke="black" stroke-width="1.5" stroke-linecap="round" stroke-linejoin="round"/>
</svg>
