<svg width="32" height="32" viewBox="0 0 32 32" fill="none" xmlns="http://www.w3.org/2000/svg">
<path d="M11.7625 23.0748C10.3375 27.3123 4.6875 27.3123 4.6875 27.3123C4.6875 27.3123 4.6875 21.6623 8.925 20.2373" stroke="black" stroke-width="1.5" stroke-linecap="round" stroke-linejoin="round"/>
<path d="M24.4874 13.1749L15.9999 21.6624L10.3374 15.9999L18.8249 7.51235C22.0374 4.29985 25.2499 4.33735 26.6249 4.53735C26.8371 4.56566 27.034 4.663 27.1854 4.81436C27.3368 4.96572 27.4341 5.16268 27.4624 5.37485C27.6624 6.74985 27.6999 9.96235 24.4874 13.1749Z" stroke="black" stroke-width="1.5" stroke-linecap="round" stroke-linejoin="round"/>
<path d="M23.075 14.5874V22.6624C23.0712 22.9262 22.9634 23.1778 22.775 23.3624L18.7375 27.4124C18.6094 27.5403 18.449 27.6311 18.2733 27.675C18.0977 27.7189 17.9134 27.7143 17.7402 27.6617C17.567 27.6091 17.4113 27.5105 17.2897 27.3763C17.1682 27.2421 17.0853 27.0775 17.05 26.8999L16 21.6624" stroke="black" stroke-width="1.5" stroke-linecap="round" stroke-linejoin="round"/>
<path d="M17.4124 8.9248H9.33741C9.07364 8.92856 8.82204 9.03639 8.63741 9.2248L4.58741 13.2623C4.45946 13.3904 4.36869 13.5508 4.32478 13.7265C4.28087 13.9021 4.28547 14.0864 4.33808 14.2596C4.39069 14.4328 4.48934 14.5885 4.62351 14.7101C4.75768 14.8316 4.92234 14.9145 5.09991 14.9498L10.3374 15.9998" stroke="black" stroke-width="1.5" stroke-linecap="round" stroke-linejoin="round"/>
</svg>
