<svg width="32" height="32" viewBox="0 0 32 32" fill="none" xmlns="http://www.w3.org/2000/svg">
<path d="M24 27V5C24 3.89543 23.1046 3 22 3L10 3C8.89543 3 8 3.89543 8 5L8 27C8 28.1046 8.89543 29 10 29H22C23.1046 29 24 28.1046 24 27Z" stroke="black" stroke-width="1.5" stroke-linecap="round" stroke-linejoin="round"/>
<path d="M16 8.75C16.6904 8.75 17.25 8.19036 17.25 7.5C17.25 6.80964 16.6904 6.25 16 6.25C15.3096 6.25 14.75 6.80964 14.75 7.5C14.75 8.19036 15.3096 8.75 16 8.75Z" fill="black"/>
</svg>
