<svg width="32" height="32" viewBox="0 0 32 32" fill="none" xmlns="http://www.w3.org/2000/svg">
<path d="M7.5 13C9.433 13 11 11.433 11 9.5C11 7.567 9.433 6 7.5 6C5.567 6 4 7.567 4 9.5C4 11.433 5.567 13 7.5 13Z" stroke="black" stroke-width="1.5" stroke-linecap="round" stroke-linejoin="round"/>
<path d="M7.5 26C9.433 26 11 24.433 11 22.5C11 20.567 9.433 19 7.5 19C5.567 19 4 20.567 4 22.5C4 24.433 5.567 26 7.5 26Z" stroke="black" stroke-width="1.5" stroke-linecap="round" stroke-linejoin="round"/>
<path d="M17.0002 16L10.3877 20.525" stroke="black" stroke-width="1.5" stroke-linecap="round" stroke-linejoin="round"/>
<path d="M28.9996 7.78711L20.5371 13.5746" stroke="black" stroke-width="1.5" stroke-linecap="round" stroke-linejoin="round"/>
<path d="M29.0002 24.2126L10.3877 11.4751" stroke="black" stroke-width="1.5" stroke-linecap="round" stroke-linejoin="round"/>
</svg>
