<svg width="32" height="32" viewBox="0 0 32 32" fill="none" xmlns="http://www.w3.org/2000/svg">
<path d="M7.5 29.75C8.19036 29.75 8.75 29.1904 8.75 28.5C8.75 27.8096 8.19036 27.25 7.5 27.25C6.80964 27.25 6.25 27.8096 6.25 28.5C6.25 29.1904 6.80964 29.75 7.5 29.75Z" fill="black"/>
<path d="M11 26.25C11.6904 26.25 12.25 25.6904 12.25 25C12.25 24.3096 11.6904 23.75 11 23.75C10.3096 23.75 9.75 24.3096 9.75 25C9.75 25.6904 10.3096 26.25 11 26.25Z" fill="black"/>
<path d="M3.5 25.75C4.19036 25.75 4.75 25.1904 4.75 24.5C4.75 23.8096 4.19036 23.25 3.5 23.25C2.80964 23.25 2.25 23.8096 2.25 24.5C2.25 25.1904 2.80964 25.75 3.5 25.75Z" fill="black"/>
<path d="M7 22.25C7.69036 22.25 8.25 21.6904 8.25 21C8.25 20.3096 7.69036 19.75 7 19.75C6.30964 19.75 5.75 20.3096 5.75 21C5.75 21.6904 6.30964 22.25 7 22.25Z" fill="black"/>
<path d="M31.0004 5.00001H27.4129C27.2831 4.99955 27.1544 5.02471 27.0343 5.07404C26.9142 5.12338 26.805 5.19591 26.7129 5.28751L23.0004 9.00001L6.91293 11.675C6.73081 11.7051 6.56058 11.7851 6.4211 11.906C6.28163 12.0269 6.17835 12.1841 6.1227 12.3601C6.06705 12.5361 6.0612 12.7241 6.10581 12.9032C6.15042 13.0824 6.24373 13.2457 6.37543 13.375L18.6254 25.625C18.7548 25.7567 18.9181 25.85 19.0972 25.8946C19.2763 25.9392 19.4643 25.9334 19.6403 25.8777C19.8163 25.8221 19.9735 25.7188 20.0944 25.5793C20.2153 25.4399 20.2953 25.2696 20.3254 25.0875L23.0004 9.00001" stroke="black" stroke-width="1.5" stroke-linecap="round" stroke-linejoin="round"/>
</svg>
