<svg width="32" height="32" viewBox="0 0 32 32" fill="none" xmlns="http://www.w3.org/2000/svg">
<path d="M22.0002 16C22.0033 19.9094 21.2433 23.7818 19.7627 27.4" stroke="black" stroke-width="1.5" stroke-linecap="round" stroke-linejoin="round"/>
<path d="M20.475 12.0003C19.6651 11.0935 18.5989 10.4542 17.4175 10.1669C16.2361 9.87969 14.9954 9.95812 13.8596 10.3918C12.7238 10.8256 11.7465 11.5941 11.0573 12.5956C10.3681 13.5972 9.99935 14.7845 10 16.0003C10.0074 19.0491 9.23276 22.0488 7.75 24.7128" stroke="black" stroke-width="1.5" stroke-linecap="round" stroke-linejoin="round"/>
<path d="M12 4.68754C13.2836 4.22907 14.637 3.99646 16 4.00004C19.1826 4.00004 22.2348 5.26432 24.4853 7.51476C26.7357 9.7652 28 12.8174 28 16C27.9987 18.6912 27.7011 21.374 27.1125 24" stroke="black" stroke-width="1.5" stroke-linecap="round" stroke-linejoin="round"/>
<path d="M2.9126 21C3.63224 19.4315 4.00326 17.7257 4.0001 16C3.99869 14.3124 4.35436 12.6436 5.04375 11.1032C5.73315 9.56287 6.74066 8.1858 8.0001 7.0625" stroke="black" stroke-width="1.5" stroke-linecap="round" stroke-linejoin="round"/>
<path d="M13.825 26C13.5625 26.55 13.3 27.1 13 27.625" stroke="black" stroke-width="1.5" stroke-linecap="round" stroke-linejoin="round"/>
<path d="M15.9998 16C16.0029 18.0244 15.7467 20.0408 15.2373 22" stroke="black" stroke-width="1.5" stroke-linecap="round" stroke-linejoin="round"/>
</svg>
