<svg width="32" height="32" viewBox="0 0 32 32" fill="none" xmlns="http://www.w3.org/2000/svg">
<path d="M30.1875 15.1628L19.0375 7.98781C18.8859 7.89114 18.711 7.83716 18.5312 7.83154C18.3515 7.82593 18.1736 7.86888 18.0162 7.95589C17.8588 8.0429 17.7278 8.17074 17.6369 8.32594C17.5461 8.48115 17.4988 8.65798 17.5 8.83781V23.1628C17.4988 23.3426 17.5461 23.5195 17.6369 23.6747C17.7278 23.8299 17.8588 23.9577 18.0162 24.0447C18.1736 24.1317 18.3515 24.1747 18.5312 24.1691C18.711 24.1635 18.8859 24.1095 19.0375 24.0128L30.1875 16.8378C30.3296 16.749 30.4468 16.6256 30.528 16.4791C30.6092 16.3326 30.6518 16.1678 30.6518 16.0003C30.6518 15.8328 30.6092 15.668 30.528 15.5215C30.4468 15.375 30.3296 15.2516 30.1875 15.1628V15.1628Z" stroke="black" stroke-width="1.5" stroke-linecap="round" stroke-linejoin="round"/>
<path d="M16.1875 15.1628L5.03752 7.98781C4.88588 7.89114 4.71098 7.83716 4.53123 7.83154C4.35149 7.82593 4.17355 7.86888 4.01617 7.95589C3.85879 8.0429 3.72778 8.17074 3.63695 8.32594C3.54611 8.48115 3.49881 8.65798 3.50002 8.83781V23.1628C3.49881 23.3426 3.54611 23.5195 3.63695 23.6747C3.72778 23.8299 3.85879 23.9577 4.01617 24.0447C4.17355 24.1317 4.35149 24.1747 4.53123 24.1691C4.71098 24.1635 4.88588 24.1095 5.03752 24.0128L16.1875 16.8378C16.3296 16.749 16.4468 16.6256 16.528 16.4791C16.6092 16.3326 16.6518 16.1678 16.6518 16.0003C16.6518 15.8328 16.6092 15.668 16.528 15.5215C16.4468 15.375 16.3296 15.2516 16.1875 15.1628V15.1628Z" stroke="black" stroke-width="1.5" stroke-linecap="round" stroke-linejoin="round"/>
</svg>
