<svg width="32" height="32" viewBox="0 0 32 32" fill="none" xmlns="http://www.w3.org/2000/svg">
<path d="M26.2873 4.48795L2.98725 11.0504C2.78891 11.1047 2.61211 11.2187 2.48092 11.3771C2.34974 11.5354 2.27056 11.7303 2.25416 11.9353C2.23776 12.1403 2.28495 12.3453 2.38929 12.5225C2.49363 12.6997 2.65005 12.8404 2.83725 12.9254L13.5373 17.9879C13.7469 18.085 13.9152 18.2533 14.0123 18.4629L19.0748 29.1629C19.1598 29.3501 19.3005 29.5066 19.4777 29.6109C19.6549 29.7153 19.8599 29.7624 20.0649 29.746C20.2699 29.7296 20.4648 29.6505 20.6231 29.5193C20.7815 29.3881 20.8955 29.2113 20.9498 29.0129L27.5123 5.71295C27.562 5.54292 27.5651 5.36265 27.5212 5.19102C27.4773 5.01939 27.388 4.86274 27.2627 4.73747C27.1375 4.61221 26.9808 4.52295 26.8092 4.47905C26.6376 4.43514 26.4573 4.43822 26.2873 4.48795V4.48795Z" stroke="black" stroke-width="1.5" stroke-linecap="round" stroke-linejoin="round"/>
<path d="M13.8623 18.1373L19.5123 12.4873" stroke="black" stroke-width="1.5" stroke-linecap="round" stroke-linejoin="round"/>
</svg>
