<svg width="32" height="32" viewBox="0 0 32 32" fill="none" xmlns="http://www.w3.org/2000/svg">
<path d="M16.5001 27H5.96258C5.83572 27.0017 5.70981 26.9779 5.59227 26.9302C5.47474 26.8824 5.36796 26.8115 5.27825 26.7218C5.18854 26.6321 5.1177 26.5253 5.06993 26.4078C5.02215 26.2903 4.9984 26.1644 5.00008 26.0375V15.5C5.00008 12.45 6.21169 9.52494 8.36836 7.36827C10.525 5.2116 13.4501 4 16.5001 4V4C18.0103 4 19.5057 4.29746 20.9009 4.87539C22.2962 5.45331 23.5639 6.3004 24.6318 7.36827C25.6997 8.43615 26.5468 9.7039 27.1247 11.0991C27.7026 12.4944 28.0001 13.9898 28.0001 15.5V15.5C28.0001 17.0102 27.7026 18.5056 27.1247 19.9009C26.5468 21.2961 25.6997 22.5639 24.6318 23.6317C23.5639 24.6996 22.2962 25.5467 20.9009 26.1246C19.5057 26.7025 18.0103 27 16.5001 27V27Z" stroke="black" stroke-width="1.5" stroke-linecap="round" stroke-linejoin="round"/>
<path d="M16.5 17.25C17.1904 17.25 17.75 16.6904 17.75 16C17.75 15.3096 17.1904 14.75 16.5 14.75C15.8096 14.75 15.25 15.3096 15.25 16C15.25 16.6904 15.8096 17.25 16.5 17.25Z" fill="black"/>
<path d="M22.5 17.25C23.1904 17.25 23.75 16.6904 23.75 16C23.75 15.3096 23.1904 14.75 22.5 14.75C21.8096 14.75 21.25 15.3096 21.25 16C21.25 16.6904 21.8096 17.25 22.5 17.25Z" fill="black"/>
<path d="M10.5 17.25C11.1904 17.25 11.75 16.6904 11.75 16C11.75 15.3096 11.1904 14.75 10.5 14.75C9.80964 14.75 9.25 15.3096 9.25 16C9.25 16.6904 9.80964 17.25 10.5 17.25Z" fill="black"/>
</svg>
