<svg width="32" height="32" viewBox="0 0 32 32" fill="none" xmlns="http://www.w3.org/2000/svg">
<path d="M16 24.9998C18 24.9998 21.3125 24.9748 25.1125 22.7748C28.9125 20.5748 30.15 17.8373 30.5375 16.4248C30.5732 16.2976 30.583 16.1645 30.5663 16.0334C30.5496 15.9023 30.5067 15.7759 30.4403 15.6616C30.3739 15.5474 30.2852 15.4477 30.1795 15.3683C30.0738 15.289 29.9532 15.2317 29.825 15.1998C28.9125 14.9623 27.3125 14.7498 25.2625 15.2373" stroke="black" stroke-width="1.5" stroke-linecap="round" stroke-linejoin="round"/>
<path d="M6.73747 15.2251C4.68747 14.7501 3.08747 14.9626 2.17497 15.2001C2.04673 15.2319 1.92619 15.2893 1.8205 15.3686C1.7148 15.4479 1.62611 15.5476 1.55967 15.6619C1.49323 15.7761 1.45039 15.9025 1.43369 16.0336C1.417 16.1647 1.42678 16.2978 1.46247 16.4251C1.84997 17.8376 3.08747 20.5876 6.88747 22.7751C10.6875 24.9626 14 25.0001 16 25.0001" stroke="black" stroke-width="1.5" stroke-linecap="round" stroke-linejoin="round"/>
<path d="M16 25.0001C16 25.0001 21 22.2751 21 15.0001C21 9.30005 17.925 6.40005 16.6 5.40005C16.4261 5.27213 16.2159 5.20313 16 5.20312C15.7841 5.20313 15.5739 5.27213 15.4 5.40005C14.075 6.40005 11 9.30005 11 15.0001C11 22.2751 16 25.0001 16 25.0001Z" stroke="black" stroke-width="1.5" stroke-linecap="round" stroke-linejoin="round"/>
<path d="M16 25C17.5 24.675 21.5375 22.4 23.9625 18.2C26.3875 14 25.7875 10.6625 25.3125 9.19998C25.2399 8.96477 25.0809 8.76574 24.8676 8.64286C24.6543 8.51998 24.4024 8.48233 24.1625 8.53748C22.7273 8.85891 21.3847 9.50456 20.2375 10.425" stroke="black" stroke-width="1.5" stroke-linecap="round" stroke-linejoin="round"/>
<path d="M11.7625 10.425C10.6153 9.50456 9.27272 8.85891 7.8375 8.53748C7.59758 8.48233 7.34569 8.51998 7.13238 8.64286C6.91907 8.76574 6.76014 8.96477 6.6875 9.19998C6.2125 10.6625 5.6125 14.0125 8.0375 18.2C10.4625 22.3875 14.5 24.675 16 25" stroke="black" stroke-width="1.5" stroke-linecap="round" stroke-linejoin="round"/>
</svg>
