<svg width="32" height="32" viewBox="0 0 32 32" fill="none" xmlns="http://www.w3.org/2000/svg">
<path d="M4.97461 28.0124C4.97613 28.1885 5.0241 28.361 5.11366 28.5125C5.20322 28.6641 5.33119 28.7893 5.48465 28.8755C5.63811 28.9618 5.81162 29.006 5.98764 29.0037C6.16366 29.0014 6.33595 28.9527 6.48711 28.8624L27.4621 16.8499C27.6164 16.768 27.7455 16.6455 27.8355 16.4958C27.9255 16.3461 27.973 16.1746 27.973 15.9999C27.973 15.8252 27.9255 15.6538 27.8355 15.5041C27.7455 15.3543 27.6164 15.2319 27.4621 15.1499L6.48711 3.13743C6.33595 3.0472 6.16366 2.99848 5.98764 2.99618C5.81162 2.99388 5.63811 3.03808 5.48465 3.12433C5.33119 3.21057 5.20322 3.33579 5.11366 3.48734C5.0241 3.63889 4.97613 3.8114 4.97461 3.98743V28.0124Z" stroke="black" stroke-width="1.5" stroke-linecap="round" stroke-linejoin="round"/>
<path d="M5.27539 3.2749L21.9879 19.9874" stroke="black" stroke-width="1.5" stroke-linecap="round" stroke-linejoin="round"/>
<path d="M5.27539 28.7252L21.9879 12.0127" stroke="black" stroke-width="1.5" stroke-linecap="round" stroke-linejoin="round"/>
</svg>
