<svg width="32" height="32" viewBox="0 0 32 32" fill="none" xmlns="http://www.w3.org/2000/svg">
<path d="M16 22V29" stroke="black" stroke-width="1.5" stroke-linecap="round" stroke-linejoin="round"/>
<path d="M11 29H21" stroke="black" stroke-width="1.5" stroke-linecap="round" stroke-linejoin="round"/>
<path d="M9.99954 3H21.9995L25.262 14.0375C25.4631 14.7289 25.4099 15.4695 25.112 16.125C24.3198 17.878 23.0387 19.3652 21.4224 20.4084C19.8061 21.4516 17.9232 22.0065 15.9995 22.0065C14.0758 22.0065 12.193 21.4516 10.5767 20.4084C8.96041 19.3652 7.67933 17.878 6.88704 16.125C6.58917 15.4695 6.53596 14.7289 6.73704 14.0375L9.99954 3Z" stroke="black" stroke-width="1.5" stroke-linecap="round" stroke-linejoin="round"/>
<path d="M7.1875 12.5373C8.5125 11.8248 11.5875 10.7998 16 12.9998C20.7 15.3498 23.8875 14.0248 25.05 13.3373" stroke="black" stroke-width="1.5" stroke-linecap="round" stroke-linejoin="round"/>
</svg>
