<svg width="32" height="32" viewBox="0 0 32 32" fill="none" xmlns="http://www.w3.org/2000/svg">
<path d="M26.0995 27H5.89951C5.65345 26.9988 5.41623 26.9081 5.23219 26.7448C5.04815 26.5815 4.92989 26.3567 4.89951 26.1125L3.12451 10.1125C3.10873 9.97309 3.12245 9.83192 3.1648 9.69817C3.20714 9.56441 3.27716 9.44106 3.37029 9.33614C3.46343 9.23121 3.5776 9.14706 3.70539 9.08915C3.83318 9.03124 3.97172 9.00086 4.11201 9H27.887C28.0273 9.00086 28.1659 9.03124 28.2936 9.08915C28.4214 9.14706 28.5356 9.23121 28.6287 9.33614C28.7219 9.44106 28.7919 9.56441 28.8342 9.69817C28.8766 9.83192 28.8903 9.97309 28.8745 10.1125L27.0995 26.1125C27.0691 26.3567 26.9509 26.5815 26.7668 26.7448C26.5828 26.9081 26.3456 26.9988 26.0995 27V27Z" stroke="black" stroke-width="1.5" stroke-linecap="round" stroke-linejoin="round"/>
<path d="M11 13V9C11 7.67392 11.5268 6.40215 12.4645 5.46447C13.4021 4.52678 14.6739 4 16 4C17.3261 4 18.5979 4.52678 19.5355 5.46447C20.4732 6.40215 21 7.67392 21 9V13" stroke="black" stroke-width="1.5" stroke-linecap="round" stroke-linejoin="round"/>
</svg>
