<svg width="32" height="32" viewBox="0 0 32 32" fill="none" xmlns="http://www.w3.org/2000/svg">
<path d="M16 20C18.7614 20 21 17.7614 21 15C21 12.2386 18.7614 10 16 10C13.2386 10 11 12.2386 11 15C11 17.7614 13.2386 20 16 20Z" stroke="black" stroke-width="1.5" stroke-linecap="round" stroke-linejoin="round"/>
<path d="M7.9751 24.9248C8.72749 23.4428 9.87555 22.1981 11.292 21.3287C12.7085 20.4592 14.3381 19.999 16.0001 19.999C17.6621 19.999 19.2917 20.4592 20.7082 21.3287C22.1246 22.1981 23.2727 23.4428 24.0251 24.9248" stroke="black" stroke-width="1.5" stroke-linecap="round" stroke-linejoin="round"/>
<path d="M22 7H28" stroke="black" stroke-width="1.5" stroke-linecap="round" stroke-linejoin="round"/>
<path d="M27.3125 12C27.771 13.2836 28.0036 14.637 28 16C28 18.3734 27.2962 20.6935 25.9776 22.6669C24.6591 24.6403 22.7849 26.1783 20.5922 27.0866C18.3995 27.9948 15.9867 28.2325 13.6589 27.7694C11.3312 27.3064 9.19295 26.1635 7.51472 24.4853C5.83649 22.8071 4.6936 20.6689 4.23058 18.3411C3.76756 16.0133 4.0052 13.6005 4.91345 11.4078C5.8217 9.21511 7.35977 7.34096 9.33316 6.02239C11.3066 4.70381 13.6266 4.00002 16 4.00002C16.6322 3.99878 17.2634 4.04895 17.8875 4.15002" stroke="black" stroke-width="1.5" stroke-linecap="round" stroke-linejoin="round"/>
</svg>
