<svg width="32" height="32" viewBox="0 0 32 32" fill="none" xmlns="http://www.w3.org/2000/svg">
<path d="M16 19.5C17.933 19.5 19.5 17.933 19.5 16C19.5 14.067 17.933 12.5 16 12.5C14.067 12.5 12.5 14.067 12.5 16C12.5 17.933 14.067 19.5 16 19.5Z" stroke="black" stroke-width="1.5" stroke-linecap="round" stroke-linejoin="round"/>
<path d="M14.375 12.9C13.4625 10.975 12.5 8.575 12.5 7C12.5 6.07174 12.8687 5.1815 13.5251 4.52513C14.1815 3.86875 15.0717 3.5 16 3.5C16.9283 3.5 17.8185 3.86875 18.4749 4.52513C19.1313 5.1815 19.5 6.07174 19.5 7C19.5 8.575 18.5375 10.975 17.625 12.9" stroke="black" stroke-width="1.5" stroke-linecap="round" stroke-linejoin="round"/>
<path d="M12.5 15.85C10.375 15.6875 7.8125 15.3125 6.45 14.525C5.70104 14.035 5.16826 13.2767 4.96119 12.406C4.75411 11.5352 4.88847 10.6183 5.33666 9.84356C5.78484 9.06884 6.51278 8.49526 7.37084 8.24072C8.2289 7.98618 9.15186 8.07003 9.95 8.47504C11.3125 9.25004 12.9125 11.2875 14.125 13.05" stroke="black" stroke-width="1.5" stroke-linecap="round" stroke-linejoin="round"/>
<path d="M14.1249 18.9499C12.9124 20.7124 11.3124 22.7499 9.94991 23.5249C9.55176 23.7854 9.10467 23.962 8.63597 24.0439C8.16727 24.1257 7.6868 24.1112 7.22391 24.0011C6.76102 23.891 6.32544 23.6877 5.94378 23.4036C5.56211 23.1195 5.24239 22.7605 5.00413 22.3487C4.76587 21.9369 4.61409 21.4808 4.55805 21.0083C4.50201 20.5358 4.5429 20.0568 4.67822 19.6007C4.81353 19.1445 5.04043 18.7208 5.34505 18.3553C5.64967 17.9898 6.02561 17.6902 6.44991 17.4749C7.81241 16.6874 10.3749 16.3124 12.4999 16.1499" stroke="black" stroke-width="1.5" stroke-linecap="round" stroke-linejoin="round"/>
<path d="M17.625 19.1001C18.5375 21.0251 19.5 23.4251 19.5 25.0001C19.5 25.9284 19.1313 26.8186 18.4749 27.475C17.8185 28.1313 16.9283 28.5001 16 28.5001C15.0717 28.5001 14.1815 28.1313 13.5251 27.475C12.8687 26.8186 12.5 25.9284 12.5 25.0001C12.5 23.4251 13.4625 21.0251 14.375 19.1001" stroke="black" stroke-width="1.5" stroke-linecap="round" stroke-linejoin="round"/>
<path d="M19.5 16.1499C21.625 16.3124 24.1875 16.6874 25.55 17.4749C26.299 17.9649 26.8317 18.7232 27.0388 19.594C27.2459 20.4647 27.1115 21.3817 26.6633 22.1564C26.2152 22.9311 25.4872 23.5047 24.6292 23.7592C23.7711 24.0138 22.8481 23.9299 22.05 23.5249C20.6875 22.7499 19.0875 20.7124 17.875 18.9499" stroke="black" stroke-width="1.5" stroke-linecap="round" stroke-linejoin="round"/>
<path d="M17.875 13.05C19.0875 11.2875 20.6875 9.25004 22.05 8.47504C22.8481 8.07003 23.7711 7.98618 24.6292 8.24072C25.4872 8.49526 26.2152 9.06884 26.6633 9.84356C27.1115 10.6183 27.2459 11.5352 27.0388 12.406C26.8317 13.2767 26.299 14.035 25.55 14.525C24.1875 15.3125 21.625 15.6875 19.5 15.85" stroke="black" stroke-width="1.5" stroke-linecap="round" stroke-linejoin="round"/>
</svg>
