<svg width="32" height="32" viewBox="0 0 32 32" fill="none" xmlns="http://www.w3.org/2000/svg">
<path d="M16 28C22.6274 28 28 22.6274 28 16C28 9.37258 22.6274 4 16 4C9.37258 4 4 9.37258 4 16C4 22.6274 9.37258 28 16 28Z" stroke="black" stroke-width="1.5" stroke-linecap="round" stroke-linejoin="round"/>
<path d="M16 17.25C16.6904 17.25 17.25 16.6904 17.25 16C17.25 15.3096 16.6904 14.75 16 14.75C15.3096 14.75 14.75 15.3096 14.75 16C14.75 16.6904 15.3096 17.25 16 17.25Z" fill="black"/>
<path d="M10 17.25C10.6904 17.25 11.25 16.6904 11.25 16C11.25 15.3096 10.6904 14.75 10 14.75C9.30964 14.75 8.75 15.3096 8.75 16C8.75 16.6904 9.30964 17.25 10 17.25Z" fill="black"/>
<path d="M22 17.25C22.6904 17.25 23.25 16.6904 23.25 16C23.25 15.3096 22.6904 14.75 22 14.75C21.3096 14.75 20.75 15.3096 20.75 16C20.75 16.6904 21.3096 17.25 22 17.25Z" fill="black"/>
</svg>
