<svg width="32" height="32" viewBox="0 0 32 32" fill="none" xmlns="http://www.w3.org/2000/svg">
<path d="M5 14H27" stroke="black" stroke-width="1.5" stroke-linecap="round" stroke-linejoin="round"/>
<path d="M12.85 19H7C6.46957 19 5.96086 18.7893 5.58579 18.4142C5.21071 18.0391 5 17.5304 5 17V8C5 6.93913 5.42143 5.92172 6.17157 5.17157C6.92172 4.42143 7.93913 4 9 4H27V17C27 17.5304 26.7893 18.0391 26.4142 18.4142C26.0391 18.7893 25.5304 19 25 19H19.15C19.0073 19.0004 18.8664 19.0314 18.7366 19.0908C18.6069 19.1502 18.4914 19.2367 18.3979 19.3444C18.3043 19.4522 18.2349 19.5787 18.1943 19.7155C18.1537 19.8523 18.1429 19.9962 18.1625 20.1375L19 26C19 26.7956 18.6839 27.5587 18.1213 28.1213C17.5587 28.6839 16.7956 29 16 29C15.2044 29 14.4413 28.6839 13.8787 28.1213C13.3161 27.5587 13 26.7956 13 26L13.8375 20.1375C13.8571 19.9962 13.8463 19.8523 13.8057 19.7155C13.7651 19.5787 13.6957 19.4522 13.6021 19.3444C13.5086 19.2367 13.3931 19.1502 13.2634 19.0908C13.1336 19.0314 12.9927 19.0004 12.85 19V19Z" stroke="black" stroke-width="1.5" stroke-linecap="round" stroke-linejoin="round"/>
<path d="M23 4V10" stroke="black" stroke-width="1.5" stroke-linecap="round" stroke-linejoin="round"/>
</svg>
