<svg width="32" height="32" viewBox="0 0 32 32" fill="none" xmlns="http://www.w3.org/2000/svg">
<path d="M22 15C22 16.5913 21.3679 18.1174 20.2426 19.2426C19.1174 20.3679 17.5913 21 16 21" stroke="black" stroke-width="1.5" stroke-linecap="round" stroke-linejoin="round"/>
<path d="M8 24.95C10.2591 26.9756 13.204 28.066 16.2375 28C22.675 27.875 27.9125 22.6125 28 16.175C28.0232 14.5845 27.7299 13.0052 27.1373 11.529C26.5446 10.0529 25.6644 8.70927 24.5478 7.57636C23.4311 6.44346 22.1004 5.54386 20.633 4.92989C19.1656 4.31592 17.5907 3.99983 16 4H15V8L2 16L3.725 18.3875C4.0525 18.8432 4.50174 19.1975 5.02126 19.4097C5.54079 19.622 6.10958 19.6836 6.6625 19.5875C8.85 19.225 12.675 19 16 21L11.6 27.1625" stroke="black" stroke-width="1.5" stroke-linecap="round" stroke-linejoin="round"/>
<path d="M15.5 13.75C16.1904 13.75 16.75 13.1904 16.75 12.5C16.75 11.8096 16.1904 11.25 15.5 11.25C14.8096 11.25 14.25 11.8096 14.25 12.5C14.25 13.1904 14.8096 13.75 15.5 13.75Z" fill="black"/>
</svg>
