<svg width="32" height="32" viewBox="0 0 32 32" fill="none" xmlns="http://www.w3.org/2000/svg">
<path d="M27.5 22V26C27.5 26.2652 27.3946 26.5196 27.2071 26.7071C27.0196 26.8946 26.7652 27 26.5 27H23.5C23.2348 27 22.9804 26.8946 22.7929 26.7071C22.6054 26.5196 22.5 26.2652 22.5 26V22" stroke="black" stroke-width="1.5" stroke-linecap="round" stroke-linejoin="round"/>
<path d="M9.5 22V26C9.5 26.2652 9.39464 26.5196 9.20711 26.7071C9.01957 26.8946 8.76522 27 8.5 27H5.5C5.23478 27 4.98043 26.8946 4.79289 26.7071C4.60536 26.5196 4.5 26.2652 4.5 26V22" stroke="black" stroke-width="1.5" stroke-linecap="round" stroke-linejoin="round"/>
<path d="M2 12H30" stroke="black" stroke-width="1.5" stroke-linecap="round" stroke-linejoin="round"/>
<path d="M18 16V22" stroke="black" stroke-width="1.5" stroke-linecap="round" stroke-linejoin="round"/>
<path d="M14 16V22" stroke="black" stroke-width="1.5" stroke-linecap="round" stroke-linejoin="round"/>
<path d="M27.5 22H4.5V12L5.375 5.8625C5.40812 5.62391 5.52625 5.40529 5.70767 5.24683C5.8891 5.08837 6.12162 5.00072 6.3625 5H25.6375C25.8784 5.00072 26.1109 5.08837 26.2923 5.24683C26.4738 5.40529 26.5919 5.62391 26.625 5.8625L27.5 12V22Z" stroke="black" stroke-width="1.5" stroke-linecap="round" stroke-linejoin="round"/>
<path d="M23 17.75C23.6904 17.75 24.25 17.1904 24.25 16.5C24.25 15.8096 23.6904 15.25 23 15.25C22.3096 15.25 21.75 15.8096 21.75 16.5C21.75 17.1904 22.3096 17.75 23 17.75Z" fill="black"/>
<path d="M9 17.75C9.69036 17.75 10.25 17.1904 10.25 16.5C10.25 15.8096 9.69036 15.25 9 15.25C8.30964 15.25 7.75 15.8096 7.75 16.5C7.75 17.1904 8.30964 17.75 9 17.75Z" fill="black"/>
</svg>
