<svg width="32" height="32" viewBox="0 0 32 32" fill="none" xmlns="http://www.w3.org/2000/svg">
<path d="M19 10V25.4625C18.9985 25.6287 19.039 25.7926 19.1176 25.939C19.1963 26.0854 19.3106 26.2095 19.45 26.3L20.825 27.2125C20.9582 27.3014 21.1109 27.3571 21.2701 27.3747C21.4292 27.3924 21.5903 27.3716 21.7398 27.314C21.8893 27.2564 22.0227 27.1638 22.1289 27.0439C22.2351 26.924 22.3109 26.7803 22.35 26.625L24 20" stroke="black" stroke-width="1.5" stroke-linecap="round" stroke-linejoin="round"/>
<path d="M24 20.0003C25.3261 20.0003 26.5979 19.4735 27.5355 18.5358C28.4732 17.5981 29 16.3264 29 15.0003C29 13.6742 28.4732 12.4024 27.5355 11.4647C26.5979 10.5271 25.3261 10.0003 24 10.0003H19C19 10.0003 12.1875 10.0003 5.6375 4.51278C5.49181 4.39222 5.31493 4.31544 5.12737 4.29135C4.93981 4.26726 4.74927 4.29684 4.57784 4.37667C4.40642 4.45649 4.26114 4.58329 4.15886 4.74234C4.05658 4.90139 4.0015 5.08619 4 5.27528V24.7253C4.0015 24.9144 4.05658 25.0992 4.15886 25.2582C4.26114 25.4173 4.40642 25.5441 4.57784 25.6239C4.74927 25.7037 4.93981 25.7333 5.12737 25.7092C5.31493 25.6851 5.49181 25.6083 5.6375 25.4878C12.1875 20.0003 19 20.0003 19 20.0003H24Z" stroke="black" stroke-width="1.5" stroke-linecap="round" stroke-linejoin="round"/>
</svg>
