<svg width="32" height="32" viewBox="0 0 32 32" fill="none" xmlns="http://www.w3.org/2000/svg">
<path d="M6 5L26 27" stroke="black" stroke-width="1.5" stroke-linecap="round" stroke-linejoin="round"/>
<path d="M14.3747 14.2123C13.7495 14.3103 13.1344 14.4651 12.5372 14.6748C12.3746 14.7314 12.2292 14.829 12.1154 14.9582C12.0015 15.0874 11.9229 15.2438 11.8872 15.4123L11.1622 19.0998C11.128 19.2633 11.0543 19.416 10.9475 19.5446C10.8408 19.6731 10.7042 19.7736 10.5497 19.8373L4.63725 22.1998C4.43613 22.2831 4.21311 22.2977 4.00288 22.2412C3.79264 22.1847 3.60697 22.0602 3.47475 21.8873C2.58158 20.7332 2.13964 19.2931 2.23168 17.8367C2.32371 16.3803 2.9434 15.0073 3.97475 13.9748C5.80544 12.1483 8.02843 10.7632 10.4747 9.9248" stroke="black" stroke-width="1.5" stroke-linecap="round" stroke-linejoin="round"/>
<path d="M15.0625 9.025C17.4497 8.89294 19.8378 9.26551 22.0713 10.1184C24.3048 10.9713 26.3335 12.2854 28.025 13.975C29.0563 15.0075 29.676 16.3805 29.7681 17.8369C29.8601 19.2933 29.4182 20.7334 28.525 21.8875C28.3928 22.0604 28.2071 22.1848 27.9969 22.2414C27.7866 22.2979 27.5636 22.2833 27.3625 22.2L26.8625 22" stroke="black" stroke-width="1.5" stroke-linecap="round" stroke-linejoin="round"/>
</svg>
