<svg width="32" height="32" viewBox="0 0 32 32" fill="none" xmlns="http://www.w3.org/2000/svg">
<path d="M22.0254 12.4629H28.0254V6.46289" stroke="black" stroke-width="1.5" stroke-linecap="round" stroke-linejoin="round"/>
<path d="M8.22461 8.22481C9.2451 7.20283 10.4571 6.39206 11.7912 5.83888C13.1253 5.28571 14.5554 5.00098 15.9996 5.00098C17.4439 5.00098 18.8739 5.28571 20.208 5.83888C21.5422 6.39206 22.7541 7.20283 23.7746 8.22481L28.0246 12.4623" stroke="black" stroke-width="1.5" stroke-linecap="round" stroke-linejoin="round"/>
<path d="M9.97461 19.5371H3.97461V25.5371" stroke="black" stroke-width="1.5" stroke-linecap="round" stroke-linejoin="round"/>
<path d="M23.7746 23.7746C22.7541 24.7966 21.5422 25.6074 20.208 26.1605C18.8739 26.7137 17.4439 26.9984 15.9996 26.9984C14.5554 26.9984 13.1253 26.7137 11.7912 26.1605C10.4571 25.6074 9.2451 24.7966 8.22461 23.7746L3.97461 19.5371" stroke="black" stroke-width="1.5" stroke-linecap="round" stroke-linejoin="round"/>
</svg>
