<svg width="32" height="32" viewBox="0 0 32 32" fill="none" xmlns="http://www.w3.org/2000/svg">
<path d="M18 9H5C4.44772 9 4 9.44772 4 10V22C4 22.5523 4.44772 23 5 23H18C18.5523 23 19 22.5523 19 22V10C19 9.44772 18.5523 9 18 9Z" stroke="black" stroke-width="1.5" stroke-linecap="round" stroke-linejoin="round"/>
<path d="M18.9996 11H22.9996C23.2648 11 23.5192 11.1054 23.7067 11.2929C23.8943 11.4804 23.9996 11.7348 23.9996 12V21C23.9996 22.8565 23.2621 24.637 21.9494 25.9497C20.6366 27.2625 18.8561 28 16.9996 28V28C15.4919 27.9989 14.0247 27.5119 12.8156 26.6113C11.6065 25.7106 10.7198 24.4443 10.2871 23" stroke="black" stroke-width="1.5" stroke-linecap="round" stroke-linejoin="round"/>
<path d="M13.75 13H9.25" stroke="black" stroke-width="1.5" stroke-linecap="round" stroke-linejoin="round"/>
<path d="M11.5 19V13" stroke="black" stroke-width="1.5" stroke-linecap="round" stroke-linejoin="round"/>
<path d="M13.538 8.99994C13.142 8.31492 12.958 7.52784 13.0094 6.73827C13.0608 5.9487 13.3452 5.1921 13.8267 4.56419C14.3081 3.93627 14.965 3.46525 15.7141 3.2107C16.4633 2.95614 17.2712 2.9295 18.0355 3.13414C18.7998 3.33877 19.4863 3.76549 20.008 4.36032C20.5298 4.95515 20.8634 5.69136 20.9667 6.47584C21.07 7.26031 20.9384 8.05779 20.5884 8.76742C20.2384 9.47704 19.6858 10.0669 19.0005 10.4624" stroke="black" stroke-width="1.5" stroke-linecap="round" stroke-linejoin="round"/>
<path d="M20.7629 5.64993C21.2141 5.11596 21.8254 4.7417 22.5062 4.58272C23.187 4.42374 23.9008 4.4885 24.5419 4.76739C25.1829 5.04629 25.7169 5.52444 26.0647 6.1309C26.4124 6.73735 26.5554 7.43976 26.4723 8.13389C26.3892 8.82801 26.0845 9.47684 25.6034 9.98406C25.1223 10.4913 24.4905 10.8299 23.8018 10.9496C23.113 11.0693 22.404 10.9637 21.78 10.6485C21.156 10.3333 20.6503 9.82532 20.3379 9.19993" stroke="black" stroke-width="1.5" stroke-linecap="round" stroke-linejoin="round"/>
<path d="M24.0004 11H27.4129C27.5687 11 27.7181 11.0619 27.8283 11.1721C27.9385 11.2823 28.0004 11.4317 28.0004 11.5875V19C28.0004 20.0609 27.579 21.0783 26.8288 21.8284C26.0787 22.5786 25.0613 23 24.0004 23H23.7129" stroke="black" stroke-width="1.5" stroke-linecap="round" stroke-linejoin="round"/>
</svg>
