<svg width="32" height="32" viewBox="0 0 32 32" fill="none" xmlns="http://www.w3.org/2000/svg">
<path d="M26.5002 16.5L19.3252 23.675C18.9547 24.0469 18.5145 24.342 18.0297 24.5433C17.5449 24.7447 17.0251 24.8483 16.5002 24.8483C15.9753 24.8483 15.4555 24.7447 14.9707 24.5433C14.4859 24.342 14.0457 24.0469 13.6752 23.675L8.32519 18.325C7.95329 17.9545 7.6582 17.5143 7.45685 17.0295C7.2555 16.5447 7.15186 16.0249 7.15186 15.5C7.15186 14.9751 7.2555 14.4553 7.45685 13.9705C7.6582 13.4857 7.95329 13.0455 8.32519 12.675L15.5002 5.5" stroke="black" stroke-width="1.5" stroke-linecap="round" stroke-linejoin="round"/>
<path d="M11 21L4 28" stroke="black" stroke-width="1.5" stroke-linecap="round" stroke-linejoin="round"/>
<path d="M18 8L23 3" stroke="black" stroke-width="1.5" stroke-linecap="round" stroke-linejoin="round"/>
<path d="M29 9L24 14" stroke="black" stroke-width="1.5" stroke-linecap="round" stroke-linejoin="round"/>
<path d="M28 18L14 4" stroke="black" stroke-width="1.5" stroke-linecap="round" stroke-linejoin="round"/>
</svg>
