<svg width="32" height="32" viewBox="0 0 32 32" fill="none" xmlns="http://www.w3.org/2000/svg">
<path d="M27 10H5C4.44772 10 4 10.4477 4 11V15C4 15.5523 4.44772 16 5 16H27C27.5523 16 28 15.5523 28 15V11C28 10.4477 27.5523 10 27 10Z" stroke="black" stroke-width="1.5" stroke-linecap="round" stroke-linejoin="round"/>
<path d="M26 16V25C26 25.2652 25.8946 25.5196 25.7071 25.7071C25.5196 25.8946 25.2652 26 25 26H7C6.73478 26 6.48043 25.8946 6.29289 25.7071C6.10536 25.5196 6 25.2652 6 25V16" stroke="black" stroke-width="1.5" stroke-linecap="round" stroke-linejoin="round"/>
<path d="M16 10V26" stroke="black" stroke-width="1.5" stroke-linecap="round" stroke-linejoin="round"/>
<path d="M21.6625 8.58772C20.2375 10.0002 16 10.0002 16 10.0002C16 10.0002 16 5.76272 17.4125 4.33772C17.9761 3.77414 18.7405 3.45752 19.5375 3.45752C20.3345 3.45752 21.0989 3.77414 21.6625 4.33772C22.2261 4.90131 22.5427 5.66569 22.5427 6.46272C22.5427 7.25975 22.2261 8.02414 21.6625 8.58772V8.58772Z" stroke="black" stroke-width="1.5" stroke-linecap="round" stroke-linejoin="round"/>
<path d="M10.3372 8.58772C11.7622 10.0002 15.9997 10.0002 15.9997 10.0002C15.9997 10.0002 15.9997 5.76272 14.5872 4.33772C14.0236 3.77414 13.2593 3.45752 12.4622 3.45752C11.6652 3.45752 10.9008 3.77414 10.3372 4.33772C9.77365 4.90131 9.45703 5.66569 9.45703 6.46272C9.45703 7.25975 9.77365 8.02414 10.3372 8.58772V8.58772Z" stroke="black" stroke-width="1.5" stroke-linecap="round" stroke-linejoin="round"/>
</svg>
