<svg width="32" height="32" viewBox="0 0 32 32" fill="none" xmlns="http://www.w3.org/2000/svg">
<path d="M16 7V22.5" stroke="black" stroke-width="1.5" stroke-linecap="round" stroke-linejoin="round"/>
<path d="M23.3873 19.05C24.3748 19.1 27.0248 18.8875 27.9998 15C28.9748 11.1125 29.8623 6 25.9998 6C22.1373 6 15.9998 12 15.9998 16C15.9998 12 9.86228 6 5.99978 6C2.13728 6 2.99978 11 3.99978 15C4.99978 19 7.62478 19.1 8.61228 19.05" stroke="black" stroke-width="1.5" stroke-linecap="round" stroke-linejoin="round"/>
<path d="M11 18.0249C10.1368 18.1214 9.31999 18.4657 8.64812 19.0161C7.97625 19.5666 7.47804 20.2997 7.21361 21.1271C6.94918 21.9544 6.92984 22.8406 7.15791 23.6787C7.38598 24.5168 7.85172 25.2709 8.49893 25.8502C9.14614 26.4294 9.94716 26.809 10.8053 26.9431C11.6635 27.0772 12.5421 26.96 13.3352 26.6058C14.1282 26.2516 14.8018 25.6755 15.2747 24.9469C15.7475 24.2183 15.9994 23.3685 16 22.4999C16.0006 23.3685 16.2525 24.2183 16.7253 24.9469C17.1982 25.6755 17.8718 26.2516 18.6648 26.6058C19.4579 26.96 20.3365 27.0772 21.1947 26.9431C22.0528 26.809 22.8539 26.4294 23.5011 25.8502C24.1483 25.2709 24.614 24.5168 24.8421 23.6787C25.0702 22.8406 25.0508 21.9544 24.7864 21.1271C24.522 20.2997 24.0237 19.5666 23.3519 19.0161C22.68 18.4657 21.8632 18.1214 21 18.0249" stroke="black" stroke-width="1.5" stroke-linecap="round" stroke-linejoin="round"/>
</svg>
