<svg width="32" height="32" viewBox="0 0 32 32" fill="none" xmlns="http://www.w3.org/2000/svg">
<path d="M10 15H19C20.3261 15 21.5979 15.5268 22.5355 16.4645C23.4732 17.4021 24 18.6739 24 20C24 21.3261 23.4732 22.5979 22.5355 23.5355C21.5979 24.4732 20.3261 25 19 25H10V6H17.5C18.6935 6 19.8381 6.47411 20.682 7.31802C21.5259 8.16193 22 9.30653 22 10.5C22 11.6935 21.5259 12.8381 20.682 13.682C19.8381 14.5259 18.6935 15 17.5 15" stroke="black" stroke-width="1.5" stroke-linecap="round" stroke-linejoin="round"/>
<path d="M8 6H10" stroke="black" stroke-width="1.5" stroke-linecap="round" stroke-linejoin="round"/>
<path d="M8 25H10" stroke="black" stroke-width="1.5" stroke-linecap="round" stroke-linejoin="round"/>
<path d="M13 6V3" stroke="black" stroke-width="1.5" stroke-linecap="round" stroke-linejoin="round"/>
<path d="M17 6V3" stroke="black" stroke-width="1.5" stroke-linecap="round" stroke-linejoin="round"/>
<path d="M13 28V25" stroke="black" stroke-width="1.5" stroke-linecap="round" stroke-linejoin="round"/>
<path d="M17 28V25" stroke="black" stroke-width="1.5" stroke-linecap="round" stroke-linejoin="round"/>
</svg>
