<svg width="32" height="32" viewBox="0 0 32 32" fill="none" xmlns="http://www.w3.org/2000/svg">
<path d="M25 22V8.00003C25.0017 7.6056 24.9252 7.21475 24.775 6.85002C24.6248 6.4853 24.4039 6.15392 24.125 5.87502C23.8461 5.59611 23.5147 5.3752 23.15 5.22502C22.7853 5.07484 22.3944 4.99837 22 5.00003H5" stroke="black" stroke-width="1.5" stroke-linecap="round" stroke-linejoin="round"/>
<path d="M13 13H21" stroke="black" stroke-width="1.5" stroke-linecap="round" stroke-linejoin="round"/>
<path d="M13 17H21" stroke="black" stroke-width="1.5" stroke-linecap="round" stroke-linejoin="round"/>
<path d="M2.7625 10.0004C2.43867 9.63778 2.20781 9.20194 2.08977 8.73036C1.97174 8.25877 1.97007 7.76557 2.08492 7.2932C2.19977 6.82083 2.42769 6.38345 2.74907 6.0187C3.07044 5.65395 3.47564 5.37276 3.92979 5.19934C4.38394 5.02592 4.87342 4.96546 5.35612 5.02317C5.83881 5.08087 6.30025 5.25501 6.70072 5.53061C7.10118 5.8062 7.42868 6.17498 7.65501 6.60521C7.88135 7.03543 7.99974 7.51422 8 8.00035V24.0004C8.00026 24.4865 8.11865 24.9653 8.34499 25.3955C8.57132 25.8257 8.89882 26.1945 9.29928 26.4701C9.69975 26.7457 10.1612 26.9198 10.6439 26.9775C11.1266 27.0352 11.6161 26.9748 12.0702 26.8014C12.5244 26.6279 12.9296 26.3468 13.2509 25.982C13.5723 25.6173 13.8002 25.1799 13.9151 24.7075C14.0299 24.2351 14.0283 23.7419 13.9102 23.2703C13.7922 22.7988 13.5613 22.3629 13.2375 22.0004H27.2375C27.6237 22.4321 27.8766 22.9664 27.9657 23.5388C28.0548 24.1111 27.9764 24.697 27.7398 25.2257C27.5031 25.7545 27.1185 26.2034 26.6324 26.5183C26.1462 26.8332 25.5792 27.0006 25 27.0004H11" stroke="black" stroke-width="1.5" stroke-linecap="round" stroke-linejoin="round"/>
</svg>
