<svg width="32" height="32" viewBox="0 0 32 32" fill="none" xmlns="http://www.w3.org/2000/svg">
<path d="M4 9.00003H10.4875C10.6474 8.99881 10.8051 9.03694 10.9468 9.11105C11.0885 9.18517 11.2098 9.29299 11.3 9.42503L20.7 22.575C20.7902 22.7071 20.9115 22.8149 21.0532 22.889C21.1949 22.9631 21.3526 23.0012 21.5125 23H29" stroke="black" stroke-width="1.5" stroke-linecap="round" stroke-linejoin="round"/>
<path d="M26 6L29 9L26 12" stroke="black" stroke-width="1.5" stroke-linecap="round" stroke-linejoin="round"/>
<path d="M26 20L29 23L26 26" stroke="black" stroke-width="1.5" stroke-linecap="round" stroke-linejoin="round"/>
<path d="M18.4624 12.5625L20.6999 9.42503C20.7901 9.29299 20.9114 9.18517 21.0531 9.11105C21.1948 9.03694 21.3525 8.99881 21.5124 9.00003H28.9999" stroke="black" stroke-width="1.5" stroke-linecap="round" stroke-linejoin="round"/>
<path d="M4 23H10.4875C10.6474 23.0012 10.8051 22.9631 10.9468 22.889C11.0885 22.8149 11.2098 22.707 11.3 22.575L13.5375 19.4375" stroke="black" stroke-width="1.5" stroke-linecap="round" stroke-linejoin="round"/>
</svg>
