<svg width="32" height="32" viewBox="0 0 32 32" fill="none" xmlns="http://www.w3.org/2000/svg">
<path d="M16.5 16.5V3C18.0741 3 19.6083 3.49528 20.8853 4.41568C22.1623 5.33609 23.1173 6.63495 23.6151 8.12829C24.1129 9.62163 24.1282 11.2337 23.6589 12.7363C23.1895 14.2388 22.2593 15.5555 21 16.5" stroke="black" stroke-width="1.5" stroke-linecap="round" stroke-linejoin="round"/>
<path d="M16.5 15.5H3C3 13.9259 3.49528 12.3917 4.41568 11.1147C5.33609 9.83768 6.63495 8.88266 8.12829 8.38488C9.62163 7.8871 11.2337 7.8718 12.7363 8.34115C14.2388 8.8105 15.5555 9.74071 16.5 11" stroke="black" stroke-width="1.5" stroke-linecap="round" stroke-linejoin="round"/>
<path d="M15.5 15.5V29C13.9259 29 12.3917 28.5047 11.1147 27.5843C9.83768 26.6639 8.88266 25.365 8.38488 23.8717C7.8871 22.3784 7.8718 20.7663 8.34115 19.2637C8.8105 17.7612 9.74071 16.4445 11 15.5" stroke="black" stroke-width="1.5" stroke-linecap="round" stroke-linejoin="round"/>
<path d="M15.5 16.5H29C29 18.0741 28.5047 19.6083 27.5843 20.8853C26.6639 22.1623 25.365 23.1173 23.8717 23.6151C22.3784 24.1129 20.7663 24.1282 19.2637 23.6589C17.7612 23.1895 16.4445 22.2593 15.5 21" stroke="black" stroke-width="1.5" stroke-linecap="round" stroke-linejoin="round"/>
</svg>
