<svg width="32" height="32" viewBox="0 0 32 32" fill="none" xmlns="http://www.w3.org/2000/svg">
<path d="M19 28.0002L13.4125 19.6252C13.3686 19.5554 13.3077 19.498 13.2356 19.4582C13.1634 19.4183 13.0824 19.3975 13 19.3975C12.9176 19.3975 12.8366 19.4183 12.7644 19.4582C12.6923 19.498 12.6314 19.5554 12.5875 19.6252L9.975 23.5502C9.92853 23.6191 9.86559 23.6754 9.79188 23.7139C9.71817 23.7524 9.63602 23.772 9.55286 23.7707C9.46971 23.7695 9.38817 23.7475 9.31565 23.7068C9.24312 23.6661 9.18189 23.608 9.1375 23.5377L7.925 21.6502C7.87809 21.5805 7.8148 21.5235 7.7407 21.4841C7.66659 21.4447 7.58394 21.4241 7.5 21.4241C7.41606 21.4241 7.33341 21.4447 7.2593 21.4841C7.1852 21.5235 7.12191 21.5805 7.075 21.6502L3 28.0002H19Z" stroke="black" stroke-width="1.5" stroke-linecap="round" stroke-linejoin="round"/>
<path d="M19 4V11H26" stroke="black" stroke-width="1.5" stroke-linecap="round" stroke-linejoin="round"/>
<path d="M24 28H25C25.2652 28 25.5196 27.8946 25.7071 27.7071C25.8946 27.5196 26 27.2652 26 27V11L19 4H7C6.73478 4 6.48043 4.10536 6.29289 4.29289C6.10536 4.48043 6 4.73478 6 5V17" stroke="black" stroke-width="1.5" stroke-linecap="round" stroke-linejoin="round"/>
</svg>
