<svg width="32" height="32" viewBox="0 0 32 32" fill="none" xmlns="http://www.w3.org/2000/svg">
<path d="M20.9998 15V8.5C20.9998 7.83696 21.2632 7.20107 21.732 6.73223C22.2009 6.26339 22.8367 6 23.4998 6C24.1628 6 24.7987 6.26339 25.2675 6.73223C25.7364 7.20107 25.9998 7.83696 25.9998 8.5V19C25.9998 20.3132 25.7411 21.6136 25.2386 22.8268C24.736 24.0401 23.9994 25.1425 23.0709 26.0711C22.1423 26.9997 21.0399 27.7362 19.8266 28.2388C18.6134 28.7413 17.313 29 15.9998 29C10.4748 29 7.99978 26 3.92478 17.4125C3.59326 16.8373 3.50381 16.154 3.67611 15.5128C3.84841 14.8717 4.26834 14.3253 4.84353 13.9937C5.41872 13.6622 6.10205 13.5728 6.74319 13.7451C7.38433 13.9174 7.93076 14.3373 8.26228 14.9125L10.9998 19.6625V6.5C10.9998 5.83696 11.2632 5.20107 11.732 4.73223C12.2009 4.26339 12.8367 4 13.4998 4C14.1628 4 14.7987 4.26339 15.2675 4.73223C15.7364 5.20107 15.9998 5.83696 15.9998 6.5V15" stroke="black" stroke-width="1.5" stroke-linecap="round" stroke-linejoin="round"/>
<path d="M21 8.5V4.5C21 3.83696 20.7366 3.20107 20.2678 2.73223C19.7989 2.26339 19.163 2 18.5 2C17.837 2 17.2011 2.26339 16.7322 2.73223C16.2634 3.20107 16 3.83696 16 4.5V6.5" stroke="black" stroke-width="1.5" stroke-linecap="round" stroke-linejoin="round"/>
</svg>
