<svg width="32" height="32" viewBox="0 0 32 32" fill="none" xmlns="http://www.w3.org/2000/svg">
<path d="M23.3 24.55L28.625 16.55C28.7357 16.388 28.7949 16.1963 28.7949 16C28.7949 15.8038 28.7357 15.6121 28.625 15.45L23.3 7.45004C23.2095 7.31062 23.0854 7.19628 22.939 7.11762C22.7926 7.03896 22.6287 6.99852 22.4625 7.00004H3L8.625 15.45C8.73571 15.6121 8.79494 15.8038 8.79494 16C8.79494 16.1963 8.73571 16.388 8.625 16.55L3 25H22.4625C22.6287 25.0016 22.7926 24.9611 22.939 24.8825C23.0854 24.8038 23.2095 24.6895 23.3 24.55V24.55Z" stroke="black" stroke-width="1.5" stroke-linecap="round" stroke-linejoin="round"/>
</svg>
