<svg width="32" height="32" viewBox="0 0 32 32" fill="none" xmlns="http://www.w3.org/2000/svg">
<path d="M25.825 26.7877L5.825 23.1502C5.59326 23.109 5.38348 22.9874 5.23258 22.8068C5.08167 22.6261 4.99931 22.3981 5 22.1627V9.8377C4.99931 9.60233 5.08167 9.37426 5.23258 9.19363C5.38348 9.013 5.59326 8.89139 5.825 8.8502L25.825 5.2127C25.9691 5.18708 26.1171 5.19342 26.2585 5.23126C26.3999 5.26911 26.5313 5.33754 26.6434 5.43172C26.7555 5.5259 26.8455 5.64354 26.9071 5.77633C26.9687 5.90912 27.0004 6.05381 27 6.2002V25.8002C27.0004 25.9466 26.9687 26.0913 26.9071 26.2241C26.8455 26.3569 26.7555 26.4745 26.6434 26.5687C26.5313 26.6629 26.3999 26.7313 26.2585 26.7691C26.1171 26.807 25.9691 26.8133 25.825 26.7877Z" stroke="black" stroke-width="1.5" stroke-linecap="round" stroke-linejoin="round"/>
<path d="M2 16H30" stroke="black" stroke-width="1.5" stroke-linecap="round" stroke-linejoin="round"/>
</svg>
