<svg width="32" height="32" viewBox="0 0 32 32" fill="none" xmlns="http://www.w3.org/2000/svg">
<path d="M24 5H8C6.34315 5 5 6.34315 5 8V24C5 25.6569 6.34315 27 8 27H24C25.6569 27 27 25.6569 27 24V8C27 6.34315 25.6569 5 24 5Z" stroke="black" stroke-width="1.5" stroke-linecap="round" stroke-linejoin="round"/>
<path d="M13.5 14.75C14.1904 14.75 14.75 14.1904 14.75 13.5C14.75 12.8096 14.1904 12.25 13.5 12.25C12.8096 12.25 12.25 12.8096 12.25 13.5C12.25 14.1904 12.8096 14.75 13.5 14.75Z" fill="black"/>
<path d="M18.5 19.75C19.1904 19.75 19.75 19.1904 19.75 18.5C19.75 17.8096 19.1904 17.25 18.5 17.25C17.8096 17.25 17.25 17.8096 17.25 18.5C17.25 19.1904 17.8096 19.75 18.5 19.75Z" fill="black"/>
</svg>
