<svg width="32" height="32" viewBox="0 0 32 32" fill="none" xmlns="http://www.w3.org/2000/svg">
<path d="M19.8376 20.4376L16.9376 28.4126C16.8665 28.6039 16.7386 28.769 16.571 28.8855C16.4034 29.0021 16.2042 29.0646 16.0001 29.0646C15.7959 29.0646 15.5967 29.0021 15.4291 28.8855C15.2615 28.769 15.1336 28.6039 15.0626 28.4126L12.1626 20.4376C12.1119 20.3001 12.032 20.1753 11.9284 20.0717C11.8249 19.9681 11.7 19.8882 11.5626 19.8376L3.58756 16.9376C3.39618 16.8665 3.23113 16.7386 3.11458 16.571C2.99802 16.4034 2.93555 16.2042 2.93555 16.0001C2.93555 15.7959 2.99802 15.5967 3.11458 15.4291C3.23113 15.2615 3.39618 15.1336 3.58756 15.0626L11.5626 12.1626C11.7 12.1119 11.8249 12.032 11.9284 11.9284C12.032 11.8249 12.1119 11.7 12.1626 11.5626L15.0626 3.58756C15.1336 3.39618 15.2615 3.23113 15.4291 3.11458C15.5967 2.99802 15.7959 2.93555 16.0001 2.93555C16.2042 2.93555 16.4034 2.99802 16.571 3.11458C16.7386 3.23113 16.8665 3.39618 16.9376 3.58756L19.8376 11.5626C19.8882 11.7 19.9681 11.8249 20.0717 11.9284C20.1753 12.032 20.3001 12.1119 20.4376 12.1626L28.4126 15.0626C28.6039 15.1336 28.769 15.2615 28.8855 15.4291C29.0021 15.5967 29.0646 15.7959 29.0646 16.0001C29.0646 16.2042 29.0021 16.4034 28.8855 16.571C28.769 16.7386 28.6039 16.8665 28.4126 16.9376L20.4376 19.8376C20.3001 19.8882 20.1753 19.9681 20.0717 20.0717C19.9681 20.1753 19.8882 20.3001 19.8376 20.4376V20.4376Z" stroke="black" stroke-width="1.5" stroke-linecap="round" stroke-linejoin="round"/>
</svg>
