<svg width="32" height="32" viewBox="0 0 32 32" fill="none" xmlns="http://www.w3.org/2000/svg">
<path d="M16 28C22.6274 28 28 22.6274 28 16C28 9.37258 22.6274 4 16 4C9.37258 4 4 9.37258 4 16C4 22.6274 9.37258 28 16 28Z" stroke="black" stroke-width="1.5" stroke-linecap="round" stroke-linejoin="round"/>
<path d="M13.2375 11.8375C13.5071 11.2008 13.9884 10.6768 14.5998 10.3541C15.2113 10.0314 15.9155 9.92985 16.5933 10.0666C17.271 10.2033 17.8807 10.5699 18.3193 11.1045C18.7578 11.639 18.9983 12.3086 19 13C19.0027 13.5973 18.824 14.1814 18.4875 14.675V14.675L13 22H19" stroke="black" stroke-width="1.5" stroke-linecap="round" stroke-linejoin="round"/>
</svg>
