<svg width="32" height="32" viewBox="0 0 32 32" fill="none" xmlns="http://www.w3.org/2000/svg">
<path d="M5.67534 22.1251C4.18645 19.6131 3.66565 16.644 4.21072 13.7753C4.75579 10.9065 6.32925 8.33537 8.63569 6.5445C10.9421 4.75364 13.823 3.86623 16.7373 4.04888C19.6517 4.23152 22.3992 5.47165 24.464 7.53646C26.5288 9.60127 27.7689 12.3488 27.9516 15.2631C28.1342 18.1775 27.2468 21.0583 25.4559 23.3647C23.6651 25.6712 21.0939 27.2446 18.2252 27.7897C15.3564 28.3348 12.3873 27.814 9.87534 26.3251V26.3251L5.72534 27.5001C5.55531 27.5498 5.37503 27.5529 5.20341 27.509C5.03178 27.4651 4.87513 27.3758 4.74986 27.2506C4.6246 27.1253 4.53534 26.9686 4.49144 26.797C4.44753 26.6254 4.45061 26.4451 4.50034 26.2751L5.67534 22.1251Z" stroke="black" stroke-width="1.5" stroke-linecap="round" stroke-linejoin="round"/>
<path d="M16 17.25C16.6904 17.25 17.25 16.6904 17.25 16C17.25 15.3096 16.6904 14.75 16 14.75C15.3096 14.75 14.75 15.3096 14.75 16C14.75 16.6904 15.3096 17.25 16 17.25Z" fill="black"/>
<path d="M22 17.25C22.6904 17.25 23.25 16.6904 23.25 16C23.25 15.3096 22.6904 14.75 22 14.75C21.3096 14.75 20.75 15.3096 20.75 16C20.75 16.6904 21.3096 17.25 22 17.25Z" fill="black"/>
<path d="M10 17.25C10.6904 17.25 11.25 16.6904 11.25 16C11.25 15.3096 10.6904 14.75 10 14.75C9.30964 14.75 8.75 15.3096 8.75 16C8.75 16.6904 9.30964 17.25 10 17.25Z" fill="black"/>
</svg>
