<svg width="32" height="32" viewBox="0 0 32 32" fill="none" xmlns="http://www.w3.org/2000/svg">
<path d="M8.00017 27.0002C7.73496 27.0002 7.4806 26.8948 7.29307 26.7073C7.10553 26.5197 7.00017 26.2654 7.00017 26.0002V20.6627C6.45156 20.9244 5.84355 21.0365 5.23767 20.9877C4.72467 20.95 4.22627 20.7997 3.77796 20.5474C3.32965 20.2952 2.94245 19.9473 2.64391 19.5284C2.34537 19.1095 2.14284 18.6299 2.05072 18.1239C1.9586 17.6178 1.97917 17.0976 2.11095 16.6004C2.24273 16.1032 2.48249 15.6411 2.81317 15.2471C3.14385 14.8531 3.55731 14.5368 4.02413 14.3208C4.49095 14.1047 4.99966 13.9942 5.51404 13.9971C6.02842 14.0001 6.53584 14.1163 7.00017 14.3377V9.00017C7.00017 8.73496 7.10553 8.4806 7.29307 8.29307C7.4806 8.10553 7.73496 8.00017 8.00017 8.00017H13.8377C13.576 7.45156 13.4639 6.84355 13.5127 6.23767C13.5504 5.72467 13.7007 5.22627 13.9529 4.77796C14.2051 4.32965 14.5531 3.94245 14.972 3.64391C15.3909 3.34537 15.8704 3.14284 16.3765 3.05072C16.8826 2.9586 17.4027 2.97917 17.8999 3.11095C18.3972 3.24273 18.8592 3.48249 19.2532 3.81317C19.6473 4.14385 19.9635 4.55731 20.1796 5.02413C20.3956 5.49095 20.5061 5.99966 20.5032 6.51404C20.5003 7.02842 20.384 7.53584 20.1627 8.00017H26.0002C26.2654 8.00017 26.5197 8.10553 26.7073 8.29307C26.8948 8.4806 27.0002 8.73496 27.0002 9.00017V14.3377C26.4516 14.076 25.8435 13.9639 25.2377 14.0127C24.7247 14.0504 24.2263 14.2007 23.778 14.4529C23.3297 14.7051 22.9425 15.0531 22.6439 15.472C22.3454 15.8909 22.1428 16.3704 22.0507 16.8765C21.9586 17.3826 21.9792 17.9027 22.111 18.3999C22.2427 18.8972 22.4825 19.3592 22.8132 19.7532C23.1438 20.1473 23.5573 20.4635 24.0241 20.6796C24.491 20.8956 24.9997 21.0061 25.514 21.0032C26.0284 21.0003 26.5358 20.884 27.0002 20.6627V26.0002C27.0002 26.2654 26.8948 26.5197 26.7073 26.7073C26.5197 26.8948 26.2654 27.0002 26.0002 27.0002H8.00017Z" stroke="black" stroke-width="1.5" stroke-linecap="round" stroke-linejoin="round"/>
</svg>
