<svg width="32" height="32" viewBox="0 0 32 32" fill="none" xmlns="http://www.w3.org/2000/svg">
<path d="M20 9H12" stroke="black" stroke-width="1.5" stroke-linecap="round" stroke-linejoin="round"/>
<path d="M20 13H12" stroke="black" stroke-width="1.5" stroke-linecap="round" stroke-linejoin="round"/>
<path d="M25 27V5C25 4.44772 24.5523 4 24 4L8 4C7.44772 4 7 4.44772 7 5V27C7 27.5523 7.44772 28 8 28H24C24.5523 28 25 27.5523 25 27Z" stroke="black" stroke-width="1.5" stroke-linecap="round" stroke-linejoin="round"/>
<path d="M16 23.75C16.6904 23.75 17.25 23.1904 17.25 22.5C17.25 21.8096 16.6904 21.25 16 21.25C15.3096 21.25 14.75 21.8096 14.75 22.5C14.75 23.1904 15.3096 23.75 16 23.75Z" fill="black"/>
</svg>
