<svg width="32" height="32" viewBox="0 0 32 32" fill="none" xmlns="http://www.w3.org/2000/svg">
<path d="M16 21C18.7614 21 21 18.7614 21 16C21 13.2386 18.7614 11 16 11C13.2386 11 11 13.2386 11 16C11 18.7614 13.2386 21 16 21Z" stroke="black" stroke-width="1.5" stroke-linecap="round" stroke-linejoin="round"/>
<path d="M22.6375 26.0001C20.4101 27.479 17.7527 28.1716 15.0868 27.9681C12.421 27.7647 9.89942 26.6768 7.92226 24.877C5.9451 23.0773 4.6256 20.6688 4.17312 18.0338C3.72064 15.3988 4.1611 12.6881 5.42462 10.3319C6.68813 7.97567 8.70233 6.1089 11.1476 5.02778C13.5929 3.94666 16.3292 3.71311 18.9223 4.36419C21.5154 5.01527 23.8168 6.51369 25.4614 8.62169C27.1059 10.7297 27.9994 13.3265 28 16.0001C28 18.7626 27 21.0001 24.5 21.0001C22 21.0001 21 18.7626 21 16.0001V11.0001" stroke="black" stroke-width="1.5" stroke-linecap="round" stroke-linejoin="round"/>
</svg>
