<svg width="32" height="32" viewBox="0 0 32 32" fill="none" xmlns="http://www.w3.org/2000/svg">
<path d="M16 17.25C16.6904 17.25 17.25 16.6904 17.25 16C17.25 15.3096 16.6904 14.75 16 14.75C15.3096 14.75 14.75 15.3096 14.75 16C14.75 16.6904 15.3096 17.25 16 17.25Z" fill="black"/>
<path d="M8 17.25C8.69036 17.25 9.25 16.6904 9.25 16C9.25 15.3096 8.69036 14.75 8 14.75C7.30964 14.75 6.75 15.3096 6.75 16C6.75 16.6904 7.30964 17.25 8 17.25Z" fill="black"/>
<path d="M24 17.25C24.6904 17.25 25.25 16.6904 25.25 16C25.25 15.3096 24.6904 14.75 24 14.75C23.3096 14.75 22.75 15.3096 22.75 16C22.75 16.6904 23.3096 17.25 24 17.25Z" fill="black"/>
</svg>
