<svg width="32" height="32" viewBox="0 0 32 32" fill="none" xmlns="http://www.w3.org/2000/svg">
<path d="M15.3374 3.23738L5.24988 5.24988L3.23738 15.3374C3.20585 15.4984 3.21444 15.6648 3.2624 15.8218C3.31036 15.9787 3.39621 16.1215 3.51239 16.2374L16.5624 29.2874C16.6544 29.3815 16.7642 29.4563 16.8855 29.5073C17.0068 29.5584 17.137 29.5847 17.2686 29.5847C17.4002 29.5847 17.5305 29.5584 17.6518 29.5073C17.7731 29.4563 17.8829 29.3815 17.9749 29.2874L29.2874 17.9749C29.3815 17.8829 29.4563 17.7731 29.5073 17.6518C29.5584 17.5305 29.5847 17.4002 29.5847 17.2686C29.5847 17.137 29.5584 17.0068 29.5073 16.8855C29.4563 16.7642 29.3815 16.6544 29.2874 16.5624L16.2374 3.51239C16.1215 3.39621 15.9787 3.31036 15.8218 3.2624C15.6648 3.21444 15.4984 3.20585 15.3374 3.23738V3.23738Z" stroke="black" stroke-width="1.5" stroke-linecap="round" stroke-linejoin="round"/>
<path d="M10.5 11.75C11.1904 11.75 11.75 11.1904 11.75 10.5C11.75 9.80964 11.1904 9.25 10.5 9.25C9.80964 9.25 9.25 9.80964 9.25 10.5C9.25 11.1904 9.80964 11.75 10.5 11.75Z" fill="black"/>
</svg>
