<svg width="32" height="32" viewBox="0 0 32 32" fill="none" xmlns="http://www.w3.org/2000/svg">
<path d="M4.67473 5.95022L11.9997 27.1127C12.3122 28.0252 13.6122 28.0002 13.8997 27.0752L16.8497 17.5002C16.8943 17.3437 16.9787 17.2015 17.0949 17.0875C17.2111 16.9735 17.3549 16.8917 17.5122 16.8502L27.0747 13.9002C27.9997 13.6127 28.0247 12.3127 27.1122 12.0002L5.94973 4.67522C5.77193 4.61273 5.58008 4.60176 5.39631 4.64357C5.21254 4.68539 5.04432 4.77828 4.91106 4.91155C4.77779 5.04481 4.6849 5.21303 4.64308 5.3968C4.60127 5.58057 4.61224 5.77241 4.67473 5.95022V5.95022Z" stroke="black" stroke-width="1.5" stroke-linecap="round" stroke-linejoin="round"/>
</svg>
