<svg width="32" height="32" viewBox="0 0 32 32" fill="none" xmlns="http://www.w3.org/2000/svg">
<path d="M3 23.0001V20.1376C3 12.9501 8.775 7.0251 15.95 7.0001C17.6614 6.99351 19.3572 7.32491 20.9402 7.97527C22.5232 8.62564 23.9623 9.58217 25.1747 10.79C26.3872 11.9978 27.3492 13.4331 28.0057 15.0136C28.6621 16.5941 29 18.2887 29 20.0001V23.0001C29 23.2653 28.8946 23.5197 28.7071 23.7072C28.5196 23.8947 28.2652 24.0001 28 24.0001H4C3.73478 24.0001 3.48043 23.8947 3.29289 23.7072C3.10536 23.5197 3 23.2653 3 23.0001Z" stroke="black" stroke-width="1.5" stroke-linecap="round" stroke-linejoin="round"/>
<path d="M16 7V11" stroke="black" stroke-width="1.5" stroke-linecap="round" stroke-linejoin="round"/>
<path d="M3.4375 16.6377L7.3125 17.6752" stroke="black" stroke-width="1.5" stroke-linecap="round" stroke-linejoin="round"/>
<path d="M28.5625 16.6377L24.6875 17.6752" stroke="black" stroke-width="1.5" stroke-linecap="round" stroke-linejoin="round"/>
<path d="M12.9248 23.9998L21.4748 12.8623" stroke="black" stroke-width="1.5" stroke-linecap="round" stroke-linejoin="round"/>
</svg>
