<svg width="32" height="32" viewBox="0 0 32 32" fill="none" xmlns="http://www.w3.org/2000/svg">
<path d="M19.5 10.75C20.1904 10.75 20.75 10.1904 20.75 9.5C20.75 8.80964 20.1904 8.25 19.5 8.25C18.8096 8.25 18.25 8.80964 18.25 9.5C18.25 10.1904 18.8096 10.75 19.5 10.75Z" fill="black"/>
<path d="M2 23C30.975 29.3375 27.975 9.43754 27.15 5.62504C27.1074 5.43576 27.012 5.26245 26.8748 5.12526C26.7376 4.98807 26.5643 4.89263 26.375 4.85004C22.5625 4.02504 2.6625 1.02504 9 30" stroke="black" stroke-width="1.5" stroke-linecap="round" stroke-linejoin="round"/>
<path d="M25.1623 19.0002C23.558 19.0221 21.9656 18.722 20.4792 18.1178C18.9929 17.5135 17.6428 16.6173 16.5089 15.4822C15.3749 14.3471 14.4801 12.9961 13.8774 11.5092C13.2747 10.0222 12.9763 8.42949 12.9998 6.8252" stroke="black" stroke-width="1.5" stroke-linecap="round" stroke-linejoin="round"/>
</svg>
