<svg width="32" height="32" viewBox="0 0 32 32" fill="none" xmlns="http://www.w3.org/2000/svg">
<path d="M30 22L23 18V14L30 10V22Z" stroke="black" stroke-width="1.5" stroke-linecap="round" stroke-linejoin="round"/>
<path d="M4.3623 3L27.9998 29" stroke="black" stroke-width="1.5" stroke-linecap="round" stroke-linejoin="round"/>
<path d="M13.8623 7.5H21.9998C22.265 7.5 22.5194 7.60536 22.7069 7.79289C22.8944 7.98043 22.9998 8.23478 22.9998 8.5V18" stroke="black" stroke-width="1.5" stroke-linecap="round" stroke-linejoin="round"/>
<path d="M23 23.5C23 23.7652 22.8946 24.0196 22.7071 24.2071C22.5196 24.3946 22.2652 24.5 22 24.5H3C2.73478 24.5 2.48043 24.3946 2.29289 24.2071C2.10536 24.0196 2 23.7652 2 23.5V8.5C2 8.23478 2.10536 7.98043 2.29289 7.79289C2.48043 7.60536 2.73478 7.5 3 7.5H8.45" stroke="black" stroke-width="1.5" stroke-linecap="round" stroke-linejoin="round"/>
</svg>
