<svg width="32" height="32" viewBox="0 0 32 32" fill="none" xmlns="http://www.w3.org/2000/svg">
<path d="M19.5 12.75C20.1904 12.75 20.75 12.1904 20.75 11.5C20.75 10.8096 20.1904 10.25 19.5 10.25C18.8096 10.25 18.25 10.8096 18.25 11.5C18.25 12.1904 18.8096 12.75 19.5 12.75Z" fill="black"/>
<path d="M12.5 12.75C13.1904 12.75 13.75 12.1904 13.75 11.5C13.75 10.8096 13.1904 10.25 12.5 10.25C11.8096 10.25 11.25 10.8096 11.25 11.5C11.25 12.1904 11.8096 12.75 12.5 12.75Z" fill="black"/>
<path d="M16 16V28" stroke="black" stroke-width="1.5" stroke-linecap="round" stroke-linejoin="round"/>
<path d="M30.5 16H1.5" stroke="black" stroke-width="1.5" stroke-linecap="round" stroke-linejoin="round"/>
<path d="M26 18C26 20.6522 24.9464 23.1957 23.0711 25.0711C21.1957 26.9464 18.6522 28 16 28C13.3478 28 10.8043 26.9464 8.92893 25.0711C7.05357 23.1957 6 20.6522 6 18V14C6 11.3478 7.05357 8.8043 8.92893 6.92893C10.8043 5.05357 13.3478 4 16 4C18.6522 4 21.1957 5.05357 23.0711 6.92893C24.9464 8.8043 26 11.3478 26 14V18Z" stroke="black" stroke-width="1.5" stroke-linecap="round" stroke-linejoin="round"/>
<path d="M28.9879 23.4998L25.4004 21.4248" stroke="black" stroke-width="1.5" stroke-linecap="round" stroke-linejoin="round"/>
<path d="M28.9879 8.5L25.4004 10.575" stroke="black" stroke-width="1.5" stroke-linecap="round" stroke-linejoin="round"/>
<path d="M3.0127 8.5L6.6002 10.575" stroke="black" stroke-width="1.5" stroke-linecap="round" stroke-linejoin="round"/>
<path d="M3.0127 23.4998L6.6002 21.4248" stroke="black" stroke-width="1.5" stroke-linecap="round" stroke-linejoin="round"/>
</svg>
