<svg width="32" height="32" viewBox="0 0 32 32" fill="none" xmlns="http://www.w3.org/2000/svg">
<path d="M8.39997 15.1503L23.475 5.92531C23.6273 5.83133 23.8021 5.77996 23.981 5.77655C24.16 5.77314 24.3365 5.81783 24.4923 5.90594C24.6481 5.99405 24.7774 6.12236 24.8667 6.27748C24.956 6.43259 25.002 6.60883 25 6.78781V25.2128C25.002 25.3918 24.956 25.568 24.8667 25.7231C24.7774 25.8783 24.6481 26.0066 24.4923 26.0947C24.3365 26.1828 24.16 26.2275 23.981 26.2241C23.8021 26.2207 23.6273 26.1693 23.475 26.0753L8.39997 16.8503C8.25526 16.7606 8.13585 16.6355 8.05303 16.4867C7.97022 16.338 7.92676 16.1706 7.92676 16.0003C7.92676 15.8301 7.97022 15.6626 8.05303 15.5139C8.13585 15.3651 8.25526 15.24 8.39997 15.1503Z" stroke="black" stroke-width="1.5" stroke-linecap="round" stroke-linejoin="round"/>
<path d="M7 5V27" stroke="black" stroke-width="1.5" stroke-linecap="round" stroke-linejoin="round"/>
</svg>
