<svg width="32" height="32" viewBox="0 0 32 32" fill="none" xmlns="http://www.w3.org/2000/svg">
<path d="M9.5249 16.525L19.0249 5.025L26.9999 5L26.9749 12.975L15.4749 22.475" stroke="black" stroke-width="1.5" stroke-linecap="round" stroke-linejoin="round"/>
<path d="M12.5 19.5L20 12" stroke="black" stroke-width="1.5" stroke-linecap="round" stroke-linejoin="round"/>
<path d="M10.2627 24.6874L6.52524 28.4249C6.33777 28.6119 6.08379 28.7169 5.81899 28.7169C5.55419 28.7169 5.30021 28.6119 5.11274 28.4249L3.57524 26.8874C3.38823 26.6999 3.2832 26.4459 3.2832 26.1811C3.2832 25.9163 3.38823 25.6624 3.57524 25.4749L7.31274 21.7374C7.40723 21.6443 7.48226 21.5334 7.53348 21.4111C7.58469 21.2888 7.61107 21.1575 7.61107 21.0249C7.61107 20.8923 7.58469 20.761 7.53348 20.6387C7.48226 20.5164 7.40723 20.4054 7.31274 20.3124L4.71274 17.7124C4.61826 17.6193 4.54322 17.5084 4.49201 17.3861C4.44079 17.2638 4.41441 17.1325 4.41441 16.9999C4.41441 16.8673 4.44079 16.736 4.49201 16.6137C4.54322 16.4914 4.61826 16.3804 4.71274 16.2874L6.28774 14.7124C6.38079 14.6179 6.4917 14.5429 6.61402 14.4917C6.73634 14.4404 6.86763 14.4141 7.00024 14.4141C7.13285 14.4141 7.26414 14.4404 7.38646 14.4917C7.50878 14.5429 7.61969 14.6179 7.71274 14.7124L17.2877 24.2874C17.3822 24.3804 17.4573 24.4914 17.5085 24.6137C17.5597 24.736 17.5861 24.8673 17.5861 24.9999C17.5861 25.1325 17.5597 25.2638 17.5085 25.3861C17.4573 25.5084 17.3822 25.6193 17.2877 25.7124L15.7127 27.2874C15.6197 27.3819 15.5088 27.4569 15.3865 27.5081C15.2641 27.5593 15.1329 27.5857 15.0002 27.5857C14.8676 27.5857 14.7363 27.5593 14.614 27.5081C14.4917 27.4569 14.3808 27.3819 14.2877 27.2874L11.6877 24.6874C11.5947 24.5929 11.4838 24.5179 11.3615 24.4667C11.2391 24.4154 11.1079 24.3891 10.9752 24.3891C10.8426 24.3891 10.7113 24.4154 10.589 24.4667C10.4667 24.5179 10.3558 24.5929 10.2627 24.6874Z" stroke="black" stroke-width="1.5" stroke-linecap="round" stroke-linejoin="round"/>
</svg>
