<svg width="32" height="32" viewBox="0 0 32 32" fill="none" xmlns="http://www.w3.org/2000/svg">
<path d="M27.4379 15.1255L6.32536 3.30047C6.14752 3.20223 5.94398 3.16048 5.74182 3.18079C5.53967 3.2011 5.3485 3.28251 5.19376 3.41417C5.03902 3.54584 4.92806 3.72151 4.87565 3.9178C4.82323 4.1141 4.83185 4.3217 4.90036 4.51297L8.87536 15.663C8.96293 15.8795 8.96293 16.1215 8.87536 16.338L4.90036 27.488C4.83185 27.6792 4.82323 27.8868 4.87565 28.0831C4.92806 28.2794 5.03902 28.4551 5.19376 28.5868C5.3485 28.7184 5.53967 28.7998 5.74182 28.8202C5.94398 28.8405 6.14752 28.7987 6.32536 28.7005L27.4379 16.8755C27.5942 16.789 27.7244 16.6622 27.8152 16.5084C27.9059 16.3545 27.9537 16.1791 27.9537 16.0005C27.9537 15.8218 27.9059 15.6465 27.8152 15.4926C27.7244 15.3387 27.5942 15.212 27.4379 15.1255V15.1255Z" stroke="black" stroke-width="1.5" stroke-linecap="round" stroke-linejoin="round"/>
<path d="M9 16H17" stroke="black" stroke-width="1.5" stroke-linecap="round" stroke-linejoin="round"/>
</svg>
