<svg width="32" height="32" viewBox="0 0 32 32" fill="none" xmlns="http://www.w3.org/2000/svg">
<path d="M20.5 9C21.8807 9 23 7.88071 23 6.5C23 5.11929 21.8807 4 20.5 4C19.1193 4 18 5.11929 18 6.5C18 7.88071 19.1193 9 20.5 9Z" stroke="black" stroke-width="1.5" stroke-linecap="round" stroke-linejoin="round"/>
<path d="M1 25.0001L10.1375 9.46264C10.2281 9.31528 10.3549 9.1936 10.5059 9.10919C10.6569 9.02479 10.827 8.98047 11 8.98047C11.173 8.98047 11.3431 9.02479 11.4941 9.10919C11.6451 9.1936 11.7719 9.31528 11.8625 9.46264L21 25.0001H1Z" stroke="black" stroke-width="1.5" stroke-linecap="round" stroke-linejoin="round"/>
<path d="M6.2998 16H15.6998" stroke="black" stroke-width="1.5" stroke-linecap="round" stroke-linejoin="round"/>
<path d="M18.0127 19.9249L22.1377 12.9499C22.2283 12.8026 22.3551 12.6809 22.5061 12.5965C22.6571 12.5121 22.8272 12.4678 23.0002 12.4678C23.1732 12.4678 23.3433 12.5121 23.4943 12.5965C23.6452 12.6809 23.7721 12.8026 23.8627 12.9499L31.0002 24.9999H21.0002" stroke="black" stroke-width="1.5" stroke-linecap="round" stroke-linejoin="round"/>
</svg>
