<svg width="32" height="32" viewBox="0 0 32 32" fill="none" xmlns="http://www.w3.org/2000/svg">
<path d="M21.5 19.75C22.1904 19.75 22.75 19.1904 22.75 18.5C22.75 17.8096 22.1904 17.25 21.5 17.25C20.8096 17.25 20.25 17.8096 20.25 18.5C20.25 19.1904 20.8096 19.75 21.5 19.75Z" fill="black"/>
<path d="M25.6996 20.425C25.2453 22.2422 24.2898 23.8954 22.9419 25.1961C21.5939 26.4967 19.9078 27.3927 18.0755 27.7818C16.2432 28.171 14.3384 28.0376 12.5782 27.3971C10.818 26.7565 9.27309 25.6344 8.11949 24.1586C6.96589 22.6828 6.24998 20.9127 6.05332 19.0499C5.85666 17.1871 6.18715 15.3065 7.00716 13.6223C7.82716 11.9382 9.10369 10.5182 10.6913 9.52422C12.279 8.53019 14.1139 8.00206 15.9871 8" stroke="black" stroke-width="1.5" stroke-linecap="round" stroke-linejoin="round"/>
<path d="M8.40021 11.4875C7.49486 11.4125 6.65418 10.9883 6.05584 10.3047C5.4575 9.62117 5.14839 8.73173 5.19384 7.82442C5.23929 6.91711 5.63573 6.06301 6.29938 5.44265C6.96304 4.82229 7.84189 4.48427 8.75021 4.50004L23.2502 11.5C24.1785 11.5 25.0687 11.1313 25.7251 10.4749C26.3815 9.81854 26.7502 8.9283 26.7502 8.00004C26.7502 7.07178 26.3815 6.18154 25.7251 5.52517C25.0687 4.86879 24.1785 4.50004 23.2502 4.50004" stroke="black" stroke-width="1.5" stroke-linecap="round" stroke-linejoin="round"/>
<path d="M6.0752 19.2875L15.9877 14V28" stroke="black" stroke-width="1.5" stroke-linecap="round" stroke-linejoin="round"/>
<path d="M11.9873 16.1377V27.1627" stroke="black" stroke-width="1.5" stroke-linecap="round" stroke-linejoin="round"/>
</svg>
