<svg width="32" height="32" viewBox="0 0 32 32" fill="none" xmlns="http://www.w3.org/2000/svg">
<path d="M5.00001 11.4125V26C5.00001 26.2652 5.10536 26.5196 5.2929 26.7071C5.48044 26.8946 5.73479 27 6.00001 27H26C26.2652 27 26.5196 26.8946 26.7071 26.7071C26.8946 26.5196 27 26.2652 27 26V6.00001C27 5.73479 26.8946 5.48044 26.7071 5.2929C26.5196 5.10536 26.2652 5.00001 26 5.00001H11.4125C11.2827 4.99955 11.154 5.02471 11.0339 5.07404C10.9138 5.12338 10.8046 5.19591 10.7125 5.28751L5.28751 10.7125C5.19591 10.8046 5.12338 10.9138 5.07404 11.0339C5.02471 11.154 4.99955 11.2827 5.00001 11.4125V11.4125Z" stroke="black" stroke-width="1.5" stroke-linecap="round" stroke-linejoin="round"/>
<path d="M16 22C17.933 22 19.5 20.433 19.5 18.5C19.5 16.567 17.933 15 16 15C14.067 15 12.5 16.567 12.5 18.5C12.5 20.433 14.067 22 16 22Z" stroke="black" stroke-width="1.5" stroke-linecap="round" stroke-linejoin="round"/>
<path d="M12 10H20V5" stroke="black" stroke-width="1.5" stroke-linecap="round" stroke-linejoin="round"/>
</svg>
