<svg width="32" height="32" viewBox="0 0 32 32" fill="none" xmlns="http://www.w3.org/2000/svg">
<path d="M25 4H7C6.44772 4 6 4.44772 6 5V27C6 27.5523 6.44772 28 7 28H25C25.5523 28 26 27.5523 26 27V5C26 4.44772 25.5523 4 25 4Z" stroke="black" stroke-width="1.5" stroke-linecap="round" stroke-linejoin="round"/>
<path d="M10.5 11.25C11.1904 11.25 11.75 10.6904 11.75 10C11.75 9.30964 11.1904 8.75 10.5 8.75C9.80964 8.75 9.25 9.30964 9.25 10C9.25 10.6904 9.80964 11.25 10.5 11.25Z" fill="black"/>
<path d="M10.5 23.25C11.1904 23.25 11.75 22.6904 11.75 22C11.75 21.3096 11.1904 20.75 10.5 20.75C9.80964 20.75 9.25 21.3096 9.25 22C9.25 22.6904 9.80964 23.25 10.5 23.25Z" fill="black"/>
<path d="M10.5 17.25C11.1904 17.25 11.75 16.6904 11.75 16C11.75 15.3096 11.1904 14.75 10.5 14.75C9.80964 14.75 9.25 15.3096 9.25 16C9.25 16.6904 9.80964 17.25 10.5 17.25Z" fill="black"/>
</svg>
