<svg width="32" height="32" viewBox="0 0 32 32" fill="none" xmlns="http://www.w3.org/2000/svg">
<path d="M6 5L26 27" stroke="black" stroke-width="1.5" stroke-linecap="round" stroke-linejoin="round"/>
<path d="M11.425 10.9746C11.1419 11.612 10.9971 12.3022 11 12.9996" stroke="black" stroke-width="1.5" stroke-linecap="round" stroke-linejoin="round"/>
<path d="M10.875 4.41215C12.3929 3.5062 14.1238 3.0188 15.8914 2.99961C17.6591 2.98042 19.4002 3.43013 20.9374 4.30292C22.4746 5.1757 23.753 6.44037 24.6423 7.96808C25.5316 9.49579 26.0001 11.2319 26 12.9997" stroke="black" stroke-width="1.5" stroke-linecap="round" stroke-linejoin="round"/>
<path d="M20.2375 26.9998C19.5162 27.8715 18.5437 28.4996 17.4524 28.7983C16.3612 29.0971 15.2044 29.0521 14.1396 28.6694C13.0749 28.2867 12.1541 27.585 11.5028 26.6598C10.8515 25.7347 10.5013 24.6312 10.5 23.4998C10.5 18.3123 6.00001 19.9998 6.00001 12.9998C5.99788 10.8843 6.66756 8.82273 7.9125 7.1123" stroke="black" stroke-width="1.5" stroke-linecap="round" stroke-linejoin="round"/>
<path d="M20.3875 14.8745C20.7972 14.3364 21.013 13.6757 21 12.9995C21.0022 12.2027 20.8135 11.4169 20.4496 10.708C20.0857 9.99908 19.5573 9.38768 18.9085 8.92498C18.2598 8.46229 17.5096 8.16177 16.7208 8.0486C15.9321 7.93543 15.1277 8.01291 14.375 8.27453" stroke="black" stroke-width="1.5" stroke-linecap="round" stroke-linejoin="round"/>
<path d="M20.8626 21.3498C20.4844 21.4858 20.0792 21.529 19.6808 21.476C19.2825 21.4229 18.9027 21.2751 18.5733 21.0449C18.2439 20.8147 17.9745 20.5088 17.7878 20.153C17.6011 19.7971 17.5024 19.4017 17.5001 18.9998C17.4969 18.6116 17.5647 18.2261 17.7001 17.8623" stroke="black" stroke-width="1.5" stroke-linecap="round" stroke-linejoin="round"/>
</svg>
