<svg width="32" height="32" viewBox="0 0 32 32" fill="none" xmlns="http://www.w3.org/2000/svg">
<path d="M11 11.5C11 9.81886 11.4985 8.17547 12.4325 6.77766C13.3665 5.37984 14.694 4.29037 16.2472 3.64703C17.8004 3.00368 19.5094 2.83535 21.1583 3.16333C22.8071 3.4913 24.3217 4.30085 25.5104 5.4896C26.6992 6.67834 27.5087 8.1929 27.8367 9.84174C28.1647 11.4906 27.9963 13.1996 27.353 14.7528C26.7096 16.306 25.6202 17.6335 24.2223 18.5675C22.8245 19.5015 21.1811 20 19.5 20H9.5C8.04131 20 6.64236 19.4205 5.61091 18.3891C4.57946 17.3576 4 15.9587 4 14.5C4 13.0413 4.57946 11.6424 5.61091 10.6109C6.64236 9.57947 8.04131 9 9.5 9C10.1086 8.99687 10.7133 9.09835 11.2875 9.3" stroke="black" stroke-width="1.5" stroke-linecap="round" stroke-linejoin="round"/>
<path d="M9.5 25.75C10.1904 25.75 10.75 25.1904 10.75 24.5C10.75 23.8096 10.1904 23.25 9.5 23.25C8.80964 23.25 8.25 23.8096 8.25 24.5C8.25 25.1904 8.80964 25.75 9.5 25.75Z" fill="black"/>
<path d="M14.5 27.75C15.1904 27.75 15.75 27.1904 15.75 26.5C15.75 25.8096 15.1904 25.25 14.5 25.25C13.8096 25.25 13.25 25.8096 13.25 26.5C13.25 27.1904 13.8096 27.75 14.5 27.75Z" fill="black"/>
<path d="M20.5 25.75C21.1904 25.75 21.75 25.1904 21.75 24.5C21.75 23.8096 21.1904 23.25 20.5 23.25C19.8096 23.25 19.25 23.8096 19.25 24.5C19.25 25.1904 19.8096 25.75 20.5 25.75Z" fill="black"/>
<path d="M8.5 30.75C9.19036 30.75 9.75 30.1904 9.75 29.5C9.75 28.8096 9.19036 28.25 8.5 28.25C7.80964 28.25 7.25 28.8096 7.25 29.5C7.25 30.1904 7.80964 30.75 8.5 30.75Z" fill="black"/>
<path d="M19.5 30.75C20.1904 30.75 20.75 30.1904 20.75 29.5C20.75 28.8096 20.1904 28.25 19.5 28.25C18.8096 28.25 18.25 28.8096 18.25 29.5C18.25 30.1904 18.8096 30.75 19.5 30.75Z" fill="black"/>
</svg>
