<svg width="32" height="32" viewBox="0 0 32 32" fill="none" xmlns="http://www.w3.org/2000/svg">
<path d="M11.6123 20.7624C12.7924 19.6302 14.3644 18.998 15.9998 18.998C17.6352 18.998 19.2072 19.6302 20.3873 20.7624" stroke="black" stroke-width="1.5" stroke-linecap="round" stroke-linejoin="round"/>
<path d="M7.375 16.5127C9.68176 14.2619 12.777 13.002 16 13.002C19.223 13.002 22.3182 14.2619 24.625 16.5127" stroke="black" stroke-width="1.5" stroke-linecap="round" stroke-linejoin="round"/>
<path d="M3.1377 12.2752C6.56626 8.89645 11.1866 7.00244 16.0002 7.00244C20.8138 7.00244 25.4341 8.89645 28.8627 12.2752" stroke="black" stroke-width="1.5" stroke-linecap="round" stroke-linejoin="round"/>
<path d="M16 26.25C16.6904 26.25 17.25 25.6904 17.25 25C17.25 24.3096 16.6904 23.75 16 23.75C15.3096 23.75 14.75 24.3096 14.75 25C14.75 25.6904 15.3096 26.25 16 26.25Z" fill="black"/>
</svg>
