<svg width="32" height="32" viewBox="0 0 32 32" fill="none" xmlns="http://www.w3.org/2000/svg">
<path d="M14.0625 22.4C13.4084 23.1648 12.5724 23.7527 11.6316 24.1097C10.6907 24.4667 9.67513 24.5814 8.67834 24.4431C7.68155 24.3048 6.73556 23.918 5.92742 23.3183C5.11929 22.7186 4.47497 21.9252 4.05377 21.0113C3.63256 20.0973 3.44801 19.0921 3.51708 18.0882C3.58616 17.0842 3.90664 16.1137 4.44904 15.2661C4.99145 14.4184 5.73834 13.7208 6.62099 13.2374C7.50365 12.7541 8.4937 12.5005 9.50004 12.5C9.97126 12.5025 10.4408 12.557 10.9 12.6625V12.6625C10.3071 11.7146 9.99498 10.6181 10 9.5C10 7.9087 10.6322 6.38258 11.7574 5.25736C12.8826 4.13214 14.4087 3.5 16 3.5C17.5913 3.5 19.1175 4.13214 20.2427 5.25736C21.3679 6.38258 22 7.9087 22 9.5C22.0051 10.6181 21.693 11.7146 21.1 12.6625V12.6625C21.5593 12.557 22.0288 12.5025 22.5 12.5C23.5064 12.5005 24.4964 12.7541 25.3791 13.2374C26.2617 13.7208 27.0086 14.4184 27.551 15.2661C28.0934 16.1137 28.4139 17.0842 28.483 18.0882C28.5521 19.0921 28.3675 20.0973 27.9463 21.0113C27.5251 21.9252 26.8808 22.7186 26.0727 23.3183C25.2645 23.918 24.3185 24.3048 23.3217 24.4431C22.3249 24.5814 21.3094 24.4667 20.3685 24.1097C19.4276 23.7527 18.5917 23.1648 17.9375 22.4L20 29H12L14.0625 22.4Z" stroke="black" stroke-width="1.5" stroke-linecap="round" stroke-linejoin="round"/>
</svg>
