<svg width="32" height="32" viewBox="0 0 32 32" fill="none" xmlns="http://www.w3.org/2000/svg">
<path d="M11.9873 7.5C13.368 7.5 14.4873 6.38071 14.4873 5C14.4873 3.61929 13.368 2.5 11.9873 2.5C10.6066 2.5 9.4873 3.61929 9.4873 5C9.4873 6.38071 10.6066 7.5 11.9873 7.5Z" stroke="black" stroke-width="1.5" stroke-linecap="round" stroke-linejoin="round"/>
<path d="M11.9873 7.5V16.5H22.9873L26.9873 24.5L29.9873 23.5" stroke="black" stroke-width="1.5" stroke-linecap="round" stroke-linejoin="round"/>
<path d="M20.9751 20.5C20.8775 22.0578 20.3264 23.553 19.3897 24.8014C18.4529 26.0499 17.1714 26.997 15.703 27.5262C14.2346 28.0554 12.6435 28.1434 11.1257 27.7796C9.60791 27.4157 8.22969 26.6158 7.16085 25.4784C6.09201 24.3409 5.37924 22.9157 5.11034 21.3782C4.84145 19.8407 5.02817 18.2582 5.64752 16.8255C6.26687 15.3928 7.29179 14.1726 8.59601 13.3152C9.90022 12.4578 11.4268 12.0006 12.9876 12H19.9876" stroke="black" stroke-width="1.5" stroke-linecap="round" stroke-linejoin="round"/>
</svg>
