<svg width="32" height="32" viewBox="0 0 32 32" fill="none" xmlns="http://www.w3.org/2000/svg">
<path d="M19.525 27.475C18.3822 27.8223 17.1944 27.9992 16 28C13.6266 28 11.3066 27.2962 9.33316 25.9776C7.35977 24.6591 5.8217 22.7849 4.91345 20.5922C4.0052 18.3995 3.76756 15.9867 4.23058 13.6589C4.6936 11.3312 5.83649 9.19295 7.51472 7.51472C9.19295 5.83649 11.3312 4.6936 13.6589 4.23058C15.9867 3.76756 18.3995 4.0052 20.5922 4.91345C22.7849 5.8217 24.6591 7.35977 25.9776 9.33316C27.2962 11.3066 28 13.6266 28 16C27.9992 17.1944 27.8223 18.3822 27.475 19.525L19.525 27.475Z" stroke="black" stroke-width="1.5" stroke-linecap="round" stroke-linejoin="round"/>
<path d="M11.5 14.75C12.1904 14.75 12.75 14.1904 12.75 13.5C12.75 12.8096 12.1904 12.25 11.5 12.25C10.8096 12.25 10.25 12.8096 10.25 13.5C10.25 14.1904 10.8096 14.75 11.5 14.75Z" fill="black"/>
<path d="M20.5 14.75C21.1904 14.75 21.75 14.1904 21.75 13.5C21.75 12.8096 21.1904 12.25 20.5 12.25C19.8096 12.25 19.25 12.8096 19.25 13.5C19.25 14.1904 19.8096 14.75 20.5 14.75Z" fill="black"/>
<path d="M21.1998 19C20.6712 19.9107 19.9126 20.6667 19 21.1922C18.0874 21.7176 17.0529 21.9942 15.9998 21.9942C14.9468 21.9942 13.9122 21.7176 12.9996 21.1922C12.087 20.6667 11.3284 19.9107 10.7998 19" stroke="black" stroke-width="1.5" stroke-linecap="round" stroke-linejoin="round"/>
</svg>
