<svg width="32" height="32" viewBox="0 0 32 32" fill="none" xmlns="http://www.w3.org/2000/svg">
<path d="M16 28C22.6274 28 28 22.6274 28 16C28 9.37258 22.6274 4 16 4C9.37258 4 4 9.37258 4 16C4 22.6274 9.37258 28 16 28Z" stroke="black" stroke-width="1.5" stroke-linecap="round" stroke-linejoin="round"/>
<path d="M17.675 16.5751C18.358 16.2029 18.8975 15.6137 19.2083 14.9007C19.5192 14.1877 19.5837 13.3914 19.3916 12.6377C19.1995 11.8839 18.7619 11.2157 18.1477 10.7384C17.5335 10.2611 16.7778 10.002 16 10.002C15.2222 10.002 14.4665 10.2611 13.8523 10.7384C13.2381 11.2157 12.8005 11.8839 12.6084 12.6377C12.4163 13.3914 12.4808 14.1877 12.7917 14.9007C13.1025 15.6137 13.642 16.2029 14.325 16.5751L12.6 20.6001C12.5337 20.752 12.5062 20.918 12.52 21.0831C12.5337 21.2482 12.5883 21.4073 12.6788 21.5462C12.7692 21.685 12.8928 21.7992 13.0383 21.8784C13.1839 21.9576 13.3468 21.9995 13.5125 22.0001H18.4875C18.6532 21.9995 18.8161 21.9576 18.9617 21.8784C19.1072 21.7992 19.2308 21.685 19.3212 21.5462C19.4117 21.4073 19.4663 21.2482 19.48 21.0831C19.4938 20.918 19.4663 20.752 19.4 20.6001L17.675 16.5751Z" stroke="black" stroke-width="1.5" stroke-linecap="round" stroke-linejoin="round"/>
</svg>
