<svg width="32" height="32" viewBox="0 0 32 32" fill="none" xmlns="http://www.w3.org/2000/svg">
<path d="M26.0995 9H5.89951C5.65345 9.00116 5.41623 9.09188 5.23219 9.25521C5.04815 9.41855 4.92989 9.64332 4.89951 9.8875L3.12451 25.8875C3.10873 26.0269 3.12245 26.1681 3.1648 26.3018C3.20714 26.4356 3.27716 26.5589 3.37029 26.6639C3.46343 26.7688 3.5776 26.8529 3.70539 26.9109C3.83318 26.9688 3.97172 26.9991 4.11201 27H27.887C28.0273 26.9991 28.1659 26.9688 28.2936 26.9109C28.4214 26.8529 28.5356 26.7688 28.6287 26.6639C28.7219 26.5589 28.7919 26.4356 28.8342 26.3018C28.8766 26.1681 28.8903 26.0269 28.8745 25.8875L27.0995 9.8875C27.0691 9.64332 26.9509 9.41855 26.7668 9.25521C26.5828 9.09188 26.3456 9.00116 26.0995 9V9Z" stroke="black" stroke-width="1.5" stroke-linecap="round" stroke-linejoin="round"/>
<path d="M11 13V9C11 7.67392 11.5268 6.40215 12.4645 5.46447C13.4021 4.52678 14.6739 4 16 4C17.3261 4 18.5979 4.52678 19.5355 5.46447C20.4732 6.40215 21 7.67392 21 9V13" stroke="black" stroke-width="1.5" stroke-linecap="round" stroke-linejoin="round"/>
</svg>
