<svg width="32" height="32" viewBox="0 0 32 32" fill="none" xmlns="http://www.w3.org/2000/svg">
<path d="M24 5H8C6.34315 5 5 6.34315 5 8V24C5 25.6569 6.34315 27 8 27H24C25.6569 27 27 25.6569 27 24V8C27 6.34315 25.6569 5 24 5Z" stroke="black" stroke-width="1.5" stroke-linecap="round" stroke-linejoin="round"/>
<path d="M11.5 11.75C12.1904 11.75 12.75 11.1904 12.75 10.5C12.75 9.80964 12.1904 9.25 11.5 9.25C10.8096 9.25 10.25 9.80964 10.25 10.5C10.25 11.1904 10.8096 11.75 11.5 11.75Z" fill="black"/>
<path d="M20.5 11.75C21.1904 11.75 21.75 11.1904 21.75 10.5C21.75 9.80964 21.1904 9.25 20.5 9.25C19.8096 9.25 19.25 9.80964 19.25 10.5C19.25 11.1904 19.8096 11.75 20.5 11.75Z" fill="black"/>
<path d="M11.5 17.25C12.1904 17.25 12.75 16.6904 12.75 16C12.75 15.3096 12.1904 14.75 11.5 14.75C10.8096 14.75 10.25 15.3096 10.25 16C10.25 16.6904 10.8096 17.25 11.5 17.25Z" fill="black"/>
<path d="M20.5 17.25C21.1904 17.25 21.75 16.6904 21.75 16C21.75 15.3096 21.1904 14.75 20.5 14.75C19.8096 14.75 19.25 15.3096 19.25 16C19.25 16.6904 19.8096 17.25 20.5 17.25Z" fill="black"/>
<path d="M11.5 22.75C12.1904 22.75 12.75 22.1904 12.75 21.5C12.75 20.8096 12.1904 20.25 11.5 20.25C10.8096 20.25 10.25 20.8096 10.25 21.5C10.25 22.1904 10.8096 22.75 11.5 22.75Z" fill="black"/>
<path d="M20.5 22.75C21.1904 22.75 21.75 22.1904 21.75 21.5C21.75 20.8096 21.1904 20.25 20.5 20.25C19.8096 20.25 19.25 20.8096 19.25 21.5C19.25 22.1904 19.8096 22.75 20.5 22.75Z" fill="black"/>
</svg>
