<svg width="32" height="32" viewBox="0 0 32 32" fill="none" xmlns="http://www.w3.org/2000/svg">
<path d="M5 27H27" stroke="black" stroke-width="1.5" stroke-linecap="round" stroke-linejoin="round"/>
<path d="M12 27V16.5H10.5C8.51088 16.5 6.60322 15.7098 5.1967 14.3033C3.79018 12.8968 3 10.9891 3 9V9C3.00329 8.33797 3.26773 7.70399 3.73586 7.23586C4.20399 6.76773 4.83797 6.50329 5.5 6.5C6.16203 6.50329 6.79601 6.76773 7.26414 7.23586C7.73227 7.70399 7.99671 8.33797 8 9C8.00329 9.66203 8.26773 10.296 8.73586 10.7641C9.20399 11.2323 9.83797 11.4967 10.5 11.5H12V7C12 5.93913 12.4214 4.92172 13.1716 4.17157C13.9217 3.42143 14.9391 3 16 3V3C17.0609 3 18.0783 3.42143 18.8284 4.17157C19.5786 4.92172 20 5.93913 20 7V16.5H21.5C22.162 16.4967 22.796 16.2323 23.2641 15.7641C23.7323 15.296 23.9967 14.662 24 14V14C24.0033 13.338 24.2677 12.704 24.7359 12.2359C25.204 11.7677 25.838 11.5033 26.5 11.5C27.162 11.5033 27.796 11.7677 28.2641 12.2359C28.7323 12.704 28.9967 13.338 29 14V14C29 15.9891 28.2098 17.8968 26.8033 19.3033C25.3968 20.7098 23.4891 21.5 21.5 21.5H20V27" stroke="black" stroke-width="1.5" stroke-linecap="round" stroke-linejoin="round"/>
</svg>
