<svg width="32" height="32" viewBox="0 0 32 32" fill="none" xmlns="http://www.w3.org/2000/svg">
<path d="M26.2555 26.2532C28.4034 24.1054 25.5542 17.7737 19.8916 12.1111C14.229 6.4485 7.89732 3.59926 5.74944 5.74714C3.60156 7.89503 6.4508 14.2267 12.1134 19.8893C17.776 25.5519 24.1077 28.4011 26.2555 26.2532Z" stroke="black" stroke-width="1.5" stroke-linecap="round" stroke-linejoin="round"/>
<path d="M19.8916 19.8889C25.5542 14.2263 28.4034 7.89464 26.2555 5.74676C24.1077 3.59888 17.776 6.44812 12.1134 12.1107C6.4508 17.7733 3.60156 24.105 5.74944 26.2529C7.89732 28.4007 14.229 25.5515 19.8916 19.8889Z" stroke="black" stroke-width="1.5" stroke-linecap="round" stroke-linejoin="round"/>
<path d="M16 17.25C16.6904 17.25 17.25 16.6904 17.25 16C17.25 15.3096 16.6904 14.75 16 14.75C15.3096 14.75 14.75 15.3096 14.75 16C14.75 16.6904 15.3096 17.25 16 17.25Z" fill="black"/>
</svg>
