<svg width="32" height="32" viewBox="0 0 32 32" fill="none" xmlns="http://www.w3.org/2000/svg">
<path d="M4.26241 17.5872C3.14161 15.6989 2.74876 13.4664 3.15764 11.3089C3.56653 9.15147 4.74901 7.21751 6.48302 5.87026C8.21702 4.52301 10.3832 3.85517 12.5748 3.99218C14.7664 4.12918 16.8326 5.0616 18.3853 6.61432C19.938 8.16704 20.8705 10.2332 21.0075 12.4248C21.1445 14.6164 20.4766 16.7826 19.1294 18.5166C17.7821 20.2506 15.8482 21.4331 13.6907 21.842C11.5332 22.2509 9.30071 21.858 7.41241 20.7372L4.29991 21.6247C4.17167 21.6608 4.03614 21.662 3.90726 21.6283C3.77837 21.5947 3.66079 21.5272 3.56659 21.4331C3.47239 21.3389 3.40499 21.2213 3.3713 21.0924C3.33761 20.9635 3.33886 20.828 3.37491 20.6997L4.26241 17.5872Z" stroke="black" stroke-width="1.5" stroke-linecap="round" stroke-linejoin="round"/>
<path d="M11.5127 21.9877C11.9533 23.2438 12.6673 24.3863 13.6033 25.3327C14.5392 26.2792 15.6737 27.0059 16.9248 27.4604C18.1759 27.9149 19.5123 28.0858 20.8375 27.9609C22.1627 27.8359 23.4436 27.4181 24.5877 26.7377V26.7377L27.7002 27.6252C27.8284 27.6612 27.964 27.6625 28.0929 27.6288C28.2217 27.5951 28.3393 27.5277 28.4335 27.4335C28.5277 27.3393 28.5951 27.2217 28.6288 27.0929C28.6625 26.964 28.6612 26.8284 28.6252 26.7002L27.7377 23.5877C28.53 22.2577 28.9654 20.7456 29.0016 19.1979C29.0378 17.6502 28.6736 16.1194 27.9442 14.7539C27.2149 13.3883 26.1453 12.2343 24.8389 11.4036C23.5325 10.573 22.0337 10.0939 20.4877 10.0127" stroke="black" stroke-width="1.5" stroke-linecap="round" stroke-linejoin="round"/>
</svg>
