<svg width="32" height="32" viewBox="0 0 32 32" fill="none" xmlns="http://www.w3.org/2000/svg">
<path d="M16 13V18" stroke="black" stroke-width="1.5" stroke-linecap="round" stroke-linejoin="round"/>
<path d="M14.2748 5.00032L3.27479 24.0003C3.09955 24.3038 3.00715 24.6481 3.00684 24.9986C3.00653 25.349 3.09832 25.6934 3.27302 25.9973C3.44773 26.3011 3.6992 26.5537 4.00226 26.7297C4.30532 26.9058 4.64932 26.9991 4.99979 27.0003H26.9998C27.3503 26.9991 27.6943 26.9058 27.9973 26.7297C28.3004 26.5537 28.5519 26.3011 28.7266 25.9973C28.9013 25.6934 28.9931 25.349 28.9927 24.9986C28.9924 24.6481 28.9 24.3038 28.7248 24.0003L17.7248 5.00032C17.5509 4.6964 17.2997 4.44383 16.9968 4.26817C16.6939 4.09251 16.35 4 15.9998 4C15.6496 4 15.3057 4.09251 15.0028 4.26817C14.6998 4.44383 14.4487 4.6964 14.2748 5.00032V5.00032Z" stroke="black" stroke-width="1.5" stroke-linecap="round" stroke-linejoin="round"/>
<path d="M16 23.75C16.6904 23.75 17.25 23.1904 17.25 22.5C17.25 21.8096 16.6904 21.25 16 21.25C15.3096 21.25 14.75 21.8096 14.75 22.5C14.75 23.1904 15.3096 23.75 16 23.75Z" fill="black"/>
</svg>
