<svg width="32" height="32" viewBox="0 0 32 32" fill="none" xmlns="http://www.w3.org/2000/svg">
<path d="M27.3623 8.87522C28.0183 10.4068 28.1789 12.1052 27.8216 13.7326C27.4643 15.3601 26.607 16.835 25.3698 17.951C24.1326 19.0669 22.5773 19.7681 20.9218 19.9562C19.2663 20.1444 17.5934 19.8101 16.1373 19.0002V19.0002L9.12483 27.1252C8.56125 27.6888 7.79686 28.0054 6.99983 28.0054C6.2028 28.0054 5.43842 27.6888 4.87483 27.1252C4.31125 26.5616 3.99463 25.7973 3.99463 25.0002C3.99463 24.2032 4.31125 23.4388 4.87483 22.8752L12.9998 15.8627C12.1899 14.4066 11.8557 12.7337 12.0438 11.0782C12.232 9.42271 12.9331 7.86748 14.0491 6.63026C15.1651 5.39304 16.64 4.53578 18.2674 4.17849C19.8948 3.8212 21.5932 3.98177 23.1248 4.63772L17.8748 9.87522L18.5873 13.4127L22.1248 14.1252L27.3623 8.87522Z" stroke="black" stroke-width="1.5" stroke-linecap="round" stroke-linejoin="round"/>
</svg>
