<svg width="1062" height="867" viewBox="0 0 1062 867" fill="none" xmlns="http://www.w3.org/2000/svg">
<g id="No Results">
<g id="circle">
<path id="Stroke 1" d="M34.7886 398.086V407.086" stroke="#D2D8DF" stroke-width="2.921" stroke-linecap="round"/>
<g id="Group 8">
<path id="Stroke 2" d="M14.5737 402.961L21.928 410.532" stroke="#D2D8DF" stroke-width="2.921" stroke-linecap="round"/>
<path id="Stroke 4" d="M5.97217 423.114H16.371" stroke="#D2D8DF" stroke-width="2.921" stroke-linecap="round"/>
<path id="Stroke 6" d="M13.73 443.625L21.0843 436.055" stroke="#D2D8DF" stroke-width="2.921" stroke-linecap="round"/>
</g>
<path id="Stroke 9" d="M34.7886 446.086V437.086" stroke="#D2D8DF" stroke-width="2.921" stroke-linecap="round"/>
<path id="Stroke 10" d="M49.7886 440.086L43.7886 434.086" stroke="#D2D8DF" stroke-width="2.921" stroke-linecap="round"/>
<path id="Stroke 11" d="M61.7886 425.086H52.7886" stroke="#D2D8DF" stroke-width="2.921" stroke-linecap="round"/>
<path id="Stroke 12" d="M55.7886 404.086L49.7886 410.086" stroke="#D2D8DF" stroke-width="2.921" stroke-linecap="round"/>
<path id="Stroke 13" d="M517.789 5.08594V11.0859" stroke="#D2D8DF" stroke-width="2.921" stroke-linecap="round"/>
<path id="Stroke 15" d="M499.789 23.0859H505.789" stroke="#D2D8DF" stroke-width="2.921" stroke-linecap="round"/>
<path id="Stroke 16" d="M517.789 41.0859V35.0859" stroke="#D2D8DF" stroke-width="2.921" stroke-linecap="round"/>
<path id="Stroke 17" d="M532.789 23.0859H526.789" stroke="#D2D8DF" stroke-width="2.921" stroke-linecap="round"/>
<path id="Stroke 18" d="M169.789 257.086V266.086" stroke="#D2D8DF" stroke-width="2.921" stroke-linecap="round"/>
<path id="Stroke 19" d="M142.789 284.086H151.789" stroke="#D2D8DF" stroke-width="2.921" stroke-linecap="round"/>
<path id="Stroke 20" d="M169.789 308.086V299.086" stroke="#D2D8DF" stroke-width="2.921" stroke-linecap="round"/>
<path id="Stroke 21" d="M193.789 284.086H184.789" stroke="#D2D8DF" stroke-width="2.921" stroke-linecap="round"/>
<g id="Group 42">
<path id="Stroke 22" d="M815.55 584.203C822.719 584.203 828.534 590.019 828.534 597.19C828.534 604.364 822.719 610.178 815.55 610.178C808.38 610.178 802.566 604.364 802.566 597.19" stroke="#D2D8DF" stroke-width="2.921" stroke-linecap="round"/>
<path id="Fill 26" fill-rule="evenodd" clip-rule="evenodd" d="M874.97 466.376C882.68 463.971 894.497 454.543 897.232 444.398C899.713 453.366 910.112 463.971 919.495 464.774C908.933 468.513 898.834 479.623 897.232 488.351C896.142 479.455 882.175 467.673 874.97 466.376Z" fill="#EBECEE"/>
<path id="Fill 28" fill-rule="evenodd" clip-rule="evenodd" d="M83.603 580.202C87.459 579 93.3652 574.287 94.7329 569.215C95.9732 573.696 101.171 579 105.863 579.402C100.583 581.27 95.5351 586.826 94.7329 591.19C94.1878 586.742 87.2043 580.849 83.603 580.202Z" fill="#EBECEE"/>
<path id="Fill 30" fill-rule="evenodd" clip-rule="evenodd" d="M155.16 162.877C155.16 168.441 150.653 172.947 145.093 172.947C139.53 172.947 135.025 168.441 135.025 162.877C135.025 157.316 139.53 152.807 145.093 152.807C150.653 152.807 155.16 157.316 155.16 162.877Z" fill="#D1D8DF"/>
<path id="Fill 32" fill-rule="evenodd" clip-rule="evenodd" d="M827.446 189.918C827.446 199.214 819.909 206.749 810.618 206.749C801.322 206.749 793.789 199.214 793.789 189.918C793.789 180.622 801.322 173.086 810.618 173.086C819.909 173.086 827.446 180.622 827.446 189.918Z" fill="#EBECEE"/>
<path id="Fill 34" fill-rule="evenodd" clip-rule="evenodd" d="M1060.53 144.315C1060.53 151.69 1054.55 157.666 1047.18 157.666C1039.81 157.666 1033.84 151.69 1033.84 144.315C1033.84 136.939 1039.81 130.963 1047.18 130.963C1054.55 130.963 1060.53 136.939 1060.53 144.315Z" fill="#EBECEE"/>
<path id="Stroke 36" fill-rule="evenodd" clip-rule="evenodd" d="M343.319 767.889C343.319 772.538 339.552 776.306 334.904 776.306C330.259 776.306 326.492 772.538 326.492 767.889C326.492 763.239 330.259 759.472 334.904 759.472C339.552 759.472 343.319 763.239 343.319 767.889Z" stroke="#D2D8DF" stroke-width="2.921" stroke-linecap="round"/>
<path id="Stroke 38" fill-rule="evenodd" clip-rule="evenodd" d="M338.313 98.1808C338.313 103.745 333.805 108.251 328.245 108.251C322.685 108.251 318.177 103.745 318.177 98.1808C318.177 92.6195 322.685 88.1104 328.245 88.1104C333.805 88.1104 338.313 92.6195 338.313 98.1808Z" stroke="#D2D8DF" stroke-width="2.921" stroke-linecap="round"/>
<path id="Stroke 40" fill-rule="evenodd" clip-rule="evenodd" d="M595.121 861.094C588.688 863.543 581.488 860.31 579.04 853.877C576.593 847.442 579.822 840.238 586.258 837.792C592.689 835.344 599.889 838.574 602.337 845.009C604.787 851.444 601.555 858.646 595.121 861.094Z" stroke="#D2D8DF" stroke-width="2.921" stroke-linecap="round"/>
</g>
</g>
<g id="search">
<g id="documents">
<path id="Fill 1" fill-rule="evenodd" clip-rule="evenodd" d="M591.286 623.086H345.272C327.957 623.086 313.783 608.87 313.783 591.496V240.668C313.783 223.294 327.957 209.086 345.272 209.086H591.286C608.609 209.086 622.783 223.294 622.783 240.668V591.496C622.783 608.87 608.609 623.086 591.286 623.086Z" fill="#E0E2EE"/>
<path id="Fill 3" fill-rule="evenodd" clip-rule="evenodd" d="M570.286 638.086H324.272C306.957 638.086 292.783 623.87 292.783 606.496V255.668C292.783 238.294 306.957 224.086 324.272 224.086H570.286C587.609 224.086 601.783 238.294 601.783 255.668V606.496C601.783 623.87 587.609 638.086 570.286 638.086Z" fill="#E8EBF2"/>
<path id="Fill 5" fill-rule="evenodd" clip-rule="evenodd" d="M549.86 649.927H303.337C285.986 649.927 271.783 635.771 271.783 618.469V269.093C271.783 251.791 285.986 237.642 303.337 237.642H549.86C567.218 237.642 581.421 251.791 581.421 269.093V618.469C581.421 635.771 567.218 649.927 549.86 649.927Z" fill="#D8DBEA"/>
<path id="Fill 8" fill-rule="evenodd" clip-rule="evenodd" d="M549.86 649.927H303.337C285.986 649.927 271.783 635.771 271.783 618.469V269.093C271.783 251.791 285.986 237.642 303.337 237.642H549.86C567.218 237.642 581.421 251.791 581.421 269.093V618.469C581.421 635.771 567.218 649.927 549.86 649.927Z" fill="#F1F2F7"/>
<path id="Fill 11" fill-rule="evenodd" clip-rule="evenodd" d="M514.326 344.086H332.239C327.039 344.086 322.783 340.036 322.783 335.089C322.783 330.135 327.039 326.086 332.239 326.086H514.326C519.526 326.086 523.783 330.135 523.783 335.089C523.783 340.036 519.526 344.086 514.326 344.086Z" fill="#E0E2EE"/>
<path id="Fill 13" fill-rule="evenodd" clip-rule="evenodd" d="M514.326 398.086H332.239C327.039 398.086 322.783 394.036 322.783 389.089C322.783 384.135 327.039 380.086 332.239 380.086H514.326C519.526 380.086 523.783 384.135 523.783 389.089C523.783 394.036 519.526 398.086 514.326 398.086Z" fill="#E0E2EE"/>
<path id="Fill 15" fill-rule="evenodd" clip-rule="evenodd" d="M514.326 452.086H332.239C327.039 452.086 322.783 448.036 322.783 443.089C322.783 438.142 327.039 434.086 332.239 434.086H514.326C519.526 434.086 523.783 438.142 523.783 443.089C523.783 448.036 519.526 452.086 514.326 452.086Z" fill="#E0E2EE"/>
<path id="Fill 17" fill-rule="evenodd" clip-rule="evenodd" d="M514.326 506.086H332.239C327.039 506.086 322.783 502.036 322.783 497.089C322.783 492.135 327.039 488.086 332.239 488.086H514.326C519.526 488.086 523.783 492.135 523.783 497.089C523.783 502.036 519.526 506.086 514.326 506.086Z" fill="#E0E2EE"/>
<path id="Fill 19" fill-rule="evenodd" clip-rule="evenodd" d="M427.286 560.086H332.28C327.057 560.086 322.783 556.036 322.783 551.089C322.783 546.135 327.057 542.086 332.28 542.086H427.286C432.508 542.086 436.783 546.135 436.783 551.089C436.783 556.036 432.508 560.086 427.286 560.086Z" fill="#E0E2EE"/>
</g>
<g id="search_2">
<path id="Fill 21" fill-rule="evenodd" clip-rule="evenodd" d="M619.048 490.296C582.637 526.7 526.27 530.807 485.348 502.701C480.118 499.044 475.14 494.937 470.498 490.296C468.109 487.915 465.856 485.457 463.734 482.869C459.489 477.701 455.771 472.19 452.725 466.495C447.357 456.877 443.708 446.671 441.715 436.122C435.287 403.038 444.899 367.428 470.498 341.841C496.159 316.177 531.775 306.628 564.864 312.994C575.407 315.048 585.623 318.696 595.242 324.002C600.946 327.116 606.382 330.834 611.558 335.078C614.138 337.192 616.597 339.452 618.979 341.841C623.628 346.482 627.797 351.452 631.385 356.688C659.504 397.596 655.389 453.961 619.048 490.296Z" fill="white" fill-opacity="0.1"/>
<path id="Fill 23" fill-rule="evenodd" clip-rule="evenodd" d="M608.859 483.126C570.979 521.013 509.592 521.006 471.705 483.126C433.868 445.289 433.868 383.895 471.755 346.015C509.592 308.177 570.979 308.177 608.817 346.015C646.697 383.895 646.697 445.289 608.859 483.126ZM628.3 326.552C579.678 277.93 500.887 277.93 452.265 326.552C403.65 375.167 403.608 454.007 452.223 502.629C496.475 546.867 565.834 550.857 614.618 514.535C619.383 510.982 623.972 507 628.349 502.629C632.719 498.252 636.702 493.663 640.247 488.898C676.569 440.107 672.544 370.797 628.3 326.552Z" fill="#CCD3D9"/>
<path id="Fill 25" fill-rule="evenodd" clip-rule="evenodd" d="M819.649 685.911L817.608 687.952C804.103 701.464 781.989 701.464 768.477 687.952L643.783 563.258L694.955 512.086L819.649 636.78C833.161 650.292 833.161 672.399 819.649 685.911Z" fill="url(#paint0_linear_277_12993)"/>
<path id="Fill 27" fill-rule="evenodd" clip-rule="evenodd" d="M642.935 485.086L679.783 521.934L653.623 548.086L616.783 511.238C621.645 507.613 626.32 503.549 630.794 499.09C635.253 494.631 639.317 489.948 642.935 485.086Z" fill="#CCD3D9"/>
<path id="Fill 29" fill-rule="evenodd" clip-rule="evenodd" d="M817.783 635.247L766.937 686.086L757.783 676.925L808.622 626.086L817.783 635.247Z" fill="#003B5C"/>
<path id="Fill 31" fill-rule="evenodd" clip-rule="evenodd" d="M697.783 513.846L645.544 566.086L637.783 558.325L690.021 506.086L697.783 513.846Z" fill="#003B5C"/>
<path id="Fill 33" fill-rule="evenodd" clip-rule="evenodd" d="M583.783 332.982L455.672 461.086C450.848 452.439 447.567 443.264 445.783 433.78L556.475 323.086C565.953 324.939 575.135 328.212 583.783 332.982Z" fill="white" fill-opacity="0.5"/>
<path id="Fill 35" fill-rule="evenodd" clip-rule="evenodd" d="M625.783 363.431L487.281 494.086C482.321 490.821 477.6 487.146 473.198 482.993C470.932 480.854 468.788 478.662 466.783 476.346L606.971 344.086C609.426 345.985 611.757 348.007 614.016 350.145C618.419 354.298 622.38 358.745 625.783 363.431Z" fill="white" fill-opacity="0.5"/>
</g>
</g>
</g>
<defs>
<linearGradient id="paint0_linear_277_12993" x1="736.783" y1="419.086" x2="550.783" y2="605.086" gradientUnits="userSpaceOnUse">
<stop stop-color="#60C0C3"/>
<stop offset="1" stop-color="#6088C3"/>
</linearGradient>
</defs>
</svg>
