<svg width="80" height="81" viewBox="0 0 80 81" fill="none" xmlns="http://www.w3.org/2000/svg">
<rect y="0.5" width="80" height="80" rx="40" fill="#F5BD0B" fill-opacity="0.15"/>
<path d="M40 21C36.1433 21 32.3731 22.1437 29.1664 24.2863C25.9596 26.429 23.4603 29.4745 21.9844 33.0377C20.5084 36.6008 20.1223 40.5216 20.8747 44.3043C21.6271 48.0869 23.4843 51.5615 26.2114 54.2886C28.9386 57.0157 32.4131 58.8729 36.1957 59.6253C39.9784 60.3777 43.8992 59.9916 47.4623 58.5156C51.0255 57.0397 54.071 54.5404 56.2137 51.3336C58.3564 48.1269 59.5 44.3567 59.5 40.5C59.4901 35.3313 57.4325 30.3772 53.7776 26.7224C50.1228 23.0676 45.1687 21.0099 40 21ZM38.5 31.5C38.5 31.1022 38.658 30.7206 38.9393 30.4393C39.2207 30.158 39.6022 30 40 30C40.3978 30 40.7794 30.158 41.0607 30.4393C41.342 30.7206 41.5 31.1022 41.5 31.5V42C41.5 42.3978 41.342 42.7794 41.0607 43.0607C40.7794 43.342 40.3978 43.5 40 43.5C39.6022 43.5 39.2207 43.342 38.9393 43.0607C38.658 42.7794 38.5 42.3978 38.5 42V31.5ZM40 51C39.555 51 39.12 50.868 38.75 50.6208C38.38 50.3736 38.0916 50.0222 37.9213 49.611C37.751 49.1999 37.7064 48.7475 37.7932 48.311C37.8801 47.8746 38.0944 47.4737 38.409 47.159C38.7237 46.8443 39.1246 46.63 39.5611 46.5432C39.9975 46.4564 40.4499 46.501 40.861 46.6713C41.2722 46.8416 41.6236 47.13 41.8708 47.5C42.118 47.87 42.25 48.305 42.25 48.75C42.25 49.3467 42.013 49.919 41.591 50.341C41.169 50.7629 40.5967 51 40 51Z" fill="#F5BD0B"/>
</svg>
