<svg width="33" height="33" viewBox="0 0 33 33" fill="none" xmlns="http://www.w3.org/2000/svg">
<path d="M17.05 24.3375L23.35 28.3375C24.1625 28.85 25.1625 28.0875 24.925 27.15L23.1 19.975C23.0506 19.7762 23.0585 19.5674 23.1226 19.3728C23.1868 19.1781 23.3046 19.0056 23.4625 18.875L29.1125 14.1625C29.85 13.55 29.475 12.3125 28.5125 12.25L21.1375 11.775C20.9363 11.7633 20.7428 11.6933 20.5808 11.5734C20.4187 11.4535 20.2951 11.289 20.225 11.1L17.475 4.17503C17.4022 3.97491 17.2696 3.80204 17.0952 3.67988C16.9207 3.55772 16.7129 3.49219 16.5 3.49219C16.287 3.49219 16.0793 3.55772 15.9048 3.67988C15.7304 3.80204 15.5978 3.97491 15.525 4.17503L12.775 11.1C12.7049 11.289 12.5813 11.4535 12.4192 11.5734C12.2572 11.6933 12.0637 11.7633 11.8625 11.775L4.48749 12.25C3.52499 12.3125 3.14999 13.55 3.88749 14.1625L9.5375 18.875C9.69541 19.0056 9.81323 19.1781 9.87736 19.3728C9.9415 19.5674 9.94934 19.7762 9.89999 19.975L8.21249 26.625C7.92499 27.75 9.12499 28.6625 10.0875 28.05L15.95 24.3375C16.1144 24.233 16.3052 24.1775 16.5 24.1775C16.6948 24.1775 16.8856 24.233 17.05 24.3375V24.3375Z" stroke="#383E45" stroke-width="1.5" stroke-linecap="round" stroke-linejoin="round"/>
</svg>
