<svg width="21" height="20" viewBox="0 0 21 20" fill="none" xmlns="http://www.w3.org/2000/svg">
<path d="M10.6667 16.875C14.4636 16.875 17.5417 13.797 17.5417 10C17.5417 6.20304 14.4636 3.125 10.6667 3.125C6.86973 3.125 3.79169 6.20304 3.79169 10C3.79169 13.797 6.86973 16.875 10.6667 16.875Z" stroke="#318FAD" stroke-width="1.5" stroke-linecap="round" stroke-linejoin="round"/>
<path d="M10.6667 1.5625V4.6875" stroke="#318FAD" stroke-width="1.5" stroke-linecap="round" stroke-linejoin="round"/>
<path d="M2.22919 10H5.35419" stroke="#318FAD" stroke-width="1.5" stroke-linecap="round" stroke-linejoin="round"/>
<path d="M10.6667 18.4375V15.3125" stroke="#318FAD" stroke-width="1.5" stroke-linecap="round" stroke-linejoin="round"/>
<path d="M19.1042 10H15.9792" stroke="#318FAD" stroke-width="1.5" stroke-linecap="round" stroke-linejoin="round"/>
<path d="M10.6667 12.5C12.0474 12.5 13.1667 11.3807 13.1667 10C13.1667 8.61929 12.0474 7.5 10.6667 7.5C9.28598 7.5 8.16669 8.61929 8.16669 10C8.16669 11.3807 9.28598 12.5 10.6667 12.5Z" stroke="#318FAD" stroke-width="1.5" stroke-linecap="round" stroke-linejoin="round"/>
</svg>
