<svg width="20" height="20" viewBox="0 0 20 20" fill="none" xmlns="http://www.w3.org/2000/svg">
<path d="M3.54709 13.8281C2.61653 12.2581 2.29103 10.4025 2.6317 8.60949C2.97237 6.81652 3.95578 5.20954 5.39731 4.09025C6.83883 2.97096 8.63934 2.41633 10.4608 2.53049C12.2823 2.64464 13.9995 3.41972 15.29 4.71023C16.5805 6.00073 17.3556 7.71791 17.4697 9.53939C17.5839 11.3609 17.0292 13.1614 15.91 14.6029C14.7907 16.0444 13.1837 17.0278 11.3907 17.3685C9.59775 17.7092 7.74208 17.3837 6.17209 16.4531V16.4531L3.57834 17.1875C3.47207 17.2186 3.3594 17.2205 3.25213 17.1931C3.14487 17.1656 3.04696 17.1098 2.96866 17.0315C2.89037 16.9533 2.83459 16.8553 2.80715 16.7481C2.77971 16.6408 2.78163 16.5281 2.81271 16.4219L3.54709 13.8281Z" stroke="#60C0C3" stroke-linecap="round" stroke-linejoin="round"/>
<path d="M11.8828 14.375C11.0605 14.377 10.2458 14.2166 9.48563 13.9028C8.72547 13.5891 8.0348 13.1282 7.45329 12.5467C6.87179 11.9652 6.41092 11.2745 6.09717 10.5144C5.78341 9.75421 5.62296 8.93954 5.62502 8.11717C5.62709 7.53837 5.85847 6.98397 6.26848 6.57543C6.67849 6.16688 7.23371 5.93748 7.81252 5.93749V5.93749C7.90802 5.93672 8.00195 5.96172 8.08444 6.00984C8.16693 6.05796 8.23493 6.12742 8.28127 6.21092L9.19533 7.80467C9.24969 7.90156 9.27759 8.01104 9.27621 8.12213C9.27484 8.23321 9.24425 8.34197 9.18752 8.43749L8.45314 9.66405C8.8293 10.5008 9.49917 11.1707 10.336 11.5469L11.5625 10.8125C11.658 10.7558 11.7668 10.7252 11.8779 10.7238C11.989 10.7224 12.0984 10.7503 12.1953 10.8047L13.7891 11.7187C13.8726 11.7651 13.9421 11.8331 13.9902 11.9156C14.0383 11.9981 14.0633 12.092 14.0625 12.1875C14.0605 12.7657 13.8304 13.3197 13.4223 13.7293C13.0142 14.1388 12.461 14.3709 11.8828 14.375V14.375Z" stroke="#60C0C3" stroke-linecap="round" stroke-linejoin="round"/>
</svg>
